<svg width="48" height="48" viewBox="0 0 48 48" fill="none" xmlns="http://www.w3.org/2000/svg">
<g clip-path="url(#clip0)">
<path d="M35.9997 29.6471C30.9317 29.6471 26.8232 33.7555 26.8232 38.8236C26.8232 43.8916 30.9317 48.0001 35.9997 48.0001C41.0678 48.0001 45.1762 43.8916 45.1762 38.8236C45.1762 33.7555 41.0678 29.6471 35.9997 29.6471ZM35.0015 42.8166L31.0084 38.8236L33.0049 36.8271L35.0014 38.8236L38.9945 34.8305L40.991 36.8271L35.0015 42.8166Z" fill="#F6B206"/>
<path d="M23.9997 38.8235C23.9997 31.9662 29.7806 26.4409 36.7056 26.8449V5C36.7056 2.23857 34.4791 0 31.7176 0C25.296 0 14.2296 0 7.81122 0C5.04979 0 2.82324 2.23858 2.82324 5V43C2.82324 45.7614 5.06182 48 7.82324 48H28.2765C25.6631 45.7971 23.9997 42.5011 23.9997 38.8235ZM11.2938 28.2353H8.4703V25.4118H11.2938V28.2353ZM11.2938 22.5882H8.4703V19.7647H11.2938V22.5882ZM11.2938 16.9412H8.4703V14.1176H11.2938V16.9412ZM11.2938 11.2941H8.4703V8.47059H11.2938V11.2941ZM14.1174 8.47059H31.0585V11.2941C30.1849 11.2941 14.9906 11.2941 14.1174 11.2941C14.1174 10.3066 14.1174 9.45807 14.1174 8.47059ZM14.1174 14.1176H31.0585V16.9412C30.1849 16.9412 14.9906 16.9412 14.1174 16.9412C14.1174 15.9537 14.1174 15.1051 14.1174 14.1176ZM14.1174 19.7647H31.0585V22.5882C30.1849 22.5882 14.9906 22.5882 14.1174 22.5882C14.1174 21.6007 14.1174 20.7522 14.1174 19.7647ZM22.5879 28.2353C21.7524 28.2353 14.9441 28.2353 14.1174 28.2353C14.1174 27.2478 14.1174 26.3992 14.1174 25.4118H22.5879V28.2353Z" fill="white"/>
</g>
<defs>
<clipPath id="clip0">
<rect width="48" height="48" fill="white"/>
</clipPath>
</defs>
</svg>
