<svg width="48" height="48" viewBox="0 0 48 48" fill="none" xmlns="http://www.w3.org/2000/svg">
<g clip-path="url(#clip0)">
<path d="M4.06201 17.0898H43.9383V21.3623H4.06201V17.0898Z" fill="white"/>
<path d="M4.06201 27.8004L19.7277 38.7636V48L28.2726 45.6264V38.7636L43.9383 27.8004V24.2106H4.06201V27.8004Z" fill="white"/>
<path d="M30.1289 9.58027C29.478 8.9469 28.7387 8.42937 27.939 8.03345C28.5935 7.18997 28.9845 6.1324 28.9845 4.98453C28.9845 2.23601 26.7484 0 24 0C21.2515 0 19.0155 2.23601 19.0155 4.98453C19.0155 6.1324 19.4065 7.18997 20.0609 8.03355C19.2612 8.42937 18.5221 8.9469 17.871 9.58027C16.5648 10.8511 15.7255 12.4711 15.4316 14.2415H32.5684C32.2744 12.4712 31.4351 10.8511 30.1289 9.58027Z" fill="#F6B206"/>
</g>
<defs>
<clipPath id="clip0">
<rect width="48" height="48" fill="white"/>
</clipPath>
</defs>
</svg>
