<svg width="56" height="56" viewBox="0 0 56 56" fill="none" xmlns="http://www.w3.org/2000/svg">
<path d="M46.6214 13.9772C46.0152 13.9953 45.4398 14.2486 45.0172 14.6836L21.0003 38.7005L13.3167 31.0169C13.1017 30.793 12.8442 30.6142 12.5592 30.491C12.2742 30.3679 11.9675 30.3028 11.6571 30.2996C11.3467 30.2965 11.0387 30.3553 10.7513 30.4726C10.4639 30.59 10.2028 30.7635 9.98329 30.983C9.76377 31.2025 9.59026 31.4636 9.47292 31.7511C9.35558 32.0385 9.29677 32.3464 9.29993 32.6568C9.30308 32.9673 9.36815 33.2739 9.49132 33.5589C9.61448 33.8439 9.79327 34.1014 10.0172 34.3164L19.3505 43.6497C19.7881 44.0872 20.3815 44.3329 21.0003 44.3329C21.619 44.3329 22.2124 44.0872 22.65 43.6497L48.3167 17.9831C48.6539 17.6553 48.8841 17.2334 48.9774 16.7725C49.0706 16.3116 49.0225 15.8333 48.8392 15.4003C48.6559 14.9672 48.3461 14.5997 47.9504 14.3457C47.5546 14.0918 47.0914 13.9633 46.6214 13.9772Z" fill="white"/>
</svg>
