<svg width="40" height="40" viewBox="0 0 40 40" fill="none" xmlns="http://www.w3.org/2000/svg">
<path d="M33.3007 9.98363C32.8677 9.99654 32.4568 10.1775 32.1549 10.4882L15 27.6431L9.51169 22.1549C9.35811 21.9949 9.17416 21.8672 8.97061 21.7792C8.76707 21.6912 8.54801 21.6448 8.32628 21.6425C8.10454 21.6403 7.88459 21.6823 7.67929 21.7661C7.474 21.8499 7.28749 21.9738 7.13069 22.1306C6.97389 22.2874 6.84996 22.4739 6.76614 22.6792C6.68233 22.8845 6.64032 23.1045 6.64257 23.3262C6.64483 23.548 6.6913 23.767 6.77928 23.9706C6.86725 24.1741 6.99496 24.3581 7.15492 24.5116L13.8216 31.1783C14.1342 31.4907 14.558 31.6663 15 31.6663C15.4419 31.6663 15.8658 31.4907 16.1784 31.1783L34.5117 12.845C34.7525 12.6109 34.917 12.3095 34.9836 11.9803C35.0502 11.6511 35.0158 11.3094 34.8849 11.0001C34.754 10.6908 34.5327 10.4282 34.25 10.2469C33.9674 10.0655 33.6365 9.97373 33.3007 9.98363Z" fill="black"/>
</svg>
