<svg width="48" height="48" viewBox="0 0 48 48" fill="none" xmlns="http://www.w3.org/2000/svg">
<g clip-path="url(#clip0)">
<path d="M13.267 12.5066H10.6641C10.5795 12.5066 10.4958 12.5106 10.4126 12.5163C12.1783 6.97924 17.6862 2.81383 23.9999 2.81383C30.3301 2.81383 35.8505 7.0009 37.6011 12.5594C37.5133 12.5531 37.425 12.5487 37.3356 12.5487H34.7549C35.6235 14.2181 36.1152 16.1134 36.1152 18.1216C36.1152 20.1468 35.6149 22.0571 34.7327 23.7366H37.3356C39.3521 23.7366 40.9926 22.0961 40.9926 20.0796V16.2058C40.9926 16.1746 40.9911 16.1438 40.9903 16.1128C40.9406 11.8508 39.1164 7.81832 35.8385 4.74083C32.6296 1.72788 28.3146 0 23.9999 0C19.6853 0 15.3704 1.72788 12.1614 4.74074C8.90588 7.79722 7.08421 11.7954 7.01077 16.025C7.00898 16.0711 7.0072 16.1171 7.0072 16.1637V20.0796C7.0072 22.0961 8.64767 23.7366 10.6641 23.7366H13.267C12.3848 22.0571 11.8846 20.1468 11.8846 18.1216C11.8846 16.0964 12.3848 14.1861 13.267 12.5066Z" fill="#ACB1BF"/>
<path d="M23.9999 8.82019C18.871 8.82019 14.6984 12.9928 14.6984 18.1216C14.6984 23.2504 18.871 27.4231 23.9999 27.4231C25.5551 27.4231 27.0221 27.0388 28.3118 26.3611H24.9661V23.5473H31.5503C32.6515 22.0191 33.3013 20.1449 33.3013 18.1216C33.3013 12.9928 29.1287 8.82019 23.9999 8.82019Z" fill="#ACB1BF"/>
<path d="M41.7271 41.914C41.7271 35.2943 36.3416 29.9088 29.722 29.9088H29.3963L25.4069 36.0907V48H41.7271V41.914ZM34.3801 42.1324H29.8154V39.3185H34.3801V42.1324Z" fill="#E20613"/>
<path d="M18.6036 29.9088H18.2779C11.6583 29.9088 6.27283 35.2943 6.27283 41.914V48H22.593V36.0907L18.6036 29.9088Z" fill="#E20613"/>
</g>
<defs>
<clipPath id="clip0">
<rect width="48" height="48" fill="white"/>
</clipPath>
</defs>
</svg>
