<svg width="847" height="453" viewBox="0 0 847 453" fill="none" xmlns="http://www.w3.org/2000/svg">
<g clip-path="url(#clip0)">
<rect width="847" height="453" fill="white"/>
<path d="M-379 49C-379 -6.22848 -334.228 -51 -279 -51H1122C1177.23 -51 1222 -6.22847 1222 49V613H-379V49Z" fill="#F1F2F5"/>
<path d="M426.619 339.997C426.619 338.996 427.422 337.995 428.627 337.995C429.832 337.995 430.635 338.796 430.635 339.997C430.635 340.999 429.832 342 428.828 342C428.828 342 428.828 342 428.627 342C427.623 341.8 426.819 340.999 426.619 339.997ZM414.57 341.8C413.566 341.8 412.562 340.798 412.562 339.797C412.562 338.596 413.566 337.795 414.57 337.795C415.775 337.795 416.578 338.796 416.578 339.797C416.779 340.999 415.775 341.8 414.57 341.8C414.771 341.8 414.771 341.8 414.57 341.8ZM440.675 338.796C440.474 337.795 441.278 336.793 442.482 336.593C443.487 336.393 444.491 337.194 444.691 338.195C444.892 339.196 444.089 340.198 442.884 340.398H442.683C441.679 340.598 440.876 339.797 440.675 338.796ZM400.513 340.398C399.309 340.198 398.706 339.196 398.706 338.195C398.907 337.194 399.911 336.393 400.915 336.593C402.12 336.793 402.722 337.795 402.722 338.796C402.522 339.797 401.718 340.598 400.714 340.598C400.714 340.398 400.714 340.398 400.513 340.398ZM454.33 336.393C454.129 335.392 454.732 334.19 455.736 333.99C456.74 333.79 457.945 334.39 458.146 335.392C458.346 336.393 457.744 337.594 456.74 337.795C456.539 337.795 456.338 337.795 456.338 337.795C455.535 337.995 454.732 337.394 454.33 336.393ZM386.658 337.795C385.654 337.594 384.85 336.393 385.252 335.392C385.453 334.39 386.658 333.589 387.662 333.99C388.666 334.19 389.469 335.392 389.067 336.393C388.867 337.394 388.063 337.995 387.059 337.995C386.858 337.795 386.858 337.795 386.658 337.795ZM467.985 332.788C467.584 331.787 468.186 330.586 469.19 330.185C470.194 329.785 471.399 330.385 471.801 331.387C472.202 332.388 471.6 333.589 470.596 333.99C470.395 333.99 470.194 334.19 469.993 334.19C468.989 333.99 468.186 333.589 467.985 332.788ZM373.003 333.79C371.999 333.389 371.396 332.188 371.798 331.186C372.199 330.185 373.404 329.584 374.408 329.985C375.412 330.385 376.015 331.587 375.613 332.588C375.412 333.389 374.609 333.99 373.605 333.99C373.404 333.99 373.204 333.79 373.003 333.79ZM481.038 327.782C480.636 326.781 481.038 325.579 482.042 325.179C483.046 324.778 484.251 325.179 484.652 326.18C485.054 327.181 484.652 328.383 483.648 328.783C483.447 328.984 483.046 328.984 482.845 328.984C482.042 328.984 481.239 328.383 481.038 327.782ZM359.95 328.583C358.946 328.183 358.544 326.981 358.946 325.98C359.348 324.979 360.553 324.578 361.557 324.979C362.561 325.379 362.962 326.581 362.561 327.582C362.159 328.383 361.557 328.783 360.753 328.783C360.352 328.583 360.151 328.583 359.95 328.583ZM493.488 321.574C492.885 320.573 493.287 319.371 494.291 318.771C495.295 318.17 496.5 318.57 497.102 319.572C497.705 320.573 497.303 321.774 496.299 322.375C495.898 322.576 495.697 322.576 495.295 322.576C494.492 322.576 493.89 322.175 493.488 321.574ZM347.299 321.975C346.295 321.374 346.094 320.172 346.496 319.171C347.098 318.17 348.303 317.97 349.307 318.37C350.311 318.971 350.512 320.172 350.111 321.174C349.709 321.774 349.106 322.175 348.303 322.175C347.902 322.175 347.701 322.175 347.299 321.975ZM505.336 314.165C504.733 313.164 504.934 311.962 505.737 311.361C506.741 310.761 507.946 310.961 508.549 311.762C509.151 312.763 508.95 313.965 508.147 314.565C507.745 314.766 507.344 314.966 506.942 314.966C506.34 314.966 505.737 314.766 505.336 314.165ZM335.451 314.365C334.447 313.764 334.447 312.563 335.05 311.562C335.652 310.56 337.058 310.56 337.861 311.161C338.865 311.762 338.865 312.963 338.263 313.965C337.861 314.565 337.259 314.766 336.656 314.766C336.054 314.766 335.652 314.565 335.451 314.365ZM516.38 305.754C515.577 304.953 515.778 303.752 516.581 302.951C517.384 302.15 518.589 302.35 519.392 303.151C520.195 303.952 519.995 305.354 519.191 305.955C518.79 306.355 518.388 306.355 517.786 306.355C517.384 306.355 516.982 306.155 516.38 305.754ZM324.206 305.554C323.403 304.753 323.202 303.552 324.005 302.751C324.809 301.95 326.013 301.749 326.817 302.55C327.62 303.351 327.821 304.553 327.018 305.354C326.616 305.754 326.013 305.955 325.411 305.955C325.21 306.155 324.608 305.955 324.206 305.554ZM526.822 296.142C526.019 295.341 526.019 294.14 526.822 293.339C527.625 292.538 528.83 292.538 529.633 293.339C530.437 294.14 530.437 295.341 529.633 296.142C529.232 296.543 528.629 296.743 528.228 296.743C527.625 296.743 527.224 296.543 526.822 296.142ZM313.965 295.742C313.162 294.941 313.162 293.739 313.965 292.938C314.768 292.137 315.973 292.137 316.776 292.938C317.58 293.739 317.58 294.941 316.776 295.742C316.375 296.142 315.973 296.342 315.371 296.342C314.969 296.342 314.367 296.142 313.965 295.742ZM536.059 285.729C535.256 285.128 535.055 283.727 535.658 282.926C536.26 282.125 537.666 281.924 538.469 282.525C539.272 283.126 539.473 284.528 538.871 285.329C538.469 285.729 537.867 286.13 537.264 286.13C536.863 286.33 536.461 286.13 536.059 285.729ZM304.728 285.128C303.925 284.327 304.125 282.926 305.129 282.325C305.933 281.724 307.338 281.724 307.941 282.725C308.543 283.526 308.543 284.928 307.539 285.529C307.137 285.729 306.736 285.929 306.334 285.929C305.732 285.929 305.129 285.529 304.728 285.128ZM544.292 274.515C543.288 273.914 543.088 272.713 543.69 271.711C544.292 270.71 545.497 270.51 546.501 271.111C547.505 271.711 547.706 272.913 547.104 273.914C546.702 274.515 546.1 274.915 545.497 274.915C545.096 274.915 544.694 274.915 544.292 274.515ZM296.495 273.514C295.892 272.512 296.093 271.311 297.097 270.71C298.101 270.109 299.306 270.31 299.908 271.311C300.511 272.312 300.31 273.514 299.306 274.114C298.904 274.315 298.503 274.515 298.302 274.515C297.499 274.515 296.896 274.114 296.495 273.514ZM551.522 262.7C550.518 262.3 550.116 260.898 550.718 260.097C551.321 259.096 552.526 258.695 553.53 259.296C554.534 259.696 554.935 261.098 554.333 262.099C553.931 262.7 553.329 263.101 552.526 263.101C552.124 262.9 551.923 262.7 551.522 262.7ZM289.466 261.298C288.864 260.297 289.266 259.095 290.27 258.695C291.274 258.094 292.478 258.495 292.88 259.496C293.482 260.497 293.081 261.699 292.077 262.3C291.876 262.5 291.474 262.5 291.073 262.5C290.47 262.5 289.868 262.099 289.466 261.298ZM557.546 250.084C556.542 249.684 555.939 248.482 556.341 247.481C556.743 246.48 557.947 245.879 558.951 246.279C559.956 246.68 560.558 247.881 560.156 248.883C559.755 249.684 559.152 250.084 558.349 250.084C558.148 250.284 557.747 250.084 557.546 250.084ZM283.643 248.482C283.241 247.481 283.643 246.279 284.848 245.879C285.852 245.478 287.057 245.879 287.458 247.08C287.86 248.082 287.458 249.283 286.253 249.684C286.053 249.684 285.852 249.884 285.45 249.884C284.647 249.684 283.844 249.283 283.643 248.482ZM562.365 236.868C561.361 236.467 560.759 235.466 560.96 234.464C561.361 233.463 562.365 232.862 563.369 233.063C564.373 233.463 564.976 234.464 564.775 235.466C564.574 236.267 563.771 236.868 562.767 236.868C562.767 237.068 562.566 237.068 562.365 236.868ZM279.024 235.065C278.623 234.064 279.426 232.862 280.43 232.662C281.434 232.262 282.639 233.063 282.84 234.064C283.241 235.065 282.639 236.267 281.434 236.467C281.233 236.467 281.032 236.467 280.832 236.467C280.028 236.467 279.225 236.066 279.024 235.065ZM565.779 223.451C564.775 223.25 563.972 222.249 564.173 221.048C564.373 220.046 565.377 219.245 566.582 219.446C567.586 219.646 568.39 220.647 568.189 221.849C567.988 222.85 567.185 223.451 566.181 223.451C566.181 223.451 565.98 223.451 565.779 223.451ZM275.611 221.448C275.41 220.447 276.012 219.245 277.217 219.045C278.221 218.845 279.426 219.446 279.627 220.647C279.827 221.648 279.024 222.85 278.02 223.05C277.819 223.05 277.819 223.05 277.619 223.05C276.615 223.05 275.811 222.249 275.611 221.448ZM567.988 209.633C566.783 209.433 565.98 208.632 566.181 207.43C566.381 206.429 567.185 205.428 568.39 205.628C569.594 205.828 570.398 206.629 570.197 207.831C570.197 208.832 569.193 209.633 567.988 209.633C568.189 209.633 568.189 209.633 567.988 209.633ZM273.602 207.43C273.602 206.229 274.205 205.428 275.41 205.228C276.615 205.228 277.418 206.029 277.619 207.03C277.619 208.031 276.815 209.032 275.811 209.233H275.611C274.606 209.233 273.803 208.432 273.602 207.43ZM566.984 193.813C566.984 193.613 566.984 193.613 566.984 193.813C566.984 193.613 566.984 193.613 566.984 193.413C566.984 192.211 567.988 191.41 568.992 191.41C569.996 191.41 571 192.211 571 193.413V193.613V193.813C571 194.815 569.996 195.816 568.992 195.816C567.787 195.816 566.984 194.815 566.984 193.813ZM273 193.212C273 192.011 274.004 191.21 275.008 191.21C276.213 191.21 277.016 192.011 277.016 193.212C277.016 194.214 276.213 195.215 275.008 195.215C274.004 195.215 273 194.414 273 193.212ZM566.381 179.595C566.181 178.594 566.984 177.593 568.189 177.393C569.193 177.393 570.197 178.194 570.398 179.195C570.598 180.396 569.795 181.197 568.59 181.398H568.39C567.185 181.598 566.381 180.797 566.381 179.595ZM275.41 181.398C274.406 181.197 273.402 180.396 273.602 179.195C273.602 178.194 274.606 177.393 275.811 177.393C276.815 177.593 277.619 178.394 277.619 179.595C277.619 180.597 276.615 181.398 275.611 181.398C275.611 181.398 275.611 181.398 275.41 181.398ZM564.373 165.978C564.173 164.977 564.775 163.775 565.98 163.575C566.984 163.375 568.189 163.976 568.39 165.177C568.59 166.178 567.787 167.38 566.783 167.58C566.582 167.58 566.582 167.58 566.381 167.58C565.377 167.78 564.574 166.979 564.373 165.978ZM277.217 167.58C276.213 167.38 275.41 166.379 275.611 165.177C275.811 164.176 276.815 163.375 278.02 163.575C279.024 163.775 279.827 164.777 279.627 165.978C279.426 166.979 278.623 167.58 277.619 167.58C277.619 167.58 277.418 167.58 277.217 167.58ZM561.16 152.762C560.759 151.76 561.361 150.559 562.566 150.358C563.57 149.958 564.775 150.559 564.976 151.76C565.177 152.762 564.574 153.963 563.57 154.163C563.369 154.163 563.168 154.163 562.968 154.163C562.164 154.163 561.361 153.563 561.16 152.762ZM280.43 153.963C279.426 153.563 278.823 152.561 279.024 151.56C279.225 150.559 280.43 149.958 281.434 150.158C282.438 150.559 283.04 151.56 282.84 152.561C282.639 153.362 281.836 153.963 280.832 153.963C280.832 153.963 280.631 153.963 280.43 153.963ZM556.542 139.745C556.14 138.744 556.542 137.542 557.546 137.142C558.55 136.741 559.755 137.142 560.156 138.343C560.558 139.345 560.156 140.546 559.152 140.947C558.952 140.947 558.751 141.147 558.349 141.147C557.747 140.947 556.943 140.546 556.542 139.745ZM284.848 140.746C283.844 140.346 283.241 139.144 283.643 138.143C284.044 137.142 285.249 136.541 286.253 136.942C287.257 137.342 287.86 138.544 287.458 139.545C287.057 140.346 286.454 140.746 285.651 140.746C285.249 140.746 285.049 140.746 284.848 140.746ZM550.919 127.129C550.518 126.128 550.718 124.926 551.722 124.526C552.726 124.125 553.931 124.326 554.333 125.327C554.735 126.328 554.534 127.53 553.53 128.13C553.128 128.331 552.927 128.331 552.526 128.331C551.923 128.331 551.321 127.93 550.919 127.129ZM290.47 127.93C289.466 127.329 289.065 126.128 289.667 125.127C290.27 124.125 291.474 123.725 292.278 124.326C293.282 124.926 293.683 126.128 293.081 127.129C292.679 127.73 292.077 128.13 291.274 128.13C291.073 128.13 290.671 128.13 290.47 127.93ZM543.891 115.314C543.288 114.313 543.489 113.112 544.493 112.511C545.497 111.91 546.702 112.11 547.305 113.112C547.907 114.113 547.706 115.314 546.702 115.915C546.301 116.115 545.899 116.115 545.698 116.115C544.895 116.115 544.292 115.915 543.891 115.314ZM297.298 115.715C296.294 115.114 296.093 113.913 296.695 112.911C297.298 111.91 298.503 111.71 299.507 112.311C300.511 112.911 300.712 114.113 300.109 115.114C299.708 115.715 299.105 116.115 298.503 116.115C298.101 116.115 297.699 115.915 297.298 115.715ZM535.859 104.1C535.256 103.299 535.256 101.897 536.26 101.297C537.063 100.696 538.469 100.696 539.071 101.697C539.674 102.498 539.674 103.9 538.67 104.501C538.268 104.701 537.867 104.901 537.465 104.901C536.863 104.901 536.26 104.501 535.859 104.1ZM305.33 104.3C304.527 103.499 304.326 102.298 304.929 101.497C305.531 100.696 306.937 100.496 307.74 101.096C308.543 101.697 308.744 103.099 308.142 103.9C307.74 104.3 307.137 104.701 306.535 104.701C306.133 104.701 305.732 104.501 305.33 104.3ZM526.822 93.6871C526.019 92.8861 526.019 91.6846 526.822 90.8836C527.625 90.0825 528.83 90.0825 529.633 90.8836C530.437 91.6846 530.437 92.8861 529.633 93.6871C529.232 94.0876 528.83 94.2878 528.228 94.2878C527.826 94.2878 527.224 94.0876 526.822 93.6871ZM314.367 93.6871C313.563 92.8861 313.563 91.6846 314.367 90.8836C315.17 90.0825 316.375 90.0825 317.178 90.8836C317.981 91.6846 317.981 92.8861 317.178 93.6871C316.776 94.0876 316.174 94.2878 315.772 94.2878C315.17 94.2878 314.768 94.0876 314.367 93.6871ZM516.983 84.2752C516.179 83.4742 515.978 82.2727 516.782 81.4717C517.585 80.6707 518.79 80.4704 519.593 81.2714C520.396 82.0725 520.597 83.274 519.794 84.075C519.392 84.4755 518.79 84.6757 518.187 84.6757C517.786 84.6757 517.384 84.4755 516.983 84.2752ZM324.407 83.8747C323.604 83.0737 323.805 81.8722 324.608 81.0712C325.411 80.2702 326.616 80.4704 327.419 81.2714C328.222 82.0725 328.022 83.274 327.218 84.075C326.817 84.4755 326.415 84.4755 325.813 84.4755C325.21 84.6757 324.809 84.2752 324.407 83.8747ZM506.139 75.6644C505.135 75.0636 504.934 73.6619 505.737 72.8608C506.34 71.8596 507.545 71.6593 508.549 72.4603C509.553 73.0611 509.553 74.2626 508.95 75.2639C508.549 75.8646 507.946 76.0649 507.344 76.0649C506.942 76.0649 506.34 75.8646 506.139 75.6644ZM335.251 75.0636C334.648 74.2626 334.849 72.8608 335.652 72.2601C336.656 71.6593 337.861 71.8596 338.464 72.6606C339.066 73.4616 338.865 74.8634 338.062 75.4641C337.66 75.6644 337.259 75.8646 336.857 75.8646C336.255 76.0649 335.652 75.6644 335.251 75.0636ZM494.492 68.255C493.488 67.6543 493.287 66.4528 493.689 65.4515C494.291 64.4502 495.496 64.25 496.5 64.6505C497.504 65.2513 497.705 66.4528 497.303 67.454C496.902 68.0548 496.299 68.4553 495.496 68.4553C495.094 68.4553 494.894 68.4553 494.492 68.255ZM346.898 67.454C346.295 66.4528 346.697 65.2513 347.701 64.6505C348.705 64.0497 349.91 64.4502 350.512 65.4515C351.115 66.4528 350.713 67.6543 349.709 68.255C349.307 68.4553 349.106 68.4553 348.705 68.4553C347.902 68.4553 347.299 68.0548 346.898 67.454ZM482.243 61.847C481.239 61.4465 480.837 60.245 481.239 59.2437C481.64 58.2424 482.845 57.8419 483.849 58.2424C484.853 58.6429 485.255 59.8444 484.853 60.8457C484.452 61.6467 483.849 62.0472 483.046 62.0472C482.845 62.0472 482.443 62.0472 482.243 61.847ZM359.147 60.8457C358.745 59.8444 359.147 58.6429 360.151 58.2424C361.155 57.8419 362.36 58.2424 362.761 59.2437C363.163 60.245 362.761 61.4465 361.757 61.847C361.557 62.0472 361.155 62.0472 360.954 62.0472C360.352 62.0472 359.549 61.6467 359.147 60.8457ZM469.391 56.8407C468.387 56.4402 467.784 55.2386 468.186 54.2374C468.588 53.2361 469.792 52.6354 470.797 53.0359C471.801 53.4364 472.403 54.6379 472.001 55.6391C471.801 56.4402 470.997 57.0409 470.194 57.0409C469.993 56.8407 469.592 56.8407 469.391 56.8407ZM372.199 55.4389C371.798 54.4376 372.4 53.2361 373.404 53.0359C374.408 52.6354 375.613 53.2361 376.015 54.2374C376.416 55.2386 375.814 56.4402 374.81 56.8407C374.609 56.8407 374.408 56.8407 374.208 56.8407C373.204 56.8407 372.4 56.2399 372.199 55.4389ZM456.137 52.8356C455.133 52.6354 454.33 51.4338 454.732 50.4326C454.933 49.4313 456.137 48.6303 457.142 49.0308C458.146 49.2311 458.949 50.4326 458.547 51.4338C458.346 52.4351 457.543 53.0359 456.539 53.0359C456.539 53.0359 456.338 53.0359 456.137 52.8356ZM385.453 51.4338C385.252 50.4326 385.854 49.2311 386.859 49.0308C387.863 48.8306 389.067 49.4313 389.268 50.4326C389.469 51.4338 388.867 52.6354 387.863 52.8356C387.662 52.8356 387.461 52.8356 387.461 52.8356C386.457 53.0359 385.654 52.2349 385.453 51.4338ZM442.683 50.4326C441.679 50.2323 440.876 49.2311 441.077 48.2298C441.278 47.0283 442.282 46.4275 443.286 46.4275C444.29 46.6278 445.093 47.6291 444.892 48.6303C444.691 49.6316 443.888 50.4326 442.884 50.4326C442.884 50.4326 442.884 50.4326 442.683 50.4326ZM399.108 48.6303C398.907 47.4288 399.71 46.4275 400.714 46.4275C401.919 46.2273 402.923 47.0283 402.923 48.0296C403.124 49.0308 402.321 50.2323 401.317 50.2323H401.116C400.112 50.2323 399.309 49.6316 399.108 48.6303ZM429.028 49.0308C428.024 49.0308 427.02 48.0296 427.02 46.828C427.02 45.8268 428.024 44.8255 429.229 45.0258C430.233 45.0258 431.237 46.027 431.036 47.0283C431.036 48.2298 430.032 49.0308 429.028 49.0308ZM413.164 47.0283C413.164 45.8268 413.968 45.0258 415.173 45.0258C416.177 45.0258 417.181 45.8268 417.181 46.828C417.181 48.0296 416.377 48.8306 415.173 48.8306C413.968 49.0308 413.164 48.2298 413.164 47.0283Z" fill="#E3E5EA"/>
<path d="M417.984 318.77C416.98 318.77 415.976 317.768 415.976 316.767C415.976 315.766 416.98 314.765 417.984 314.765C418.988 314.765 419.992 315.766 419.992 316.767C420.193 317.969 419.189 318.77 417.984 318.77C417.984 318.77 418.185 318.77 417.984 318.77ZM430.233 316.567C430.233 315.566 431.036 314.564 432.04 314.364C433.044 314.364 434.049 315.165 434.249 316.166C434.249 317.368 433.446 318.169 432.442 318.369H432.241C431.237 318.369 430.434 317.568 430.233 316.567ZM403.726 317.568C402.722 317.368 401.919 316.367 402.12 315.365C402.321 314.364 403.325 313.563 404.329 313.563C405.333 313.763 406.136 314.765 405.935 315.766C405.735 316.767 404.931 317.568 403.927 317.568C403.927 317.568 403.927 317.568 403.726 317.568ZM444.29 314.765C444.089 313.763 444.691 312.562 445.896 312.362C446.9 312.161 448.105 312.762 448.306 313.964C448.507 314.965 447.904 316.166 446.699 316.367C446.499 316.367 446.499 316.367 446.298 316.367C445.294 316.367 444.491 315.766 444.29 314.765ZM389.67 314.765C388.666 314.364 388.063 313.363 388.264 312.362C388.465 311.36 389.67 310.559 390.674 310.96C391.678 311.16 392.28 312.362 392.08 313.363C391.879 314.364 391.075 314.765 390.071 314.765C390.071 314.765 389.871 314.765 389.67 314.765ZM457.945 311.561C457.543 310.559 458.146 309.358 459.35 308.957C460.354 308.557 461.559 309.158 461.961 310.159C462.363 311.16 461.76 312.362 460.756 312.762C460.555 312.762 460.354 312.962 460.154 312.962C459.15 312.962 458.346 312.362 457.945 311.561ZM376.015 310.159C375.011 309.758 374.408 308.557 374.81 307.556C375.212 306.554 376.416 305.954 377.421 306.354C378.425 306.755 379.027 307.956 378.625 308.957C378.425 309.758 377.621 310.159 376.818 310.159C376.617 310.359 376.416 310.359 376.015 310.159ZM471.198 306.755C470.797 305.753 471.198 304.552 472.202 304.151C473.206 303.751 474.411 304.151 474.813 305.153C475.214 306.154 474.813 307.355 473.809 307.756C473.608 307.956 473.206 307.956 473.005 307.956C472.403 307.756 471.6 307.355 471.198 306.755ZM362.962 304.151C361.958 303.551 361.557 302.349 362.159 301.548C362.761 300.547 363.966 300.146 364.97 300.747C365.974 301.348 366.376 302.549 365.774 303.35C365.372 303.951 364.77 304.352 363.966 304.352C363.766 304.552 363.364 304.352 362.962 304.151ZM483.849 300.347C483.247 299.345 483.648 298.144 484.452 297.543C485.456 296.942 486.66 297.343 487.263 298.144C487.865 299.145 487.464 300.347 486.66 300.947C486.259 301.148 486.058 301.148 485.656 301.148C484.853 301.348 484.251 300.947 483.849 300.347ZM350.713 296.742C349.709 296.141 349.508 294.94 350.111 293.938C350.713 292.937 351.918 292.737 352.922 293.338C353.926 293.938 354.127 295.14 353.524 296.141C353.123 296.742 352.52 296.942 351.918 296.942C351.516 297.142 351.115 297.142 350.713 296.742ZM495.697 292.537C495.094 291.736 495.094 290.334 496.098 289.733C496.902 289.132 498.307 289.333 498.91 290.134C499.512 290.935 499.512 292.336 498.508 292.937C498.107 293.137 497.705 293.338 497.303 293.338C496.701 293.338 496.098 293.137 495.697 292.537ZM339.468 288.131C338.664 287.33 338.464 286.129 339.267 285.328C340.07 284.527 341.275 284.326 342.078 285.127C342.881 285.928 343.082 287.13 342.279 287.931C341.877 288.331 341.275 288.532 340.673 288.532C340.271 288.532 339.869 288.331 339.468 288.131ZM506.54 283.525C505.737 282.724 505.737 281.523 506.54 280.722C507.344 279.921 508.549 279.921 509.352 280.722C510.155 281.523 510.155 282.724 509.352 283.525C508.95 283.926 508.549 284.126 507.946 284.126C507.545 284.126 506.942 283.926 506.54 283.525ZM329.226 278.119C328.423 277.318 328.423 276.116 329.427 275.315C330.23 274.514 331.435 274.514 332.239 275.515C333.042 276.316 332.841 277.518 332.038 278.319C331.636 278.719 331.235 278.92 330.632 278.92C330.03 278.719 329.628 278.519 329.226 278.119ZM516.38 273.312C515.577 272.712 515.376 271.31 516.179 270.509C516.782 269.708 518.187 269.508 518.991 270.309C519.794 271.11 519.995 272.311 519.191 273.112C518.79 273.513 518.187 273.913 517.585 273.913C517.183 273.713 516.581 273.713 516.38 273.312ZM320.19 266.904C319.588 265.903 319.788 264.702 320.592 264.101C321.596 263.5 322.801 263.7 323.403 264.501C324.005 265.503 323.805 266.704 323.001 267.305C322.6 267.505 322.198 267.705 321.797 267.705C321.194 267.705 320.391 267.505 320.19 266.904ZM524.814 262.098C523.81 261.498 523.609 260.296 524.212 259.295C524.814 258.294 526.019 258.093 527.023 258.694C528.027 259.295 528.228 260.496 527.625 261.498C527.224 262.098 526.621 262.499 526.019 262.499C525.617 262.499 525.216 262.299 524.814 262.098ZM312.359 254.889C311.756 253.888 312.158 252.686 313.162 252.086C314.166 251.485 315.371 251.885 315.973 252.887C316.575 253.888 316.174 255.089 315.17 255.69C314.768 255.891 314.567 255.891 314.166 255.891C313.363 255.891 312.76 255.49 312.359 254.889ZM532.043 250.083C531.039 249.683 530.638 248.281 531.039 247.48C531.441 246.479 532.646 246.078 533.65 246.679C534.654 247.079 535.055 248.281 534.654 249.282C534.252 249.883 533.65 250.283 532.846 250.283C532.646 250.283 532.244 250.083 532.043 250.083ZM305.933 242.073C305.531 241.072 305.933 239.87 306.937 239.47C307.941 239.069 309.146 239.47 309.547 240.471C309.949 241.472 309.547 242.674 308.543 243.074C308.342 243.275 308.142 243.275 307.941 243.275C307.137 243.275 306.334 242.874 305.933 242.073ZM537.666 237.067C536.662 236.666 536.059 235.465 536.461 234.464C536.863 233.462 538.067 232.861 539.071 233.262C540.076 233.663 540.678 234.864 540.276 235.865C540.076 236.666 539.272 237.267 538.469 237.267C538.268 237.267 538.067 237.267 537.666 237.067ZM301.314 228.456C300.912 227.455 301.515 226.253 302.72 226.053C303.724 225.652 304.929 226.253 305.129 227.455C305.33 228.456 304.728 229.657 303.724 229.858C303.523 229.858 303.322 229.858 303.121 229.858C302.318 230.058 301.515 229.457 301.314 228.456ZM542.084 223.65C541.08 223.45 540.276 222.248 540.678 221.247C540.879 220.246 542.084 219.445 543.088 219.845C544.092 220.045 544.895 221.247 544.493 222.248C544.292 223.249 543.489 223.85 542.485 223.85C542.284 223.85 542.084 223.65 542.084 223.65ZM298.101 214.639C297.9 213.637 298.704 212.436 299.708 212.236C300.712 212.035 301.916 212.836 301.916 213.838C302.117 214.839 301.314 216.04 300.31 216.241C300.31 216.241 300.109 216.241 299.908 216.241C299.105 216.241 298.101 215.64 298.101 214.639ZM544.694 209.832C543.69 209.632 542.887 208.631 542.887 207.63C543.088 206.628 544.092 205.827 545.096 205.827C546.1 206.028 546.903 207.029 546.903 208.03C546.702 209.031 545.899 209.832 544.895 209.832H544.694ZM296.495 200.421C296.495 199.419 297.298 198.418 298.503 198.418C299.507 198.418 300.511 199.219 300.511 200.22C300.511 201.422 299.708 202.223 298.704 202.423C298.704 202.423 298.704 202.423 298.503 202.423C297.298 202.223 296.495 201.422 296.495 200.421ZM545.698 195.815C544.694 195.815 543.69 195.014 543.69 193.812V193.612V193.412C543.69 192.21 544.694 191.409 545.698 191.409C546.702 191.409 547.706 192.21 547.706 193.412V193.612V193.812C547.706 195.014 546.903 195.815 545.698 195.815ZM298.302 188.205C297.097 188.205 296.294 187.204 296.495 186.203C296.495 185.001 297.499 184.2 298.704 184.4C299.708 184.4 300.712 185.402 300.511 186.603C300.31 187.404 299.507 188.205 298.302 188.205C298.302 188.205 298.503 188.205 298.302 188.205ZM542.887 179.594C542.686 178.593 543.489 177.592 544.694 177.392C545.698 177.191 546.702 177.992 546.903 179.194C547.104 180.395 546.301 181.196 545.096 181.397H544.895C543.891 181.397 543.088 180.596 542.887 179.594ZM299.708 174.188C298.503 173.987 297.9 172.986 298.101 171.985C298.302 170.783 299.306 170.183 300.511 170.383C301.515 170.583 302.318 171.584 302.117 172.786C301.916 173.787 301.113 174.388 300.109 174.388C299.908 174.188 299.908 174.188 299.708 174.188ZM540.477 165.977C540.276 164.976 540.879 163.774 542.084 163.574C543.088 163.374 544.292 163.975 544.493 165.176C544.694 166.177 544.092 167.379 542.887 167.579C542.686 167.579 542.686 167.579 542.485 167.579C541.682 167.579 540.879 166.778 540.477 165.977ZM302.72 160.37C301.716 159.97 301.113 158.968 301.314 157.967C301.716 156.966 302.72 156.365 303.724 156.565C304.728 156.966 305.33 157.967 305.129 158.968C304.929 159.769 304.125 160.37 303.121 160.37C303.121 160.57 302.92 160.37 302.72 160.37ZM536.662 152.56C536.26 151.559 536.863 150.358 537.867 149.957C538.871 149.557 540.076 150.157 540.477 151.159C540.879 152.16 540.276 153.361 539.272 153.762C539.071 153.762 538.871 153.962 538.67 153.962C537.666 153.962 537.063 153.361 536.662 152.56ZM307.338 147.153C306.334 146.753 305.732 145.551 306.334 144.55C306.736 143.549 307.941 142.948 308.945 143.549C309.949 143.949 310.35 145.151 309.949 146.152C309.547 146.953 308.945 147.354 308.142 147.354C307.74 147.153 307.539 147.153 307.338 147.153ZM531.24 139.944C530.838 138.943 531.24 137.742 532.244 137.341C533.248 136.941 534.453 137.341 534.854 138.142C535.256 139.143 534.854 140.345 533.85 140.745C533.65 140.946 533.248 140.946 533.047 140.946C532.244 140.946 531.642 140.545 531.24 139.944ZM313.363 134.337C312.359 133.737 311.957 132.535 312.559 131.534C313.162 130.533 314.367 130.332 315.371 130.733C316.375 131.334 316.575 132.535 316.174 133.536C315.772 134.137 315.17 134.538 314.367 134.538C313.965 134.538 313.563 134.538 313.363 134.337ZM524.412 127.729C523.81 126.728 524.011 125.526 525.015 124.925C526.019 124.325 527.224 124.525 527.826 125.526C528.429 126.528 528.228 127.729 527.224 128.33C526.822 128.53 526.621 128.73 526.22 128.73C525.416 128.73 524.814 128.33 524.412 127.729ZM320.792 122.322C319.788 121.721 319.788 120.32 320.391 119.519C320.993 118.517 322.399 118.517 323.202 119.118C324.005 119.719 324.206 121.121 323.604 121.922C323.202 122.522 322.6 122.723 321.997 122.723C321.596 122.723 321.194 122.723 320.792 122.322ZM516.179 116.515C515.577 115.714 515.577 114.312 516.38 113.711C517.183 112.91 518.589 113.111 519.191 113.912C519.794 114.713 519.794 116.114 518.991 116.715C518.589 116.915 518.187 117.116 517.786 117.116C517.183 117.316 516.581 117.116 516.179 116.515ZM329.628 111.308C328.825 110.507 328.825 109.306 329.427 108.505C330.23 107.704 331.435 107.704 332.239 108.505C333.042 109.306 333.042 110.507 332.439 111.308C332.038 111.709 331.435 111.909 331.034 111.909C330.431 111.909 329.829 111.709 329.628 111.308ZM506.942 106.302C506.139 105.501 506.139 104.3 506.942 103.498C507.745 102.697 508.95 102.697 509.753 103.498C510.557 104.3 510.557 105.501 509.753 106.302C509.352 106.703 508.749 106.903 508.348 106.903C507.745 106.903 507.344 106.703 506.942 106.302ZM339.468 101.296C338.664 100.495 338.865 99.0929 339.668 98.4922C340.472 97.6912 341.677 97.8914 342.48 98.6924C343.283 99.4934 343.082 100.695 342.279 101.496C341.877 101.896 341.476 101.896 340.873 101.896C340.472 102.097 339.869 101.896 339.468 101.296ZM496.299 97.2907C495.496 96.6899 495.295 95.2881 495.898 94.4871C496.5 93.6861 497.906 93.4859 498.709 94.0866C499.512 94.6874 499.713 96.0892 499.111 96.8902C498.709 97.4909 498.107 97.6912 497.504 97.6912C497.102 97.6912 496.701 97.4909 496.299 97.2907ZM350.512 92.6849C349.91 91.6836 350.111 90.4821 351.115 89.8813C352.119 89.2806 353.323 89.4808 353.926 90.4821C354.528 91.4834 354.328 92.6849 353.323 93.2856C352.922 93.4859 352.52 93.6861 352.119 93.6861C351.516 93.4859 350.914 93.0854 350.512 92.6849ZM484.853 89.4808C483.849 88.8801 483.648 87.6786 484.251 86.6773C484.853 85.676 486.058 85.4758 487.062 86.0765C488.066 86.6773 488.267 87.8788 487.664 88.8801C487.263 89.4808 486.66 89.8813 485.857 89.8813C485.656 89.6811 485.255 89.6811 484.853 89.4808ZM362.561 85.0753C361.958 84.074 362.36 82.8725 363.364 82.2717C364.368 81.8712 365.573 82.0715 365.974 83.0728C366.577 84.074 366.175 85.2755 365.171 85.8763C364.77 86.0765 364.569 86.0765 364.167 86.0765C363.565 86.2768 362.962 85.8763 362.561 85.0753ZM472.604 83.0728C471.6 82.6723 471.198 81.4707 471.6 80.4695C472.001 79.4682 473.206 79.0677 474.21 79.4682C475.214 79.8687 475.616 81.0702 475.214 82.0715C474.813 82.8725 474.21 83.273 473.407 83.273C473.206 83.0728 472.805 83.0728 472.604 83.0728ZM375.412 79.0677C375.011 78.0664 375.412 76.8649 376.617 76.4644C377.621 76.0639 378.826 76.6647 379.228 77.6659C379.629 78.6672 379.027 79.8687 378.023 80.2692C377.822 80.4695 377.621 80.4695 377.22 80.4695C376.416 80.2692 375.613 79.8687 375.412 79.0677ZM459.752 77.8662C458.748 77.4657 458.146 76.4644 458.547 75.2629C458.949 74.2617 459.953 73.6609 461.158 74.0614C462.162 74.4619 462.764 75.4632 462.363 76.6647C462.162 77.4657 461.359 78.0664 460.354 78.0664C460.154 78.0664 459.953 78.0664 459.752 77.8662ZM388.666 74.4619C388.264 73.4606 389.067 72.2591 390.071 72.0589C391.075 71.8586 392.28 72.4594 392.481 73.4606C392.682 74.4619 392.08 75.6634 391.075 75.8637C390.875 75.8637 390.674 75.8637 390.473 75.8637C389.67 76.0639 388.867 75.4632 388.666 74.4619ZM446.298 74.4619C445.294 74.2617 444.491 73.2604 444.691 72.0589C444.892 71.0576 445.896 70.2566 447.101 70.4569C448.105 70.6571 448.908 71.6584 448.708 72.8599C448.507 73.8611 447.704 74.4619 446.699 74.4619C446.499 74.4619 446.298 74.4619 446.298 74.4619ZM402.522 71.4581C402.321 70.4569 403.124 69.2553 404.128 69.2553C405.132 69.0551 406.136 69.8561 406.337 70.8574C406.538 71.8586 405.735 73.0601 404.73 73.0601H404.53C403.526 73.2604 402.722 72.4594 402.522 71.4581ZM432.442 72.4594C431.438 72.4594 430.434 71.4581 430.635 70.2566C430.635 69.0551 431.639 68.2541 432.844 68.4543C433.848 68.4543 434.852 69.4556 434.651 70.6571C434.651 71.6584 433.647 72.4594 432.442 72.4594C432.643 72.4594 432.643 72.4594 432.442 72.4594ZM416.578 70.0564C416.578 68.8548 417.381 68.0538 418.586 68.0538C419.59 68.0538 420.594 68.8548 420.594 70.0564C420.594 71.2579 419.791 72.0589 418.586 72.0589C417.381 72.0589 416.578 71.2579 416.578 70.0564Z" fill="#E3E5EA"/>
<path d="M423.205 293.738C423.205 292.737 424.008 291.736 425.213 291.736C426.418 291.736 427.221 292.537 427.221 293.738C427.221 294.739 426.418 295.741 425.213 295.741C424.008 295.54 423.205 294.739 423.205 293.738ZM410.955 295.14C409.951 294.94 408.947 293.938 409.148 292.937C409.349 291.736 410.152 290.935 411.357 291.135C412.361 291.335 413.365 292.136 413.164 293.338C412.963 294.339 412.16 295.14 411.156 295.14H410.955ZM437.06 292.537C436.86 291.535 437.663 290.334 438.667 290.134C439.671 289.933 440.876 290.734 441.077 291.736C441.277 292.937 440.474 293.938 439.47 294.139C439.47 294.139 439.269 294.139 439.069 294.139C438.064 294.139 437.261 293.538 437.06 292.537ZM396.899 292.537C395.895 292.336 395.091 291.135 395.493 290.134C395.694 289.132 396.899 288.331 397.903 288.732C398.907 288.932 399.71 290.134 399.308 291.135C399.108 291.936 398.304 292.737 397.3 292.737C397.3 292.737 397.1 292.737 396.899 292.537ZM450.916 289.533C450.515 288.532 451.117 287.33 452.121 286.93C453.125 286.529 454.33 287.13 454.732 288.131C455.133 289.132 454.531 290.334 453.527 290.534C453.326 290.534 453.125 290.734 452.924 290.734C451.92 290.935 451.117 290.334 450.916 289.533ZM383.244 288.131C382.24 287.731 381.637 286.529 382.24 285.528C382.641 284.527 383.846 283.926 384.85 284.527C385.854 284.927 386.457 286.129 386.055 287.13C385.653 287.931 385.051 288.331 384.248 288.331C383.846 288.331 383.445 288.331 383.244 288.131ZM463.969 284.527C463.567 283.525 463.969 282.324 464.973 281.923C465.977 281.523 467.182 281.923 467.583 282.925C467.985 283.926 467.583 285.127 466.579 285.528C466.378 285.728 465.977 285.728 465.776 285.728C464.973 285.728 464.37 285.328 463.969 284.527ZM370.392 281.923C369.388 281.323 369.187 280.121 369.589 279.12C370.191 278.119 371.396 277.918 372.4 278.319C373.404 278.92 373.605 280.121 373.203 281.122C372.802 281.723 372.199 282.124 371.396 282.124C371.195 282.124 370.794 282.124 370.392 281.923ZM476.218 277.918C475.616 276.917 475.817 275.715 476.821 275.115C477.825 274.514 479.029 274.714 479.632 275.715C480.234 276.717 480.033 277.918 479.029 278.519C478.628 278.719 478.226 278.92 478.025 278.92C477.222 278.719 476.62 278.519 476.218 277.918ZM358.745 273.913C357.942 273.312 357.741 271.911 358.343 271.11C358.946 270.309 360.352 270.108 361.155 270.709C361.958 271.51 362.159 272.712 361.556 273.513C361.155 273.913 360.552 274.314 359.95 274.314C359.548 274.314 358.946 274.113 358.745 273.913ZM487.463 269.508C486.66 268.707 486.861 267.505 487.664 266.704C488.467 265.903 489.672 266.103 490.476 266.904C491.279 267.705 491.078 268.907 490.275 269.708C489.873 270.108 489.472 270.108 488.869 270.108C488.467 270.108 487.865 269.908 487.463 269.508ZM348.102 264.301C347.299 263.5 347.299 262.299 348.102 261.498C348.905 260.697 350.11 260.697 350.914 261.498C351.717 262.299 351.717 263.5 350.914 264.301C350.512 264.702 350.11 264.902 349.508 264.902C348.905 264.902 348.504 264.702 348.102 264.301ZM497.504 259.695C496.701 258.894 496.5 257.693 497.303 256.892C498.106 256.091 499.311 255.89 500.114 256.691C500.918 257.292 501.118 258.694 500.315 259.495C499.914 259.896 499.311 260.296 498.709 260.296C498.307 260.096 497.905 259.896 497.504 259.695ZM338.865 253.287C338.263 252.286 338.463 251.084 339.267 250.484C340.271 249.883 341.476 250.083 342.078 250.884C342.68 251.885 342.48 253.087 341.676 253.688C341.275 253.888 340.873 254.088 340.471 254.088C339.869 254.088 339.267 253.888 338.865 253.287ZM505.938 248.481C504.934 247.88 504.733 246.679 505.335 245.678C505.938 244.676 507.143 244.476 508.147 245.077C509.151 245.678 509.352 246.879 508.749 247.88C508.347 248.481 507.745 248.882 507.143 248.882C506.741 248.882 506.339 248.681 505.938 248.481ZM331.234 241.272C330.632 240.271 331.033 239.069 332.038 238.669C333.042 238.068 334.246 238.469 334.849 239.47C335.451 240.471 335.05 241.673 334.046 242.073C333.644 242.273 333.443 242.273 333.042 242.273C332.439 242.273 331.636 241.873 331.234 241.272ZM512.966 236.466C511.962 236.066 511.56 234.864 511.962 233.863C512.364 232.861 513.569 232.461 514.573 232.861C515.577 233.262 515.978 234.463 515.577 235.465C515.175 236.266 514.573 236.666 513.769 236.666C513.368 236.466 513.167 236.466 512.966 236.466ZM325.612 228.256C325.21 227.254 325.812 226.053 326.817 225.652C327.821 225.252 329.025 225.853 329.427 226.854C329.829 227.855 329.226 229.057 328.222 229.457C328.021 229.457 327.821 229.657 327.62 229.657C326.616 229.457 325.812 229.057 325.612 228.256ZM517.986 223.45C516.982 223.249 516.38 222.048 516.581 221.047C516.781 220.045 517.986 219.445 518.99 219.645C519.994 220.045 520.597 221.047 520.396 222.048C520.195 222.849 519.392 223.45 518.388 223.45C518.388 223.45 518.187 223.45 517.986 223.45ZM321.595 214.438C321.395 213.437 321.997 212.235 323.202 212.035C324.206 211.835 325.411 212.436 325.612 213.637C325.812 214.639 325.21 215.84 324.005 216.04C323.804 216.04 323.804 216.04 323.604 216.04C322.6 216.04 321.796 215.44 321.595 214.438ZM521.199 209.832C520.195 209.632 519.392 208.631 519.392 207.63C519.593 206.628 520.597 205.827 521.601 206.028C522.605 206.228 523.408 207.229 523.207 208.23C523.007 209.232 522.203 210.033 521.199 210.033C521.4 209.832 521.4 209.832 521.199 209.832ZM319.587 200.421C319.587 199.219 320.391 198.418 321.395 198.218C322.6 198.218 323.403 199.019 323.604 200.02C323.604 201.021 322.8 202.023 321.796 202.223H321.595C320.591 202.223 319.788 201.422 319.587 200.421ZM522.404 195.815C521.4 195.815 520.396 194.814 520.396 193.812V193.612V193.412C520.396 192.21 521.4 191.409 522.404 191.409C523.609 191.409 524.412 192.21 524.412 193.412V193.612V193.812C524.412 195.014 523.609 195.815 522.404 195.815ZM321.595 188.205C320.391 188.205 319.587 187.204 319.788 186.002C319.788 185.001 320.792 184 321.997 184.2C323.001 184.2 324.005 185.201 323.804 186.403C323.604 187.404 322.8 188.205 321.595 188.205ZM519.593 179.795C519.392 178.793 520.195 177.592 521.199 177.592C522.404 177.392 523.408 178.193 523.408 179.394C523.609 180.395 522.806 181.397 521.601 181.597H521.4C520.597 181.397 519.794 180.796 519.593 179.795ZM323.202 174.388C322.198 174.188 321.395 173.186 321.595 171.985C321.796 170.984 322.8 170.182 324.005 170.383C325.009 170.583 325.812 171.584 325.612 172.786C325.411 173.787 324.608 174.388 323.604 174.388C323.604 174.388 323.403 174.388 323.202 174.388ZM516.781 166.378C516.38 165.376 517.183 164.175 518.187 163.975C519.191 163.574 520.396 164.175 520.597 165.376C520.998 166.378 520.195 167.579 519.191 167.779C518.99 167.779 518.79 167.779 518.589 167.779C517.786 167.779 516.982 167.179 516.781 166.378ZM326.817 160.771C325.812 160.37 325.21 159.169 325.612 158.167C326.013 157.166 327.218 156.565 328.222 156.966C329.226 157.366 329.829 158.568 329.427 159.569C329.025 160.37 328.423 160.971 327.62 160.971C327.218 160.971 327.017 160.971 326.817 160.771ZM511.962 153.562C511.56 152.56 511.962 151.359 512.966 150.958C513.97 150.558 515.175 150.958 515.577 151.96C515.978 152.961 515.577 154.162 514.573 154.563C514.372 154.763 513.97 154.763 513.769 154.763C513.167 154.563 512.364 154.162 511.962 153.562ZM332.238 147.954C331.234 147.354 330.833 146.152 331.435 145.151C332.038 144.15 333.242 143.749 334.246 144.35C335.25 144.951 335.652 146.152 335.05 146.953C334.648 147.554 334.046 147.954 333.242 147.954C333.042 148.155 332.64 148.155 332.238 147.954ZM505.536 141.346C504.934 140.345 505.135 139.143 506.139 138.543C507.143 137.942 508.348 138.342 508.95 139.143C509.552 140.145 509.151 141.346 508.348 141.947C507.946 142.147 507.745 142.147 507.343 142.147C506.54 142.347 505.938 141.947 505.536 141.346ZM339.467 135.939C338.664 135.339 338.463 133.937 339.066 133.136C339.668 132.335 341.074 132.135 341.877 132.735C342.881 133.336 342.881 134.538 342.279 135.539C341.877 136.14 341.275 136.34 340.672 136.34C340.271 136.34 339.869 136.34 339.467 135.939ZM497.504 130.332C496.701 129.531 496.901 128.13 497.705 127.529C498.508 126.728 499.713 126.928 500.516 127.729C501.118 128.53 501.118 129.732 500.315 130.533C499.914 130.933 499.512 130.933 499.11 130.933C498.508 130.933 497.905 130.733 497.504 130.332ZM348.303 125.126C347.5 124.325 347.5 123.123 348.303 122.322C349.106 121.521 350.311 121.521 351.114 122.322C351.918 123.123 351.918 124.325 351.114 125.126C350.713 125.526 350.11 125.726 349.709 125.726C349.307 125.726 348.705 125.526 348.303 125.126ZM487.865 120.52C487.062 119.719 487.062 118.517 487.664 117.716C488.467 116.915 489.672 116.915 490.476 117.516C491.279 118.317 491.279 119.519 490.676 120.32C490.275 120.72 489.672 120.92 489.271 120.92C488.869 120.92 488.267 120.72 487.865 120.52ZM358.544 115.514C357.942 114.713 357.942 113.311 358.946 112.71C359.749 112.109 361.155 112.109 361.757 113.111C362.36 113.912 362.36 115.313 361.356 115.914C360.954 116.114 360.552 116.315 360.151 116.315C359.548 116.315 358.946 116.114 358.544 115.514ZM477.222 111.909C476.218 111.308 476.017 110.107 476.62 109.106C477.222 108.104 478.427 107.904 479.431 108.505C480.435 109.106 480.636 110.307 480.033 111.308C479.632 111.909 479.029 112.109 478.427 112.109C477.825 112.31 477.423 112.31 477.222 111.909ZM369.99 107.504C369.388 106.502 369.79 105.301 370.794 104.7C371.798 104.099 373.002 104.5 373.605 105.501C374.207 106.502 373.806 107.704 372.802 108.305C372.4 108.505 372.199 108.505 371.798 108.505C371.195 108.505 370.392 108.104 369.99 107.504ZM465.174 105.1C464.17 104.7 463.768 103.498 464.17 102.497C464.571 101.496 465.776 101.095 466.78 101.496C467.784 101.896 468.186 103.098 467.784 104.099C467.383 104.9 466.78 105.301 465.977 105.301C465.776 105.301 465.575 105.301 465.174 105.1ZM382.641 101.095C382.24 100.094 382.641 98.8927 383.846 98.4922C384.85 98.0917 386.055 98.4922 386.457 99.6937C386.858 100.695 386.457 101.896 385.453 102.297C385.252 102.497 385.051 102.497 384.649 102.497C383.645 102.497 382.842 101.896 382.641 101.095ZM452.523 99.8939C451.519 99.4934 450.916 98.4922 451.318 97.2907C451.719 96.2894 452.724 95.6886 453.928 95.8889C454.932 96.2894 455.535 97.2907 455.133 98.4922C454.932 99.2932 454.129 99.8939 453.125 99.8939C452.924 100.094 452.724 100.094 452.523 99.8939ZM395.895 96.4896C395.694 95.4884 396.296 94.2869 397.3 94.0866C398.304 93.8864 399.509 94.4871 399.71 95.4884C399.911 96.4896 399.308 97.6912 398.304 97.8914C398.104 97.8914 397.903 97.8914 397.903 97.8914C396.899 98.0917 396.095 97.4909 395.895 96.4896ZM439.269 96.6899C438.265 96.4896 437.462 95.4884 437.663 94.2869C437.864 93.2856 438.868 92.4846 440.073 92.6848C441.077 92.8851 441.88 93.8864 441.679 95.0879C441.478 96.0891 440.675 96.6899 439.671 96.6899C439.47 96.6899 439.269 96.6899 439.269 96.6899ZM409.55 93.8864C409.349 92.8851 410.152 91.8838 411.357 91.6836C412.361 91.4833 413.365 92.2843 413.566 93.4859C413.767 94.6874 412.963 95.4884 411.759 95.6886H411.558C410.554 95.6886 409.75 94.8876 409.55 93.8864ZM425.614 95.2881C424.61 95.2881 423.606 94.2869 423.606 93.2856C423.606 92.2843 424.61 91.2831 425.614 91.2831C426.618 91.2831 427.622 92.2843 427.622 93.2856C427.622 94.2869 426.618 95.2881 425.614 95.2881Z" fill="#E3E5EA"/>
<path d="M418.185 272.511C417.181 272.511 416.177 271.51 416.377 270.509C416.377 269.508 417.381 268.506 418.385 268.506C419.389 268.506 420.393 269.508 420.393 270.709C420.193 271.71 419.389 272.511 418.185 272.511ZM430.032 270.108C429.831 269.107 430.635 268.106 431.84 267.906C432.844 267.705 433.848 268.506 434.048 269.708C434.249 270.709 433.446 271.71 432.241 271.911H432.04C431.036 271.911 430.233 271.11 430.032 270.108ZM404.128 270.509C403.124 270.309 402.321 269.107 402.522 268.106C402.722 267.105 403.927 266.304 404.931 266.504C405.935 266.704 406.738 267.906 406.538 268.907C406.337 269.908 405.534 270.509 404.53 270.509C404.329 270.509 404.329 270.509 404.128 270.509ZM443.687 267.505C443.286 266.504 443.888 265.302 444.892 264.902C445.896 264.501 447.101 265.102 447.503 266.103C447.904 267.105 447.302 268.306 446.298 268.506C446.097 268.506 445.896 268.506 445.695 268.506C444.691 268.907 444.089 268.306 443.687 267.505ZM390.674 266.103C389.67 265.703 389.268 264.501 389.67 263.5C390.071 262.499 391.276 262.098 392.28 262.499C393.284 262.899 393.686 264.101 393.284 265.102C392.883 265.903 392.28 266.304 391.477 266.304C391.075 266.304 390.875 266.304 390.674 266.103ZM456.539 262.499C455.937 261.498 456.338 260.296 457.342 259.896C458.346 259.295 459.551 259.695 459.953 260.697C460.555 261.698 460.154 262.899 459.15 263.3C458.949 263.5 458.547 263.5 458.146 263.5C457.744 263.5 456.941 263.1 456.539 262.499ZM378.023 259.295C377.019 258.694 376.818 257.493 377.42 256.491C378.023 255.49 379.228 255.29 380.232 255.891C381.236 256.491 381.437 257.693 380.834 258.694C380.433 259.295 379.83 259.495 379.228 259.495C378.826 259.695 378.424 259.495 378.023 259.295ZM468.387 255.09C467.584 254.288 467.784 252.887 468.788 252.286C469.592 251.685 470.997 251.685 471.6 252.686C472.202 253.487 472.202 254.889 471.198 255.49C470.796 255.69 470.395 255.891 469.993 255.891C469.391 255.891 468.788 255.69 468.387 255.09ZM366.978 250.484C366.175 249.683 366.175 248.481 366.978 247.68C367.782 246.879 368.986 246.879 369.79 247.68C370.593 248.481 370.593 249.683 369.79 250.484C369.388 250.884 368.786 251.084 368.384 251.084C367.782 251.084 367.38 250.884 366.978 250.484ZM478.628 245.878C477.825 245.077 477.624 243.875 478.427 243.074C479.23 242.273 480.435 242.073 481.238 242.874C482.042 243.675 482.243 244.877 481.439 245.678C481.038 246.078 480.435 246.278 479.833 246.278C479.632 246.278 479.03 246.278 478.628 245.878ZM357.741 239.87C357.139 238.869 357.34 237.668 358.143 237.067C359.147 236.466 360.352 236.666 360.954 237.467C361.557 238.268 361.356 239.67 360.553 240.271C360.151 240.471 359.749 240.671 359.348 240.671C358.745 240.671 358.143 240.271 357.741 239.87ZM487.263 234.864C486.259 234.263 486.058 233.062 486.66 232.06C487.263 231.059 488.468 230.859 489.472 231.46C490.476 232.06 490.677 233.262 490.074 234.263C489.672 234.864 489.07 235.265 488.267 235.265C487.865 235.265 487.464 235.064 487.263 234.864ZM350.311 227.655C349.91 226.654 350.311 225.452 351.315 225.052C352.319 224.651 353.524 225.052 353.926 226.053C354.327 227.054 353.926 228.256 352.922 228.656C352.721 228.856 352.319 228.856 352.119 228.856C351.516 228.656 350.713 228.256 350.311 227.655ZM493.488 222.649C492.484 222.248 491.881 221.047 492.283 220.045C492.685 219.044 493.889 218.443 494.893 218.844C495.898 219.244 496.5 220.446 496.098 221.447C495.898 222.248 495.094 222.849 494.291 222.849C494.09 222.849 493.889 222.849 493.488 222.649ZM345.492 214.238C345.09 213.237 345.893 212.035 346.898 211.835C347.902 211.635 349.106 212.236 349.307 213.237C349.508 214.238 348.906 215.44 347.902 215.64C347.701 215.64 347.5 215.64 347.299 215.64C346.496 215.84 345.693 215.239 345.492 214.238ZM497.705 209.432C496.701 209.232 495.898 208.23 496.098 207.029C496.299 206.028 497.303 205.227 498.508 205.427C499.512 205.627 500.315 206.628 500.115 207.83C499.914 208.831 499.11 209.432 498.106 209.432C497.906 209.432 497.705 209.432 497.705 209.432ZM342.881 200.421C342.881 199.219 343.685 198.418 344.689 198.218C345.693 198.218 346.697 199.019 346.898 200.02C346.898 201.021 346.094 202.023 345.09 202.223H344.889C343.885 202.223 343.082 201.422 342.881 200.421ZM499.311 195.815C498.106 195.815 497.303 195.014 497.303 193.812C497.303 193.812 497.303 193.812 497.303 193.612V193.412C497.303 192.21 498.307 191.409 499.311 191.409C500.315 191.409 501.319 192.21 501.319 193.412V193.612V193.812C501.319 194.814 500.315 195.815 499.311 195.815ZM344.889 188.405C343.885 188.405 342.881 187.404 343.082 186.203C343.082 185.201 344.086 184.2 345.291 184.4C346.295 184.4 347.299 185.402 347.098 186.603C346.898 187.604 346.094 188.405 344.889 188.405ZM496.098 179.995C495.898 178.793 496.701 177.792 497.705 177.592C498.709 177.392 499.914 178.193 500.115 179.194C500.315 180.395 499.512 181.397 498.508 181.597C498.307 181.597 498.307 181.597 498.106 181.597C497.102 181.597 496.299 180.996 496.098 179.995ZM346.898 174.788C345.893 174.588 345.09 173.387 345.492 172.385C345.893 171.384 346.898 170.583 347.902 170.984C348.906 171.184 349.508 172.385 349.307 173.387C349.106 174.388 348.303 174.788 347.299 174.788C347.299 174.788 347.098 174.788 346.898 174.788ZM492.484 166.978C492.082 165.977 492.685 164.776 493.689 164.375C494.693 163.975 495.898 164.575 496.299 165.577C496.701 166.578 496.098 167.779 495.094 168.18C494.893 168.18 494.693 168.38 494.291 168.38C493.689 168.38 492.885 167.78 492.484 166.978ZM351.516 161.572C350.512 161.171 350.11 159.97 350.512 158.968C350.914 157.967 352.119 157.567 353.123 157.967C354.127 158.368 354.528 159.569 354.127 160.57C353.725 161.371 353.123 161.772 352.319 161.772C352.119 161.772 351.717 161.772 351.516 161.572ZM486.66 154.963C486.058 153.962 486.46 152.761 487.263 152.16C488.267 151.559 489.472 151.96 490.074 152.961C490.677 153.962 490.275 155.164 489.472 155.764C489.07 155.965 488.869 155.965 488.468 155.965C487.664 155.965 487.062 155.564 486.66 154.963ZM358.344 149.557C357.34 148.956 357.34 147.754 357.942 146.753C358.544 145.752 359.749 145.551 360.753 146.353C361.557 146.953 361.757 148.355 361.155 149.156C360.753 149.757 360.151 149.957 359.548 149.957C359.147 149.957 358.745 149.957 358.344 149.557ZM478.628 143.949C477.825 143.148 478.026 141.947 478.829 141.146C479.632 140.345 480.837 140.545 481.64 141.346C482.443 142.147 482.243 143.349 481.439 144.15C481.038 144.55 480.636 144.55 480.034 144.55C479.632 144.75 479.03 144.55 478.628 143.949ZM367.179 138.943C366.376 138.142 366.376 136.941 367.179 136.14C367.982 135.339 369.187 135.339 369.991 136.14C370.794 136.941 370.794 138.142 369.991 138.943C369.589 139.344 368.986 139.544 368.585 139.544C368.183 139.544 367.581 139.344 367.179 138.943ZM468.989 134.738C468.186 134.137 467.985 132.735 468.588 131.934C469.19 131.133 470.596 130.933 471.399 131.734C472.202 132.335 472.403 133.737 471.8 134.538C471.399 134.938 470.796 135.339 470.194 135.339C469.792 135.138 469.391 134.938 468.989 134.738ZM377.822 130.132C377.22 129.131 377.42 127.929 378.424 127.329C379.429 126.728 380.633 126.928 381.236 127.929C381.838 128.931 381.637 130.132 380.633 130.733C380.232 130.933 379.83 131.133 379.629 131.133C378.826 130.933 378.224 130.733 377.822 130.132ZM457.744 127.329C456.74 126.728 456.338 125.526 456.941 124.525C457.543 123.524 458.748 123.123 459.752 123.724C460.756 124.325 461.158 125.526 460.555 126.528C460.154 127.128 459.551 127.529 458.748 127.529C458.346 127.529 457.945 127.529 457.744 127.329ZM389.871 123.323C389.469 122.322 389.871 121.121 390.875 120.72C391.879 120.32 393.084 120.72 393.485 121.721C393.887 122.723 393.485 123.924 392.481 124.325C392.28 124.525 391.879 124.525 391.678 124.525C390.875 124.525 390.071 123.924 389.871 123.323ZM445.294 121.922C444.29 121.521 443.687 120.52 444.089 119.318C444.491 118.317 445.495 117.716 446.699 118.117C447.703 118.517 448.306 119.519 447.904 120.72C447.703 121.521 446.9 122.122 445.896 122.122C445.695 122.122 445.495 122.122 445.294 121.922ZM402.923 118.718C402.722 117.716 403.325 116.515 404.53 116.315C405.534 116.114 406.738 116.715 406.939 117.917C407.14 118.918 406.538 120.119 405.333 120.32C405.132 120.32 405.132 120.32 404.931 120.32C403.927 120.119 403.124 119.519 402.923 118.718ZM432.241 118.918C431.036 118.718 430.434 117.716 430.434 116.715C430.635 115.714 431.639 114.913 432.643 114.913C433.647 115.113 434.45 116.114 434.249 117.116C434.048 118.117 433.245 118.918 432.241 118.918C432.442 119.118 432.241 118.918 432.241 118.918ZM416.578 116.515C416.578 115.313 417.381 114.512 418.586 114.312C419.791 114.312 420.594 115.113 420.594 116.315C420.594 117.516 419.791 118.317 418.586 118.317C417.582 118.317 416.578 117.516 416.578 116.515Z" fill="#E3E5EA"/>
<path d="M419.791 247.28C419.791 246.278 420.795 245.277 421.799 245.277C422.803 245.277 423.807 246.278 423.807 247.28C423.807 248.281 422.803 249.282 421.799 249.282C420.795 249.482 419.791 248.481 419.791 247.28ZM433.848 246.078C433.647 245.077 434.249 243.875 435.253 243.675C436.257 243.475 437.462 244.076 437.663 245.077C438.065 246.078 437.261 247.28 436.257 247.48C436.056 247.48 435.856 247.48 435.856 247.48C434.852 247.68 434.048 247.079 433.848 246.078ZM407.341 247.48C406.337 247.079 405.734 246.078 405.935 245.077C406.337 244.076 407.341 243.275 408.345 243.675C409.349 243.875 409.951 245.077 409.751 246.078C409.55 246.879 408.746 247.48 407.742 247.48C407.742 247.48 407.542 247.48 407.341 247.48ZM447.101 241.272C446.499 240.271 446.9 239.069 447.904 238.469C448.908 237.868 450.113 238.268 450.715 239.27C451.318 240.271 450.916 241.472 449.912 242.073C449.511 242.273 449.31 242.273 448.908 242.273C448.105 242.273 447.503 241.873 447.101 241.272ZM393.887 241.873C392.883 241.272 392.682 240.071 393.083 239.069C393.686 238.068 394.891 237.868 395.895 238.268C396.899 238.869 397.1 240.071 396.698 241.072C396.296 241.673 395.694 242.073 394.891 242.073C394.489 242.073 394.087 242.073 393.887 241.873ZM458.748 233.062C457.945 232.261 457.945 231.059 458.748 230.258C459.551 229.457 460.756 229.457 461.559 230.258C462.362 231.059 462.362 232.261 461.559 233.062C461.158 233.462 460.756 233.662 460.153 233.662C459.551 233.662 459.149 233.462 458.748 233.062ZM382.24 232.861C381.437 232.06 381.437 230.859 382.24 230.058C383.043 229.257 384.248 229.257 385.051 230.058C385.854 230.859 385.854 232.06 385.051 232.861C384.649 233.262 384.248 233.462 383.645 233.462C383.043 233.462 382.641 233.262 382.24 232.861ZM467.784 222.248C466.78 221.647 466.579 220.446 466.981 219.445C467.583 218.443 468.788 218.243 469.792 218.644C470.796 219.244 470.997 220.446 470.596 221.447C470.194 222.048 469.592 222.448 468.788 222.448C468.387 222.649 467.985 222.448 467.784 222.248ZM373.404 221.247C372.802 220.246 373.203 219.044 374.207 218.443C375.211 217.843 376.416 218.243 377.019 219.244C377.621 220.246 377.22 221.447 376.215 222.048C375.814 222.248 375.613 222.248 375.211 222.248C374.408 222.248 373.605 221.848 373.404 221.247ZM473.608 209.432C472.604 209.232 471.8 208.03 472.202 207.029C472.403 206.028 473.608 205.427 474.612 205.627C475.616 206.028 476.218 207.029 476.017 208.03C475.817 209.031 475.013 209.432 474.009 209.432C474.009 209.632 473.808 209.632 473.608 209.432ZM367.782 207.83C367.581 206.829 368.183 205.627 369.187 205.427C370.191 205.227 371.396 205.827 371.597 206.829C371.798 207.83 371.195 209.031 370.191 209.232C369.99 209.232 369.79 209.232 369.79 209.232C368.786 209.232 367.982 208.631 367.782 207.83ZM476.017 195.615C475.013 195.615 474.009 194.613 474.009 193.612C474.009 193.612 474.009 193.612 474.009 193.412C474.009 192.21 475.013 191.409 476.017 191.409C477.222 191.409 478.025 192.21 478.025 193.412C478.025 193.412 478.025 193.412 478.025 193.612C478.025 193.612 478.025 193.612 478.025 193.812C478.025 194.814 477.222 195.615 476.017 195.615ZM367.782 195.414C366.577 195.414 365.773 194.613 365.773 193.412C365.773 192.21 366.777 191.409 367.782 191.409C368.786 191.409 369.79 192.411 369.79 193.412C369.79 194.413 368.986 195.414 367.782 195.414ZM472.403 179.995C472.001 178.994 472.804 177.792 473.808 177.592C474.813 177.392 476.017 177.992 476.218 178.994C476.419 179.995 475.817 181.196 474.813 181.397C474.612 181.397 474.411 181.397 474.21 181.397C473.407 181.397 472.604 180.796 472.403 179.995ZM369.187 181.196C368.183 180.996 367.581 179.795 367.782 178.793C367.982 177.792 369.187 176.991 370.191 177.392C371.195 177.592 371.999 178.793 371.597 179.795C371.396 180.596 370.593 181.196 369.589 181.196C369.589 181.397 369.388 181.397 369.187 181.196ZM467.182 167.379C466.579 166.378 466.981 165.176 467.985 164.575C468.989 163.975 470.194 164.375 470.796 165.376C471.399 166.378 470.997 167.579 469.993 168.18C469.592 168.38 469.391 168.38 468.989 168.38C468.186 168.38 467.583 168.18 467.182 167.379ZM374.207 168.18C373.203 167.579 373.003 166.378 373.404 165.376C374.007 164.375 375.211 164.175 376.215 164.575C377.22 165.176 377.42 166.378 377.019 167.379C376.617 167.98 376.015 168.38 375.211 168.38C374.81 168.38 374.408 168.18 374.207 168.18ZM458.748 156.766C457.945 155.965 457.945 154.763 458.748 153.962C459.551 153.161 460.756 153.161 461.559 153.962C462.362 154.763 462.362 155.965 461.559 156.766C461.158 157.166 460.756 157.366 460.153 157.366C459.752 157.366 459.149 157.166 458.748 156.766ZM382.441 156.565C381.637 155.764 381.637 154.563 382.441 153.762C383.244 152.961 384.449 152.961 385.252 153.762C386.055 154.563 386.055 155.764 385.252 156.565C384.85 156.966 384.248 157.166 383.846 157.166C383.244 157.166 382.842 156.966 382.441 156.565ZM448.105 148.355C447.101 147.754 446.9 146.553 447.302 145.551C447.904 144.55 449.109 144.35 450.113 144.75C451.117 145.351 451.318 146.553 450.916 147.554C450.515 148.155 449.912 148.555 449.109 148.555C448.707 148.756 448.306 148.555 448.105 148.355ZM393.284 147.554C392.682 146.553 393.083 145.351 394.087 144.75C395.091 144.15 396.296 144.55 396.899 145.551C397.501 146.553 397.1 147.754 396.096 148.355C395.694 148.555 395.493 148.555 395.091 148.555C394.288 148.555 393.686 148.355 393.284 147.554ZM435.454 143.148C434.45 142.948 433.647 141.747 434.048 140.745C434.249 139.744 435.454 139.143 436.458 139.344C437.462 139.544 438.065 140.745 437.864 141.747C437.663 142.548 436.86 143.148 435.856 143.148C435.856 143.349 435.655 143.349 435.454 143.148ZM406.136 141.747C405.734 140.745 406.538 139.544 407.542 139.344C408.546 139.143 409.751 139.744 409.951 140.745C410.152 141.747 409.55 142.948 408.546 143.148C408.345 143.148 408.144 143.148 407.943 143.148C407.14 143.349 406.337 142.748 406.136 141.747ZM419.992 139.544C419.992 138.342 420.996 137.541 422 137.541C423.004 137.541 424.008 138.342 424.008 139.544C424.008 140.545 423.205 141.546 422 141.546C420.996 141.546 419.992 140.545 419.992 139.544Z" fill="#E3E5EA"/>
</g>
<defs>
<clipPath id="clip0">
<rect width="847" height="453" fill="white"/>
</clipPath>
</defs>
</svg>
