<svg width="48" height="39" viewBox="0 0 48 39" fill="none" xmlns="http://www.w3.org/2000/svg">
<path d="M11.2529 8.15576V23.3369H36.6862L36.7454 8.15576H11.2529ZM16.9713 20.374H14.159V14.0177H16.9713V20.374ZM22.5959 20.374H19.7836V11.2054H22.5959V20.374ZM28.2205 20.374H25.4081V14.0177H28.2205V20.374ZM33.8451 20.374H31.0328V16.83H33.8451V20.374Z" fill="#E20613"/>
<path d="M2.81641 0V31.0363H45.1882V0H2.81641ZM39.4877 26.149H8.44094V5.34338H39.5691L39.4877 26.149Z" fill="#ACB1BF"/>
<path d="M0 33.9424V34.2206C0 36.8005 2.09887 38.8993 4.67869 38.8993H43.3213C45.9012 38.8993 48 36.8004 48 34.2206V33.9424H0Z" fill="#ACB1BF"/>
</svg>
