<svg width="191" height="30" viewBox="0 0 191 30" fill="none" xmlns="http://www.w3.org/2000/svg">
<g clip-path="url(#clip0)">
<path d="M0.5 1.65674H5.55349L13.3949 21.5449L21.2023 1.65674H26.1422L15.3312 27.7112H11.3167L0.5 1.65674Z" fill="white"/>
<path d="M32.2575 27.9709C30.8436 27.9709 29.5263 27.7224 28.2999 27.2311C27.0734 26.7399 26.0059 26.051 25.1031 25.1644C24.1946 24.2778 23.4849 23.2106 22.9625 21.9683C22.4458 20.726 22.1846 19.3538 22.1846 17.8461V17.7727C22.1846 16.3666 22.4174 15.0509 22.8887 13.8199C23.3599 12.5889 24.0243 11.5104 24.876 10.5843C25.7334 9.6582 26.7384 8.9354 27.9024 8.4046C29.0664 7.8738 30.3553 7.6084 31.7692 7.6084C33.3306 7.6084 34.6991 7.89639 35.8801 8.46107C37.0555 9.0314 38.0321 9.79372 38.81 10.7537C39.5936 11.7136 40.1841 12.8317 40.5816 14.0966C40.9733 15.3615 41.1721 16.6998 41.1721 18.1059C41.1721 18.3035 41.1664 18.5068 41.155 18.7157C41.1437 18.9303 41.121 19.1449 41.0983 19.3651H26.6816C26.9314 20.9688 27.5674 22.1942 28.5951 23.0468C29.6229 23.8939 30.8664 24.3174 32.3313 24.3174C33.4442 24.3174 34.4095 24.1197 35.2271 23.7301C36.0448 23.3348 36.8511 22.7532 37.6403 21.9909L40.2806 24.3174C39.3381 25.4298 38.2195 26.3107 36.9192 26.9827C35.6189 27.6377 34.0688 27.9709 32.2575 27.9709ZM36.7205 16.4005C36.6466 15.689 36.482 15.0114 36.2378 14.3846C35.9937 13.7522 35.653 13.2157 35.2328 12.7583C34.8126 12.3066 34.3073 11.9395 33.7281 11.6685C33.1433 11.3974 32.4846 11.2619 31.7408 11.2619C30.3553 11.2619 29.2084 11.7362 28.3055 12.6849C27.4027 13.6336 26.8463 14.8702 26.6475 16.4005H36.7205Z" fill="white"/>
<path d="M43.0232 8.00925H47.5543V12.4081C48.1732 10.9287 49.0533 9.74848 50.1946 8.86193C51.3359 7.97537 52.7725 7.5688 54.51 7.64221V12.3743H54.2488C53.2551 12.3743 52.3523 12.5324 51.5346 12.8542C50.717 13.1761 50.0129 13.6504 49.4167 14.2942C48.8205 14.9323 48.3663 15.7398 48.0426 16.7167C47.719 17.6936 47.56 18.8173 47.56 20.0991V27.5247H43.0289V8.00925H43.0232Z" fill="white"/>
<path d="M56.5938 0.77002H61.4599V5.01644H56.5938V0.77002V0.77002ZM56.7754 8.00926H61.3065V27.5247H56.7754V8.00926Z" fill="white"/>
<path d="M65.832 11.8548H63.3394V8.12225H65.832V6.72184C65.832 4.55345 66.3658 2.93846 67.4276 1.87685C68.4667 0.843483 69.943 0.323975 71.8508 0.323975C72.6457 0.323975 73.3214 0.374796 73.8949 0.470792C74.4684 0.572435 74.9965 0.691019 75.4905 0.843483V4.61557C75.0476 4.46875 74.6274 4.35017 74.2186 4.26546C73.8098 4.17511 73.3669 4.13559 72.8729 4.13559C71.1524 4.13559 70.2893 5.12378 70.2893 7.08888V8.16178H75.4905V11.8605H70.3632V27.5304H65.832V11.8548V11.8548Z" fill="white"/>
<path d="M82.5028 0.77002H77.6367V5.01644H82.5028V0.77002Z" fill="white"/>
<path d="M82.3608 8.00928H77.824V27.5247H82.3608V8.00928Z" fill="white"/>
<path d="M94.6484 27.9709C93.1835 27.9709 91.8377 27.7055 90.5942 27.1747C89.3507 26.6439 88.2776 25.9268 87.3634 25.012C86.4549 24.0972 85.7395 23.03 85.2285 21.7933C84.7174 20.5623 84.4619 19.2579 84.4619 17.8744V17.801C84.4619 16.4175 84.7174 15.1075 85.2285 13.8652C85.7395 12.6228 86.4549 11.5387 87.3634 10.6126C88.2719 9.6865 89.3564 8.95805 90.6113 8.41596C91.8605 7.87386 93.2175 7.59717 94.6825 7.59717C96.5392 7.59717 98.0836 7.90774 99.3101 8.52325C100.537 9.13875 101.61 9.9519 102.524 10.9627L99.736 13.9555C99.0432 13.244 98.3051 12.6567 97.5215 12.1993C96.7436 11.7419 95.784 11.5161 94.6427 11.5161C93.8251 11.5161 93.0699 11.6855 92.3715 12.0186C91.6788 12.3462 91.0826 12.7923 90.5886 13.3513C90.0946 13.9047 89.7028 14.5654 89.4189 15.3277C89.135 16.09 88.993 16.8919 88.993 17.7276V17.801C88.993 18.665 89.135 19.4781 89.4189 20.2404C89.7028 21.0028 90.1059 21.6691 90.6283 22.2338C91.1507 22.7984 91.7696 23.2502 92.485 23.5834C93.2005 23.9165 93.9954 24.0803 94.8642 24.0803C95.926 24.0803 96.8629 23.8544 97.6691 23.397C98.4754 22.9396 99.2363 22.358 99.9574 21.6408L102.666 24.3005C101.701 25.3847 100.599 26.2656 99.3612 26.9432C98.1291 27.6321 96.5506 27.9709 94.6484 27.9709Z" fill="white"/>
<path d="M116.725 27.5249V25.125C116.055 25.9156 115.203 26.5819 114.164 27.124C113.125 27.6661 111.858 27.9371 110.371 27.9371C109.428 27.9371 108.537 27.8073 107.691 27.5475C106.85 27.2877 106.112 26.9038 105.482 26.4012C104.846 25.893 104.341 25.2718 103.955 24.5152C103.574 23.7641 103.381 22.8945 103.381 21.9063V21.8329C103.381 20.7487 103.58 19.8057 103.977 19.0095C104.375 18.2076 104.926 17.5413 105.63 17.0162C106.334 16.4854 107.18 16.0901 108.156 15.8303C109.133 15.5706 110.195 15.4407 111.336 15.4407C112.528 15.4407 113.534 15.5141 114.368 15.6609C115.197 15.8077 115.992 16.0054 116.764 16.2538V15.8868C116.764 14.5315 116.35 13.4982 115.521 12.781C114.692 12.0695 113.499 11.7081 111.932 11.7081C110.819 11.7081 109.826 11.8211 108.957 12.0413C108.088 12.2615 107.214 12.5608 106.317 12.9278L105.09 9.34211C106.18 8.85083 107.293 8.45556 108.435 8.15627C109.576 7.86264 110.95 7.71582 112.557 7.71582C115.481 7.71582 117.65 8.43297 119.058 9.87856C120.472 11.3185 121.176 13.3457 121.176 15.9546V27.5249H116.725ZM116.838 19.3596C116.265 19.1394 115.595 18.953 114.811 18.8062C114.033 18.6594 113.21 18.586 112.341 18.586C110.927 18.586 109.826 18.857 109.031 19.3991C108.236 19.9412 107.844 20.681 107.844 21.6183V21.6917C107.844 22.6291 108.207 23.3406 108.94 23.8319C109.667 24.3232 110.57 24.5716 111.637 24.5716C112.381 24.5716 113.068 24.4756 113.698 24.278C114.328 24.0803 114.879 23.8037 115.351 23.4479C115.816 23.0921 116.185 22.663 116.446 22.1548C116.708 21.6522 116.838 21.0875 116.838 20.472V19.3596Z" fill="white"/>
<path d="M129.727 27.8579C128.91 27.8579 128.149 27.7562 127.451 27.5586C126.752 27.3609 126.145 27.0391 125.634 26.5986C125.123 26.1525 124.725 25.5709 124.453 24.8424C124.18 24.114 124.038 23.2105 124.038 22.1263V11.8547H121.551V8.00923H124.038V2.65039H128.575V8.00923H133.855V11.8547H128.575V21.4261C128.575 22.2901 128.785 22.9112 129.211 23.2896C129.631 23.6735 130.227 23.8655 130.994 23.8655C131.959 23.8655 132.89 23.6397 133.782 23.1992V26.864C133.214 27.1859 132.606 27.4287 131.959 27.6037C131.312 27.7732 130.568 27.8579 129.727 27.8579Z" fill="#BFBDBD"/>
<path d="M135.922 0.77002H140.788V5.01644H135.922V0.77002ZM136.11 8.00926H140.641V27.5247H136.11V8.00926Z" fill="#BFBDBD"/>
<path d="M141.657 8.00928H146.489L151.77 22.3522L157.085 8.00928H161.803L153.774 27.6716H149.72L141.657 8.00928Z" fill="#BFBDBD"/>
<path d="M175.953 0.730469C167.913 0.730469 161.4 7.21303 161.4 15.1977C161.4 18.1058 162.263 20.8106 163.751 23.0806C163.682 22.7079 163.643 22.3183 163.643 21.9061V21.8327C163.643 20.7485 163.841 19.8055 164.239 19.0093C164.636 18.2074 165.187 17.5411 165.891 17.0159C166.595 16.4851 167.441 16.0899 168.418 15.8301C169.4 15.5703 170.456 15.4405 171.598 15.4405C172.79 15.4405 173.795 15.5139 174.624 15.6607C175.453 15.8075 176.254 16.0052 177.02 16.2536V15.8866C177.02 14.5313 176.606 13.498 175.777 12.7808C174.948 12.0693 173.75 11.7079 172.188 11.7079C171.075 11.7079 170.082 11.8208 169.213 12.0411C168.344 12.2613 167.464 12.5606 166.573 12.9276L165.352 9.34189C166.442 8.85061 167.555 8.45534 168.696 8.15605C169.832 7.86242 171.212 7.7156 172.819 7.7156C175.743 7.7156 177.912 8.43275 179.32 9.87834C180.734 11.3183 181.438 13.3455 181.438 15.9543V27.5247H176.981V25.1248C176.311 25.9153 175.453 26.5817 174.414 27.1238C173.375 27.6659 172.109 27.9369 170.621 27.9369C169.94 27.9369 169.292 27.8691 168.662 27.7336C170.803 28.9703 173.29 29.6818 175.947 29.6818C183.982 29.6818 190.494 23.1992 190.494 15.2089C190.5 7.20739 183.987 0.730469 175.953 0.730469Z" fill="white"/>
<path d="M171.893 24.5713C172.637 24.5713 173.324 24.4753 173.954 24.2777C174.584 24.0801 175.135 23.8034 175.607 23.4476C176.078 23.0919 176.441 22.6627 176.702 22.1545C176.964 21.6519 177.094 21.0872 177.094 20.4717V19.3593C176.526 19.1391 175.851 18.9527 175.067 18.8059C174.289 18.6591 173.466 18.5857 172.597 18.5857C171.183 18.5857 170.082 18.8567 169.287 19.3988C168.492 19.9409 168.1 20.6807 168.1 21.618V21.6915C168.1 22.6288 168.463 23.3403 169.196 23.8316C169.928 24.3229 170.826 24.5713 171.893 24.5713Z" fill="white"/>
</g>
<defs>
<clipPath id="clip0">
<rect width="190" height="29.3522" fill="white" transform="translate(0.5 0.323975)"/>
</clipPath>
</defs>
</svg>
