<svg width="195" height="48" viewBox="0 0 195 48" fill="none" xmlns="http://www.w3.org/2000/svg">
<g clip-path="url(#clip0)">
<path d="M32 27.7646C28.6213 27.7646 25.8823 30.5036 25.8823 33.8823C25.8823 37.261 28.6213 40 32 40C35.3787 40 38.1176 37.261 38.1176 33.8823C38.1176 30.5036 35.3787 27.7646 32 27.7646ZM31.3345 36.5443L28.6724 33.8823L30.0034 32.5513L31.3344 33.8823L33.9965 31.2203L35.3275 32.5513L31.3345 36.5443Z" fill="#E20613"/>
<path d="M24 33.8823C24 29.3108 27.8539 25.6273 32.4706 25.8966V13C32.4706 10.2386 30.2381 8 27.4767 8C23.7282 8 18.6238 8 14.8764 8C12.1149 8 9.88232 10.2386 9.88232 13V35C9.88232 37.7614 12.1209 40 14.8823 40H26.8512C25.1089 38.5314 24 36.334 24 33.8823ZM15.5294 26.8235H13.647V24.9412H15.5294V26.8235ZM15.5294 23.0588H13.647V21.1765H15.5294V23.0588ZM15.5294 19.2941H13.647V17.4118H15.5294V19.2941ZM15.5294 15.5294H13.647V13.6471H15.5294V15.5294ZM17.4117 13.6471H28.7059V15.5294C28.1235 15.5294 17.9939 15.5294 17.4117 15.5294C17.4117 14.8711 17.4117 14.3054 17.4117 13.6471ZM17.4117 17.4118H28.7059V19.2941C28.1235 19.2941 17.9939 19.2941 17.4117 19.2941C17.4117 18.6358 17.4117 18.0701 17.4117 17.4118ZM17.4117 21.1765H28.7059V23.0588C28.1235 23.0588 17.9939 23.0588 17.4117 23.0588C17.4117 22.4005 17.4117 21.8348 17.4117 21.1765ZM23.0588 26.8235C22.5017 26.8235 17.9629 26.8235 17.4117 26.8235C17.4117 26.1652 17.4117 25.5995 17.4117 24.9412H23.0588V26.8235Z" fill="#ACB1BF"/>
</g>
<path d="M54.14 19.722V22.386H58.442V24.708H54.14V27.534H58.982V30H51.062V17.274H58.982V19.722H54.14ZM65.734 26.994L67.912 19.956H71.188L67.624 30H63.808L60.244 19.956H63.52L65.734 26.994ZM76.639 19.83C77.407 19.83 78.067 20.004 78.619 20.352C79.171 20.7 79.579 21.174 79.843 21.774V19.956H82.903V30H79.843V28.182C79.579 28.782 79.171 29.256 78.619 29.604C78.067 29.952 77.407 30.126 76.639 30.126C75.811 30.126 75.067 29.922 74.407 29.514C73.759 29.094 73.243 28.494 72.859 27.714C72.487 26.934 72.301 26.022 72.301 24.978C72.301 23.922 72.487 23.01 72.859 22.242C73.243 21.462 73.759 20.868 74.407 20.46C75.067 20.04 75.811 19.83 76.639 19.83ZM77.629 22.53C76.969 22.53 76.435 22.746 76.027 23.178C75.631 23.61 75.433 24.21 75.433 24.978C75.433 25.746 75.631 26.346 76.027 26.778C76.435 27.21 76.969 27.426 77.629 27.426C78.277 27.426 78.805 27.204 79.213 26.76C79.633 26.316 79.843 25.722 79.843 24.978C79.843 24.222 79.633 23.628 79.213 23.196C78.805 22.752 78.277 22.53 77.629 22.53ZM88.4602 16.68V30H85.3822V16.68H88.4602ZM100.935 19.956V30H97.8394V28.182C97.5514 28.77 97.1194 29.238 96.5434 29.586C95.9794 29.934 95.3194 30.108 94.5634 30.108C93.4114 30.108 92.4934 29.724 91.8094 28.956C91.1374 28.188 90.8014 27.132 90.8014 25.788V19.956H93.8614V25.41C93.8614 26.094 94.0354 26.628 94.3834 27.012C94.7434 27.384 95.2234 27.57 95.8234 27.57C96.4474 27.57 96.9394 27.372 97.2994 26.976C97.6594 26.58 97.8394 26.016 97.8394 25.284V19.956H100.935ZM107.233 19.83C108.001 19.83 108.661 20.004 109.213 20.352C109.765 20.7 110.173 21.174 110.437 21.774V19.956H113.497V30H110.437V28.182C110.173 28.782 109.765 29.256 109.213 29.604C108.661 29.952 108.001 30.126 107.233 30.126C106.405 30.126 105.661 29.922 105.001 29.514C104.353 29.094 103.837 28.494 103.453 27.714C103.081 26.934 102.895 26.022 102.895 24.978C102.895 23.922 103.081 23.01 103.453 22.242C103.837 21.462 104.353 20.868 105.001 20.46C105.661 20.04 106.405 19.83 107.233 19.83ZM108.223 22.53C107.563 22.53 107.029 22.746 106.621 23.178C106.225 23.61 106.027 24.21 106.027 24.978C106.027 25.746 106.225 26.346 106.621 26.778C107.029 27.21 107.563 27.426 108.223 27.426C108.871 27.426 109.399 27.204 109.807 26.76C110.227 26.316 110.437 25.722 110.437 24.978C110.437 24.222 110.227 23.628 109.807 23.196C109.399 22.752 108.871 22.53 108.223 22.53ZM121.664 27.354V30H120.278C119.102 30 118.184 29.712 117.524 29.136C116.876 28.548 116.552 27.582 116.552 26.238V22.548H115.202V19.956H116.552V17.49H119.63V19.956H121.646V22.548H119.63V26.292C119.63 26.688 119.708 26.964 119.864 27.12C120.032 27.276 120.308 27.354 120.692 27.354H121.664ZM123.466 17.13C123.466 16.662 123.634 16.278 123.97 15.978C124.306 15.666 124.75 15.51 125.302 15.51C125.854 15.51 126.298 15.666 126.634 15.978C126.97 16.278 127.138 16.662 127.138 17.13C127.138 17.586 126.97 17.97 126.634 18.282C126.298 18.582 125.854 18.732 125.302 18.732C124.75 18.732 124.306 18.582 123.97 18.282C123.634 17.97 123.466 17.586 123.466 17.13ZM126.832 19.956V30H123.754V19.956H126.832ZM133.961 26.994L136.139 19.956H139.415L135.851 30H132.035L128.471 19.956H131.747L133.961 26.994ZM144.866 19.83C145.634 19.83 146.294 20.004 146.846 20.352C147.398 20.7 147.806 21.174 148.07 21.774V19.956H151.13V30H148.07V28.182C147.806 28.782 147.398 29.256 146.846 29.604C146.294 29.952 145.634 30.126 144.866 30.126C144.038 30.126 143.294 29.922 142.634 29.514C141.986 29.094 141.47 28.494 141.086 27.714C140.714 26.934 140.528 26.022 140.528 24.978C140.528 23.922 140.714 23.01 141.086 22.242C141.47 21.462 141.986 20.868 142.634 20.46C143.294 20.04 144.038 19.83 144.866 19.83ZM145.856 22.53C145.196 22.53 144.662 22.746 144.254 23.178C143.858 23.61 143.66 24.21 143.66 24.978C143.66 25.746 143.858 26.346 144.254 26.778C144.662 27.21 145.196 27.426 145.856 27.426C146.504 27.426 147.032 27.204 147.44 26.76C147.86 26.316 148.07 25.722 148.07 24.978C148.07 24.222 147.86 23.628 147.44 23.196C147.032 22.752 146.504 22.53 145.856 22.53Z" fill="#343843"/>
<path d="M176.071 24L172.25 20.179C171.836 19.765 171.836 19.093 172.25 18.679C172.664 18.265 173.336 18.265 173.75 18.679L178.364 23.293C178.755 23.684 178.755 24.317 178.364 24.707L173.75 29.321C173.336 29.735 172.664 29.735 172.25 29.321C171.836 28.907 171.836 28.235 172.25 27.821L176.071 24Z" fill="#343843"/>
<defs>
<clipPath id="clip0">
<rect width="32" height="32" fill="white" transform="translate(8 8)"/>
</clipPath>
</defs>
</svg>
