<svg width="97" height="48" viewBox="0 0 97 48" fill="none" xmlns="http://www.w3.org/2000/svg">
<path d="M22.3914 25.7994L20.6851 24.0931L19.3589 25.4188L22.3914 28.4506L28.6414 22.2006L27.3151 20.875L22.3914 25.7994Z" fill="#E20613"/>
<path d="M24 13.625C18.2794 13.625 13.625 18.2794 13.625 24C13.625 29.7206 18.2794 34.375 24 34.375C29.7206 34.375 34.375 29.7206 34.375 24C34.375 18.2794 29.7206 13.625 24 13.625ZM22.3912 31.1025L16.7075 25.4188L20.685 21.4412L22.3912 23.1475L27.315 18.2231L31.2925 22.2006L22.3912 31.1025Z" fill="#E20613"/>
<path d="M35.3137 12.6863C32.2919 9.66438 28.2738 8 24 8C19.7262 8 15.7081 9.66438 12.6863 12.6863C9.66438 15.7081 8 19.7262 8 24C8 28.2738 9.66438 32.2919 12.6863 35.3137C15.7081 38.3356 19.7262 40 24 40C28.2738 40 32.2919 38.3356 35.3137 35.3137C38.3356 32.2919 40 28.2738 40 24C40 19.7262 38.3356 15.7081 35.3137 12.6863ZM24 36.25C17.2456 36.25 11.75 30.7544 11.75 24C11.75 17.2456 17.2456 11.75 24 11.75C30.7544 11.75 36.25 17.2456 36.25 24C36.25 30.7544 30.7544 36.25 24 36.25Z" fill="#ACB1BF"/>
<path d="M59.36 17.274V19.722H54.14V22.512H58.172V24.852H54.14V30H51.062V17.274H59.36ZM61.0129 17.13C61.0129 16.662 61.1809 16.278 61.5169 15.978C61.8529 15.666 62.2969 15.51 62.8489 15.51C63.4009 15.51 63.8449 15.666 64.1809 15.978C64.5169 16.278 64.6849 16.662 64.6849 17.13C64.6849 17.586 64.5169 17.97 64.1809 18.282C63.8449 18.582 63.4009 18.732 62.8489 18.732C62.2969 18.732 61.8529 18.582 61.5169 18.282C61.1809 17.97 61.0129 17.586 61.0129 17.13ZM64.3789 19.956V30H61.3009V19.956H64.3789ZM71.508 26.994L73.686 19.956H76.962L73.398 30H69.582L66.018 19.956H69.294L71.508 26.994ZM88.1371 24.708C88.1371 24.96 88.1071 25.236 88.0471 25.536H81.0811C81.1171 26.292 81.3091 26.838 81.6571 27.174C82.0051 27.498 82.4491 27.66 82.9891 27.66C83.4451 27.66 83.8231 27.546 84.1231 27.318C84.4231 27.09 84.6211 26.796 84.7171 26.436H87.9751C87.8431 27.144 87.5551 27.78 87.1111 28.344C86.6671 28.896 86.1031 29.334 85.4191 29.658C84.7351 29.97 83.9731 30.126 83.1331 30.126C82.1491 30.126 81.2731 29.922 80.5051 29.514C79.7491 29.094 79.1551 28.494 78.7231 27.714C78.2911 26.934 78.0751 26.022 78.0751 24.978C78.0751 23.922 78.2851 23.01 78.7051 22.242C79.1371 21.462 79.7371 20.868 80.5051 20.46C81.2731 20.04 82.1491 19.83 83.1331 19.83C84.1291 19.83 85.0051 20.034 85.7611 20.442C86.5171 20.85 87.0991 21.426 87.5071 22.17C87.9271 22.902 88.1371 23.748 88.1371 24.708ZM85.0231 24.24C85.0351 23.58 84.8551 23.088 84.4831 22.764C84.1231 22.428 83.6731 22.26 83.1331 22.26C82.5691 22.26 82.1011 22.428 81.7291 22.764C81.3571 23.1 81.1471 23.592 81.0991 24.24H85.0231Z" fill="#343843"/>
</svg>
