<svg width="185" height="48" viewBox="0 0 185 48" fill="none" xmlns="http://www.w3.org/2000/svg">
<path d="M22.3828 19.0364C22.3828 18.1203 21.6374 17.375 20.7211 17.375C19.8048 17.375 19.0593 18.1203 19.0593 19.0364C19.0593 19.9526 19.8048 20.6979 20.7211 20.6979C21.6374 20.6979 22.3828 19.9526 22.3828 19.0364Z" fill="#E20613"/>
<path d="M16.0118 26.0196V25.4062C16.0118 23.7573 16.8647 22.3046 18.1518 21.4633C17.5526 20.8295 17.1839 19.9755 17.1839 19.0365C17.1839 17.0865 18.7706 15.5001 20.721 15.5001C22.6713 15.5001 24.2581 17.0865 24.2581 19.0365C24.2581 19.9755 23.8895 20.8295 23.2901 21.4633C24.5772 22.3046 25.4302 23.7573 25.4302 25.4062V26.0197C26.8929 24.7193 27.816 22.825 27.816 20.7187C27.816 16.8072 24.6332 13.625 20.721 13.625C16.8088 13.625 13.626 16.8072 13.626 20.7187C13.626 22.8249 14.5492 24.7193 16.0118 26.0196Z" fill="#E20613"/>
<path d="M23.5548 25.4063C23.5548 23.844 22.2836 22.573 20.721 22.573C19.1584 22.573 17.8872 23.844 17.8872 25.4063V27.2214C18.7557 27.6012 19.7141 27.8125 20.721 27.8125C21.728 27.8125 22.6864 27.6012 23.5548 27.2214V25.4063Z" fill="#E20613"/>
<path d="M30.374 34.3528L34.3516 30.376L39.9999 36.0233L36.0224 40.0001L30.374 34.3528Z" fill="#ACB1BF"/>
<path d="M33.0313 29.0493L31.4796 27.4979C32.7219 25.5342 33.4421 23.2091 33.4421 20.7187C33.4421 13.7056 27.7354 8 20.721 8C13.7066 8 8 13.7056 8 20.7187C8 27.7318 13.7066 33.4374 20.721 33.4374C23.2118 33.4374 25.5374 32.7174 27.5014 31.4754L29.0531 33.0267L33.0313 29.0493ZM20.721 11.75C25.6673 11.75 29.6914 15.7733 29.6914 20.7187C29.6914 25.6641 25.6673 29.6874 20.721 29.6874C15.7748 29.6874 11.7507 25.6641 11.7507 20.7187C11.7507 15.7733 15.7748 11.75 20.721 11.75Z" fill="#ACB1BF"/>
<path d="M60.206 26.418C60.206 27.09 60.032 27.708 59.684 28.272C59.348 28.836 58.844 29.286 58.172 29.622C57.512 29.958 56.708 30.126 55.76 30.126C54.332 30.126 53.156 29.778 52.232 29.082C51.308 28.386 50.804 27.414 50.72 26.166H53.996C54.044 26.646 54.212 27.024 54.5 27.3C54.8 27.576 55.178 27.714 55.634 27.714C56.03 27.714 56.342 27.606 56.57 27.39C56.798 27.174 56.912 26.886 56.912 26.526C56.912 26.202 56.804 25.932 56.588 25.716C56.384 25.5 56.126 25.326 55.814 25.194C55.502 25.05 55.07 24.882 54.518 24.69C53.714 24.414 53.054 24.15 52.538 23.898C52.034 23.634 51.596 23.25 51.224 22.746C50.864 22.23 50.684 21.564 50.684 20.748C50.684 19.992 50.876 19.338 51.26 18.786C51.644 18.234 52.172 17.814 52.844 17.526C53.528 17.226 54.308 17.076 55.184 17.076C56.6 17.076 57.722 17.412 58.55 18.084C59.39 18.756 59.864 19.68 59.972 20.856H56.642C56.582 20.436 56.426 20.106 56.174 19.866C55.934 19.614 55.604 19.488 55.184 19.488C54.824 19.488 54.53 19.584 54.302 19.776C54.086 19.968 53.978 20.25 53.978 20.622C53.978 20.922 54.074 21.18 54.266 21.396C54.47 21.6 54.722 21.768 55.022 21.9C55.322 22.032 55.754 22.2 56.318 22.404C57.134 22.68 57.8 22.956 58.316 23.232C58.832 23.496 59.276 23.886 59.648 24.402C60.02 24.918 60.206 25.59 60.206 26.418ZM71.8077 24.708C71.8077 24.96 71.7777 25.236 71.7177 25.536H64.7517C64.7877 26.292 64.9797 26.838 65.3277 27.174C65.6757 27.498 66.1197 27.66 66.6597 27.66C67.1157 27.66 67.4937 27.546 67.7937 27.318C68.0937 27.09 68.2917 26.796 68.3877 26.436H71.6457C71.5137 27.144 71.2257 27.78 70.7817 28.344C70.3377 28.896 69.7737 29.334 69.0897 29.658C68.4057 29.97 67.6437 30.126 66.8037 30.126C65.8197 30.126 64.9437 29.922 64.1757 29.514C63.4197 29.094 62.8257 28.494 62.3937 27.714C61.9617 26.934 61.7457 26.022 61.7457 24.978C61.7457 23.922 61.9557 23.01 62.3757 22.242C62.8077 21.462 63.4077 20.868 64.1757 20.46C64.9437 20.04 65.8197 19.83 66.8037 19.83C67.7997 19.83 68.6757 20.034 69.4317 20.442C70.1877 20.85 70.7697 21.426 71.1777 22.17C71.5977 22.902 71.8077 23.748 71.8077 24.708ZM68.6937 24.24C68.7057 23.58 68.5257 23.088 68.1537 22.764C67.7937 22.428 67.3437 22.26 66.8037 22.26C66.2397 22.26 65.7717 22.428 65.3997 22.764C65.0277 23.1 64.8177 23.592 64.7697 24.24H68.6937ZM76.8502 16.68V30H73.7722V16.68H76.8502ZM88.8754 24.708C88.8754 24.96 88.8454 25.236 88.7854 25.536H81.8194C81.8554 26.292 82.0474 26.838 82.3954 27.174C82.7434 27.498 83.1874 27.66 83.7274 27.66C84.1834 27.66 84.5614 27.546 84.8614 27.318C85.1614 27.09 85.3594 26.796 85.4554 26.436H88.7134C88.5814 27.144 88.2934 27.78 87.8494 28.344C87.4054 28.896 86.8414 29.334 86.1574 29.658C85.4734 29.97 84.7114 30.126 83.8714 30.126C82.8874 30.126 82.0114 29.922 81.2434 29.514C80.4874 29.094 79.8934 28.494 79.4614 27.714C79.0294 26.934 78.8134 26.022 78.8134 24.978C78.8134 23.922 79.0234 23.01 79.4434 22.242C79.8754 21.462 80.4754 20.868 81.2434 20.46C82.0114 20.04 82.8874 19.83 83.8714 19.83C84.8674 19.83 85.7434 20.034 86.4994 20.442C87.2554 20.85 87.8374 21.426 88.2454 22.17C88.6654 22.902 88.8754 23.748 88.8754 24.708ZM85.7614 24.24C85.7734 23.58 85.5934 23.088 85.2214 22.764C84.8614 22.428 84.4114 22.26 83.8714 22.26C83.3074 22.26 82.8394 22.428 82.4674 22.764C82.0954 23.1 81.8854 23.592 81.8374 24.24H85.7614ZM95.3759 19.83C96.6719 19.83 97.7579 20.19 98.6339 20.91C99.5099 21.618 100.062 22.596 100.29 23.844H97.0319C96.9359 23.412 96.7379 23.076 96.4379 22.836C96.1379 22.596 95.7599 22.476 95.3039 22.476C94.7639 22.476 94.3199 22.692 93.9719 23.124C93.6239 23.544 93.4499 24.162 93.4499 24.978C93.4499 25.794 93.6239 26.418 93.9719 26.85C94.3199 27.27 94.7639 27.48 95.3039 27.48C95.7599 27.48 96.1379 27.36 96.4379 27.12C96.7379 26.88 96.9359 26.544 97.0319 26.112H100.29C100.062 27.36 99.5099 28.344 98.6339 29.064C97.7579 29.772 96.6719 30.126 95.3759 30.126C94.3919 30.126 93.5159 29.922 92.7479 29.514C91.9919 29.094 91.3979 28.494 90.9659 27.714C90.5339 26.934 90.3179 26.022 90.3179 24.978C90.3179 23.922 90.5279 23.01 90.9479 22.242C91.3799 21.462 91.9799 20.868 92.7479 20.46C93.5159 20.04 94.3919 19.83 95.3759 19.83ZM106.793 19.83C108.089 19.83 109.175 20.19 110.051 20.91C110.927 21.618 111.479 22.596 111.707 23.844H108.449C108.353 23.412 108.155 23.076 107.855 22.836C107.555 22.596 107.177 22.476 106.721 22.476C106.181 22.476 105.737 22.692 105.389 23.124C105.041 23.544 104.867 24.162 104.867 24.978C104.867 25.794 105.041 26.418 105.389 26.85C105.737 27.27 106.181 27.48 106.721 27.48C107.177 27.48 107.555 27.36 107.855 27.12C108.155 26.88 108.353 26.544 108.449 26.112H111.707C111.479 27.36 110.927 28.344 110.051 29.064C109.175 29.772 108.089 30.126 106.793 30.126C105.809 30.126 104.933 29.922 104.165 29.514C103.409 29.094 102.815 28.494 102.383 27.714C101.951 26.934 101.735 26.022 101.735 24.978C101.735 23.922 101.945 23.01 102.365 22.242C102.797 21.462 103.397 20.868 104.165 20.46C104.933 20.04 105.809 19.83 106.793 19.83ZM113.385 17.13C113.385 16.662 113.553 16.278 113.889 15.978C114.225 15.666 114.669 15.51 115.221 15.51C115.773 15.51 116.217 15.666 116.553 15.978C116.889 16.278 117.057 16.662 117.057 17.13C117.057 17.586 116.889 17.97 116.553 18.282C116.217 18.582 115.773 18.732 115.221 18.732C114.669 18.732 114.225 18.582 113.889 18.282C113.553 17.97 113.385 17.586 113.385 17.13ZM116.751 19.956V30H113.673V19.956H116.751ZM123.934 19.83C124.93 19.83 125.818 20.04 126.598 20.46C127.39 20.868 128.008 21.462 128.452 22.242C128.908 23.022 129.136 23.934 129.136 24.978C129.136 26.022 128.908 26.934 128.452 27.714C128.008 28.494 127.39 29.094 126.598 29.514C125.818 29.922 124.93 30.126 123.934 30.126C122.938 30.126 122.044 29.922 121.252 29.514C120.46 29.094 119.836 28.494 119.38 27.714C118.936 26.934 118.714 26.022 118.714 24.978C118.714 23.934 118.936 23.022 119.38 22.242C119.836 21.462 120.46 20.868 121.252 20.46C122.044 20.04 122.938 19.83 123.934 19.83ZM123.934 22.494C123.346 22.494 122.848 22.71 122.44 23.142C122.044 23.562 121.846 24.174 121.846 24.978C121.846 25.782 122.044 26.394 122.44 26.814C122.848 27.234 123.346 27.444 123.934 27.444C124.522 27.444 125.014 27.234 125.41 26.814C125.806 26.394 126.004 25.782 126.004 24.978C126.004 24.174 125.806 23.562 125.41 23.142C125.014 22.71 124.522 22.494 123.934 22.494ZM126.508 17.382L122.17 19.236V17.148L126.508 15.06V17.382ZM137.464 19.848C138.616 19.848 139.528 20.232 140.2 21C140.884 21.768 141.226 22.824 141.226 24.168V30H138.148V24.528C138.148 23.856 137.968 23.334 137.608 22.962C137.26 22.578 136.792 22.386 136.204 22.386C135.58 22.386 135.082 22.584 134.71 22.98C134.35 23.376 134.17 23.94 134.17 24.672V30H131.092V19.956H134.17V21.792C134.458 21.192 134.884 20.718 135.448 20.37C136.024 20.022 136.696 19.848 137.464 19.848Z" fill="#343843"/>
<path d="M166.071 23.9999L162.25 20.1789C161.836 19.7649 161.836 19.0929 162.25 18.6789C162.664 18.2649 163.336 18.2649 163.75 18.6789L168.364 23.2929C168.755 23.6839 168.755 24.3169 168.364 24.7069L163.75 29.3209C163.336 29.7349 162.664 29.7349 162.25 29.3209C161.836 28.9069 161.836 28.2349 162.25 27.8209L166.071 23.9999Z" fill="#343843"/>
</svg>
