<svg width="48" height="48" viewBox="0 0 48 48" fill="none" xmlns="http://www.w3.org/2000/svg">
<path d="M17.1426 30.8098V33.7664C18.6747 36.0708 21.2025 37.4322 23.9997 37.4322C26.797 37.4322 29.3247 36.0708 30.8569 33.7664V30.8098C29.1004 32.664 26.6748 33.8125 23.9997 33.8125C21.3247 33.8125 18.8991 32.664 17.1426 30.8098Z" fill="#ACB1BF"/>
<path d="M38.1876 19.4268C38.1876 18.3935 37.8049 17.4502 37.1746 16.7286H33.6992V23.5313H34.0831C36.3499 23.5313 38.1876 21.6937 38.1876 19.4268Z" fill="#ACB1BF"/>
<path d="M30.8876 16.7286H17.1133V23.5783C17.1133 27.6706 20.2028 31 24.0004 31C27.7981 31 30.8876 27.6707 30.8876 23.5783V16.7286Z" fill="#ACB1BF"/>
<path d="M14.2999 16.7286H10.8245C10.1942 17.4502 9.81152 18.3935 9.81152 19.4268C9.81152 21.6937 11.6492 23.5313 13.916 23.5313H14.2999V16.7286Z" fill="#ACB1BF"/>
<path d="M7.26758 48H11.1246V36.8514L7.26758 37.2291V48Z" fill="#E20613"/>
<path d="M0 44.8221V48H4.45509V37.9094C1.80966 39.1087 0 41.7708 0 44.8221Z" fill="#ACB1BF"/>
<path d="M43.5449 37.9094V48H48V44.8221C48 41.7708 46.1904 39.1087 43.5449 37.9094Z" fill="#ACB1BF"/>
<path d="M24.0003 40.2447C20.711 40.2447 17.7 38.8402 15.6227 36.4111L13.9375 36.5761V48H34.0632V36.5761L32.378 36.4111C30.3007 38.8402 27.2897 40.2447 24.0003 40.2447Z" fill="#ACB1BF"/>
<path d="M36.875 48H40.7321V37.2291L36.875 36.8514V48Z" fill="#E20613"/>
<path d="M40.138 11.1875H36.9784C35.8535 7.12912 32.873 3.83456 29.0106 2.28066V11.1875H26.1981V0H21.8014V11.1875H18.9889V2.28066C15.1265 3.83466 12.1459 7.12922 11.0211 11.1876H7.86133V14.0001H40.1379V11.1875H40.138Z" fill="#E20613"/>
</svg>
