<svg width="48" height="48" viewBox="0 0 48 48" fill="none" xmlns="http://www.w3.org/2000/svg">
<path d="M24 21.5625C29.9448 21.5625 34.7812 16.726 34.7812 10.7812C34.7812 4.83647 29.9448 0 24 0C18.0552 0 13.2188 4.83647 13.2188 10.7812C13.2188 16.726 18.0552 21.5625 24 21.5625Z" fill="#ACB1BF"/>
<path d="M26.3438 24.1722C25.5821 24.3051 24.7991 24.3751 24 24.3751C23.2009 24.3751 22.4179 24.3051 21.6562 24.1722V28.1251H22.4942L21.6998 38.9297L24 41.2301L26.3003 38.9297L25.5059 28.1251H26.3438V24.1722Z" fill="#E20613"/>
<path d="M33.471 20.5225C32.2358 21.7237 30.774 22.6926 29.1562 23.3583V28.125H28.3259L29.1997 40.0078L24 45.2075L18.8003 40.0078L19.6741 28.125H18.8438V23.3583C17.2261 22.6926 15.7642 21.7237 14.529 20.5225C11.2118 22.5944 9 26.2778 9 30.4687V48H39V30.4687C39 26.2778 36.7882 22.5944 33.471 20.5225Z" fill="#ACB1BF"/>
</svg>
