<svg width="48" height="48" viewBox="0 0 48 48" fill="none" xmlns="http://www.w3.org/2000/svg">
<g clip-path="url(#clip0)">
<path d="M22.376 19.4994C23.1526 19.4994 23.7822 18.8698 23.7822 18.0932C23.7822 17.3165 23.1526 16.6869 22.376 16.6869C21.5993 16.6869 20.9697 17.3165 20.9697 18.0932C20.9697 18.8698 21.5993 19.4994 22.376 19.4994Z" fill="#E20613"/>
<path d="M27.2507 10.7072L25.7801 12.1778L24.9166 11.8281C23.3017 11.1741 21.4492 11.1741 19.8342 11.8281L18.9707 12.1778L17.5001 10.7071L14.9893 13.2179L16.4599 14.6885L16.1102 15.5519C15.4561 17.167 15.4561 19.0194 16.1102 20.6343L16.4599 21.4977L14.9893 22.9683L17.5002 25.4791L18.9708 24.0086L19.8343 24.3582C21.4495 25.0123 23.302 25.0123 24.9167 24.3582L25.7802 24.0086L27.2509 25.4791L29.7617 22.9683L28.2911 21.4977L28.6408 20.6343C29.2949 19.0194 29.2949 17.1669 28.6408 15.5519L28.2911 14.6885L29.7617 13.2179L27.2507 10.7072ZM22.3754 22.3118C20.0491 22.3118 18.1566 20.4193 18.1566 18.0931C18.1566 15.7669 20.0491 13.8745 22.3754 13.8745C24.7016 13.8745 26.5941 15.7669 26.5941 18.0931C26.5941 20.4193 24.7016 22.3118 22.3754 22.3118Z" fill="#E20613"/>
<path d="M41.5921 30.2248L45.7592 28.1413L41.5921 18.6063V16.8681C41.5921 7.56694 34.0248 0 24.7234 0H20.0297C17.5356 0 15.1204 0.505594 12.8513 1.50281C10.6619 2.46497 8.716 3.83475 7.06768 5.57419C3.71059 9.11672 2.00546 13.7348 2.26628 18.5775C2.52512 23.3844 4.75412 27.8783 8.40915 31.006L9.38771 48L31.9675 47.9724L32.9414 42.3902H41.1014L43.7509 36.401L41.5921 34.3816V30.2248ZM31.5603 20.7892L33.7396 22.9684L27.2513 29.4565L25.072 27.2774C23.3205 27.7867 21.4313 27.7868 19.6798 27.2774L17.5005 29.4566L11.0121 22.9685L13.1914 20.7892C12.6822 19.0377 12.6822 17.1488 13.1914 15.3972L11.0121 13.218L17.5005 6.72984L19.6798 8.90897C21.4314 8.39962 23.3202 8.39962 25.072 8.90897L27.2512 6.72975L33.7396 13.2179L31.5602 15.3971C32.0696 17.1487 32.0696 19.0377 31.5603 20.7892Z" fill="#ACB1BF"/>
</g>
<defs>
<clipPath id="clip0">
<rect width="48" height="48" fill="white"/>
</clipPath>
</defs>
</svg>
