<svg width="48" height="48" viewBox="0 0 48 48" fill="none" xmlns="http://www.w3.org/2000/svg">
<path d="M46.2876 28.2422H42.5435L35.7207 40.1326H43.4444L43.4342 44.0979L46.2467 44.1052L46.2569 40.1325H47.9999V37.32H46.2643L46.2876 28.2422ZM43.4518 37.3201H40.5772L43.4647 32.2879L43.4518 37.3201Z" fill="#E20613"/>
<path d="M34.4943 37.0166C35.3656 35.7718 36.0002 34.4418 36.1686 32.9456C36.1686 30.3693 34.0727 28.2733 31.4963 28.2733C29.2687 28.2733 27.3406 29.858 26.9117 32.0415L26.6406 33.4214L29.4004 33.9634L29.6715 32.5835C29.8419 31.7157 30.6094 31.0857 31.4963 31.0857C32.496 31.0857 33.3139 31.8784 33.3545 32.8683C33.1658 33.8082 32.7473 34.6078 32.1902 35.4038C29.1137 39.7995 27.7683 41.2392 27.7577 41.2505L27.3715 41.6557L27.3627 44.0455L36.7052 44.0741L36.7139 41.2616L31.3998 41.2454C32.145 40.2856 33.1654 38.9154 34.4943 37.0166Z" fill="#E20613"/>
<path d="M39.4765 22.5937C38.8054 15.145 32.8554 9.19612 25.4068 8.52487V11.3906H22.5943V8.52524C15.1459 9.19659 9.19711 15.1454 8.52577 22.5937H11.3911V25.4062H8.52539C9.19664 32.8549 15.1455 38.8049 22.5943 39.476V36.6094H25.4068V27.9892C24.9665 28.1449 24.4935 28.2305 24.0005 28.2305C23.3467 28.2305 22.7272 28.0812 22.1739 27.8153L19.3308 30.6584L17.3421 28.6697L20.1852 25.8266C19.9192 25.2734 19.77 24.6538 19.77 24C19.77 22.1602 20.9509 20.5918 22.5943 20.0107V15.5273H25.4068V20.0107C27.0501 20.5918 28.231 22.1601 28.231 24C28.231 24.4929 28.1454 24.966 27.9898 25.4062H36.6099V22.5937H39.4765Z" fill="#ACB1BF"/>
<path d="M24 25.418C24.7831 25.418 25.418 24.7831 25.418 24C25.418 23.2169 24.7831 22.582 24 22.582C23.2169 22.582 22.582 23.2169 22.582 24C22.582 24.7831 23.2169 25.418 24 25.418Z" fill="#ACB1BF"/>
<path d="M40.9705 7.02938C36.4375 2.49638 30.4106 0 24 0C17.5894 0 11.5625 2.49638 7.02947 7.02938C2.49638 11.5625 0 17.5894 0 24C0 30.4106 2.49638 36.4375 7.02947 40.9706C11.5625 45.5036 17.5894 48 24 48H25.4062V42.3516H24C13.8809 42.3516 5.64844 34.1191 5.64844 24C5.64844 13.8809 13.8809 5.64844 24 5.64844C34.1191 5.64844 42.3516 13.8809 42.3516 24V25.4062H48V24C48 17.5894 45.5036 11.5625 40.9705 7.02938Z" fill="#ACB1BF"/>
</svg>
