<svg width="48" height="48" viewBox="0 0 48 48" fill="none" xmlns="http://www.w3.org/2000/svg">
<g clip-path="url(#clip0)">
<path d="M34.3926 22.3134C34.3926 21.2088 35.288 20.3134 36.3926 20.3134H45.9999C47.1044 20.3134 47.9999 21.2088 47.9999 22.3134V24.2106H34.3926V22.3134Z" fill="#ACB1BF"/>
<path d="M34.3926 37.1869H47.9999V39.5642C47.9999 40.6688 47.1044 41.5642 45.9999 41.5642H36.3926C35.288 41.5642 34.3926 40.6688 34.3926 39.5642V37.1869Z" fill="#E20613"/>
<path d="M47.9999 34.3744V27.0234H34.3926V34.3744H47.9999Z" fill="#ACB1BF"/>
<path d="M26.4218 35.7645H31.5802V29.8799H0V35.7645H16.9149L16.5374 38.6693H14.7041V41.4818H28.6322V38.6693H26.799L26.4218 35.7645Z" fill="#E20613"/>
<path d="M31.5802 27.0674V17.5009H43.3363V11.4688C43.3363 8.70733 41.0977 6.46875 38.3363 6.46875H5C2.23858 6.46875 0 8.70733 0 11.4688V27.0674H31.5802Z" fill="#ACB1BF"/>
</g>
<defs>
<clipPath id="clip0">
<rect width="48" height="48" fill="white"/>
</clipPath>
</defs>
</svg>
