<svg width="48" height="48" viewBox="0 0 48 48" fill="none" xmlns="http://www.w3.org/2000/svg">
<g clip-path="url(#clip0)">
<path d="M16.8141 16.5227C21.3694 16.5227 25.0754 12.8167 25.0754 8.26135C25.0754 3.70605 21.3694 1.14441e-05 16.8141 1.14441e-05C12.2588 1.14441e-05 8.55273 3.70605 8.55273 8.26135C8.55273 12.8167 12.2588 16.5227 16.8141 16.5227Z" fill="#ACB1BF"/>
<path d="M30.2593 23.7902C29.1342 20.1074 25.9889 17.2985 22.1206 16.6604L18.2233 22.2091V34.3669H15.4055V22.2092L11.508 16.6604C6.64509 17.4626 2.92383 21.6957 2.92383 26.7825V44.9176H22.8048C21.2393 42.6812 20.3193 39.9615 20.3193 37.0305C20.3193 30.763 24.5233 25.4596 30.2593 23.7902ZM12.1603 29.0632H9.0392V25.9421H12.1603V29.0632Z" fill="#ACB1BF"/>
<path d="M34.1063 26.0611C32.9184 26.0611 31.7743 26.2516 30.7022 26.6024C26.315 28.0381 23.1367 32.1699 23.1367 37.0305C23.1367 40.1237 24.424 42.9216 26.4906 44.9176C28.4651 46.8248 31.1508 48 34.1063 48C40.1548 48 45.0758 43.0791 45.0758 37.0305C45.0758 30.9819 40.1549 26.0611 34.1063 26.0611ZM32.9344 41.712L30.7045 39.4822L28.9039 37.6816L30.7045 35.881L30.8963 35.6892L32.9344 37.7272L37.3163 33.3454L39.3087 35.3378L32.9344 41.712Z" fill="#E20613"/>
</g>
<defs>
<clipPath id="clip0">
<rect width="48" height="48" fill="white"/>
</clipPath>
</defs>
</svg>
