<svg width="48" height="48" viewBox="0 0 48 48" fill="none" xmlns="http://www.w3.org/2000/svg">
<path d="M28.66 26.7955L28.9852 26.8728L29.3105 26.7955C31.8627 26.1888 34.164 24.7212 35.7904 22.6628C37.4167 20.6044 38.3124 18.0261 38.3124 15.4028V7.82601L28.9852 2.93311L19.658 7.82601V15.4027C19.658 18.026 20.5537 20.6043 22.18 22.6627C23.8065 24.7211 26.1078 26.1888 28.66 26.7955ZM25.7377 13.2233L28.0962 15.5508L32.2261 11.421L34.2148 13.4098L28.1094 19.5152L23.7622 15.2251L25.7377 13.2233Z" fill="#E20613"/>
<path d="M0 26.4963V45.0667H3.09375C3.81206 45.0667 4.48575 44.876 5.07028 44.5452V27.0158C4.48594 26.6854 3.81169 26.4962 3.09375 26.4962H0V26.4963Z" fill="#E20613"/>
<path d="M47.192 27.8697C46.1494 26.8266 44.4772 26.7862 43.3854 27.7779L37.5532 33.0745C37.5589 33.1749 37.5626 33.2759 37.5626 33.3778C37.5626 36.2835 35.1985 38.6476 32.2927 38.6476H22.4953V35.8351H32.2926C33.6476 35.8351 34.75 34.7328 34.75 33.3779C34.75 32.0229 33.6476 30.9206 32.2926 30.9206H21.5171L21.0963 30.4311C19.3935 28.4505 16.9221 27.3146 14.3157 27.3146C11.8816 27.3146 9.56534 28.3056 7.88281 30.0498V42.5879L15.0807 45.0208H33.4545L47.156 31.8071C47.6933 31.2889 47.993 30.5924 47.9997 29.846C48.0066 29.0994 47.7198 28.3977 47.192 27.8697Z" fill="#ACB1BF"/>
</svg>
