<svg width="48" height="48" viewBox="0 0 48 48" fill="none" xmlns="http://www.w3.org/2000/svg">
<g clip-path="url(#clip0)">
<path d="M36.6562 43.5938C36.6562 41.2638 38.545 39.375 40.875 39.375C43.205 39.375 45.0938 41.2638 45.0938 43.5938V48H36.6562V43.5938Z" fill="#ACB1BF"/>
<path d="M25.4062 32.3438C25.4062 30.0138 27.295 28.125 29.625 28.125C31.955 28.125 33.8438 30.0138 33.8438 32.3438V48H25.4062V32.3438Z" fill="#ACB1BF"/>
<path d="M14.1562 37.9688C14.1562 35.6388 16.045 33.75 18.375 33.75C20.705 33.75 22.5938 35.6388 22.5938 37.9688V48H14.1562V37.9688Z" fill="#ACB1BF"/>
<path d="M2.90625 23.9062C2.90625 21.5763 4.79505 19.6875 7.125 19.6875C9.45495 19.6875 11.3438 21.5763 11.3438 23.9062V48H2.90625V23.9062Z" fill="#ACB1BF"/>
<path d="M26.7047 18.5013C27.4636 19.2323 28.4905 19.6875 29.625 19.6875C30.2013 19.6875 30.7503 19.5701 31.2512 19.3599L37.1664 27.5628C36.8516 28.1533 36.6562 28.8166 36.6562 29.5312C36.6562 31.8576 38.5487 33.75 40.875 33.75C43.2013 33.75 45.0938 31.8576 45.0938 29.5312C45.0938 27.2049 43.2013 25.3125 40.875 25.3125C40.2987 25.3125 39.7497 25.4299 39.2488 25.6401L33.3336 17.4372C33.6484 16.8467 33.8438 16.1834 33.8438 15.4688C33.8438 13.1424 31.9513 11.25 29.625 11.25C27.2987 11.25 25.4062 13.1424 25.4062 15.4688C25.4062 15.6439 25.4372 15.8106 25.4579 15.98L21.2953 18.0612C20.5364 17.3302 19.5095 16.875 18.375 16.875C18.0185 16.875 17.6779 16.9328 17.3469 17.0165L10.4918 6.73397C11.0197 6.02963 11.3438 5.16478 11.3438 4.21875C11.3438 1.89244 9.45131 0 7.125 0C4.79869 0 2.90625 1.89244 2.90625 4.21875C2.90625 6.54506 4.79869 8.4375 7.125 8.4375C7.48153 8.4375 7.82213 8.37966 8.15306 8.29603L15.0082 18.5785C14.4803 19.2829 14.1562 20.1477 14.1562 21.0938C14.1562 23.4201 16.0487 25.3125 18.375 25.3125C20.7013 25.3125 22.5938 23.4201 22.5938 21.0938C22.5938 20.9186 22.5628 20.7519 22.5421 20.5825L26.7047 18.5013Z" fill="#E20613"/>
</g>
<defs>
<clipPath id="clip0">
<rect width="48" height="48" fill="white"/>
</clipPath>
</defs>
</svg>
