<svg width="354" height="353" viewBox="0 0 354 353" fill="none" xmlns="http://www.w3.org/2000/svg">
<path d="M182.487 350.62C182.487 349.43 183.441 348.24 184.872 348.24C186.303 348.24 187.257 349.192 187.257 350.62C187.257 351.81 186.303 353 185.111 353C185.111 353 185.111 353 184.872 353C183.679 352.762 182.725 351.81 182.487 350.62ZM168.174 352.762C166.981 352.762 165.788 351.572 165.788 350.382C165.788 348.954 166.981 348.002 168.174 348.002C169.605 348.002 170.559 349.192 170.559 350.382C170.798 351.81 169.605 352.762 168.174 352.762C168.412 352.762 168.412 352.762 168.174 352.762ZM199.185 349.192C198.946 348.002 199.9 346.812 201.332 346.574C202.524 346.336 203.717 347.288 203.956 348.478C204.194 349.668 203.24 350.858 201.809 351.096H201.57C200.377 351.334 199.423 350.382 199.185 349.192ZM151.476 351.096C150.044 350.858 149.329 349.668 149.329 348.478C149.567 347.288 150.76 346.336 151.953 346.574C153.384 346.812 154.1 348.002 154.1 349.192C153.861 350.382 152.907 351.334 151.714 351.334C151.714 351.096 151.714 351.096 151.476 351.096ZM215.406 346.336C215.167 345.146 215.883 343.718 217.075 343.48C218.268 343.242 219.699 343.956 219.938 345.146C220.177 346.336 219.461 347.764 218.268 348.002C218.03 348.002 217.791 348.002 217.791 348.002C216.837 348.24 215.883 347.526 215.406 346.336ZM135.016 348.002C133.823 347.764 132.869 346.336 133.346 345.146C133.585 343.956 135.016 343.004 136.209 343.48C137.402 343.718 138.356 345.146 137.879 346.336C137.64 347.526 136.686 348.24 135.493 348.24C135.255 348.002 135.255 348.002 135.016 348.002ZM231.627 342.051C231.15 340.861 231.865 339.433 233.058 338.957C234.251 338.481 235.682 339.195 236.159 340.385C236.636 341.575 235.921 343.004 234.728 343.48C234.489 343.48 234.251 343.718 234.012 343.718C232.819 343.48 231.865 343.004 231.627 342.051ZM118.795 343.242C117.602 342.766 116.887 341.337 117.364 340.147C117.841 338.957 119.272 338.243 120.465 338.719C121.658 339.195 122.373 340.623 121.896 341.814C121.658 342.766 120.704 343.48 119.511 343.48C119.272 343.48 119.034 343.242 118.795 343.242ZM247.132 336.101C246.655 334.911 247.132 333.483 248.325 333.007C249.518 332.531 250.949 333.007 251.426 334.197C251.903 335.387 251.426 336.815 250.233 337.291C249.995 337.529 249.518 337.529 249.279 337.529C248.325 337.529 247.371 336.815 247.132 336.101ZM103.29 337.053C102.097 336.577 101.62 335.149 102.097 333.959C102.574 332.769 104.005 332.293 105.198 332.769C106.391 333.245 106.868 334.673 106.391 335.863C105.914 336.815 105.198 337.291 104.244 337.291C103.767 337.053 103.528 337.053 103.29 337.053ZM261.922 328.723C261.206 327.533 261.683 326.105 262.876 325.391C264.069 324.677 265.5 325.153 266.216 326.343C266.931 327.533 266.454 328.961 265.261 329.675C264.784 329.913 264.546 329.913 264.069 329.913C263.115 329.913 262.399 329.437 261.922 328.723ZM88.2615 329.199C87.0687 328.485 86.8302 327.057 87.3073 325.867C88.0229 324.677 89.4542 324.439 90.6469 324.915C91.8396 325.629 92.0782 327.057 91.6011 328.247C91.124 328.961 90.4084 329.437 89.4542 329.437C88.9771 329.437 88.7385 329.437 88.2615 329.199ZM275.996 319.917C275.28 318.726 275.519 317.298 276.473 316.584C277.666 315.87 279.097 316.108 279.813 317.06C280.528 318.25 280.29 319.679 279.336 320.393C278.859 320.631 278.381 320.869 277.904 320.869C277.189 320.869 276.473 320.631 275.996 319.917ZM74.1873 320.155C72.9946 319.441 72.9946 318.012 73.7102 316.822C74.4259 315.632 76.0957 315.632 77.0499 316.346C78.2426 317.06 78.2426 318.488 77.527 319.679C77.0499 320.393 76.3342 320.631 75.6186 320.631C74.903 320.631 74.4259 320.393 74.1873 320.155ZM289.116 309.92C288.162 308.968 288.4 307.54 289.354 306.588C290.309 305.636 291.74 305.874 292.694 306.826C293.648 307.778 293.41 309.444 292.456 310.158C291.978 310.634 291.501 310.634 290.786 310.634C290.309 310.634 289.832 310.396 289.116 309.92ZM60.8288 309.682C59.8747 308.73 59.6361 307.302 60.5903 306.35C61.5445 305.398 62.9757 305.16 63.9299 306.112C64.8841 307.064 65.1226 308.492 64.1685 309.444C63.6914 309.92 62.9757 310.158 62.2601 310.158C62.0216 310.396 61.3059 310.158 60.8288 309.682ZM301.52 298.496C300.566 297.544 300.566 296.115 301.52 295.163C302.474 294.211 303.906 294.211 304.86 295.163C305.814 296.115 305.814 297.544 304.86 298.496C304.383 298.972 303.667 299.21 303.19 299.21C302.474 299.21 301.997 298.972 301.52 298.496ZM48.6631 298.02C47.7089 297.068 47.7089 295.639 48.6631 294.687C49.6173 293.735 51.0485 293.735 52.0027 294.687C52.9569 295.639 52.9569 297.068 52.0027 298.02C51.5256 298.496 51.0485 298.734 50.3329 298.734C49.8558 298.734 49.1402 298.496 48.6631 298.02ZM312.493 286.119C311.539 285.405 311.301 283.739 312.016 282.787C312.732 281.835 314.402 281.597 315.356 282.311C316.31 283.025 316.549 284.691 315.833 285.643C315.356 286.119 314.64 286.595 313.925 286.595C313.447 286.833 312.97 286.595 312.493 286.119ZM37.69 285.405C36.7359 284.453 36.9744 282.787 38.1671 282.073C39.1213 281.359 40.7911 281.359 41.5067 282.549C42.2224 283.501 42.2224 285.167 41.0297 285.881C40.5526 286.119 40.0755 286.357 39.5984 286.357C38.8828 286.357 38.1671 285.881 37.69 285.405ZM322.274 272.79C321.081 272.076 320.842 270.648 321.558 269.458C322.274 268.268 323.705 268.03 324.898 268.744C326.09 269.458 326.329 270.886 325.613 272.076C325.136 272.79 324.42 273.267 323.705 273.267C323.228 273.267 322.751 273.266 322.274 272.79ZM27.9097 271.6C27.1941 270.41 27.4326 268.982 28.6253 268.268C29.8181 267.554 31.2493 267.792 31.965 268.982C32.6806 270.172 32.4421 271.6 31.2493 272.314C30.7722 272.552 30.2952 272.79 30.0566 272.79C29.1024 272.79 28.3868 272.314 27.9097 271.6ZM330.861 258.748C329.668 258.272 329.191 256.606 329.907 255.654C330.623 254.464 332.054 253.988 333.247 254.702C334.439 255.178 334.916 256.844 334.201 258.034C333.724 258.748 333.008 259.224 332.054 259.224C331.577 258.986 331.338 258.748 330.861 258.748ZM19.5606 257.082C18.845 255.892 19.3221 254.464 20.5148 253.988C21.7075 253.274 23.1388 253.75 23.6159 254.94C24.3315 256.13 23.8544 257.558 22.6617 258.272C22.4232 258.51 21.9461 258.51 21.469 258.51C20.7534 258.51 20.0377 258.034 19.5606 257.082ZM338.018 243.753C336.825 243.277 336.109 241.849 336.586 240.659C337.063 239.469 338.495 238.755 339.687 239.231C340.88 239.707 341.596 241.135 341.119 242.325C340.642 243.277 339.926 243.753 338.972 243.753C338.733 243.991 338.256 243.753 338.018 243.753ZM12.6429 241.849C12.1658 240.659 12.6429 239.231 14.0741 238.755C15.2668 238.279 16.6981 238.755 17.1752 240.183C17.6523 241.373 17.1752 242.801 15.7439 243.277C15.5054 243.277 15.2668 243.515 14.7898 243.515C13.8356 243.277 12.8814 242.801 12.6429 241.849ZM343.743 228.045C342.55 227.569 341.834 226.378 342.073 225.188C342.55 223.998 343.743 223.284 344.935 223.522C346.128 223.998 346.844 225.188 346.605 226.378C346.367 227.331 345.412 228.045 344.22 228.045C344.22 228.283 343.981 228.283 343.743 228.045ZM7.15633 225.902C6.67925 224.712 7.63342 223.284 8.82615 223.046C10.0189 222.57 11.4501 223.522 11.6887 224.712C12.1658 225.902 11.4501 227.331 10.0189 227.569C9.78032 227.569 9.54178 227.569 9.30324 227.569C8.34906 227.569 7.39488 227.092 7.15633 225.902ZM347.798 212.098C346.605 211.86 345.651 210.67 345.89 209.242C346.128 208.052 347.321 207.1 348.752 207.338C349.945 207.576 350.899 208.766 350.66 210.194C350.422 211.384 349.468 212.098 348.275 212.098C348.275 212.098 348.036 212.098 347.798 212.098ZM3.10108 209.718C2.86253 208.528 3.57817 207.1 5.00943 206.862C6.20216 206.624 7.63342 207.338 7.87197 208.766C8.11051 209.956 7.15633 211.384 5.96361 211.622C5.72507 211.622 5.72507 211.622 5.48652 211.622C4.2938 211.622 3.33962 210.67 3.10108 209.718ZM350.422 195.675C348.991 195.437 348.036 194.485 348.275 193.057C348.513 191.867 349.468 190.677 350.899 190.915C352.33 191.153 353.284 192.105 353.046 193.533C353.046 194.723 351.853 195.675 350.422 195.675C350.66 195.675 350.66 195.675 350.422 195.675ZM0.715633 193.057C0.715633 191.629 1.43127 190.677 2.86253 190.439C4.2938 190.439 5.24798 191.391 5.48652 192.581C5.48652 193.771 4.53235 194.961 3.33962 195.199H3.10108C1.90836 195.199 0.954178 194.247 0.715633 193.057ZM349.229 176.872C349.229 176.634 349.229 176.634 349.229 176.872C349.229 176.634 349.229 176.634 349.229 176.396C349.229 174.968 350.422 174.016 351.615 174.016C352.807 174.016 354 174.968 354 176.396V176.634V176.872C354 178.062 352.807 179.252 351.615 179.252C350.183 179.252 349.229 178.062 349.229 176.872ZM0 176.158C0 174.73 1.19272 173.778 2.38544 173.778C3.81671 173.778 4.77089 174.73 4.77089 176.158C4.77089 177.348 3.81671 178.538 2.38544 178.538C1.19272 178.538 0 177.586 0 176.158ZM348.514 159.974C348.275 158.784 349.229 157.593 350.66 157.355C351.853 157.355 353.046 158.308 353.284 159.498C353.523 160.926 352.569 161.878 351.137 162.116H350.899C349.468 162.354 348.514 161.402 348.514 159.974ZM2.86253 162.116C1.66981 161.878 0.477089 160.926 0.715633 159.498C0.715633 158.308 1.90836 157.355 3.33962 157.355C4.53235 157.593 5.48652 158.546 5.48652 159.974C5.48652 161.164 4.2938 162.116 3.10108 162.116C3.10108 162.116 3.10108 162.116 2.86253 162.116ZM346.128 143.789C345.89 142.599 346.605 141.171 348.036 140.933C349.229 140.695 350.66 141.409 350.899 142.837C351.138 144.027 350.183 145.455 348.991 145.693C348.752 145.693 348.752 145.693 348.514 145.693C347.321 145.931 346.367 144.979 346.128 143.789ZM5.00943 145.693C3.81671 145.455 2.86253 144.265 3.10108 142.837C3.33962 141.647 4.53235 140.695 5.96361 140.933C7.15633 141.171 8.11051 142.361 7.87197 143.789C7.63342 144.979 6.67925 145.693 5.48652 145.693C5.48652 145.693 5.24798 145.693 5.00943 145.693ZM342.311 128.08C341.834 126.89 342.55 125.462 343.981 125.224C345.174 124.748 346.605 125.462 346.844 126.89C347.082 128.08 346.367 129.508 345.174 129.746C344.935 129.746 344.697 129.746 344.458 129.746C343.504 129.746 342.55 129.032 342.311 128.08ZM8.82615 129.508C7.63342 129.032 6.91779 127.842 7.15633 126.652C7.39488 125.462 8.82615 124.748 10.0189 124.986C11.2116 125.462 11.9272 126.652 11.6887 127.842C11.4501 128.794 10.496 129.508 9.30324 129.508C9.30324 129.508 9.06469 129.508 8.82615 129.508ZM336.825 112.61C336.348 111.419 336.825 109.991 338.018 109.515C339.21 109.039 340.642 109.515 341.119 110.943C341.596 112.133 341.119 113.562 339.926 114.038C339.687 114.038 339.449 114.276 338.972 114.276C338.256 114.038 337.302 113.562 336.825 112.61ZM14.0741 113.8C12.8814 113.324 12.1658 111.895 12.6429 110.705C13.1199 109.515 14.5512 108.801 15.7439 109.277C16.9367 109.753 17.6523 111.181 17.1752 112.372C16.6981 113.324 15.9825 113.8 15.0283 113.8C14.5512 113.8 14.3127 113.8 14.0741 113.8ZM330.146 97.6149C329.668 96.4248 329.907 94.9968 331.1 94.5207C332.292 94.0447 333.724 94.2827 334.201 95.4728C334.678 96.6628 334.439 98.0909 333.247 98.8049C332.77 99.0429 332.531 99.0429 332.054 99.0429C331.338 99.0429 330.623 98.5669 330.146 97.6149ZM20.7534 98.5669C19.5606 97.8529 19.0836 96.4248 19.7992 95.2348C20.5148 94.0447 21.9461 93.5687 22.9003 94.2827C24.093 94.9968 24.5701 96.4248 23.8544 97.6149C23.3774 98.3289 22.6617 98.8049 21.7075 98.8049C21.469 98.8049 20.9919 98.8049 20.7534 98.5669ZM321.796 83.5723C321.081 82.3822 321.319 80.9541 322.512 80.2401C323.705 79.5261 325.136 79.7641 325.852 80.9541C326.567 82.1442 326.329 83.5723 325.136 84.2863C324.659 84.5243 324.182 84.5243 323.943 84.5243C322.989 84.5243 322.274 84.2863 321.796 83.5723ZM28.8639 84.0483C27.6712 83.3342 27.4326 81.9062 28.1483 80.7161C28.8639 79.5261 30.2951 79.2881 31.4879 80.0021C32.6806 80.7161 32.9191 82.1442 32.2035 83.3343C31.7264 84.0483 31.0108 84.5243 30.2951 84.5243C29.8181 84.5243 29.341 84.2863 28.8639 84.0483ZM312.255 70.2437C311.539 69.2916 311.539 67.6256 312.732 66.9115C313.686 66.1975 315.356 66.1975 316.071 67.3876C316.787 68.3396 316.787 70.0057 315.594 70.7197C315.117 70.9577 314.64 71.1957 314.163 71.1957C313.447 71.1957 312.732 70.7197 312.255 70.2437ZM38.4057 70.4817C37.4515 69.5297 37.2129 68.1016 37.9286 67.1496C38.6442 66.1975 40.314 65.9595 41.2682 66.6735C42.2224 67.3876 42.4609 69.0536 41.7453 70.0057C41.2682 70.4817 40.5526 70.9577 39.8369 70.9577C39.3598 70.9577 38.8828 70.7197 38.4057 70.4817ZM301.52 57.8671C300.566 56.9151 300.566 55.487 301.52 54.535C302.474 53.583 303.906 53.583 304.86 54.535C305.814 55.487 305.814 56.9151 304.86 57.8671C304.383 58.3432 303.906 58.5812 303.19 58.5812C302.713 58.5812 301.997 58.3432 301.52 57.8671ZM49.1402 57.8671C48.186 56.9151 48.186 55.487 49.1402 54.535C50.0943 53.583 51.5256 53.583 52.4798 54.535C53.434 55.487 53.434 56.9151 52.4798 57.8671C52.0027 58.3432 51.2871 58.5812 50.81 58.5812C50.0943 58.5812 49.6173 58.3432 49.1402 57.8671ZM289.832 46.6807C288.877 45.7286 288.639 44.3006 289.593 43.3485C290.547 42.3965 291.978 42.1585 292.933 43.1105C293.887 44.0625 294.125 45.4906 293.171 46.4426C292.694 46.9187 291.978 47.1567 291.263 47.1567C290.786 47.1567 290.309 46.9187 289.832 46.6807ZM61.0674 46.2046C60.1132 45.2526 60.3518 43.8245 61.3059 42.8725C62.2601 41.9205 63.6914 42.1585 64.6456 43.1105C65.5997 44.0625 65.3612 45.4906 64.407 46.4426C63.9299 46.9187 63.4528 46.9187 62.7372 46.9187C62.0216 47.1567 61.5445 46.6807 61.0674 46.2046ZM276.95 36.4462C275.757 35.7322 275.519 34.0661 276.473 33.1141C277.189 31.924 278.62 31.686 279.813 32.638C281.005 33.3521 281.005 34.7801 280.29 35.9702C279.813 36.6842 279.097 36.9222 278.381 36.9222C277.904 36.9222 277.189 36.6842 276.95 36.4462ZM73.9488 35.7322C73.2332 34.7801 73.4717 33.1141 74.4259 32.4C75.6186 31.686 77.0499 31.924 77.7655 32.8761C78.4811 33.8281 78.2426 35.4942 77.2884 36.2082C76.8113 36.4462 76.3342 36.6842 75.8571 36.6842C75.1415 36.9222 74.4259 36.4462 73.9488 35.7322ZM263.115 27.6398C261.922 26.9258 261.683 25.4977 262.16 24.3077C262.876 23.1176 264.307 22.8796 265.5 23.3556C266.693 24.0697 266.931 25.4977 266.454 26.6878C265.977 27.4018 265.261 27.8778 264.307 27.8778C263.83 27.8778 263.592 27.8778 263.115 27.6398ZM87.7844 26.6878C87.0687 25.4977 87.5458 24.0697 88.7386 23.3556C89.9313 22.6416 91.3625 23.1176 92.0782 24.3077C92.7938 25.4977 92.3167 26.9258 91.124 27.6398C90.6469 27.8778 90.4084 27.8778 89.9313 27.8778C88.9771 27.8778 88.2615 27.4018 87.7844 26.6878ZM248.563 20.0235C247.371 19.5475 246.894 18.1194 247.371 16.9294C247.848 15.7393 249.279 15.2633 250.472 15.7393C251.664 16.2153 252.142 17.6434 251.664 18.8335C251.187 19.7855 250.472 20.2615 249.518 20.2615C249.279 20.2615 248.802 20.2615 248.563 20.0235ZM102.336 18.8335C101.858 17.6434 102.336 16.2153 103.528 15.7393C104.721 15.2633 106.152 15.7393 106.629 16.9294C107.106 18.1194 106.629 19.5475 105.437 20.0235C105.198 20.2615 104.721 20.2615 104.482 20.2615C103.767 20.2615 102.813 19.7855 102.336 18.8335ZM233.297 14.0732C232.104 13.5972 231.388 12.1692 231.865 10.9791C232.342 9.78906 233.774 9.07503 234.966 9.55105C236.159 10.0271 236.875 11.4551 236.398 12.6452C236.159 13.5972 235.205 14.3113 234.251 14.3113C234.012 14.0732 233.535 14.0732 233.297 14.0732ZM117.841 12.4072C117.364 11.2171 118.08 9.78906 119.272 9.55105C120.465 9.07503 121.896 9.78906 122.373 10.9791C122.85 12.1692 122.135 13.5972 120.942 14.0732C120.704 14.0732 120.465 14.0732 120.226 14.0732C119.034 14.0732 118.08 13.3592 117.841 12.4072ZM217.553 9.31304C216.36 9.07503 215.406 7.64697 215.883 6.45691C216.121 5.26686 217.553 4.31482 218.745 4.79084C219.938 5.02885 220.892 6.45691 220.415 7.64697C220.177 8.83702 219.222 9.55105 218.03 9.55105C218.03 9.55105 217.791 9.55105 217.553 9.31304ZM133.585 7.64697C133.346 6.45691 134.062 5.02885 135.255 4.79084C136.447 4.55283 137.879 5.26686 138.117 6.45691C138.356 7.64697 137.64 9.07503 136.447 9.31304C136.209 9.31304 135.97 9.31304 135.97 9.31304C134.778 9.55105 133.823 8.59901 133.585 7.64697ZM201.57 6.45691C200.377 6.2189 199.423 5.02885 199.662 3.8388C199.9 2.41074 201.093 1.69671 202.286 1.69671C203.478 1.93472 204.433 3.12477 204.194 4.31482C203.956 5.50487 203.001 6.45691 201.809 6.45691C201.809 6.45691 201.809 6.45691 201.57 6.45691ZM149.806 4.31482C149.567 2.88676 150.522 1.69671 151.714 1.69671C153.146 1.4587 154.338 2.41074 154.338 3.60079C154.577 4.79084 153.623 6.2189 152.43 6.2189H152.191C150.999 6.2189 150.044 5.50487 149.806 4.31482ZM185.349 4.79084C184.156 4.79084 182.964 3.60079 182.964 2.17273C182.964 0.982675 184.156 -0.207376 185.588 0.0306341C186.78 0.0306341 187.973 1.22069 187.735 2.41074C187.735 3.8388 186.542 4.79084 185.349 4.79084ZM166.504 2.41074C166.504 0.982675 167.458 0.0306341 168.89 0.0306341C170.082 0.0306341 171.275 0.982675 171.275 2.17273C171.275 3.60079 170.321 4.55283 168.89 4.55283C167.458 4.79084 166.504 3.8388 166.504 2.41074Z" fill="#E92E39" fill-opacity="0.7"/>
<path d="M172.229 325.39C171.036 325.39 169.844 324.2 169.844 323.01C169.844 321.82 171.036 320.629 172.229 320.629C173.422 320.629 174.614 321.82 174.614 323.01C174.853 324.438 173.66 325.39 172.229 325.39C172.229 325.39 172.468 325.39 172.229 325.39ZM186.78 322.772C186.78 321.582 187.734 320.391 188.927 320.153C190.12 320.153 191.313 321.105 191.551 322.296C191.551 323.724 190.597 324.676 189.404 324.914H189.166C187.973 324.914 187.019 323.962 186.78 322.772ZM155.292 323.962C154.1 323.724 153.145 322.534 153.384 321.344C153.623 320.153 154.815 319.201 156.008 319.201C157.201 319.439 158.155 320.629 157.916 321.82C157.678 323.01 156.724 323.962 155.531 323.962C155.531 323.962 155.531 323.962 155.292 323.962ZM203.478 320.629C203.24 319.439 203.955 318.011 205.387 317.773C206.579 317.535 208.011 318.249 208.249 319.677C208.488 320.868 207.772 322.296 206.341 322.534C206.102 322.534 206.102 322.534 205.864 322.534C204.671 322.534 203.717 321.82 203.478 320.629ZM138.594 320.629C137.401 320.153 136.686 318.963 136.924 317.773C137.163 316.583 138.594 315.631 139.787 316.107C140.98 316.345 141.695 317.773 141.457 318.963C141.218 320.153 140.264 320.629 139.071 320.629C139.071 320.629 138.833 320.629 138.594 320.629ZM219.699 316.821C219.222 315.631 219.938 314.203 221.369 313.727C222.562 313.251 223.993 313.965 224.47 315.155C224.947 316.345 224.232 317.773 223.039 318.249C222.8 318.249 222.562 318.487 222.323 318.487C221.131 318.487 220.176 317.773 219.699 316.821ZM122.373 315.155C121.18 314.679 120.465 313.251 120.942 312.061C121.419 310.871 122.85 310.157 124.043 310.633C125.236 311.109 125.951 312.537 125.474 313.727C125.236 314.679 124.282 315.155 123.327 315.155C123.089 315.393 122.85 315.393 122.373 315.155ZM235.443 311.109C234.966 309.919 235.443 308.491 236.636 308.015C237.829 307.539 239.26 308.015 239.737 309.205C240.214 310.395 239.737 311.823 238.544 312.299C238.306 312.537 237.829 312.537 237.59 312.537C236.875 312.299 235.92 311.823 235.443 311.109ZM106.868 308.015C105.675 307.301 105.198 305.873 105.914 304.921C106.629 303.731 108.061 303.255 109.253 303.969C110.446 304.683 110.923 306.111 110.207 307.063C109.73 307.777 109.015 308.253 108.061 308.253C107.822 308.491 107.345 308.253 106.868 308.015ZM250.472 303.493C249.756 302.303 250.233 300.875 251.187 300.161C252.38 299.447 253.811 299.923 254.527 300.875C255.242 302.065 254.765 303.493 253.811 304.207C253.334 304.445 253.096 304.445 252.618 304.445C251.664 304.683 250.949 304.207 250.472 303.493ZM92.3166 299.209C91.1239 298.495 90.8853 297.066 91.601 295.876C92.3166 294.686 93.7479 294.448 94.9406 295.162C96.1333 295.876 96.3718 297.304 95.6562 298.495C95.1791 299.209 94.4635 299.447 93.7479 299.447C93.2708 299.685 92.7937 299.685 92.3166 299.209ZM264.546 294.21C263.83 293.258 263.83 291.592 265.023 290.878C265.977 290.164 267.647 290.402 268.362 291.354C269.078 292.306 269.078 293.972 267.885 294.686C267.408 294.924 266.931 295.162 266.454 295.162C265.738 295.162 265.023 294.924 264.546 294.21ZM78.9581 288.974C78.0039 288.022 77.7654 286.594 78.7196 285.642C79.6737 284.69 81.105 284.452 82.0592 285.404C83.0134 286.356 83.2519 287.784 82.2977 288.736C81.8206 289.212 81.105 289.45 80.3894 289.45C79.9123 289.45 79.4352 289.212 78.9581 288.974ZM277.427 283.5C276.473 282.548 276.473 281.12 277.427 280.168C278.381 279.216 279.813 279.216 280.767 280.168C281.721 281.12 281.721 282.548 280.767 283.5C280.29 283.976 279.813 284.214 279.097 284.214C278.62 284.214 277.904 283.976 277.427 283.5ZM66.7923 277.074C65.8382 276.122 65.8382 274.693 67.0309 273.741C67.9851 272.789 69.4163 272.789 70.3705 273.979C71.3247 274.932 71.0861 276.36 70.132 277.312C69.6549 277.788 69.1778 278.026 68.4621 278.026C67.7465 277.788 67.2694 277.55 66.7923 277.074ZM289.116 271.361C288.162 270.647 287.923 268.981 288.877 268.029C289.593 267.077 291.263 266.839 292.217 267.791C293.171 268.743 293.41 270.171 292.455 271.123C291.978 271.599 291.263 272.075 290.547 272.075C290.07 271.837 289.354 271.837 289.116 271.361ZM56.0578 263.745C55.3422 262.555 55.5807 261.127 56.5349 260.413C57.7276 259.699 59.1589 259.937 59.8745 260.889C60.5902 262.079 60.3516 263.507 59.3974 264.221C58.9204 264.459 58.4433 264.697 57.9662 264.697C57.2505 264.697 56.2964 264.459 56.0578 263.745ZM299.135 258.033C297.942 257.319 297.703 255.891 298.419 254.701C299.135 253.511 300.566 253.273 301.759 253.987C302.951 254.701 303.19 256.129 302.474 257.319C301.997 258.033 301.282 258.509 300.566 258.509C300.089 258.509 299.612 258.271 299.135 258.033ZM46.7546 249.464C46.039 248.274 46.516 246.846 47.7088 246.132C48.9015 245.418 50.3328 245.894 51.0484 247.084C51.764 248.274 51.2869 249.702 50.0942 250.416C49.6171 250.654 49.3786 250.654 48.9015 250.654C47.9473 250.654 47.2317 250.178 46.7546 249.464ZM307.722 243.752C306.53 243.276 306.052 241.61 306.53 240.658C307.007 239.468 308.438 238.992 309.631 239.706C310.823 240.182 311.3 241.61 310.823 242.8C310.346 243.514 309.631 243.99 308.676 243.99C308.438 243.99 307.961 243.752 307.722 243.752ZM39.1212 234.232C38.6441 233.042 39.1212 231.614 40.3139 231.138C41.5066 230.662 42.9379 231.138 43.415 232.328C43.8921 233.518 43.415 234.946 42.2223 235.422C41.9837 235.66 41.7452 235.66 41.5066 235.66C40.5524 235.66 39.5983 235.184 39.1212 234.232ZM314.402 228.281C313.209 227.805 312.493 226.377 312.97 225.187C313.447 223.997 314.879 223.283 316.071 223.759C317.264 224.235 317.98 225.663 317.503 226.853C317.264 227.805 316.31 228.519 315.356 228.519C315.117 228.519 314.879 228.519 314.402 228.281ZM33.6346 218.047C33.1576 216.857 33.8732 215.429 35.3045 215.191C36.4972 214.715 37.9284 215.429 38.167 216.857C38.4055 218.047 37.6899 219.475 36.4972 219.713C36.2586 219.713 36.0201 219.713 35.7815 219.713C34.8274 219.951 33.8732 219.237 33.6346 218.047ZM319.649 212.335C318.457 212.097 317.503 210.669 317.98 209.479C318.218 208.289 319.649 207.337 320.842 207.813C322.035 208.051 322.989 209.479 322.512 210.669C322.273 211.859 321.319 212.573 320.127 212.573C319.888 212.573 319.649 212.335 319.649 212.335ZM29.8179 201.624C29.5794 200.434 30.5336 199.006 31.7263 198.768C32.919 198.53 34.3503 199.482 34.3503 200.672C34.5888 201.862 33.6346 203.29 32.4419 203.528C32.4419 203.528 32.2034 203.528 31.9648 203.528C31.0107 203.528 29.8179 202.814 29.8179 201.624ZM322.751 195.912C321.558 195.674 320.604 194.484 320.604 193.294C320.842 192.104 322.035 191.152 323.228 191.152C324.42 191.39 325.375 192.58 325.375 193.77C325.136 194.96 324.182 195.912 322.989 195.912H322.751ZM27.9096 184.726C27.9096 183.536 28.8638 182.345 30.295 182.345C31.4877 182.345 32.6805 183.298 32.6805 184.488C32.6805 185.916 31.7263 186.868 30.5336 187.106C30.5336 187.106 30.5336 187.106 30.295 187.106C28.8638 186.868 27.9096 185.916 27.9096 184.726ZM323.943 179.251C322.751 179.251 321.558 178.299 321.558 176.871V176.633V176.395C321.558 174.967 322.751 174.015 323.943 174.015C325.136 174.015 326.329 174.967 326.329 176.395V176.633V176.871C326.329 178.299 325.375 179.251 323.943 179.251ZM30.0565 170.207C28.6252 170.207 27.671 169.017 27.9096 167.827C27.9096 166.399 29.1023 165.447 30.5336 165.685C31.7263 165.685 32.919 166.875 32.6805 168.303C32.4419 169.255 31.4877 170.207 30.0565 170.207C30.0565 170.207 30.295 170.207 30.0565 170.207ZM320.604 159.973C320.365 158.782 321.319 157.592 322.751 157.354C323.943 157.116 325.136 158.068 325.375 159.496C325.613 160.925 324.659 161.877 323.228 162.115H322.989C321.796 162.115 320.842 161.163 320.604 159.973ZM31.7263 153.546C30.295 153.308 29.5794 152.118 29.8179 150.928C30.0565 149.5 31.2492 148.786 32.6805 149.024C33.8732 149.262 34.8274 150.452 34.5888 151.88C34.3503 153.07 33.3961 153.784 32.2034 153.784C31.9648 153.546 31.9648 153.546 31.7263 153.546ZM317.741 143.788C317.503 142.598 318.218 141.17 319.649 140.932C320.842 140.694 322.273 141.408 322.512 142.836C322.751 144.026 322.035 145.454 320.604 145.692C320.365 145.692 320.365 145.692 320.127 145.692C319.172 145.692 318.218 144.74 317.741 143.788ZM35.3045 137.124C34.1117 136.647 33.3961 135.457 33.6346 134.267C34.1117 133.077 35.3045 132.363 36.4972 132.601C37.6899 133.077 38.4055 134.267 38.167 135.457C37.9284 136.409 36.9743 137.124 35.7815 137.124C35.7815 137.362 35.543 137.124 35.3045 137.124ZM313.209 127.841C312.732 126.651 313.447 125.223 314.64 124.747C315.833 124.271 317.264 124.985 317.741 126.175C318.218 127.365 317.503 128.793 316.31 129.269C316.071 129.269 315.833 129.507 315.594 129.507C314.402 129.507 313.686 128.793 313.209 127.841ZM40.791 121.415C39.5983 120.939 38.8826 119.511 39.5983 118.321C40.0753 117.131 41.5066 116.417 42.6993 117.131C43.8921 117.607 44.3691 119.035 43.8921 120.225C43.415 121.177 42.6993 121.653 41.7452 121.653C41.2681 121.415 41.0295 121.415 40.791 121.415ZM306.768 112.846C306.291 111.656 306.768 110.228 307.961 109.752C309.154 109.276 310.585 109.752 311.062 110.704C311.539 111.894 311.062 113.322 309.869 113.799C309.631 114.037 309.154 114.037 308.915 114.037C307.961 114.037 307.245 113.561 306.768 112.846ZM47.9473 106.182C46.7546 105.468 46.2775 104.04 46.9931 102.85C47.7088 101.66 49.14 101.422 50.3328 101.898C51.5255 102.612 51.764 104.04 51.2869 105.23C50.8098 105.944 50.0942 106.42 49.14 106.42C48.6629 106.42 48.1859 106.42 47.9473 106.182ZM298.658 98.3278C297.942 97.1378 298.18 95.7097 299.373 94.9957C300.566 94.2817 301.997 94.5197 302.713 95.7097C303.428 96.8998 303.19 98.3278 301.997 99.0419C301.52 99.2799 301.282 99.5179 300.804 99.5179C299.85 99.5179 299.135 99.0419 298.658 98.3278ZM56.7735 91.9016C55.5807 91.1875 55.5807 89.5215 56.2964 88.5694C57.012 87.3794 58.6818 87.3794 59.636 88.0934C60.5902 88.8074 60.8287 90.4735 60.1131 91.4255C59.636 92.1396 58.9204 92.3776 58.2047 92.3776C57.7276 92.3776 57.2505 92.3776 56.7735 91.9016ZM288.877 84.9993C288.162 84.0472 288.162 82.3811 289.116 81.6671C290.07 80.7151 291.74 80.9531 292.455 81.9051C293.171 82.8572 293.171 84.5232 292.217 85.2373C291.74 85.4753 291.263 85.7133 290.786 85.7133C290.07 85.9513 289.354 85.7133 288.877 84.9993ZM67.2694 78.811C66.3152 77.8589 66.3152 76.4309 67.0309 75.4788C67.9851 74.5268 69.4163 74.5268 70.3705 75.4788C71.3247 76.4309 71.3247 77.8589 70.609 78.811C70.132 79.287 69.4163 79.525 68.9392 79.525C68.2236 79.525 67.508 79.287 67.2694 78.811ZM277.904 72.8607C276.95 71.9087 276.95 70.4806 277.904 69.5286C278.858 68.5765 280.29 68.5765 281.244 69.5286C282.198 70.4806 282.198 71.9087 281.244 72.8607C280.767 73.3368 280.051 73.5748 279.574 73.5748C278.858 73.5748 278.381 73.3368 277.904 72.8607ZM78.9581 66.9105C78.0039 65.9584 78.2425 64.2924 79.1966 63.5783C80.1508 62.6263 81.5821 62.8643 82.5363 63.8163C83.4904 64.7684 83.2519 66.1964 82.2977 67.1485C81.8206 67.6245 81.3435 67.6245 80.6279 67.6245C80.1508 67.8625 79.4352 67.6245 78.9581 66.9105ZM265.261 62.1503C264.307 61.4362 264.069 59.7702 264.784 58.8181C265.5 57.8661 267.17 57.6281 268.124 58.3421C269.078 59.0561 269.317 60.7222 268.601 61.6742C268.124 62.3883 267.408 62.6263 266.693 62.6263C266.216 62.6263 265.738 62.3883 265.261 62.1503ZM92.078 56.676C91.3624 55.486 91.601 54.0579 92.7937 53.3439C93.9864 52.6299 95.4177 52.8679 96.1333 54.0579C96.8489 55.248 96.6104 56.676 95.4177 57.3901C94.9406 57.6281 94.4635 57.8661 93.9864 57.8661C93.2708 57.6281 92.5551 57.152 92.078 56.676ZM251.664 52.8679C250.472 52.1538 250.233 50.7258 250.949 49.5357C251.664 48.3457 253.096 48.1077 254.288 48.8217C255.481 49.5357 255.72 50.9638 255.004 52.1538C254.527 52.8679 253.811 53.3439 252.857 53.3439C252.618 53.1059 252.141 53.1059 251.664 52.8679ZM106.391 47.6316C105.675 46.4416 106.152 45.0135 107.345 44.2995C108.538 43.8235 109.969 44.0615 110.446 45.2515C111.162 46.4416 110.685 47.8696 109.492 48.5837C109.015 48.8217 108.776 48.8217 108.299 48.8217C107.583 49.0597 106.868 48.5837 106.391 47.6316ZM237.113 45.2515C235.92 44.7755 235.443 43.3475 235.92 42.1574C236.397 40.9673 237.829 40.4913 239.021 40.9673C240.214 41.4434 240.691 42.8714 240.214 44.0615C239.737 45.0135 239.021 45.4895 238.067 45.4895C237.829 45.2515 237.352 45.2515 237.113 45.2515ZM121.658 40.4913C121.18 39.3013 121.658 37.8732 123.089 37.3972C124.282 36.9212 125.713 37.6352 126.19 38.8253C126.667 40.0153 125.951 41.4434 124.759 41.9194C124.52 42.1574 124.282 42.1574 123.804 42.1574C122.85 41.9194 121.896 41.4434 121.658 40.4913ZM221.846 39.0633C220.654 38.5872 219.938 37.3972 220.415 35.9691C220.892 34.7791 222.085 34.065 223.516 34.5411C224.709 35.0171 225.424 36.2071 224.947 37.6352C224.709 38.5872 223.755 39.3013 222.562 39.3013C222.323 39.3013 222.085 39.3013 221.846 39.0633ZM137.401 35.0171C136.924 33.827 137.879 32.399 139.071 32.161C140.264 31.923 141.695 32.637 141.934 33.827C142.172 35.0171 141.457 36.4451 140.264 36.6832C140.025 36.6832 139.787 36.6832 139.548 36.6832C138.594 36.9212 137.64 36.2071 137.401 35.0171ZM205.864 35.0171C204.671 34.7791 203.717 33.589 203.955 32.161C204.194 30.9709 205.387 30.0189 206.818 30.2569C208.011 30.4949 208.965 31.6849 208.726 33.113C208.488 34.3031 207.534 35.0171 206.341 35.0171C206.102 35.0171 205.864 35.0171 205.864 35.0171ZM153.861 31.4469C153.623 30.2569 154.577 28.8288 155.769 28.8288C156.962 28.5908 158.155 29.5428 158.393 30.7329C158.632 31.923 157.678 33.351 156.485 33.351H156.247C155.054 33.589 154.1 32.637 153.861 31.4469ZM189.404 32.637C188.211 32.637 187.019 31.4469 187.257 30.0189C187.257 28.5908 188.45 27.6388 189.881 27.8768C191.074 27.8768 192.267 29.0668 192.028 30.4949C192.028 31.6849 190.835 32.637 189.404 32.637C189.643 32.637 189.643 32.637 189.404 32.637ZM170.559 29.7809C170.559 28.3528 171.513 27.4008 172.945 27.4008C174.137 27.4008 175.33 28.3528 175.33 29.7809C175.33 31.2089 174.376 32.161 172.945 32.161C171.513 32.161 170.559 31.2089 170.559 29.7809Z" fill="#E92E39" fill-opacity="0.7"/>
<path d="M178.431 295.638C178.431 294.448 179.385 293.258 180.817 293.258C182.248 293.258 183.202 294.21 183.202 295.638C183.202 296.828 182.248 298.018 180.817 298.018C179.385 297.78 178.431 296.828 178.431 295.638ZM163.88 297.304C162.687 297.066 161.495 295.876 161.733 294.686C161.972 293.258 162.926 292.306 164.357 292.544C165.55 292.782 166.743 293.734 166.504 295.162C166.265 296.352 165.311 297.304 164.119 297.304H163.88ZM194.891 294.21C194.652 293.02 195.606 291.592 196.799 291.354C197.992 291.116 199.423 292.068 199.662 293.258C199.9 294.686 198.946 295.876 197.753 296.114C197.753 296.114 197.515 296.114 197.276 296.114C196.083 296.114 195.129 295.4 194.891 294.21ZM147.182 294.21C145.989 293.972 145.035 292.544 145.512 291.354C145.751 290.164 147.182 289.212 148.375 289.688C149.567 289.926 150.522 291.354 150.044 292.544C149.806 293.496 148.852 294.448 147.659 294.448C147.659 294.448 147.42 294.448 147.182 294.21ZM211.35 290.64C210.873 289.45 211.589 288.022 212.782 287.546C213.974 287.07 215.406 287.784 215.883 288.974C216.36 290.164 215.644 291.592 214.451 291.83C214.213 291.83 213.974 292.068 213.736 292.068C212.543 292.306 211.589 291.592 211.35 290.64ZM130.961 288.974C129.768 288.498 129.053 287.07 129.768 285.88C130.245 284.69 131.677 283.976 132.869 284.69C134.062 285.166 134.778 286.594 134.3 287.784C133.823 288.736 133.108 289.212 132.154 289.212C131.677 289.212 131.199 289.212 130.961 288.974ZM226.856 284.69C226.379 283.5 226.856 282.072 228.048 281.596C229.241 281.12 230.672 281.596 231.15 282.786C231.627 283.976 231.15 285.404 229.957 285.88C229.718 286.118 229.241 286.118 229.003 286.118C228.048 286.118 227.333 285.642 226.856 284.69ZM115.694 281.596C114.501 280.882 114.263 279.454 114.74 278.264C115.455 277.074 116.887 276.836 118.079 277.312C119.272 278.026 119.511 279.454 119.034 280.644C118.557 281.358 117.841 281.834 116.887 281.834C116.648 281.834 116.171 281.834 115.694 281.596ZM241.407 276.836C240.691 275.645 240.93 274.217 242.123 273.503C243.315 272.789 244.747 273.027 245.462 274.217C246.178 275.407 245.939 276.836 244.747 277.55C244.269 277.788 243.792 278.026 243.554 278.026C242.6 277.788 241.884 277.55 241.407 276.836ZM101.858 272.075C100.904 271.361 100.666 269.695 101.381 268.743C102.097 267.791 103.767 267.553 104.721 268.267C105.675 269.219 105.914 270.647 105.198 271.599C104.721 272.075 104.005 272.551 103.29 272.551C102.813 272.551 102.097 272.313 101.858 272.075ZM254.765 266.839C253.811 265.887 254.05 264.459 255.004 263.507C255.958 262.555 257.389 262.793 258.344 263.745C259.298 264.697 259.059 266.125 258.105 267.077C257.628 267.553 257.151 267.553 256.435 267.553C255.958 267.553 255.243 267.315 254.765 266.839ZM89.2156 260.651C88.2614 259.699 88.2614 258.271 89.2156 257.319C90.1698 256.367 91.601 256.367 92.5552 257.319C93.5094 258.271 93.5094 259.699 92.5552 260.651C92.0781 261.127 91.601 261.365 90.8854 261.365C90.1698 261.365 89.6927 261.127 89.2156 260.651ZM266.693 255.177C265.738 254.225 265.5 252.796 266.454 251.844C267.408 250.892 268.84 250.654 269.794 251.606C270.748 252.32 270.986 253.987 270.032 254.939C269.555 255.415 268.84 255.891 268.124 255.891C267.647 255.653 267.17 255.415 266.693 255.177ZM78.2425 247.56C77.5269 246.37 77.7655 244.942 78.7196 244.228C79.9124 243.514 81.3436 243.752 82.0593 244.704C82.7749 245.894 82.5364 247.322 81.5822 248.036C81.1051 248.274 80.628 248.512 80.1509 248.512C79.4353 248.512 78.7196 248.274 78.2425 247.56ZM276.712 241.848C275.519 241.134 275.28 239.706 275.996 238.516C276.712 237.326 278.143 237.088 279.336 237.802C280.528 238.516 280.767 239.944 280.051 241.134C279.574 241.848 278.858 242.324 278.143 242.324C277.666 242.324 277.189 242.086 276.712 241.848ZM69.1779 233.28C68.4622 232.09 68.9393 230.662 70.132 230.185C71.3248 229.471 72.756 229.947 73.4717 231.138C74.1873 232.328 73.7102 233.756 72.5175 234.232C72.0404 234.47 71.8018 234.47 71.3248 234.47C70.6091 234.47 69.6549 233.994 69.1779 233.28ZM285.061 227.567C283.868 227.091 283.391 225.663 283.868 224.473C284.345 223.283 285.776 222.807 286.969 223.283C288.162 223.759 288.639 225.187 288.162 226.377C287.685 227.329 286.969 227.805 286.015 227.805C285.538 227.567 285.299 227.567 285.061 227.567ZM62.4986 217.809C62.0215 216.619 62.7372 215.191 63.9299 214.715C65.1226 214.239 66.5539 214.953 67.031 216.143C67.5081 217.333 66.7924 218.761 65.5997 219.237C65.3611 219.237 65.1226 219.475 64.8841 219.475C63.6913 219.237 62.7372 218.761 62.4986 217.809ZM291.024 212.097C289.831 211.859 289.116 210.431 289.354 209.241C289.593 208.051 291.024 207.336 292.217 207.575C293.41 208.051 294.125 209.241 293.887 210.431C293.648 211.383 292.694 212.097 291.501 212.097C291.501 212.097 291.263 212.097 291.024 212.097ZM57.7277 201.386C57.4892 200.196 58.2048 198.768 59.6361 198.53C60.8288 198.292 62.2601 199.006 62.4986 200.434C62.7372 201.624 62.0215 203.052 60.5903 203.29C60.3517 203.29 60.3517 203.29 60.1132 203.29C58.9205 203.29 57.9663 202.576 57.7277 201.386ZM294.841 195.912C293.648 195.674 292.694 194.484 292.694 193.294C292.933 192.104 294.125 191.152 295.318 191.39C296.511 191.628 297.465 192.818 297.226 194.008C296.988 195.198 296.034 196.15 294.841 196.15C295.079 195.912 295.079 195.912 294.841 195.912ZM55.3423 184.726C55.3423 183.297 56.2965 182.345 57.4892 182.107C58.9205 182.107 59.8746 183.059 60.1132 184.25C60.1132 185.44 59.159 186.63 57.9663 186.868H57.7277C56.535 186.868 55.5808 185.916 55.3423 184.726ZM296.272 179.251C295.079 179.251 293.887 178.061 293.887 176.871V176.633V176.395C293.887 174.967 295.079 174.015 296.272 174.015C297.703 174.015 298.658 174.967 298.658 176.395V176.633V176.871C298.658 178.299 297.703 179.251 296.272 179.251ZM57.7277 170.207C56.2965 170.207 55.3423 169.017 55.5808 167.589C55.5808 166.399 56.7735 165.209 58.2048 165.447C59.3975 165.447 60.5903 166.637 60.3517 168.065C60.1132 169.255 59.159 170.207 57.7277 170.207ZM292.933 160.21C292.694 159.02 293.648 157.592 294.841 157.592C296.272 157.354 297.465 158.306 297.465 159.734C297.703 160.924 296.749 162.115 295.318 162.353H295.079C294.125 162.115 293.171 161.401 292.933 160.21ZM59.6361 153.784C58.4434 153.546 57.4892 152.356 57.7277 150.928C57.9663 149.738 59.159 148.786 60.5903 149.024C61.783 149.262 62.7372 150.452 62.4986 151.88C62.2601 153.07 61.3059 153.784 60.1132 153.784C60.1132 153.784 59.8746 153.784 59.6361 153.784ZM289.593 144.264C289.116 143.074 290.07 141.646 291.263 141.408C292.455 140.932 293.887 141.646 294.125 143.074C294.602 144.264 293.648 145.692 292.455 145.93C292.217 145.93 291.978 145.93 291.74 145.93C290.786 145.93 289.831 145.216 289.593 144.264ZM63.9299 137.599C62.7372 137.123 62.0215 135.695 62.4986 134.505C62.9757 133.315 64.407 132.601 65.5997 133.077C66.7924 133.553 67.5081 134.981 67.031 136.171C66.5539 137.123 65.8382 137.837 64.8841 137.837C64.407 137.837 64.1684 137.837 63.9299 137.599ZM283.868 129.031C283.391 127.841 283.868 126.413 285.061 125.937C286.253 125.461 287.685 125.937 288.162 127.127C288.639 128.317 288.162 129.745 286.969 130.221C286.73 130.459 286.253 130.459 286.015 130.459C285.299 130.221 284.345 129.745 283.868 129.031ZM70.3706 122.367C69.1779 121.653 68.7008 120.225 69.4164 119.035C70.132 117.845 71.5633 117.369 72.756 118.083C73.9487 118.797 74.4258 120.225 73.7102 121.177C73.2331 121.891 72.5175 122.367 71.5633 122.367C71.3248 122.605 70.8477 122.605 70.3706 122.367ZM276.234 114.512C275.519 113.322 275.757 111.894 276.95 111.18C278.143 110.466 279.574 110.942 280.29 111.894C281.005 113.084 280.528 114.512 279.574 115.227C279.097 115.465 278.858 115.465 278.381 115.465C277.427 115.703 276.712 115.226 276.234 114.512ZM78.9582 108.086C78.004 107.372 77.7655 105.706 78.4811 104.754C79.1967 103.802 80.8665 103.564 81.8207 104.278C83.0134 104.992 83.0134 106.42 82.2978 107.61C81.8207 108.324 81.1051 108.562 80.3895 108.562C79.9124 108.562 79.4353 108.562 78.9582 108.086ZM266.693 101.422C265.738 100.47 265.977 98.8038 266.931 98.0898C267.885 97.1377 269.317 97.3757 270.271 98.3278C270.986 99.2798 270.986 100.708 270.032 101.66C269.555 102.136 269.078 102.136 268.601 102.136C267.885 102.136 267.17 101.898 266.693 101.422ZM89.4541 95.2336C88.5 94.2816 88.5 92.8535 89.4541 91.9015C90.4083 90.9494 91.8396 90.9494 92.7938 91.9015C93.7479 92.8535 93.7479 94.2816 92.7938 95.2336C92.3167 95.7097 91.601 95.9477 91.124 95.9477C90.6469 95.9477 89.9312 95.7097 89.4541 95.2336ZM255.243 89.7594C254.288 88.8074 254.288 87.3793 255.004 86.4272C255.958 85.4752 257.389 85.4752 258.344 86.1892C259.298 87.1413 259.298 88.5693 258.582 89.5214C258.105 89.9974 257.389 90.2354 256.912 90.2354C256.435 90.2354 255.72 89.9974 255.243 89.7594ZM101.62 83.8091C100.904 82.8571 100.904 81.191 102.097 80.477C103.051 79.763 104.721 79.763 105.437 80.953C106.152 81.9051 106.152 83.5711 104.96 84.2852C104.482 84.5232 104.005 84.7612 103.528 84.7612C102.813 84.7612 102.097 84.5232 101.62 83.8091ZM242.6 79.525C241.407 78.8109 241.168 77.3829 241.884 76.1928C242.6 75.0028 244.031 74.7647 245.224 75.4788C246.416 76.1928 246.655 77.6209 245.939 78.8109C245.462 79.5249 244.747 79.763 244.031 79.763C243.315 80.001 242.838 80.001 242.6 79.525ZM115.217 74.2887C114.501 73.0987 114.978 71.6706 116.171 70.9566C117.364 70.2425 118.795 70.7186 119.511 71.9086C120.226 73.0987 119.749 74.5267 118.557 75.2408C118.079 75.4788 117.841 75.4788 117.364 75.4788C116.648 75.4788 115.694 75.0028 115.217 74.2887ZM228.287 71.4326C227.094 70.9566 226.617 69.5285 227.094 68.3385C227.571 67.1484 229.003 66.6724 230.195 67.1484C231.388 67.6244 231.865 69.0525 231.388 70.2425C230.911 71.1946 230.195 71.6706 229.241 71.6706C229.003 71.6706 228.764 71.6706 228.287 71.4326ZM130.245 66.6724C129.768 65.4823 130.245 64.0543 131.677 63.5783C132.869 63.1022 134.3 63.5783 134.778 65.0063C135.255 66.1964 134.778 67.6244 133.585 68.1005C133.346 68.3385 133.108 68.3385 132.631 68.3385C131.438 68.3385 130.484 67.6244 130.245 66.6724ZM213.259 65.2443C212.066 64.7683 211.35 63.5783 211.827 62.1502C212.305 60.9601 213.497 60.2461 214.929 60.4841C216.121 60.9601 216.837 62.1502 216.36 63.5783C216.121 64.5303 215.167 65.2443 213.974 65.2443C213.736 65.4823 213.497 65.4823 213.259 65.2443ZM145.989 61.1982C145.751 60.0081 146.466 58.58 147.659 58.342C148.852 58.104 150.283 58.8181 150.522 60.0081C150.76 61.1982 150.044 62.6262 148.852 62.8642C148.613 62.8642 148.375 62.8642 148.375 62.8642C147.182 63.1022 146.228 62.3882 145.989 61.1982ZM197.515 61.4362C196.322 61.1982 195.368 60.0081 195.606 58.58C195.845 57.39 197.038 56.4379 198.469 56.676C199.662 56.914 200.616 58.104 200.377 59.5321C200.139 60.7221 199.185 61.4362 197.992 61.4362C197.753 61.4362 197.515 61.4362 197.515 61.4362ZM162.21 58.104C161.972 56.914 162.926 55.7239 164.357 55.4859C165.55 55.2479 166.743 56.1999 166.981 57.628C167.22 59.0561 166.265 60.0081 164.834 60.2461H164.596C163.403 60.2461 162.449 59.2941 162.21 58.104ZM181.294 59.7701C180.101 59.7701 178.908 58.58 178.908 57.39C178.908 56.1999 180.101 55.0099 181.294 55.0099C182.486 55.0099 183.679 56.1999 183.679 57.39C183.679 58.58 182.486 59.7701 181.294 59.7701Z" fill="#E92E39" fill-opacity="0.7"/>
<path d="M172.468 270.409C171.275 270.409 170.082 269.219 170.321 268.029C170.321 266.839 171.514 265.649 172.706 265.649C173.899 265.649 175.092 266.839 175.092 268.267C174.853 269.457 173.899 270.409 172.468 270.409ZM186.542 267.553C186.303 266.363 187.258 265.173 188.689 264.935C189.882 264.697 191.074 265.649 191.313 267.077C191.551 268.267 190.597 269.457 189.166 269.695H188.927C187.735 269.695 186.781 268.743 186.542 267.553ZM155.77 268.029C154.577 267.791 153.623 266.363 153.861 265.173C154.1 263.983 155.531 263.031 156.724 263.269C157.917 263.507 158.871 264.935 158.632 266.125C158.394 267.315 157.44 268.029 156.247 268.029C156.008 268.029 156.008 268.029 155.77 268.029ZM202.763 264.459C202.286 263.269 203.002 261.841 204.194 261.365C205.387 260.889 206.818 261.603 207.295 262.793C207.772 263.983 207.057 265.411 205.864 265.649C205.626 265.649 205.387 265.649 205.148 265.649C203.956 266.125 203.24 265.411 202.763 264.459ZM139.787 262.793C138.595 262.317 138.117 260.889 138.595 259.699C139.072 258.509 140.503 258.033 141.696 258.509C142.888 258.985 143.365 260.413 142.888 261.603C142.411 262.555 141.696 263.031 140.741 263.031C140.264 263.031 140.026 263.031 139.787 262.793ZM218.03 258.509C217.314 257.319 217.791 255.891 218.984 255.415C220.177 254.701 221.608 255.177 222.085 256.367C222.801 257.557 222.324 258.985 221.131 259.461C220.892 259.699 220.415 259.699 219.938 259.699C219.461 259.699 218.507 259.223 218.03 258.509ZM124.759 254.701C123.566 253.987 123.328 252.558 124.043 251.368C124.759 250.178 126.19 249.94 127.383 250.654C128.576 251.368 128.814 252.796 128.099 253.987C127.621 254.701 126.906 254.939 126.19 254.939C125.713 255.177 125.236 254.939 124.759 254.701ZM232.104 249.702C231.15 248.75 231.388 247.084 232.581 246.37C233.535 245.656 235.205 245.656 235.921 246.846C236.636 247.798 236.636 249.464 235.444 250.178C234.967 250.416 234.489 250.654 234.012 250.654C233.297 250.654 232.581 250.416 232.104 249.702ZM111.639 244.228C110.685 243.276 110.685 241.848 111.639 240.896C112.593 239.944 114.024 239.944 114.979 240.896C115.933 241.848 115.933 243.276 114.979 244.228C114.502 244.704 113.786 244.942 113.309 244.942C112.593 244.942 112.116 244.704 111.639 244.228ZM244.27 238.754C243.316 237.802 243.077 236.374 244.031 235.422C244.985 234.47 246.417 234.232 247.371 235.184C248.325 236.136 248.564 237.564 247.609 238.516C247.132 238.992 246.417 239.23 245.701 239.23C245.462 239.23 244.747 239.23 244.27 238.754ZM100.666 231.614C99.9503 230.424 100.189 228.995 101.143 228.281C102.336 227.567 103.767 227.805 104.483 228.757C105.198 229.71 104.96 231.376 104.006 232.09C103.528 232.328 103.051 232.566 102.574 232.566C101.859 232.566 101.143 232.09 100.666 231.614ZM254.527 225.663C253.334 224.949 253.096 223.521 253.812 222.331C254.527 221.141 255.958 220.903 257.151 221.617C258.344 222.331 258.582 223.759 257.867 224.949C257.39 225.663 256.674 226.139 255.72 226.139C255.243 226.139 254.766 225.901 254.527 225.663ZM91.8398 217.095C91.3627 215.905 91.8398 214.477 93.0325 214.001C94.2253 213.525 95.6565 214.001 96.1336 215.191C96.6107 216.381 96.1336 217.809 94.9409 218.285C94.7024 218.523 94.2253 218.523 93.9867 218.523C93.2711 218.285 92.3169 217.809 91.8398 217.095ZM261.922 211.145C260.729 210.669 260.014 209.241 260.491 208.051C260.968 206.861 262.399 206.146 263.592 206.623C264.785 207.099 265.5 208.527 265.023 209.717C264.785 210.669 263.83 211.383 262.876 211.383C262.638 211.383 262.399 211.383 261.922 211.145ZM86.1147 201.148C85.6377 199.958 86.5918 198.53 87.7846 198.292C88.9773 198.054 90.4086 198.768 90.6471 199.958C90.8856 201.148 90.17 202.576 88.9773 202.814C88.7387 202.814 88.5002 202.814 88.2617 202.814C87.3075 203.052 86.3533 202.338 86.1147 201.148ZM266.931 195.436C265.739 195.198 264.785 194.008 265.023 192.58C265.262 191.39 266.454 190.438 267.886 190.676C269.078 190.914 270.033 192.104 269.794 193.532C269.555 194.722 268.601 195.436 267.409 195.436C267.17 195.436 266.931 195.436 266.931 195.436ZM83.0137 184.726C83.0137 183.297 83.9679 182.345 85.1606 182.107C86.3533 182.107 87.546 183.059 87.7846 184.25C87.7846 185.44 86.8304 186.63 85.6377 186.868H85.3991C84.2064 186.868 83.2522 185.916 83.0137 184.726ZM268.84 179.251C267.409 179.251 266.454 178.299 266.454 176.871C266.454 176.871 266.454 176.871 266.454 176.633V176.395C266.454 174.967 267.647 174.015 268.84 174.015C270.033 174.015 271.225 174.967 271.225 176.395V176.633V176.871C271.225 178.061 270.033 179.251 268.84 179.251ZM85.3991 170.445C84.2064 170.445 83.0137 169.255 83.2522 167.827C83.2522 166.637 84.4449 165.447 85.8762 165.685C87.0689 165.685 88.2617 166.875 88.0231 168.303C87.7846 169.493 86.8304 170.445 85.3991 170.445ZM265.023 160.449C264.785 159.02 265.739 157.83 266.931 157.592C268.124 157.354 269.555 158.306 269.794 159.496C270.033 160.925 269.078 162.115 267.886 162.353C267.647 162.353 267.647 162.353 267.409 162.353C266.216 162.353 265.262 161.639 265.023 160.449ZM87.7846 154.26C86.5918 154.022 85.6377 152.594 86.1147 151.404C86.5918 150.214 87.7846 149.262 88.9773 149.738C90.17 149.976 90.8856 151.404 90.6471 152.594C90.4086 153.784 89.4544 154.26 88.2617 154.26C88.2617 154.26 88.0231 154.26 87.7846 154.26ZM260.729 144.978C260.252 143.788 260.968 142.36 262.161 141.884C263.353 141.408 264.785 142.122 265.262 143.312C265.739 144.502 265.023 145.93 263.83 146.406C263.592 146.406 263.353 146.644 262.876 146.644C262.161 146.644 261.206 145.93 260.729 144.978ZM93.2711 138.552C92.0784 138.076 91.6013 136.647 92.0784 135.457C92.5554 134.267 93.9867 133.791 95.1794 134.267C96.3722 134.743 96.8493 136.171 96.3722 137.361C95.8951 138.314 95.1794 138.79 94.2253 138.79C93.9867 138.79 93.5096 138.79 93.2711 138.552ZM253.812 130.697C253.096 129.507 253.573 128.079 254.527 127.365C255.72 126.651 257.151 127.127 257.867 128.317C258.582 129.507 258.105 130.935 257.151 131.649C256.674 131.887 256.436 131.887 255.958 131.887C255.004 131.887 254.289 131.411 253.812 130.697ZM101.382 124.271C100.189 123.557 100.189 122.129 100.905 120.939C101.62 119.749 103.051 119.511 104.244 120.463C105.198 121.177 105.437 122.843 104.721 123.795C104.244 124.509 103.528 124.747 102.813 124.747C102.336 124.747 101.859 124.747 101.382 124.271ZM244.27 117.607C243.316 116.655 243.554 115.227 244.508 114.274C245.462 113.322 246.894 113.56 247.848 114.512C248.802 115.465 248.564 116.893 247.609 117.845C247.132 118.321 246.655 118.321 245.94 118.321C245.462 118.559 244.747 118.321 244.27 117.607ZM111.878 111.656C110.923 110.704 110.923 109.276 111.878 108.324C112.832 107.372 114.263 107.372 115.217 108.324C116.171 109.276 116.171 110.704 115.217 111.656C114.74 112.132 114.024 112.37 113.547 112.37C113.07 112.37 112.355 112.132 111.878 111.656ZM232.82 106.658C231.865 105.944 231.627 104.278 232.343 103.326C233.058 102.374 234.728 102.136 235.682 103.088C236.636 103.802 236.875 105.468 236.159 106.42C235.682 106.896 234.967 107.372 234.251 107.372C233.774 107.134 233.297 106.896 232.82 106.658ZM124.52 101.184C123.805 99.9939 124.043 98.5658 125.236 97.8518C126.429 97.1377 127.86 97.3758 128.576 98.5658C129.291 99.7559 129.053 101.184 127.86 101.898C127.383 102.136 126.906 102.374 126.667 102.374C125.713 102.136 124.998 101.898 124.52 101.184ZM219.461 97.8518C218.268 97.1377 217.791 95.7097 218.507 94.5196C219.223 93.3296 220.654 92.8536 221.847 93.5676C223.039 94.2816 223.516 95.7097 222.801 96.8997C222.324 97.6138 221.608 98.0898 220.654 98.0898C220.177 98.0898 219.7 98.0898 219.461 97.8518ZM138.833 93.0916C138.356 91.9015 138.833 90.4735 140.026 89.9974C141.219 89.5214 142.65 89.9974 143.127 91.1875C143.604 92.3775 143.127 93.8056 141.934 94.2816C141.696 94.5196 141.219 94.5196 140.98 94.5196C140.026 94.5196 139.072 93.8056 138.833 93.0916ZM204.671 91.4255C203.479 90.9495 202.763 89.7594 203.24 88.3314C203.717 87.1413 204.91 86.4273 206.341 86.9033C207.534 87.3793 208.25 88.5694 207.772 89.9974C207.534 90.9495 206.58 91.6635 205.387 91.6635C205.148 91.6635 204.91 91.6635 204.671 91.4255ZM154.338 87.6173C154.1 86.4273 154.816 84.9992 156.247 84.7612C157.44 84.5232 158.871 85.2372 159.109 86.6653C159.348 87.8553 158.632 89.2834 157.201 89.5214C156.962 89.5214 156.962 89.5214 156.724 89.5214C155.531 89.2834 154.577 88.5694 154.338 87.6173ZM189.166 87.8553C187.735 87.6173 187.019 86.4273 187.019 85.2372C187.258 84.0472 188.45 83.0951 189.643 83.0951C190.836 83.3332 191.79 84.5232 191.551 85.7133C191.313 86.9033 190.359 87.8553 189.166 87.8553C189.405 88.0934 189.166 87.8553 189.166 87.8553ZM170.56 84.9992C170.56 83.5712 171.514 82.6191 172.945 82.3811C174.376 82.3811 175.33 83.3331 175.33 84.7612C175.33 86.1893 174.376 87.1413 172.945 87.1413C171.752 87.1413 170.56 86.1893 170.56 84.9992Z" fill="#E92E39" fill-opacity="0.7"/>
<path d="M174.376 240.42C174.376 239.23 175.569 238.04 176.761 238.04C177.954 238.04 179.147 239.23 179.147 240.42C179.147 241.61 177.954 242.8 176.761 242.8C175.569 243.038 174.376 241.848 174.376 240.42ZM191.074 238.992C190.836 237.802 191.551 236.374 192.744 236.136C193.937 235.898 195.368 236.612 195.606 237.802C196.084 238.992 195.129 240.42 193.937 240.658C193.698 240.658 193.46 240.658 193.46 240.658C192.267 240.896 191.313 240.182 191.074 238.992ZM159.586 240.658C158.394 240.182 157.678 238.992 157.916 237.802C158.394 236.612 159.586 235.66 160.779 236.136C161.972 236.374 162.687 237.802 162.449 238.992C162.21 239.944 161.256 240.658 160.063 240.658C160.063 240.658 159.825 240.658 159.586 240.658ZM206.818 233.28C206.102 232.09 206.579 230.662 207.772 229.948C208.965 229.233 210.396 229.71 211.112 230.9C211.827 232.09 211.35 233.518 210.158 234.232C209.681 234.47 209.442 234.47 208.965 234.47C208.011 234.47 207.295 233.994 206.818 233.28ZM143.604 233.994C142.411 233.28 142.172 231.852 142.65 230.662C143.365 229.472 144.796 229.233 145.989 229.71C147.182 230.424 147.42 231.852 146.943 233.042C146.466 233.756 145.751 234.232 144.796 234.232C144.319 234.232 143.842 234.232 143.604 233.994ZM220.654 223.521C219.699 222.569 219.699 221.141 220.654 220.189C221.608 219.237 223.039 219.237 223.993 220.189C224.947 221.141 224.947 222.569 223.993 223.521C223.516 223.997 223.039 224.235 222.323 224.235C221.608 224.235 221.131 223.997 220.654 223.521ZM129.768 223.283C128.814 222.331 128.814 220.903 129.768 219.951C130.722 218.999 132.154 218.999 133.108 219.951C134.062 220.903 134.062 222.331 133.108 223.283C132.631 223.759 132.154 223.997 131.438 223.997C130.722 223.997 130.245 223.759 129.768 223.283ZM231.388 210.669C230.195 209.955 229.957 208.527 230.434 207.337C231.15 206.146 232.581 205.908 233.774 206.385C234.966 207.099 235.205 208.527 234.728 209.717C234.251 210.431 233.535 210.907 232.581 210.907C232.104 211.145 231.627 210.907 231.388 210.669ZM119.272 209.479C118.557 208.289 119.034 206.861 120.226 206.146C121.419 205.432 122.85 205.908 123.566 207.099C124.282 208.289 123.805 209.717 122.612 210.431C122.135 210.669 121.896 210.669 121.419 210.669C120.465 210.669 119.511 210.193 119.272 209.479ZM238.306 195.436C237.113 195.198 236.159 193.77 236.636 192.58C236.875 191.39 238.306 190.676 239.499 190.914C240.691 191.39 241.407 192.58 241.168 193.77C240.93 194.96 239.976 195.436 238.783 195.436C238.783 195.674 238.544 195.674 238.306 195.436ZM112.593 193.532C112.354 192.342 113.07 190.914 114.263 190.676C115.456 190.438 116.887 191.152 117.125 192.342C117.364 193.532 116.648 194.96 115.456 195.198C115.217 195.198 114.978 195.198 114.978 195.198C113.786 195.198 112.832 194.484 112.593 193.532ZM241.168 179.013C239.976 179.013 238.783 177.823 238.783 176.633C238.783 176.633 238.783 176.633 238.783 176.395C238.783 174.967 239.976 174.015 241.168 174.015C242.6 174.015 243.554 174.967 243.554 176.395C243.554 176.395 243.554 176.395 243.554 176.633C243.554 176.633 243.554 176.633 243.554 176.871C243.554 178.061 242.6 179.013 241.168 179.013ZM112.593 178.775C111.162 178.775 110.208 177.823 110.208 176.395C110.208 174.967 111.4 174.015 112.593 174.015C113.786 174.015 114.978 175.205 114.978 176.395C114.978 177.585 114.024 178.775 112.593 178.775ZM236.875 160.449C236.398 159.258 237.352 157.83 238.544 157.592C239.737 157.354 241.168 158.068 241.407 159.258C241.646 160.449 240.93 161.877 239.737 162.115C239.499 162.115 239.26 162.115 239.022 162.115C238.067 162.115 237.113 161.401 236.875 160.449ZM114.263 161.877C113.07 161.639 112.354 160.211 112.593 159.02C112.832 157.83 114.263 156.878 115.456 157.354C116.648 157.592 117.602 159.02 117.125 160.211C116.887 161.163 115.933 161.877 114.74 161.877C114.74 162.115 114.501 162.115 114.263 161.877ZM230.672 145.454C229.957 144.264 230.434 142.836 231.627 142.122C232.819 141.408 234.251 141.884 234.966 143.074C235.682 144.264 235.205 145.692 234.012 146.406C233.535 146.644 233.296 146.644 232.819 146.644C231.865 146.644 231.15 146.406 230.672 145.454ZM120.226 146.406C119.034 145.692 118.795 144.264 119.272 143.074C119.988 141.884 121.419 141.646 122.612 142.122C123.805 142.836 124.043 144.264 123.566 145.454C123.089 146.168 122.373 146.644 121.419 146.644C120.942 146.644 120.465 146.406 120.226 146.406ZM220.654 132.839C219.699 131.887 219.699 130.459 220.654 129.507C221.608 128.555 223.039 128.555 223.993 129.507C224.947 130.459 224.947 131.887 223.993 132.839C223.516 133.315 223.039 133.553 222.323 133.553C221.846 133.553 221.131 133.315 220.654 132.839ZM130.007 132.601C129.053 131.649 129.053 130.221 130.007 129.269C130.961 128.317 132.392 128.317 133.346 129.269C134.301 130.221 134.301 131.649 133.346 132.601C132.869 133.077 132.154 133.315 131.677 133.315C130.961 133.315 130.484 133.077 130.007 132.601ZM208.011 122.843C206.818 122.129 206.58 120.701 207.057 119.511C207.772 118.321 209.203 118.083 210.396 118.559C211.589 119.273 211.827 120.701 211.35 121.891C210.873 122.605 210.158 123.081 209.203 123.081C208.726 123.319 208.249 123.081 208.011 122.843ZM142.888 121.891C142.172 120.701 142.65 119.273 143.842 118.559C145.035 117.845 146.466 118.321 147.182 119.511C147.898 120.701 147.42 122.129 146.228 122.843C145.751 123.081 145.512 123.081 145.035 123.081C144.081 123.081 143.365 122.843 142.888 121.891ZM192.982 116.655C191.79 116.417 190.836 114.989 191.313 113.799C191.551 112.608 192.982 111.894 194.175 112.132C195.368 112.37 196.084 113.799 195.845 114.989C195.606 115.941 194.652 116.655 193.46 116.655C193.46 116.893 193.221 116.893 192.982 116.655ZM158.155 114.989C157.678 113.799 158.632 112.37 159.825 112.132C161.017 111.894 162.449 112.608 162.687 113.799C162.926 114.989 162.21 116.417 161.017 116.655C160.779 116.655 160.54 116.655 160.302 116.655C159.348 116.893 158.394 116.179 158.155 114.989ZM174.615 112.37C174.615 110.942 175.807 109.99 177 109.99C178.193 109.99 179.385 110.942 179.385 112.37C179.385 113.561 178.431 114.751 177 114.751C175.807 114.751 174.615 113.561 174.615 112.37Z" fill="#E92E39" fill-opacity="0.7"/>
</svg>
