<svg width="132" height="264" viewBox="0 0 132 264" fill="none" xmlns="http://www.w3.org/2000/svg">
<path fill-rule="evenodd" clip-rule="evenodd" d="M132 82.3099C131.302 82.5178 130.714 83.1499 130.714 84.0161C130.714 84.738 131.302 85.4599 132 85.7069V82.3099ZM132 178.038C131.226 178.216 130.536 178.999 130.536 179.781C130.536 180.72 131.226 181.522 132 181.581V178.038ZM125.893 263.799C125 263.799 124.107 262.909 124.107 262.019C124.107 260.951 125 260.239 125.893 260.239C126.964 260.239 127.679 261.129 127.679 262.019C127.857 263.087 126.964 263.799 125.893 263.799ZM113.393 262.553C112.321 262.375 111.786 261.485 111.786 260.595C111.964 259.705 112.857 258.993 113.75 259.171C114.821 259.349 115.357 260.239 115.357 261.129C115.179 262.019 114.464 262.731 113.571 262.731C113.571 262.642 113.571 262.598 113.549 262.575C113.527 262.553 113.482 262.553 113.393 262.553ZM101.071 260.239C100.179 260.061 99.4643 258.993 99.8214 258.103C100 257.213 101.071 256.501 101.964 256.857C102.857 257.035 103.571 258.103 103.214 258.993C103.036 259.883 102.321 260.417 101.429 260.417C101.25 260.239 101.25 260.239 101.071 260.239ZM88.9286 256.679C88.0357 256.323 87.5 255.255 87.8571 254.365C88.2143 253.475 89.2857 252.941 90.1786 253.297C91.0714 253.653 91.6071 254.721 91.25 255.611C91.0714 256.323 90.3571 256.857 89.4643 256.857C89.375 256.857 89.2857 256.812 89.1964 256.768C89.1071 256.723 89.0179 256.679 88.9286 256.679ZM77.3214 252.051C76.4286 251.695 76.0714 250.627 76.4286 249.737C76.7857 248.847 77.8571 248.491 78.75 248.847C79.6429 249.203 80 250.271 79.6429 251.161C79.2857 251.873 78.75 252.229 78.0357 252.229C77.6786 252.051 77.5 252.051 77.3214 252.051ZM66.0714 246.177C65.1786 245.643 65 244.575 65.3571 243.685C65.8929 242.795 66.9643 242.617 67.8571 242.973C68.75 243.507 68.9286 244.575 68.5714 245.465C68.2143 245.999 67.6786 246.355 66.9643 246.355H66.9641C66.6071 246.355 66.4285 246.355 66.0714 246.177ZM55.5357 239.413C54.6429 238.879 54.6429 237.811 55.1786 236.921C55.7143 236.031 56.9643 236.031 57.6786 236.565C58.5714 237.099 58.5714 238.167 58.0357 239.057C57.6786 239.591 57.1429 239.769 56.6071 239.769C56.0714 239.769 55.7143 239.591 55.5357 239.413ZM45.5357 231.581C44.8214 230.869 44.6429 229.801 45.3571 229.089C46.0714 228.377 47.1429 228.199 47.8571 228.911C48.5714 229.623 48.75 230.691 48.0357 231.403C47.6786 231.759 47.1429 231.937 46.6071 231.937C46.4286 232.115 45.8929 231.937 45.5357 231.581ZM36.4286 222.859C35.7143 222.147 35.7143 221.079 36.4286 220.367C37.1429 219.655 38.2143 219.655 38.9286 220.367C39.6429 221.079 39.6429 222.147 38.9286 222.859C38.5714 223.215 38.2143 223.393 37.6786 223.393C37.3214 223.393 36.7857 223.215 36.4286 222.859ZM28.2143 213.424C27.5 212.712 27.6786 211.466 28.5714 210.932C29.2857 210.398 30.5357 210.398 31.0714 211.288C31.6071 212 31.6071 213.246 30.7143 213.78C30.3571 213.958 30 214.136 29.6429 214.136C29.1071 214.136 28.5714 213.78 28.2143 213.424ZM20.8929 203.1C20.3571 202.21 20.5357 201.142 21.4286 200.608C22.3214 200.074 23.3929 200.252 23.9286 201.142C24.4643 202.032 24.2857 203.1 23.3929 203.634C23.0357 203.812 22.6786 203.99 22.5 203.99C21.7857 203.99 21.25 203.634 20.8929 203.1ZM14.6429 192.242C14.1071 191.352 14.4643 190.284 15.3571 189.928C16.25 189.394 17.3214 189.75 17.6786 190.64C18.2143 191.53 17.8571 192.598 16.9643 193.132C16.7857 193.31 16.4286 193.31 16.0714 193.31C15.5357 193.31 15 192.954 14.6429 192.242ZM9.46429 180.85C9.10715 179.96 9.46429 178.892 10.5357 178.536C11.4286 178.18 12.5 178.536 12.8571 179.604C13.2143 180.494 12.8571 181.562 11.7857 181.918C11.7117 181.918 11.6378 181.949 11.5511 181.984C11.4286 182.035 11.2806 182.096 11.0714 182.096C10.3571 181.918 9.64286 181.562 9.46429 180.85ZM5.35715 168.924C5 168.034 5.71429 166.966 6.60715 166.788C7.5 166.432 8.57143 167.144 8.75 168.034C9.10715 168.924 8.57143 169.992 7.5 170.17H6.96429C6.25 170.17 5.53571 169.814 5.35715 168.924ZM2.32143 156.82C2.14285 155.93 2.67857 154.862 3.75 154.684C4.64286 154.506 5.71429 155.04 5.89286 156.108C6.07143 156.998 5.35714 158.066 4.46429 158.244H4.10714C3.21428 158.244 2.5 157.532 2.32143 156.82ZM0.535721 144.36C0.535721 143.292 1.07143 142.58 2.14285 142.402C3.21428 142.402 3.92857 143.114 4.10714 144.004C4.10714 144.894 3.39285 145.784 2.5 145.962H2.32143C1.42857 145.962 0.714279 145.25 0.535721 144.36ZM0 131.722C0 130.654 0.892853 129.942 1.78572 129.942C2.85715 129.942 3.57143 130.654 3.57143 131.722C3.57143 132.612 2.85715 133.502 1.78572 133.502C0.892853 133.502 0 132.79 0 131.722ZM2.14285 121.219C1.25 121.041 0.357147 120.329 0.535721 119.261C0.535721 118.371 1.42857 117.659 2.5 117.659C3.39285 117.837 4.10714 118.549 4.10714 119.617C4.10714 120.507 3.21428 121.219 2.32143 121.219H2.14285ZM3.75 108.937C2.85715 108.759 2.14285 107.869 2.32143 106.801C2.5 105.911 3.39285 105.199 4.46429 105.377C5.35714 105.555 6.07143 106.445 5.89286 107.513C5.71429 108.403 5 108.937 4.10714 108.937H3.75ZM6.60715 96.8331C5.71429 96.4771 5.17857 95.5871 5.35715 94.6971C5.53571 93.8071 6.60714 93.2731 7.5 93.4511C8.39286 93.8071 8.92857 94.6971 8.75 95.5871C8.57143 96.2991 7.85715 96.8331 6.96429 96.8331H6.60715ZM10.5357 85.085C9.64286 84.729 9.10715 83.661 9.46429 82.771C9.82143 81.881 10.8929 81.3469 11.7857 81.703C12.6786 82.059 13.2143 83.127 12.8571 84.017C12.5 84.729 11.9643 85.085 11.25 85.085H10.5357ZM15.5357 73.6929C14.6429 73.1589 14.2857 72.0908 14.8214 71.2008C15.3571 70.3108 16.4286 69.9548 17.1429 70.4888C18.0357 71.0228 18.3929 72.0908 17.8571 72.9809C17.5 73.5149 16.9643 73.8709 16.25 73.8709C16.0714 73.8709 15.7143 73.8709 15.5357 73.6929ZM21.6071 62.8347C20.7143 62.3007 20.5357 61.2327 21.0714 60.3427C21.6071 59.4527 22.6786 59.2747 23.5714 59.8087C24.4643 60.3427 24.6429 61.4107 24.1071 62.3007C23.75 62.8347 23.2143 63.1907 22.6786 63.1907C22.3214 63.1907 21.9643 63.0127 21.6071 62.8347ZM28.75 52.6886C28.0357 51.9766 27.8571 50.9086 28.3929 50.1966C28.9286 49.4846 30.1786 49.3066 30.8929 49.8406C31.6071 50.3746 31.7857 51.6206 31.25 52.3326C30.8929 52.6886 30.3571 53.0446 29.8214 53.0446C29.4643 53.0446 29.1071 52.8666 28.75 52.6886ZM36.7857 43.2545C36.0714 42.5425 36.0714 41.4745 36.7857 40.7625C37.5 40.0505 38.5714 40.0505 39.2857 40.7625C40 41.4745 40 42.5425 39.2857 43.2545C38.9286 43.6105 38.3929 43.7885 38.0357 43.7885C37.5 43.7885 37.1429 43.6105 36.7857 43.2545ZM45.7143 34.5324C45 33.8204 45.1786 32.7524 45.8929 32.0404C46.6071 31.3284 47.6786 31.5064 48.3929 32.2184C49.1071 32.9304 48.9286 33.9984 48.2143 34.7104C47.8571 35.0664 47.5 35.0664 46.9643 35.0664C46.4286 35.2444 46.0714 34.8884 45.7143 34.5324ZM55.3571 26.7003C54.8214 25.9883 55 24.7423 55.7143 24.2083C56.6071 23.6743 57.6786 23.8523 58.2143 24.5643C58.75 25.2763 58.5714 26.5223 57.8571 27.0563C57.5 27.2343 57.1429 27.4123 56.7857 27.4123C56.25 27.5903 55.7143 27.2343 55.3571 26.7003ZM65.7143 19.9362C65.1786 19.0462 65.5357 17.9782 66.4286 17.4442C67.3214 16.9102 68.3929 17.2662 68.9286 18.1562C69.4643 19.0462 69.1072 20.1142 68.2143 20.6482C67.8572 20.8262 67.6786 20.8262 67.3214 20.8262C66.6071 20.8262 66.0714 20.4702 65.7143 19.9362ZM76.6071 14.0622C76.25 13.1722 76.6071 12.1041 77.5 11.7481C78.3929 11.3921 79.4643 11.7481 79.8214 12.6381C80.1786 13.5282 79.8214 14.5962 78.9286 14.9522C78.75 15.1302 78.3929 15.1302 78.2143 15.1302C77.6786 15.1302 76.9643 14.7742 76.6071 14.0622ZM88.2143 9.25611C87.8572 8.3661 88.3929 7.29808 89.2857 7.12008C90.1786 6.76408 91.25 7.29808 91.6071 8.18809C91.9643 9.0781 91.4286 10.1461 90.5357 10.5021H90C89.1071 10.5021 88.3929 9.96812 88.2143 9.25611ZM100 5.69607C99.8214 4.80606 100.357 3.73804 101.25 3.56004C102.143 3.38204 103.214 3.91605 103.393 4.80606C103.571 5.69607 103.036 6.76408 102.143 6.94208H101.786C100.893 7.12008 100.179 6.40807 100 5.69607ZM112.143 3.20404C111.964 2.13602 112.679 1.24601 113.571 1.24601C114.643 1.06801 115.536 1.78002 115.536 2.67003C115.714 3.56004 115 4.62805 114.107 4.62805H113.929C113.036 4.62805 112.321 4.09405 112.143 3.20404ZM124.643 1.78002C124.643 0.712008 125.357 0 126.429 0C127.321 0 128.214 0.712008 128.214 1.60202C128.214 2.67003 127.5 3.38204 126.429 3.38204C125.357 3.56004 124.643 2.84803 124.643 1.78002ZM128.928 243.328C128.036 243.328 127.143 242.438 127.143 241.548C127.143 240.658 128.036 239.768 128.928 239.768C129.821 239.768 130.714 240.658 130.714 241.548C130.893 242.616 130 243.328 128.928 243.328ZM116.25 242.26C115.357 242.082 114.643 241.192 114.821 240.302C115 239.412 115.893 238.7 116.786 238.7C117.678 238.878 118.393 239.768 118.214 240.658C118.036 241.548 117.321 242.26 116.428 242.26H116.25ZM103.75 239.768C102.857 239.412 102.321 238.522 102.5 237.632C102.678 236.742 103.75 236.03 104.643 236.386C105.536 236.564 106.071 237.632 105.893 238.522C105.714 239.412 105 239.768 104.107 239.768H103.75ZM91.607 235.674C90.7142 235.318 90.1785 234.25 90.5356 233.36C90.8928 232.47 91.9642 231.936 92.857 232.292C93.7499 232.648 94.2856 233.716 93.9285 234.606C93.7499 235.318 93.0356 235.674 92.3213 235.674C92.1428 235.852 91.9642 235.852 91.607 235.674ZM79.9999 230.334C79.107 229.8 78.7499 228.732 79.2856 228.02C79.8213 227.13 80.8928 226.774 81.7856 227.308C82.6785 227.842 83.0356 228.91 82.4999 229.622C82.1428 230.156 81.607 230.512 80.8928 230.512C80.7142 230.69 80.357 230.512 79.9999 230.334ZM69.107 223.748C68.2142 223.214 68.0356 222.146 68.5713 221.256C69.107 220.366 70.1785 220.188 71.0713 220.722C71.9642 221.256 72.1428 222.324 71.607 223.214C71.2499 223.748 70.7142 223.926 70.1785 223.926C69.8213 224.104 69.4642 224.104 69.107 223.748ZM59.107 216.094C58.3928 215.382 58.2142 214.314 58.9285 213.602C59.6428 212.89 60.7142 212.712 61.4285 213.424C62.1428 214.136 62.3213 215.204 61.607 215.916C61.2499 216.272 60.7142 216.45 60.1785 216.45C59.8213 216.45 59.4642 216.272 59.107 216.094ZM49.9999 207.194C49.2856 206.482 49.2856 205.414 50.1785 204.702C50.8928 203.99 51.9642 203.989 52.6785 204.88C53.3928 205.592 53.2142 206.66 52.4999 207.372C52.1428 207.728 51.7856 207.906 51.2499 207.906C50.7142 207.728 50.357 207.55 49.9999 207.194ZM41.9642 197.225C41.4285 196.335 41.607 195.267 42.3213 194.733C43.2142 194.199 44.2856 194.377 44.8213 195.089C45.357 195.979 45.1785 197.047 44.4642 197.581C44.107 197.759 43.7499 197.937 43.3928 197.937C42.857 197.937 42.1428 197.759 41.9642 197.225ZM34.9999 186.545C34.4642 185.655 34.8213 184.587 35.7142 184.053C36.607 183.519 37.6785 183.875 38.2142 184.765C38.7499 185.655 38.3928 186.723 37.4999 187.257C37.1428 187.435 36.9642 187.435 36.607 187.435C35.8928 187.435 35.357 187.079 34.9999 186.545ZM29.2856 175.153C28.9285 174.263 29.2856 173.195 30.1785 172.839C31.0713 172.483 32.1428 172.839 32.4999 173.729C32.857 174.619 32.4999 175.687 31.607 176.043C31.4285 176.221 31.2499 176.221 31.0713 176.221C30.357 176.221 29.6428 175.865 29.2856 175.153ZM25.1785 163.049C24.8213 162.159 25.357 161.091 26.4285 160.913C27.3213 160.557 28.3928 161.091 28.5713 162.159C28.7499 163.049 28.2142 164.117 27.3213 164.295H26.7856C26.0713 164.473 25.357 163.939 25.1785 163.049ZM22.3213 150.767C22.1428 149.877 22.857 148.809 23.7499 148.631C24.6428 148.453 25.7142 149.165 25.7142 150.055C25.8928 150.945 25.1785 152.013 24.2856 152.191H23.9285C23.2142 152.191 22.3213 151.657 22.3213 150.767ZM20.8928 138.129C20.8928 137.239 21.607 136.349 22.6785 136.349C23.5713 136.349 24.4642 137.061 24.4642 137.951C24.4642 139.019 23.7499 139.731 22.857 139.909H22.6785C21.607 139.731 20.8928 139.019 20.8928 138.129ZM22.4999 127.271C21.4285 127.271 20.7142 126.381 20.8928 125.491C20.8928 124.423 21.7856 123.711 22.857 123.889C23.7499 123.889 24.6428 124.779 24.4642 125.847C24.2856 126.559 23.5713 127.271 22.4999 127.271ZM23.7499 114.81C22.6785 114.632 22.1428 113.742 22.3213 112.852C22.4999 111.784 23.3928 111.25 24.4642 111.428C25.357 111.606 26.0713 112.496 25.8928 113.564C25.7142 114.454 24.9999 114.988 24.107 114.988C24.0044 114.886 23.9608 114.843 23.9083 114.824C23.8695 114.81 23.8258 114.81 23.7499 114.81ZM26.4285 102.528C25.5356 102.172 24.9999 101.282 25.1785 100.392C25.5356 99.5023 26.4285 98.9683 27.3213 99.1463C28.2142 99.5023 28.7499 100.392 28.5713 101.282C28.3928 101.994 27.6785 102.528 26.7856 102.528C26.7856 102.638 26.7174 102.612 26.6231 102.576C26.5649 102.554 26.4967 102.528 26.4285 102.528ZM30.5356 90.7802C29.6428 90.4242 29.107 89.3562 29.6428 88.4662C29.9999 87.5762 31.0713 87.0422 31.9642 87.5762C32.857 87.9322 33.2142 89.0002 32.857 89.8902C32.4999 90.6022 31.9642 90.9582 31.2499 90.9582C30.8928 90.7802 30.7142 90.7802 30.5356 90.7802ZM35.8928 79.3881C34.9999 78.8541 34.6428 77.786 35.1785 76.896C35.7142 76.006 36.7856 75.828 37.6785 76.184C38.5713 76.718 38.7499 77.7861 38.3928 78.6761C38.0356 79.2101 37.4999 79.5661 36.7856 79.5661C36.4285 79.5661 36.0713 79.5661 35.8928 79.3881ZM42.4999 68.7079C41.607 68.1739 41.607 66.9279 42.1428 66.2159C42.6785 65.3259 43.9285 65.3259 44.6428 65.8599C45.357 66.3939 45.5356 67.6399 44.9999 68.352C44.6428 68.886 44.107 69.064 43.5713 69.064C43.2142 69.064 42.857 69.064 42.4999 68.7079ZM50.357 58.9178C49.6428 58.2058 49.6428 57.1378 50.1785 56.4258C50.8928 55.7138 51.9642 55.7138 52.6785 56.4258C53.3928 57.1378 53.3928 58.2058 52.857 58.9178C52.4999 59.2738 51.9642 59.4518 51.607 59.4518C51.0713 59.4518 50.5356 59.2738 50.357 58.9178ZM59.107 50.0177C58.3928 49.3057 58.5713 48.0597 59.2856 47.5257C59.9999 46.8137 61.0713 46.9917 61.7856 47.7037C62.4999 48.4157 62.3213 49.4837 61.607 50.1957C61.2499 50.5517 60.8928 50.5517 60.357 50.5517C59.9999 50.7297 59.4642 50.5517 59.107 50.0177ZM68.9285 42.3636C68.3928 41.4736 68.5713 40.4056 69.4642 39.8716C70.3571 39.3376 71.4285 39.5156 71.9642 40.4056C72.4999 41.2956 72.3213 42.3636 71.4285 42.8977C71.0713 43.0757 70.7142 43.2537 70.357 43.2537C69.8213 43.0757 69.2856 42.7196 68.9285 42.3636ZM79.6428 35.5996C79.107 34.7096 79.4642 33.6415 80.357 33.1075C81.2499 32.7515 82.3213 32.9295 82.6785 33.8196C83.2142 34.7096 82.8571 35.7776 81.9642 36.3116C81.6071 36.4896 81.4285 36.4896 81.0713 36.4896C80.5356 36.6676 79.9999 36.3116 79.6428 35.5996ZM91.0713 30.2595C90.7142 29.3695 91.0713 28.3015 92.1428 27.9455C93.0356 27.5895 94.1071 28.1235 94.4642 29.0135C94.8213 29.9035 94.2856 30.9715 93.3928 31.3275C93.2142 31.5055 93.0356 31.5055 92.6785 31.5055C91.9642 31.3275 91.2499 30.9715 91.0713 30.2595ZM102.857 26.1655C102.5 25.2754 103.214 24.2074 104.107 24.0294C105 23.8514 106.071 24.3854 106.25 25.2754C106.428 26.1655 105.893 27.2335 105 27.4115H104.464C103.75 27.5895 103.036 27.0555 102.857 26.1655ZM115.178 23.4954C115 22.6054 115.714 21.5374 116.607 21.5374C117.5 21.3594 118.393 22.0714 118.571 22.9614C118.75 23.8514 118.036 24.9194 117.143 24.9194H116.964C116.071 25.0974 115.357 24.3854 115.178 23.4954ZM127.678 22.2494C127.678 21.1814 128.393 20.4694 129.464 20.4694C130.357 20.4694 131.25 21.1814 131.25 22.2494C131.25 23.3174 130.536 24.0294 129.464 24.0294C128.393 24.0294 127.678 23.3174 127.678 22.2494ZM121.071 220.366C120.893 221.256 121.786 222.146 122.679 222.324H122.857C123.75 222.324 124.464 221.612 124.643 220.722C124.821 219.654 123.929 218.942 123.036 218.764C121.964 218.586 121.25 219.298 121.071 220.366ZM108.929 217.874C108.571 218.764 109.286 219.832 110.179 220.01C110.357 220.188 110.536 220.188 110.536 220.188C111.429 220.188 112.143 219.476 112.321 218.764C112.679 217.874 111.964 216.806 111.071 216.628C110.179 216.272 109.107 216.984 108.929 217.874ZM97.1428 213.78C96.6071 214.67 97.1428 215.738 98.0357 216.094C98.2143 216.272 98.5714 216.272 98.9285 216.272C99.6428 216.272 100.179 215.916 100.536 215.204C100.893 214.314 100.357 213.246 99.4642 212.89C98.5714 212.356 97.5 212.89 97.1428 213.78ZM85.8928 208.084C85.5357 208.974 85.7142 210.042 86.6071 210.576C86.9642 210.754 87.3214 210.754 87.5 210.754C88.2142 210.754 88.75 210.398 89.1071 209.864C89.4642 208.974 89.2857 207.906 88.3928 207.372C87.5 207.016 86.4285 207.194 85.8928 208.084ZM75.8928 200.963C75.3571 201.675 75.5357 202.922 76.25 203.456C76.4285 203.634 76.9642 203.812 77.3214 203.812C77.8571 203.812 78.3928 203.455 78.75 203.099C79.2857 202.387 79.1071 201.319 78.3928 200.607C77.6785 200.073 76.4285 200.251 75.8928 200.963ZM66.7857 192.419C66.0714 193.131 66.0714 194.199 66.7857 194.911C67.1428 195.267 67.5 195.445 68.0357 195.445C68.5714 195.445 68.9285 195.267 69.2857 194.911C70 194.199 70 193.131 69.2857 192.419C68.5714 191.707 67.5 191.707 66.7857 192.419ZM58.9285 182.629C58.2142 183.163 58.0357 184.231 58.5714 185.121C58.9285 185.655 59.4642 185.833 60 185.833C60.3571 185.833 60.7142 185.655 61.0714 185.477C61.7857 184.943 61.9642 183.875 61.4285 182.985C60.8928 182.273 59.8214 182.095 58.9285 182.629ZM52.5 172.127C51.6071 172.483 51.25 173.551 51.7857 174.441C52.1428 174.975 52.8571 175.331 53.3928 175.331C53.75 175.331 53.9285 175.331 54.2857 175.153C55.1785 174.797 55.5357 173.729 55 172.839C54.4642 171.949 53.3928 171.593 52.5 172.127ZM47.8571 160.557C46.9642 160.913 46.4285 161.981 46.7857 162.871C46.9642 163.583 47.6785 163.939 48.5714 164.117C48.6607 164.117 48.75 164.073 48.8392 164.028C48.9285 163.984 49.0178 163.939 49.1071 163.939C50 163.583 50.5357 162.515 50.1785 161.625C49.8214 160.735 48.75 160.201 47.8571 160.557ZM44.6428 148.453C43.5714 148.631 43.0357 149.699 43.2142 150.589C43.3928 151.479 44.1071 152.013 45 152.013H45.3571C46.4285 151.835 46.9642 150.767 46.7857 149.877C46.6071 148.809 45.5357 148.275 44.6428 148.453ZM43.0357 136.171C42.1428 136.349 41.4285 137.061 41.4285 138.129C41.6071 139.019 42.3214 139.731 43.2142 139.731H43.3928C44.2857 139.553 45 138.663 45 137.773C44.8214 136.883 44.1071 136.171 43.0357 136.171ZM41.6071 125.313C41.4285 126.381 42.1428 127.271 43.2142 127.271C44.2857 127.271 45 126.559 45.1785 125.669C45.3571 124.601 44.4642 123.711 43.5714 123.711C42.5 123.533 41.6071 124.423 41.6071 125.313ZM43.2142 112.852C43.0357 113.92 43.75 114.81 44.6428 114.988H45C45.8928 114.988 46.6071 114.454 46.7857 113.564C46.9642 112.496 46.25 111.606 45.3571 111.428C44.2857 111.25 43.3928 111.962 43.2142 112.852ZM46.7857 100.57C46.4285 101.46 46.9642 102.528 47.8571 102.884C48.0357 103.062 48.2142 103.062 48.5714 103.062C49.2857 103.062 49.8214 102.528 50.1785 101.816C50.5357 100.926 50 99.8583 49.1071 99.5023C48.2142 99.1463 47.1428 99.6803 46.7857 100.57ZM51.9642 89.0002C51.4285 89.8902 51.7857 90.9582 52.6785 91.4922C53.0357 91.6702 53.3928 91.6702 53.5714 91.4922C54.2857 91.4922 54.8214 91.1362 55.1785 90.6022C55.7142 89.8902 55.3571 88.8222 54.4642 88.2882C53.5714 87.7542 52.5 88.1102 51.9642 89.0002ZM58.75 78.32C58.2142 79.0321 58.3928 80.2781 59.1071 80.8121C59.4642 81.1681 59.8214 81.1681 60.1785 81.1681C60.7142 81.1681 61.25 80.9901 61.6071 80.4561C62.1428 79.5661 62.1428 78.498 61.25 77.964C60.5357 77.43 59.2857 77.608 58.75 78.32ZM66.9642 68.7079C66.25 69.4199 66.25 70.488 66.9642 71.2C67.3214 71.556 67.8571 71.734 68.2142 71.734C68.5714 71.734 69.1071 71.556 69.4642 71.2C70.1785 70.488 70.1785 69.4199 69.4642 68.7079C68.75 67.9959 67.6785 67.9959 66.9642 68.7079ZM76.4285 60.1638C75.5357 60.6978 75.5357 61.9438 76.0714 62.6559C76.4285 63.1899 76.9642 63.3679 77.5 63.3679C77.8571 63.3679 78.2142 63.1899 78.5714 63.0119C79.4642 62.4779 79.4642 61.2318 78.9285 60.5198C78.3928 59.6298 77.1428 59.6298 76.4285 60.1638ZM86.9642 53.0437C86.0714 53.5778 85.7142 54.6458 86.25 55.5358C86.6071 56.0698 87.3214 56.4258 87.8571 56.4258C88.2142 56.4258 88.3928 56.4258 88.75 56.2478C89.6428 55.7138 90 54.6458 89.4642 53.7558C88.9285 52.8658 87.8571 52.5097 86.9642 53.0437ZM98.5714 47.5257C97.5 47.8817 97.1428 48.9497 97.5 49.8397C97.6785 50.5517 98.3928 51.0857 99.2857 51.0857C99.6428 51.0857 99.8214 51.0857 100 50.9077C100.893 50.5517 101.25 49.4837 100.893 48.5937C100.536 47.5257 99.4643 47.1697 98.5714 47.5257ZM110.536 43.6096C109.643 43.7876 109.107 44.8557 109.286 45.7457C109.464 46.6357 110.179 47.1697 111.071 46.9917H111.429C112.321 46.8137 112.857 45.7457 112.679 44.8557C112.5 43.9656 111.429 43.4316 110.536 43.6096ZM123.036 41.4736C121.964 41.6516 121.25 42.5416 121.429 43.4316C121.607 44.3216 122.321 45.0337 123.214 45.0337H123.393C124.464 44.8557 125.179 44.1436 125 43.0756C124.821 42.0076 123.929 41.2956 123.036 41.4736ZM129.107 202.209C128.214 202.209 127.321 201.319 127.5 200.429C127.5 199.539 128.393 198.649 129.286 198.649C130.179 198.649 131.071 199.539 131.071 200.607C130.893 201.497 130.179 202.209 129.107 202.209ZM116.607 200.429C115.714 200.251 115 199.183 115.179 198.293C115.357 197.403 116.429 196.691 117.321 196.869C118.214 197.047 118.929 198.115 118.75 199.005C118.571 199.895 117.857 200.429 116.964 200.429H116.607ZM104.643 196.513C103.75 196.157 103.393 195.089 103.75 194.199C104.107 193.309 105.179 192.953 106.071 193.309C106.964 193.665 107.321 194.733 106.964 195.623C106.607 196.335 106.071 196.691 105.357 196.691C105 196.691 104.821 196.691 104.643 196.513ZM93.3929 190.461C92.5 189.927 92.3215 188.859 92.8572 187.969C93.3929 187.079 94.4643 186.901 95.3572 187.435C96.2501 187.969 96.4286 189.037 95.8929 189.927C95.5358 190.461 95.0001 190.639 94.4643 190.639C94.1072 190.817 93.75 190.639 93.3929 190.461ZM83.5715 182.629C82.8572 181.917 82.8572 180.849 83.5715 180.137C84.2858 179.425 85.3572 179.425 86.0715 180.137C86.7858 180.849 86.7858 181.917 86.0715 182.629C85.7143 182.985 85.1786 183.163 84.8215 183.163C84.2858 183.163 83.9286 182.985 83.5715 182.629ZM75.3572 173.195C74.8215 172.305 75 171.237 75.7143 170.703C76.6072 170.169 77.6786 170.347 78.2143 171.059C78.75 171.771 78.5715 173.017 77.8572 173.551C77.5 173.729 77.1429 173.907 76.7858 173.907C76.25 173.907 75.7143 173.551 75.3572 173.195ZM68.75 162.337C68.3929 161.447 68.75 160.379 69.6429 160.023C70.5358 159.667 71.6072 160.023 71.9643 160.913C72.3215 161.803 71.9643 162.871 71.0715 163.227C70.8929 163.405 70.5358 163.405 70.3572 163.405C69.8215 163.227 69.1072 162.871 68.75 162.337ZM64.4643 150.411C64.1072 149.521 64.8215 148.453 65.7143 148.275C66.6072 148.097 67.6786 148.631 67.8572 149.521C68.0358 150.411 67.5 151.479 66.6072 151.657H66.0715C65.3572 151.835 64.6429 151.301 64.4643 150.411ZM62.1429 138.129C62.1429 137.061 62.8572 136.349 63.75 136.171C64.6429 136.171 65.5358 136.883 65.7143 137.773C65.7143 138.663 65.0001 139.553 64.1072 139.731H63.9286C63.0358 139.731 62.3215 139.019 62.1429 138.129ZM63.9286 127.449C63.0358 127.449 62.1429 126.559 62.3215 125.491C62.3215 124.601 63.2143 123.711 64.2858 123.889C65.1786 123.889 66.0715 124.779 65.8929 125.847C65.7143 126.737 65 127.449 63.9286 127.449ZM65.7143 115.344C64.8215 115.166 64.1072 114.098 64.4643 113.208C64.8215 112.318 65.7143 111.606 66.6072 111.962C67.5 112.14 68.0358 113.208 67.8572 114.098C67.6786 114.988 66.9643 115.344 66.0715 115.344H65.7143ZM69.8215 103.596C68.9286 103.24 68.5715 102.172 68.9286 101.282C69.2858 100.392 70.3572 100.036 71.2501 100.392C72.1429 100.748 72.5 101.816 72.1429 102.706C71.7858 103.418 71.25 103.774 70.5358 103.774C70.3572 103.774 70 103.774 69.8215 103.596ZM75.8929 92.9162C75 92.3822 75 91.3142 75.5358 90.4242C76.0715 89.5342 77.1429 89.3562 78.0358 90.0682C78.7501 90.6022 78.9286 91.8482 78.3929 92.5602C78.0358 93.0942 77.5 93.2722 76.9643 93.2722C76.6072 93.2722 76.25 93.2722 75.8929 92.9162ZM83.7501 83.4821C83.0358 82.7701 83.0358 81.7021 83.7501 80.9901C84.4643 80.2781 85.5358 80.2781 86.25 80.9901C86.9643 81.7021 86.9643 82.7701 86.25 83.4821C85.8929 83.8381 85.3572 84.0161 85 84.0161C84.6429 84.0161 84.1072 83.8381 83.7501 83.4821ZM93.2143 75.65C92.6786 74.76 92.8572 73.692 93.75 73.158C94.6429 72.624 95.7143 72.802 96.2501 73.692C96.7858 74.582 96.6072 75.65 95.7143 76.184C95.3572 76.362 95 76.54 94.8215 76.54C94.1072 76.362 93.5715 76.184 93.2143 75.65ZM103.929 69.598C103.571 68.7079 103.929 67.6399 104.821 67.2839C105.714 66.9279 106.786 67.2839 107.143 68.1739C107.5 69.0639 107.143 70.132 106.25 70.488C106.071 70.666 105.714 70.666 105.536 70.666C104.821 70.666 104.107 70.132 103.929 69.598ZM115.536 65.5039C115.357 64.6139 115.893 63.5459 116.964 63.3679C117.857 63.1899 118.929 63.7239 119.107 64.7919C119.286 65.6819 118.75 66.7499 117.679 66.9279H117.321C116.429 66.7499 115.714 66.2159 115.536 65.5039ZM127.679 63.5459C127.679 62.4779 128.393 61.7659 129.464 61.5879C130.536 61.5879 131.25 62.2999 131.25 63.3679C131.25 64.4359 130.536 65.1479 129.464 65.1479C128.571 65.1479 127.679 64.4359 127.679 63.5459ZM118.214 177.823C118.036 178.713 118.571 179.603 119.464 179.959H119.821C120.714 179.959 121.429 179.425 121.607 178.713C121.786 177.823 121.25 176.755 120.357 176.577C119.464 176.221 118.571 176.933 118.214 177.823ZM106.786 172.483C106.429 173.373 106.607 174.441 107.5 174.975C107.679 175.153 108.036 175.153 108.393 175.153C109.107 175.153 109.643 174.797 110 174.263C110.357 173.373 110.179 172.305 109.286 171.771C108.393 171.415 107.321 171.593 106.786 172.483ZM97.1428 164.473C96.4285 165.185 96.4285 166.253 97.1428 166.965C97.4999 167.321 97.8571 167.499 98.3928 167.499C98.9285 167.499 99.2857 167.321 99.6428 166.965C100.357 166.253 100.357 165.185 99.6428 164.473C98.9285 163.761 97.8571 163.761 97.1428 164.473ZM89.9999 154.149C89.1071 154.683 88.7499 155.751 89.2857 156.641C89.4642 157.175 90.1785 157.531 90.8928 157.531C91.2499 157.531 91.4285 157.531 91.7857 157.353C92.6785 156.819 93.0357 155.751 92.4999 154.861C91.9642 153.971 90.8928 153.615 89.9999 154.149ZM85.5357 142.579C84.6428 142.757 84.1071 143.825 84.2857 144.715C84.4642 145.427 85.1785 145.961 86.0714 145.961H86.4285C87.3214 145.783 87.8571 144.715 87.6785 143.825C87.4999 142.935 86.4285 142.401 85.5357 142.579ZM82.4999 131.899C82.4999 132.967 83.2142 133.679 84.2857 133.679C85.3571 133.679 86.0714 132.789 86.0714 131.899C86.0714 131.009 85.1785 130.119 84.2857 130.119C83.3928 130.119 82.4999 130.831 82.4999 131.899ZM84.2857 118.905C84.1071 119.795 84.6428 120.863 85.5357 121.041C85.7142 121.219 85.8928 121.219 85.8928 121.041C86.7857 121.041 87.4999 120.507 87.6785 119.795C88.0357 118.905 87.3214 117.837 86.4285 117.659C85.5357 117.303 84.4642 118.015 84.2857 118.905ZM89.2857 106.978C88.9285 107.868 89.1071 108.936 89.9999 109.47C90.0739 109.47 90.1785 109.501 90.3011 109.537C90.4744 109.587 90.6836 109.648 90.8928 109.648C91.6071 109.648 92.1428 109.292 92.4999 108.758C92.8571 107.868 92.6785 106.8 91.7857 106.266C90.8928 105.91 89.8214 106.088 89.2857 106.978ZM97.3214 96.6543C96.6071 97.3663 96.6071 98.4343 97.3214 99.1463C97.6785 99.5023 98.0357 99.6803 98.5714 99.6803C98.9285 99.6803 99.4642 99.5023 99.8214 99.1463C100.536 98.4343 100.536 97.3663 99.8214 96.6543C99.1071 95.9423 98.0357 95.9423 97.3214 96.6543ZM107.679 88.6442C106.786 89.1782 106.429 90.2462 106.964 91.1362C107.321 91.8482 107.857 92.0262 108.571 92.0262C108.929 92.0262 109.107 92.0262 109.464 91.8482C110.357 91.3142 110.714 90.2462 110.179 89.3562C109.643 88.4662 108.571 88.1102 107.679 88.6442ZM119.643 83.8381C118.75 84.0161 118.036 85.0842 118.393 85.9742C118.571 86.8642 119.286 87.3982 120 87.2202H120.536C121.429 87.0422 121.964 85.9742 121.786 85.0842C121.607 84.1941 120.536 83.6601 119.643 83.8381Z" fill="#E92E39" fill-opacity="0.7"/>
</svg>
