<svg width="41" height="32" viewBox="0 0 41 32" fill="none" xmlns="http://www.w3.org/2000/svg">
<path d="M37.6209 0.977089C37.0147 0.995151 36.4393 1.2485 36.0167 1.68347L11.9998 25.7004L4.3162 18.0168C4.10119 17.7929 3.84366 17.6141 3.5587 17.4909C3.27373 17.3677 2.96705 17.3027 2.65662 17.2995C2.3462 17.2964 2.03826 17.3552 1.75084 17.4725C1.46343 17.5899 1.20232 17.7634 0.982803 17.9829C0.763286 18.2024 0.589775 18.4635 0.472434 18.7509C0.355093 19.0383 0.296279 19.3463 0.299437 19.6567C0.302596 19.9671 0.367662 20.2738 0.490827 20.5588C0.613992 20.8437 0.792779 21.1013 1.01672 21.3163L10.3501 30.6496C10.7877 31.087 11.3811 31.3328 11.9998 31.3328C12.6185 31.3328 13.2119 31.087 13.6495 30.6496L39.3162 4.98295C39.6534 4.6552 39.8837 4.23324 39.9769 3.77236C40.0701 3.31148 40.022 2.83319 39.8387 2.40015C39.6554 1.96712 39.3456 1.59955 38.9499 1.34562C38.5541 1.09168 38.0909 0.963228 37.6209 0.977089Z" fill="white"/>
</svg>
