<svg width="352" height="357" viewBox="0 0 352 357" fill="none" xmlns="http://www.w3.org/2000/svg">
<path d="M181.456 354.593C181.456 353.389 182.404 352.186 183.828 352.186C185.251 352.186 186.199 353.149 186.199 354.593C186.199 355.796 185.251 357 184.065 357C184.065 357 184.065 357 183.828 357C182.642 356.759 181.693 355.796 181.456 354.593ZM167.224 356.759C166.038 356.759 164.852 355.556 164.852 354.352C164.852 352.908 166.038 351.945 167.224 351.945C168.647 351.945 169.596 353.149 169.596 354.352C169.833 355.796 168.647 356.759 167.224 356.759C167.461 356.759 167.461 356.759 167.224 356.759ZM198.059 353.149C197.822 351.945 198.771 350.742 200.194 350.501C201.38 350.26 202.566 351.223 202.803 352.427C203.04 353.63 202.092 354.834 200.668 355.074H200.431C199.245 355.315 198.297 354.352 198.059 353.149ZM150.62 355.074C149.197 354.834 148.485 353.63 148.485 352.427C148.722 351.223 149.908 350.26 151.094 350.501C152.518 350.742 153.229 351.945 153.229 353.149C152.992 354.352 152.043 355.315 150.857 355.315C150.857 355.074 150.857 355.074 150.62 355.074ZM214.189 350.26C213.952 349.057 214.663 347.612 215.849 347.372C217.035 347.131 218.458 347.853 218.695 349.057C218.933 350.26 218.221 351.704 217.035 351.945C216.798 351.945 216.561 351.945 216.561 351.945C215.612 352.186 214.663 351.464 214.189 350.26ZM134.253 351.945C133.067 351.704 132.119 350.26 132.593 349.057C132.83 347.853 134.253 346.89 135.439 347.372C136.625 347.612 137.574 349.057 137.1 350.26C136.863 351.464 135.914 352.186 134.728 352.186C134.491 351.945 134.491 351.945 134.253 351.945ZM230.318 345.927C229.844 344.724 230.555 343.28 231.741 342.798C232.927 342.317 234.35 343.039 234.825 344.243C235.299 345.446 234.588 346.89 233.402 347.372C233.164 347.372 232.927 347.612 232.69 347.612C231.504 347.372 230.555 346.89 230.318 345.927ZM118.124 347.131C116.938 346.65 116.226 345.205 116.701 344.002C117.175 342.798 118.598 342.076 119.784 342.558C120.97 343.039 121.682 344.483 121.208 345.687C120.97 346.65 120.022 347.372 118.836 347.372C118.598 347.372 118.361 347.131 118.124 347.131ZM245.736 339.91C245.261 338.706 245.736 337.262 246.922 336.781C248.108 336.299 249.531 336.781 250.005 337.984C250.48 339.188 250.005 340.632 248.819 341.113C248.582 341.354 248.108 341.354 247.871 341.354C246.922 341.354 245.973 340.632 245.736 339.91ZM102.706 340.873C101.52 340.391 101.046 338.947 101.52 337.743C101.995 336.54 103.418 336.058 104.604 336.54C105.79 337.021 106.264 338.466 105.79 339.669C105.315 340.632 104.604 341.113 103.655 341.113C103.181 340.873 102.943 340.873 102.706 340.873ZM260.442 332.448C259.73 331.244 260.205 329.8 261.391 329.078C262.577 328.356 264 328.837 264.712 330.041C265.423 331.244 264.949 332.689 263.763 333.411C263.288 333.651 263.051 333.651 262.577 333.651C261.628 333.651 260.916 333.17 260.442 332.448ZM87.7628 332.929C86.5768 332.207 86.3396 330.763 86.814 329.559C87.5256 328.356 88.9488 328.115 90.1348 328.597C91.3208 329.319 91.558 330.763 91.0836 331.966C90.6092 332.689 89.8976 333.17 88.9488 333.17C88.4744 333.17 88.2372 333.17 87.7628 332.929ZM274.437 323.542C273.725 322.338 273.962 320.894 274.911 320.172C276.097 319.45 277.52 319.69 278.232 320.653C278.943 321.857 278.706 323.301 277.757 324.023C277.283 324.264 276.809 324.505 276.334 324.505C275.623 324.505 274.911 324.264 274.437 323.542ZM73.7682 323.782C72.5822 323.06 72.5822 321.616 73.2938 320.412C74.0054 319.209 75.6658 319.209 76.6146 319.931C77.8005 320.653 77.8005 322.097 77.089 323.301C76.6146 324.023 75.903 324.264 75.1914 324.264C74.4798 324.264 74.0054 324.023 73.7682 323.782ZM287.482 313.432C286.534 312.469 286.771 311.025 287.72 310.062C288.668 309.099 290.092 309.34 291.04 310.303C291.989 311.266 291.752 312.951 290.803 313.673C290.329 314.154 289.854 314.154 289.143 314.154C288.668 314.154 288.194 313.913 287.482 313.432ZM60.4852 313.191C59.5364 312.228 59.2992 310.784 60.248 309.821C61.1968 308.859 62.6199 308.618 63.5687 309.581C64.5175 310.543 64.7547 311.988 63.8059 312.951C63.3315 313.432 62.62 313.673 61.9084 313.673C61.6712 313.913 60.9596 313.673 60.4852 313.191ZM299.817 301.878C298.868 300.915 298.868 299.471 299.817 298.508C300.766 297.545 302.189 297.545 303.137 298.508C304.086 299.471 304.086 300.915 303.137 301.878C302.663 302.359 301.951 302.6 301.477 302.6C300.766 302.6 300.291 302.359 299.817 301.878ZM48.3881 301.397C47.4394 300.434 47.4394 298.99 48.3881 298.027C49.3369 297.064 50.7601 297.064 51.7089 298.027C52.6577 298.99 52.6577 300.434 51.7089 301.397C51.2345 301.878 50.7601 302.119 50.0485 302.119C49.5741 302.119 48.8625 301.878 48.3881 301.397ZM310.728 289.361C309.779 288.639 309.542 286.954 310.253 285.991C310.965 285.028 312.625 284.788 313.574 285.51C314.523 286.232 314.76 287.917 314.049 288.88C313.574 289.361 312.863 289.843 312.151 289.843C311.677 290.083 311.202 289.843 310.728 289.361ZM37.4771 288.639C36.5283 287.676 36.7655 285.991 37.9515 285.269C38.9003 284.547 40.5606 284.547 41.2722 285.751C41.9838 286.713 41.9838 288.398 40.7978 289.121C40.3235 289.361 39.8491 289.602 39.3747 289.602C38.6631 289.602 37.9515 289.121 37.4771 288.639ZM320.453 275.882C319.267 275.159 319.03 273.715 319.741 272.512C320.453 271.308 321.876 271.067 323.062 271.79C324.248 272.512 324.485 273.956 323.774 275.159C323.299 275.882 322.588 276.363 321.876 276.363C321.402 276.363 320.927 276.363 320.453 275.882ZM27.752 274.678C27.0404 273.475 27.2776 272.03 28.4636 271.308C29.6496 270.586 31.0728 270.827 31.7844 272.03C32.496 273.234 32.2588 274.678 31.0728 275.4C30.5984 275.641 30.124 275.882 29.8868 275.882C28.938 275.882 28.2264 275.4 27.752 274.678ZM328.992 261.68C327.806 261.198 327.332 259.514 328.043 258.551C328.755 257.347 330.178 256.866 331.364 257.588C332.55 258.069 333.024 259.754 332.313 260.958C331.838 261.68 331.127 262.161 330.178 262.161C329.704 261.921 329.466 261.68 328.992 261.68ZM19.4501 259.995C18.7385 258.791 19.2129 257.347 20.3989 256.866C21.5849 256.144 23.0081 256.625 23.4825 257.829C24.1941 259.032 23.7197 260.476 22.5337 261.198C22.2965 261.439 21.8221 261.439 21.3477 261.439C20.6361 261.439 19.9245 260.958 19.4501 259.995ZM336.108 246.515C334.922 246.034 334.21 244.59 334.685 243.386C335.159 242.183 336.582 241.46 337.768 241.942C338.954 242.423 339.666 243.868 339.191 245.071C338.717 246.034 338.005 246.515 337.057 246.515C336.819 246.756 336.345 246.515 336.108 246.515ZM12.5714 244.59C12.097 243.386 12.5714 241.942 13.9946 241.46C15.1806 240.979 16.6038 241.46 17.0782 242.905C17.5526 244.108 17.0782 245.552 15.655 246.034C15.4178 246.034 15.1806 246.275 14.7062 246.275C13.7574 246.034 12.8086 245.552 12.5714 244.59ZM341.801 230.629C340.615 230.147 339.903 228.944 340.14 227.74C340.615 226.537 341.801 225.814 342.987 226.055C344.173 226.537 344.884 227.74 344.647 228.944C344.41 229.906 343.461 230.629 342.275 230.629C342.275 230.869 342.038 230.869 341.801 230.629ZM7.1159 228.462C6.64151 227.259 7.5903 225.814 8.77628 225.574C9.96226 225.092 11.3854 226.055 11.6226 227.259C12.097 228.462 11.3854 229.906 9.96226 230.147C9.72507 230.147 9.48787 230.147 9.25067 230.147C8.30189 230.147 7.3531 229.666 7.1159 228.462ZM345.833 214.501C344.647 214.261 343.698 213.057 343.935 211.613C344.173 210.409 345.359 209.446 346.782 209.687C347.968 209.928 348.916 211.131 348.679 212.576C348.442 213.779 347.493 214.501 346.307 214.501C346.307 214.501 346.07 214.501 345.833 214.501ZM3.08356 212.094C2.84636 210.891 3.55795 209.446 4.98113 209.206C6.16712 208.965 7.5903 209.687 7.82749 211.131C8.06469 212.335 7.1159 213.779 5.92992 214.02C5.69272 214.02 5.69272 214.02 5.45553 214.02C4.26954 214.02 3.32075 213.057 3.08356 212.094ZM348.442 197.892C347.019 197.652 346.07 196.689 346.307 195.245C346.544 194.041 347.493 192.838 348.916 193.078C350.34 193.319 351.288 194.282 351.051 195.726C351.051 196.93 349.865 197.892 348.442 197.892C348.679 197.892 348.679 197.892 348.442 197.892ZM0.71159 195.245C0.71159 193.8 1.42318 192.838 2.84636 192.597C4.26954 192.597 5.21833 193.56 5.45553 194.763C5.45553 195.967 4.50674 197.17 3.32075 197.411H3.08356C1.89757 197.411 0.948787 196.448 0.71159 195.245ZM347.256 178.877C347.256 178.636 347.256 178.636 347.256 178.877C347.256 178.636 347.256 178.636 347.256 178.395C347.256 176.951 348.442 175.988 349.628 175.988C350.814 175.988 352 176.951 352 178.395V178.636V178.877C352 180.08 350.814 181.284 349.628 181.284C348.205 181.284 347.256 180.08 347.256 178.877ZM0 178.154C0 176.71 1.18598 175.747 2.37197 175.747C3.79515 175.747 4.74394 176.71 4.74394 178.154C4.74394 179.358 3.79515 180.561 2.37197 180.561C1.18598 180.561 0 179.599 0 178.154ZM346.545 161.786C346.307 160.583 347.256 159.379 348.679 159.139C349.865 159.139 351.051 160.101 351.288 161.305C351.526 162.749 350.577 163.712 349.154 163.953H348.916C347.493 164.193 346.545 163.231 346.545 161.786ZM2.84636 163.953C1.66038 163.712 0.474394 162.749 0.71159 161.305C0.71159 160.101 1.89757 159.139 3.32075 159.139C4.50674 159.379 5.45553 160.342 5.45553 161.786C5.45553 162.99 4.26954 163.953 3.08356 163.953C3.08356 163.953 3.08356 163.953 2.84636 163.953ZM344.173 145.418C343.935 144.215 344.647 142.77 346.07 142.53C347.256 142.289 348.679 143.011 348.916 144.455C349.154 145.659 348.205 147.103 347.019 147.344C346.782 147.344 346.782 147.344 346.545 147.344C345.359 147.585 344.41 146.622 344.173 145.418ZM4.98113 147.344C3.79515 147.103 2.84636 145.9 3.08356 144.455C3.32075 143.252 4.50674 142.289 5.92992 142.53C7.1159 142.77 8.06469 143.974 7.82749 145.418C7.5903 146.622 6.64151 147.344 5.45553 147.344C5.45553 147.344 5.21833 147.344 4.98113 147.344ZM340.377 129.532C339.903 128.328 340.615 126.884 342.038 126.643C343.224 126.162 344.647 126.884 344.884 128.328C345.121 129.532 344.41 130.976 343.224 131.216C342.987 131.216 342.749 131.216 342.512 131.216C341.563 131.216 340.615 130.494 340.377 129.532ZM8.77628 130.976C7.5903 130.494 6.87871 129.291 7.1159 128.087C7.3531 126.884 8.77628 126.162 9.96226 126.402C11.1482 126.884 11.8598 128.087 11.6226 129.291C11.3854 130.254 10.4367 130.976 9.25067 130.976C9.25067 130.976 9.01348 130.976 8.77628 130.976ZM334.922 113.886C334.447 112.682 334.922 111.238 336.108 110.756C337.294 110.275 338.717 110.756 339.191 112.201C339.666 113.404 339.191 114.848 338.005 115.33C337.768 115.33 337.531 115.571 337.057 115.571C336.345 115.33 335.396 114.848 334.922 113.886ZM13.9946 115.089C12.8086 114.608 12.097 113.163 12.5714 111.96C13.0458 110.756 14.469 110.034 15.655 110.516C16.841 110.997 17.5526 112.441 17.0782 113.645C16.6038 114.608 15.8922 115.089 14.9434 115.089C14.469 115.089 14.2318 115.089 13.9946 115.089ZM328.28 98.721C327.806 97.5175 328.043 96.0732 329.229 95.5918C330.415 95.1104 331.838 95.3511 332.313 96.5546C332.787 97.7582 332.55 99.2024 331.364 99.9245C330.889 100.165 330.652 100.165 330.178 100.165C329.466 100.165 328.755 99.6838 328.28 98.721ZM20.6361 99.6838C19.4501 98.9617 18.9757 97.5175 19.6873 96.3139C20.3989 95.1104 21.8221 94.629 22.7709 95.3511C23.9569 96.0732 24.4313 97.5175 23.7197 98.721C23.2453 99.4431 22.5337 99.9245 21.5849 99.9245C21.3477 99.9245 20.8733 99.9245 20.6361 99.6838ZM319.978 84.5193C319.267 83.3157 319.504 81.8715 320.69 81.1494C321.876 80.4272 323.299 80.6679 324.011 81.8715C324.722 83.075 324.485 84.5193 323.299 85.2414C322.825 85.4821 322.35 85.4821 322.113 85.4821C321.164 85.4821 320.453 85.2414 319.978 84.5193ZM28.7008 85.0007C27.5148 84.2786 27.2776 82.8343 27.9892 81.6308C28.7008 80.4272 30.124 80.1865 31.31 80.9086C32.496 81.6308 32.7332 83.075 32.0216 84.2786C31.5472 85.0007 30.8356 85.4821 30.124 85.4821C29.6496 85.4821 29.1752 85.2414 28.7008 85.0007ZM310.491 71.0396C309.779 70.0768 309.779 68.3919 310.965 67.6697C311.914 66.9476 313.574 66.9476 314.286 68.1512C314.997 69.114 314.997 70.7989 313.811 71.5211C313.337 71.7618 312.863 72.0025 312.388 72.0025C311.677 72.0025 310.965 71.5211 310.491 71.0396ZM38.1887 71.2804C37.2399 70.3175 37.0027 68.8733 37.7143 67.9105C38.4259 66.9476 40.0863 66.7069 41.035 67.429C41.9838 68.1512 42.221 69.8361 41.5094 70.7989C41.035 71.2804 40.3235 71.7618 39.6119 71.7618C39.1375 71.7618 38.6631 71.5211 38.1887 71.2804ZM299.817 58.5229C298.868 57.56 298.868 56.1158 299.817 55.153C300.766 54.1901 302.189 54.1901 303.137 55.153C304.086 56.1158 304.086 57.56 303.137 58.5229C302.663 59.0043 302.189 59.245 301.477 59.245C301.003 59.245 300.291 59.0043 299.817 58.5229ZM48.8625 58.5229C47.9138 57.56 47.9138 56.1158 48.8625 55.153C49.8113 54.1901 51.2345 54.1901 52.1833 55.153C53.1321 56.1158 53.1321 57.56 52.1833 58.5229C51.7089 59.0043 50.9973 59.245 50.5229 59.245C49.8113 59.245 49.3369 59.0043 48.8625 58.5229ZM288.194 47.2096C287.245 46.2468 287.008 44.8025 287.957 43.8397C288.906 42.8769 290.329 42.6362 291.278 43.599C292.226 44.5618 292.464 46.0061 291.515 46.9689C291.04 47.4503 290.329 47.691 289.617 47.691C289.143 47.691 288.668 47.4503 288.194 47.2096ZM60.7224 46.7282C59.7736 45.7654 60.0108 44.3211 60.9596 43.3583C61.9084 42.3955 63.3315 42.6362 64.2803 43.599C65.2291 44.5618 64.9919 46.0061 64.0431 46.9689C63.5687 47.4503 63.0943 47.4503 62.3828 47.4503C61.6712 47.691 61.1968 47.2096 60.7224 46.7282ZM275.385 36.8592C274.199 36.1371 273.962 34.4521 274.911 33.4893C275.623 32.2858 277.046 32.0451 278.232 33.0079C279.418 33.73 279.418 35.1743 278.706 36.3778C278.232 37.0999 277.52 37.3406 276.809 37.3406C276.334 37.3406 275.623 37.0999 275.385 36.8592ZM73.531 36.1371C72.8194 35.1743 73.0566 33.4893 74.0054 32.7672C75.1914 32.0451 76.6146 32.2858 77.3261 33.2486C78.0377 34.2114 77.8005 35.8964 76.8518 36.6185C76.3774 36.8592 75.903 37.0999 75.4286 37.0999C74.717 37.3406 74.0054 36.8592 73.531 36.1371ZM261.628 27.953C260.442 27.2309 260.205 25.7867 260.679 24.5831C261.391 23.3796 262.814 23.1389 264 23.6203C265.186 24.3424 265.423 25.7867 264.949 26.9902C264.474 27.7123 263.763 28.1937 262.814 28.1937C262.34 28.1937 262.102 28.1937 261.628 27.953ZM87.2884 26.9902C86.5768 25.7867 87.0512 24.3424 88.2372 23.6203C89.4232 22.8982 90.8464 23.3796 91.558 24.5831C92.2695 25.7867 91.7952 27.2309 90.6092 27.953C90.1348 28.1937 89.8976 28.1937 89.4232 28.1937C88.4744 28.1937 87.7628 27.7123 87.2884 26.9902ZM247.159 20.2504C245.973 19.769 245.499 18.3247 245.973 17.1212C246.447 15.9177 247.871 15.4363 249.057 15.9177C250.243 16.3991 250.717 17.8433 250.243 19.0469C249.768 20.0097 249.057 20.4911 248.108 20.4911C247.871 20.4911 247.396 20.4911 247.159 20.2504ZM101.757 19.0469C101.283 17.8433 101.757 16.3991 102.943 15.9177C104.129 15.4363 105.553 15.9177 106.027 17.1212C106.501 18.3247 106.027 19.769 104.841 20.2504C104.604 20.4911 104.129 20.4911 103.892 20.4911C103.181 20.4911 102.232 20.0097 101.757 19.0469ZM231.978 14.2327C230.792 13.7513 230.081 12.3071 230.555 11.1035C231.03 9.89998 232.453 9.17786 233.639 9.65927C234.825 10.1407 235.536 11.5849 235.062 12.7885C234.825 13.7513 233.876 14.4734 232.927 14.4734C232.69 14.2327 232.216 14.2327 231.978 14.2327ZM117.175 12.5478C116.701 11.3442 117.412 9.89998 118.598 9.65927C119.784 9.17786 121.208 9.89998 121.682 11.1035C122.156 12.3071 121.445 13.7513 120.259 14.2327C120.022 14.2327 119.784 14.2327 119.547 14.2327C118.361 14.2327 117.412 13.5106 117.175 12.5478ZM216.323 9.41857C215.137 9.17786 214.189 7.73362 214.663 6.53008C214.9 5.32654 216.323 4.36371 217.509 4.84513C218.695 5.08584 219.644 6.53008 219.17 7.73362C218.933 8.93715 217.984 9.65927 216.798 9.65927C216.798 9.65927 216.561 9.65928 216.323 9.41857ZM132.83 7.73362C132.593 6.53008 133.305 5.08584 134.491 4.84513C135.677 4.60442 137.1 5.32654 137.337 6.53008C137.574 7.73362 136.863 9.17786 135.677 9.41857C135.439 9.41857 135.202 9.41857 135.202 9.41857C134.016 9.65928 133.067 8.69645 132.83 7.73362ZM200.431 6.53008C199.245 6.28937 198.297 5.08584 198.534 3.8823C198.771 2.43805 199.957 1.71593 201.143 1.71593C202.329 1.95664 203.278 3.16018 203.04 4.36371C202.803 5.56725 201.854 6.53008 200.668 6.53008C200.668 6.53008 200.668 6.53008 200.431 6.53008ZM148.96 4.36371C148.722 2.91947 149.671 1.71593 150.857 1.71593C152.28 1.47523 153.466 2.43805 153.466 3.64159C153.704 4.84513 152.755 6.28937 151.569 6.28937H151.332C150.146 6.28937 149.197 5.56725 148.96 4.36371ZM184.302 4.84513C183.116 4.84513 181.93 3.64159 181.93 2.19735C181.93 0.993811 183.116 -0.209726 184.539 0.0309813C185.725 0.0309813 186.911 1.23452 186.674 2.43805C186.674 3.8823 185.488 4.84513 184.302 4.84513ZM165.563 2.43805C165.563 0.993811 166.512 0.0309813 167.935 0.0309813C169.121 0.0309813 170.307 0.993811 170.307 2.19735C170.307 3.64159 169.359 4.60442 167.935 4.60442C166.512 4.84513 165.563 3.8823 165.563 2.43805Z" fill="#5E60FD"/>
<path d="M171.256 329.077C170.07 329.077 168.884 327.873 168.884 326.67C168.884 325.466 170.07 324.263 171.256 324.263C172.442 324.263 173.628 325.466 173.628 326.67C173.865 328.114 172.679 329.077 171.256 329.077C171.256 329.077 171.493 329.077 171.256 329.077ZM185.725 326.429C185.725 325.225 186.674 324.022 187.86 323.781C189.046 323.781 190.232 324.744 190.469 325.948C190.469 327.392 189.52 328.355 188.334 328.595H188.097C186.911 328.595 185.962 327.633 185.725 326.429ZM154.415 327.633C153.229 327.392 152.28 326.188 152.518 324.985C152.755 323.781 153.941 322.818 155.127 322.818C156.313 323.059 157.262 324.263 157.024 325.466C156.787 326.67 155.838 327.633 154.652 327.633C154.652 327.633 154.652 327.633 154.415 327.633ZM202.329 324.263C202.092 323.059 202.803 321.615 204.227 321.374C205.413 321.133 206.836 321.856 207.073 323.3C207.31 324.503 206.599 325.948 205.175 326.188C204.938 326.188 204.938 326.188 204.701 326.188C203.515 326.188 202.566 325.466 202.329 324.263ZM137.811 324.263C136.625 323.781 135.914 322.578 136.151 321.374C136.388 320.171 137.811 319.208 138.997 319.689C140.183 319.93 140.895 321.374 140.658 322.578C140.421 323.781 139.472 324.263 138.286 324.263C138.286 324.263 138.049 324.263 137.811 324.263ZM218.458 320.411C217.984 319.208 218.696 317.764 220.119 317.282C221.305 316.801 222.728 317.523 223.202 318.726C223.677 319.93 222.965 321.374 221.779 321.856C221.542 321.856 221.305 322.096 221.068 322.096C219.882 322.096 218.933 321.374 218.458 320.411ZM121.682 318.726C120.496 318.245 119.785 316.801 120.259 315.597C120.733 314.394 122.156 313.671 123.342 314.153C124.528 314.634 125.24 316.079 124.766 317.282C124.528 318.245 123.58 318.726 122.631 318.726C122.394 318.967 122.156 318.967 121.682 318.726ZM234.113 314.634C233.639 313.431 234.113 311.987 235.299 311.505C236.485 311.024 237.909 311.505 238.383 312.709C238.857 313.912 238.383 315.356 237.197 315.838C236.96 316.079 236.485 316.079 236.248 316.079C235.537 315.838 234.588 315.356 234.113 314.634ZM106.264 311.505C105.078 310.783 104.604 309.339 105.316 308.376C106.027 307.172 107.45 306.691 108.636 307.413C109.822 308.135 110.297 309.579 109.585 310.542C109.111 311.264 108.399 311.746 107.45 311.746C107.213 311.987 106.739 311.746 106.264 311.505ZM249.057 306.932C248.345 305.728 248.82 304.284 249.768 303.562C250.954 302.84 252.378 303.321 253.089 304.284C253.801 305.487 253.326 306.932 252.378 307.654C251.903 307.895 251.666 307.895 251.192 307.895C250.243 308.135 249.531 307.654 249.057 306.932ZM91.7953 302.599C90.6093 301.877 90.3721 300.433 91.0837 299.229C91.7953 298.026 93.2185 297.785 94.4044 298.507C95.5904 299.229 95.8276 300.673 95.116 301.877C94.6416 302.599 93.9301 302.84 93.2185 302.84C92.7441 303.08 92.2697 303.08 91.7953 302.599ZM263.051 297.544C262.34 296.581 262.34 294.896 263.526 294.174C264.475 293.452 266.135 293.693 266.847 294.656C267.558 295.618 267.558 297.303 266.372 298.026C265.898 298.266 265.423 298.507 264.949 298.507C264.237 298.507 263.526 298.266 263.051 297.544ZM78.5123 292.249C77.5635 291.286 77.3263 289.841 78.2751 288.879C79.2239 287.916 80.647 287.675 81.5958 288.638C82.5446 289.601 82.7818 291.045 81.833 292.008C81.3586 292.489 80.647 292.73 79.9354 292.73C79.4611 292.73 78.9867 292.489 78.5123 292.249ZM275.86 286.712C274.911 285.749 274.911 284.305 275.86 283.342C276.809 282.38 278.232 282.38 279.181 283.342C280.13 284.305 280.13 285.749 279.181 286.712C278.706 287.194 278.232 287.434 277.52 287.434C277.046 287.434 276.334 287.194 275.86 286.712ZM66.4152 280.213C65.4664 279.25 65.4664 277.806 66.6524 276.843C67.6012 275.88 69.0244 275.88 69.9732 277.084C70.922 278.047 70.6848 279.491 69.736 280.454C69.2616 280.935 68.7872 281.176 68.0756 281.176C67.364 280.935 66.8896 280.695 66.4152 280.213ZM287.483 274.436C286.534 273.714 286.297 272.029 287.245 271.066C287.957 270.103 289.617 269.863 290.566 270.826C291.515 271.788 291.752 273.233 290.803 274.195C290.329 274.677 289.617 275.158 288.906 275.158C288.431 274.918 287.72 274.918 287.483 274.436ZM55.7414 266.734C55.0298 265.53 55.267 264.086 56.2158 263.364C57.4017 262.642 58.8249 262.882 59.5365 263.845C60.2481 265.049 60.0109 266.493 59.0621 267.215C58.5877 267.456 58.1133 267.696 57.6389 267.696C56.9274 267.696 55.9786 267.456 55.7414 266.734ZM297.445 260.957C296.259 260.234 296.022 258.79 296.733 257.587C297.445 256.383 298.868 256.142 300.054 256.865C301.24 257.587 301.477 259.031 300.766 260.234C300.291 260.957 299.58 261.438 298.868 261.438C298.394 261.438 297.919 261.197 297.445 260.957ZM46.4907 252.291C45.7791 251.088 46.2535 249.643 47.4395 248.921C48.6255 248.199 50.0486 248.681 50.7602 249.884C51.4718 251.088 50.9974 252.532 49.8114 253.254C49.3371 253.495 49.0999 253.495 48.6255 253.495C47.6767 253.495 46.9651 253.013 46.4907 252.291ZM305.984 246.514C304.798 246.033 304.324 244.348 304.798 243.385C305.272 242.181 306.696 241.7 307.882 242.422C309.068 242.904 309.542 244.348 309.068 245.551C308.593 246.273 307.882 246.755 306.933 246.755C306.696 246.755 306.221 246.514 305.984 246.514ZM38.9004 236.886C38.426 235.682 38.9004 234.238 40.0864 233.757C41.2724 233.275 42.6955 233.757 43.1699 234.96C43.6443 236.164 43.1699 237.608 41.984 238.089C41.7468 238.33 41.5096 238.33 41.2724 238.33C40.3236 238.33 39.3748 237.849 38.9004 236.886ZM312.626 230.868C311.44 230.387 310.728 228.943 311.202 227.739C311.677 226.535 313.1 225.813 314.286 226.295C315.472 226.776 316.183 228.22 315.709 229.424C315.472 230.387 314.523 231.109 313.574 231.109C313.337 231.109 313.1 231.109 312.626 230.868ZM33.4449 220.518C32.9705 219.314 33.6821 217.87 35.1052 217.629C36.2912 217.148 37.7144 217.87 37.9516 219.314C38.1888 220.518 37.4772 221.962 36.2912 222.203C36.054 222.203 35.8168 222.203 35.5796 222.203C34.6309 222.443 33.6821 221.721 33.4449 220.518ZM317.844 214.741C316.658 214.5 315.709 213.056 316.183 211.852C316.421 210.649 317.844 209.686 319.03 210.167C320.216 210.408 321.165 211.852 320.69 213.056C320.453 214.259 319.504 214.981 318.318 214.981C318.081 214.981 317.844 214.741 317.844 214.741ZM29.6497 203.909C29.4125 202.705 30.3613 201.261 31.5473 201.02C32.7333 200.78 34.1565 201.743 34.1565 202.946C34.3937 204.15 33.4449 205.594 32.2589 205.835C32.2589 205.835 32.0217 205.835 31.7845 205.835C30.8357 205.835 29.6497 205.112 29.6497 203.909ZM320.927 198.132C319.741 197.891 318.793 196.688 318.793 195.484C319.03 194.281 320.216 193.318 321.402 193.318C322.588 193.559 323.537 194.762 323.537 195.966C323.299 197.169 322.351 198.132 321.165 198.132H320.927ZM27.7521 186.819C27.7521 185.615 28.7009 184.412 30.1241 184.412C31.3101 184.412 32.4961 185.374 32.4961 186.578C32.4961 188.022 31.5473 188.985 30.3613 189.226C30.3613 189.226 30.3613 189.226 30.1241 189.226C28.7009 188.985 27.7521 188.022 27.7521 186.819ZM322.113 181.282C320.927 181.282 319.741 180.32 319.741 178.875V178.635V178.394C319.741 176.95 320.927 175.987 322.113 175.987C323.299 175.987 324.485 176.95 324.485 178.394V178.635V178.875C324.485 180.32 323.537 181.282 322.113 181.282ZM29.8869 172.136C28.4637 172.136 27.5149 170.932 27.7521 169.729C27.7521 168.284 28.9381 167.321 30.3613 167.562C31.5473 167.562 32.7333 168.766 32.4961 170.21C32.2589 171.173 31.3101 172.136 29.8869 172.136C29.8869 172.136 30.1241 172.136 29.8869 172.136ZM318.793 161.785C318.555 160.582 319.504 159.378 320.927 159.137C322.113 158.897 323.299 159.86 323.537 161.304C323.774 162.748 322.825 163.711 321.402 163.952H321.165C319.979 163.952 319.03 162.989 318.793 161.785ZM31.5473 155.286C30.1241 155.045 29.4125 153.842 29.6497 152.638C29.8869 151.194 31.0729 150.472 32.4961 150.713C33.6821 150.953 34.6309 152.157 34.3937 153.601C34.1565 154.805 33.2077 155.527 32.0217 155.527C31.7845 155.286 31.7845 155.286 31.5473 155.286ZM315.946 145.417C315.709 144.214 316.421 142.769 317.844 142.529C319.03 142.288 320.453 143.01 320.69 144.454C320.927 145.658 320.216 147.102 318.793 147.343C318.555 147.343 318.555 147.343 318.318 147.343C317.369 147.343 316.421 146.38 315.946 145.417ZM35.1052 138.677C33.9193 138.196 33.2077 136.992 33.4449 135.789C33.9193 134.585 35.1052 133.863 36.2912 134.104C37.4772 134.585 38.1888 135.789 37.9516 136.992C37.7144 137.955 36.7656 138.677 35.5796 138.677C35.5796 138.918 35.3424 138.677 35.1052 138.677ZM311.44 129.29C310.965 128.086 311.677 126.642 312.863 126.16C314.049 125.679 315.472 126.401 315.946 127.605C316.421 128.808 315.709 130.253 314.523 130.734C314.286 130.734 314.049 130.975 313.811 130.975C312.626 130.975 311.914 130.253 311.44 129.29ZM40.5608 122.791C39.3748 122.309 38.6632 120.865 39.3748 119.661C39.8492 118.458 41.2724 117.736 42.4583 118.458C43.6443 118.939 44.1187 120.384 43.6443 121.587C43.1699 122.55 42.4583 123.031 41.5096 123.031C41.0352 122.791 40.798 122.791 40.5608 122.791ZM305.035 114.125C304.561 112.922 305.035 111.477 306.221 110.996C307.407 110.514 308.83 110.996 309.305 111.959C309.779 113.162 309.305 114.607 308.119 115.088C307.882 115.329 307.407 115.329 307.17 115.329C306.221 115.329 305.51 114.847 305.035 114.125ZM47.6767 107.385C46.4907 106.663 46.0163 105.219 46.7279 104.015C47.4395 102.812 48.8627 102.571 50.0486 103.053C51.2346 103.775 51.4718 105.219 50.9974 106.422C50.523 107.145 49.8114 107.626 48.8627 107.626C48.3883 107.626 47.9139 107.626 47.6767 107.385ZM296.971 99.442C296.259 98.2384 296.496 96.7942 297.682 96.0721C298.868 95.3499 300.291 95.5906 301.003 96.7942C301.714 97.9977 301.477 99.442 300.291 100.164C299.817 100.405 299.58 100.645 299.105 100.645C298.156 100.645 297.445 100.164 296.971 99.442ZM56.453 92.9429C55.267 92.2207 55.267 90.5358 55.9786 89.573C56.6902 88.3694 58.3505 88.3694 59.2993 89.0915C60.2481 89.8137 60.4853 91.4986 59.7737 92.4615C59.2993 93.1836 58.5877 93.4243 57.8761 93.4243C57.4017 93.4243 56.9274 93.4243 56.453 92.9429ZM287.245 85.9624C286.534 84.9995 286.534 83.3146 287.483 82.5925C288.431 81.6296 290.092 81.8703 290.803 82.8332C291.515 83.796 291.515 85.4809 290.566 86.2031C290.092 86.4438 289.617 86.6845 289.143 86.6845C288.431 86.9252 287.72 86.6845 287.245 85.9624ZM66.8896 79.704C65.9408 78.7411 65.9408 77.2969 66.6524 76.3341C67.6012 75.3712 69.0244 75.3712 69.9732 76.3341C70.922 77.2969 70.922 78.7411 70.2104 79.704C69.736 80.1854 69.0244 80.4261 68.55 80.4261C67.8384 80.4261 67.1268 80.1854 66.8896 79.704ZM276.334 73.6863C275.386 72.7235 275.386 71.2792 276.334 70.3164C277.283 69.3536 278.706 69.3536 279.655 70.3164C280.604 71.2792 280.604 72.7235 279.655 73.6863C279.181 74.1677 278.469 74.4084 277.995 74.4084C277.283 74.4084 276.809 74.1677 276.334 73.6863ZM78.5123 67.6686C77.5635 66.7058 77.8007 65.0208 78.7495 64.2987C79.6982 63.3359 81.1214 63.5766 82.0702 64.5394C83.019 65.5022 82.7818 66.9465 81.833 67.9093C81.3586 68.3907 80.8842 68.3907 80.1726 68.3907C79.6982 68.6314 78.9867 68.3907 78.5123 67.6686ZM263.763 62.8545C262.814 62.1323 262.577 60.4474 263.289 59.4846C264 58.5217 265.661 58.281 266.609 59.0031C267.558 59.7253 267.795 61.4102 267.084 62.373C266.609 63.0952 265.898 63.3359 265.186 63.3359C264.712 63.3359 264.237 63.0952 263.763 62.8545ZM91.5581 57.3182C90.8465 56.1146 91.0837 54.6704 92.2697 53.9483C93.4557 53.2262 94.8788 53.4669 95.5904 54.6704C96.302 55.8739 96.0648 57.3182 94.8788 58.0403C94.4044 58.281 93.9301 58.5217 93.4557 58.5217C92.7441 58.281 92.0325 57.7996 91.5581 57.3182ZM250.243 53.4669C249.057 52.7447 248.82 51.3005 249.531 50.097C250.243 48.8934 251.666 48.6527 252.852 49.3748C254.038 50.097 254.275 51.5412 253.564 52.7447C253.089 53.4669 252.378 53.9483 251.429 53.9483C251.192 53.7076 250.717 53.7076 250.243 53.4669ZM105.79 48.1713C105.078 46.9678 105.553 45.5235 106.739 44.8014C107.925 44.32 109.348 44.5607 109.822 45.7642C110.534 46.9678 110.059 48.412 108.873 49.1341C108.399 49.3748 108.162 49.3748 107.687 49.3748C106.976 49.6155 106.264 49.1341 105.79 48.1713ZM235.774 45.7642C234.588 45.2828 234.113 43.8386 234.588 42.635C235.062 41.4315 236.485 40.9501 237.671 41.4315C238.857 41.9129 239.332 43.3572 238.857 44.5607C238.383 45.5235 237.671 46.0049 236.723 46.0049C236.485 45.7642 236.011 45.7642 235.774 45.7642ZM120.97 40.9501C120.496 39.7465 120.97 38.3023 122.394 37.8209C123.58 37.3395 125.003 38.0616 125.477 39.2651C125.952 40.4687 125.24 41.9129 124.054 42.3943C123.817 42.635 123.58 42.635 123.105 42.635C122.156 42.3943 121.208 41.9129 120.97 40.9501ZM220.593 39.5058C219.407 39.0244 218.696 37.8209 219.17 36.3766C219.644 35.1731 220.83 34.451 222.254 34.9324C223.44 35.4138 224.151 36.6174 223.677 38.0616C223.44 39.0244 222.491 39.7465 221.305 39.7465C221.068 39.7465 220.83 39.7465 220.593 39.5058ZM136.625 35.4138C136.151 34.2103 137.1 32.766 138.286 32.5253C139.472 32.2846 140.895 33.0067 141.132 34.2103C141.369 35.4138 140.658 36.8581 139.472 37.0988C139.235 37.0988 138.997 37.0988 138.76 37.0988C137.811 37.3395 136.863 36.6174 136.625 35.4138ZM204.701 35.4138C203.515 35.1731 202.566 33.9696 202.803 32.5253C203.041 31.3218 204.227 30.359 205.65 30.5997C206.836 30.8404 207.785 32.0439 207.547 33.4882C207.31 34.6917 206.361 35.4138 205.175 35.4138C204.938 35.4138 204.701 35.4138 204.701 35.4138ZM152.992 31.8032C152.755 30.5997 153.704 29.1554 154.89 29.1554C156.076 28.9147 157.262 29.8775 157.499 31.0811C157.736 32.2846 156.787 33.7289 155.601 33.7289H155.364C154.178 33.9696 153.229 33.0067 152.992 31.8032ZM188.334 33.0067C187.148 33.0067 185.962 31.8032 186.2 30.359C186.2 28.9147 187.386 27.9519 188.809 28.1926C189.995 28.1926 191.181 29.3961 190.944 30.8404C190.944 32.0439 189.758 33.0067 188.334 33.0067C188.572 33.0067 188.572 33.0067 188.334 33.0067ZM169.596 30.1183C169.596 28.674 170.545 27.7112 171.968 27.7112C173.154 27.7112 174.34 28.674 174.34 30.1183C174.34 31.5625 173.391 32.5253 171.968 32.5253C170.545 32.5253 169.596 31.5625 169.596 30.1183Z" fill="#5E60FD"/>
<path d="M177.423 298.988C177.423 297.785 178.372 296.581 179.795 296.581C181.218 296.581 182.167 297.544 182.167 298.988C182.167 300.192 181.218 301.395 179.795 301.395C178.372 301.155 177.423 300.192 177.423 298.988ZM162.954 300.673C161.768 300.433 160.582 299.229 160.819 298.025C161.056 296.581 162.005 295.618 163.428 295.859C164.614 296.1 165.8 297.063 165.563 298.507C165.326 299.71 164.377 300.673 163.191 300.673H162.954ZM193.789 297.544C193.552 296.341 194.501 294.896 195.687 294.656C196.873 294.415 198.296 295.378 198.533 296.581C198.771 298.025 197.822 299.229 196.636 299.47C196.636 299.47 196.399 299.47 196.161 299.47C194.975 299.47 194.027 298.748 193.789 297.544ZM146.35 297.544C145.164 297.303 144.215 295.859 144.69 294.656C144.927 293.452 146.35 292.489 147.536 292.971C148.722 293.211 149.671 294.656 149.196 295.859C148.959 296.822 148.01 297.785 146.824 297.785C146.824 297.785 146.587 297.785 146.35 297.544ZM210.156 293.933C209.682 292.73 210.393 291.286 211.579 290.804C212.765 290.323 214.188 291.045 214.663 292.248C215.137 293.452 214.426 294.896 213.24 295.137C213.002 295.137 212.765 295.378 212.528 295.378C211.342 295.618 210.393 294.896 210.156 293.933ZM130.221 292.248C129.035 291.767 128.323 290.323 129.035 289.119C129.509 287.916 130.932 287.194 132.118 287.916C133.304 288.397 134.016 289.841 133.541 291.045C133.067 292.008 132.355 292.489 131.407 292.489C130.932 292.489 130.458 292.489 130.221 292.248ZM225.574 287.916C225.099 286.712 225.574 285.268 226.76 284.787C227.946 284.305 229.369 284.787 229.843 285.99C230.318 287.194 229.843 288.638 228.657 289.119C228.42 289.36 227.946 289.36 227.709 289.36C226.76 289.36 226.048 288.879 225.574 287.916ZM115.04 284.787C113.854 284.064 113.617 282.62 114.091 281.417C114.803 280.213 116.226 279.972 117.412 280.454C118.598 281.176 118.835 282.62 118.361 283.824C117.886 284.546 117.175 285.027 116.226 285.027C115.989 285.027 115.514 285.027 115.04 284.787ZM240.043 279.972C239.331 278.769 239.568 277.325 240.754 276.603C241.94 275.88 243.364 276.121 244.075 277.325C244.787 278.528 244.549 279.972 243.364 280.695C242.889 280.935 242.415 281.176 242.178 281.176C241.229 280.935 240.517 280.695 240.043 279.972ZM101.283 275.158C100.334 274.436 100.097 272.751 100.808 271.788C101.52 270.826 103.18 270.585 104.129 271.307C105.078 272.27 105.315 273.714 104.603 274.677C104.129 275.158 103.417 275.64 102.706 275.64C102.231 275.64 101.52 275.399 101.283 275.158ZM253.326 269.863C252.377 268.9 252.614 267.456 253.563 266.493C254.512 265.53 255.935 265.771 256.884 266.734C257.833 267.696 257.595 269.141 256.647 270.103C256.172 270.585 255.698 270.585 254.986 270.585C254.512 270.585 253.8 270.344 253.326 269.863ZM88.7112 263.604C87.7625 262.641 87.7625 261.197 88.7112 260.234C89.66 259.272 91.0832 259.272 92.032 260.234C92.9808 261.197 92.9808 262.641 92.032 263.604C91.5576 264.086 91.0832 264.326 90.3716 264.326C89.66 264.326 89.1856 264.086 88.7112 263.604ZM265.186 258.068C264.237 257.105 264 255.661 264.948 254.698C265.897 253.735 267.32 253.495 268.269 254.457C269.218 255.18 269.455 256.865 268.506 257.827C268.032 258.309 267.32 258.79 266.609 258.79C266.134 258.549 265.66 258.309 265.186 258.068ZM77.8002 250.365C77.0886 249.162 77.3258 247.718 78.2746 246.996C79.4606 246.273 80.8837 246.514 81.5953 247.477C82.3069 248.68 82.0697 250.125 81.1209 250.847C80.6465 251.088 80.1721 251.328 79.6978 251.328C78.9862 251.328 78.2746 251.088 77.8002 250.365ZM275.148 244.588C273.962 243.866 273.725 242.422 274.436 241.219C275.148 240.015 276.571 239.774 277.757 240.496C278.943 241.219 279.18 242.663 278.469 243.866C277.994 244.588 277.283 245.07 276.571 245.07C276.097 245.07 275.622 244.829 275.148 244.588ZM68.7867 235.923C68.0751 234.719 68.5495 233.275 69.7355 232.794C70.9215 232.072 72.3447 232.553 73.0562 233.757C73.7678 234.96 73.2934 236.404 72.1075 236.886C71.6331 237.127 71.3959 237.127 70.9215 237.127C70.2099 237.127 69.2611 236.645 68.7867 235.923ZM283.45 230.146C282.264 229.665 281.789 228.22 282.264 227.017C282.738 225.813 284.161 225.332 285.347 225.813C286.533 226.295 287.008 227.739 286.533 228.942C286.059 229.905 285.347 230.387 284.399 230.387C283.924 230.146 283.687 230.146 283.45 230.146ZM62.1452 220.277C61.6708 219.073 62.3824 217.629 63.5684 217.148C64.7544 216.666 66.1775 217.389 66.6519 218.592C67.1263 219.796 66.4147 221.24 65.2288 221.721C64.9916 221.721 64.7544 221.962 64.5172 221.962C63.3312 221.721 62.3824 221.24 62.1452 220.277ZM289.38 214.5C288.194 214.259 287.482 212.815 287.719 211.612C287.957 210.408 289.38 209.686 290.566 209.927C291.752 210.408 292.463 211.612 292.226 212.815C291.989 213.778 291.04 214.5 289.854 214.5C289.854 214.5 289.617 214.5 289.38 214.5ZM57.4013 203.668C57.1641 202.465 57.8757 201.02 59.2988 200.78C60.4848 200.539 61.908 201.261 62.1452 202.705C62.3824 203.909 61.6708 205.353 60.2476 205.594C60.0104 205.594 60.0104 205.594 59.7732 205.594C58.5872 205.594 57.6385 204.872 57.4013 203.668ZM293.175 198.132C291.989 197.891 291.04 196.688 291.04 195.484C291.277 194.281 292.463 193.318 293.649 193.558C294.835 193.799 295.784 195.003 295.547 196.206C295.31 197.41 294.361 198.373 293.175 198.373C293.412 198.132 293.412 198.132 293.175 198.132ZM55.0293 186.819C55.0293 185.374 55.9781 184.412 57.1641 184.171C58.5872 184.171 59.536 185.134 59.7732 186.337C59.7732 187.541 58.8244 188.744 57.6385 188.985H57.4013C56.2153 188.985 55.2665 188.022 55.0293 186.819ZM294.598 181.282C293.412 181.282 292.226 180.079 292.226 178.875V178.635V178.394C292.226 176.95 293.412 175.987 294.598 175.987C296.021 175.987 296.97 176.95 296.97 178.394V178.635V178.875C296.97 180.32 296.021 181.282 294.598 181.282ZM57.4013 172.136C55.9781 172.136 55.0293 170.932 55.2665 169.488C55.2665 168.284 56.4525 167.081 57.8757 167.321C59.0616 167.321 60.2476 168.525 60.0104 169.969C59.7732 171.173 58.8244 172.136 57.4013 172.136ZM291.277 162.026C291.04 160.822 291.989 159.378 293.175 159.378C294.598 159.137 295.784 160.1 295.784 161.544C296.021 162.748 295.072 163.951 293.649 164.192H293.412C292.463 163.951 291.514 163.229 291.277 162.026ZM59.2988 155.527C58.1129 155.286 57.1641 154.082 57.4013 152.638C57.6385 151.435 58.8244 150.472 60.2476 150.713C61.4336 150.953 62.3824 152.157 62.1452 153.601C61.908 154.805 60.9592 155.527 59.7732 155.527C59.7732 155.527 59.536 155.527 59.2988 155.527ZM287.957 145.898C287.482 144.695 288.431 143.251 289.617 143.01C290.803 142.529 292.226 143.251 292.463 144.695C292.938 145.898 291.989 147.343 290.803 147.583C290.566 147.583 290.328 147.583 290.091 147.583C289.143 147.583 288.194 146.861 287.957 145.898ZM63.5684 139.159C62.3824 138.677 61.6708 137.233 62.1452 136.029C62.6196 134.826 64.0428 134.104 65.2288 134.585C66.4147 135.067 67.1263 136.511 66.6519 137.714C66.1775 138.677 65.466 139.399 64.5172 139.399C64.0428 139.399 63.8056 139.399 63.5684 139.159ZM282.264 130.493C281.789 129.29 282.264 127.845 283.45 127.364C284.636 126.883 286.059 127.364 286.533 128.568C287.008 129.771 286.533 131.215 285.347 131.697C285.11 131.937 284.636 131.937 284.399 131.937C283.687 131.697 282.738 131.215 282.264 130.493ZM69.9727 123.753C68.7867 123.031 68.3123 121.587 69.0239 120.383C69.7355 119.18 71.1587 118.698 72.3447 119.421C73.5306 120.143 74.005 121.587 73.2934 122.55C72.8191 123.272 72.1075 123.753 71.1587 123.753C70.9215 123.994 70.4471 123.994 69.9727 123.753ZM274.674 115.81C273.962 114.606 274.199 113.162 275.385 112.44C276.571 111.718 277.994 112.199 278.706 113.162C279.417 114.366 278.943 115.81 277.994 116.532C277.52 116.773 277.283 116.773 276.808 116.773C275.859 117.014 275.148 116.532 274.674 115.81ZM78.5118 109.311C77.563 108.589 77.3258 106.904 78.0374 105.941C78.749 104.978 80.4093 104.737 81.3581 105.46C82.5441 106.182 82.5441 107.626 81.8325 108.829C81.3581 109.552 80.6465 109.792 79.935 109.792C79.4606 109.792 78.9862 109.792 78.5118 109.311ZM265.186 102.571C264.237 101.608 264.474 99.9233 265.423 99.2012C266.372 98.2384 267.795 98.4791 268.744 99.4419C269.455 100.405 269.455 101.849 268.506 102.812C268.032 103.293 267.558 103.293 267.083 103.293C266.372 103.293 265.66 103.053 265.186 102.571ZM88.9484 96.3127C87.9996 95.3499 87.9996 93.9056 88.9484 92.9428C89.8972 91.98 91.3204 91.98 92.2692 92.9428C93.218 93.9056 93.218 95.3499 92.2692 96.3127C91.7948 96.7941 91.0832 97.0348 90.6088 97.0348C90.1344 97.0348 89.4228 96.7941 88.9484 96.3127ZM253.8 90.7764C252.851 89.8136 252.851 88.3694 253.563 87.4065C254.512 86.4437 255.935 86.4437 256.884 87.1658C257.833 88.1287 257.833 89.5729 257.121 90.5357C256.647 91.0172 255.935 91.2579 255.461 91.2579C254.986 91.2579 254.275 91.0172 253.8 90.7764ZM101.045 84.7588C100.334 83.7959 100.334 82.111 101.52 81.3889C102.469 80.6667 104.129 80.6667 104.841 81.8703C105.552 82.8331 105.552 84.5181 104.366 85.2402C103.892 85.4809 103.417 85.7216 102.943 85.7216C102.231 85.7216 101.52 85.4809 101.045 84.7588ZM241.229 80.426C240.043 79.7039 239.806 78.2597 240.517 77.0561C241.229 75.8526 242.652 75.6119 243.838 76.334C245.024 77.0561 245.261 78.5004 244.549 79.7039C244.075 80.426 243.364 80.6667 242.652 80.6667C241.94 80.9074 241.466 80.9075 241.229 80.426ZM114.566 75.1305C113.854 73.9269 114.328 72.4827 115.514 71.7606C116.7 71.0384 118.124 71.5199 118.835 72.7234C119.547 73.9269 119.072 75.3712 117.886 76.0933C117.412 76.334 117.175 76.334 116.7 76.334C115.989 76.334 115.04 75.8526 114.566 75.1305ZM226.997 72.242C225.811 71.7606 225.337 70.3163 225.811 69.1128C226.285 67.9093 227.709 67.4278 228.895 67.9093C230.081 68.3907 230.555 69.8349 230.081 71.0384C229.606 72.0013 228.895 72.4827 227.946 72.4827C227.709 72.4827 227.471 72.4827 226.997 72.242ZM129.509 67.4278C129.035 66.2243 129.509 64.7801 130.932 64.2986C132.118 63.8172 133.541 64.2986 134.016 65.7429C134.49 66.9464 134.016 68.3907 132.83 68.8721C132.593 69.1128 132.355 69.1128 131.881 69.1128C130.695 69.1128 129.746 68.3907 129.509 67.4278ZM212.054 65.9836C210.868 65.5022 210.156 64.2986 210.63 62.8544C211.105 61.6509 212.291 60.9287 213.714 61.1694C214.9 61.6509 215.612 62.8544 215.137 64.2986C214.9 65.2615 213.951 65.9836 212.765 65.9836C212.528 66.2243 212.291 66.2243 212.054 65.9836ZM145.164 61.8916C144.927 60.688 145.638 59.2438 146.824 59.0031C148.01 58.7624 149.434 59.4845 149.671 60.688C149.908 61.8916 149.196 63.3358 148.01 63.5765C147.773 63.5765 147.536 63.5765 147.536 63.5765C146.35 63.8172 145.401 63.0951 145.164 61.8916ZM196.399 62.1323C195.213 61.8916 194.264 60.688 194.501 59.2438C194.738 58.0403 195.924 57.0774 197.347 57.3181C198.533 57.5588 199.482 58.7624 199.245 60.2066C199.008 61.4102 198.059 62.1323 196.873 62.1323C196.636 62.1323 196.399 62.1323 196.399 62.1323ZM161.293 58.7624C161.056 57.5588 162.005 56.3553 163.428 56.1146C164.614 55.8739 165.8 56.8367 166.037 58.281C166.275 59.7252 165.326 60.688 163.903 60.9287H163.665C162.479 60.9287 161.531 59.9659 161.293 58.7624ZM180.269 60.4473C179.083 60.4473 177.897 59.2438 177.897 58.0403C177.897 56.8367 179.083 55.6332 180.269 55.6332C181.455 55.6332 182.641 56.8367 182.641 58.0403C182.641 59.2438 181.455 60.4473 180.269 60.4473Z" fill="#5E60FD"/>
<path d="M171.494 273.473C170.308 273.473 169.122 272.27 169.359 271.066C169.359 269.863 170.545 268.659 171.731 268.659C172.917 268.659 174.103 269.863 174.103 271.307C173.866 272.511 172.917 273.473 171.494 273.473ZM185.488 270.585C185.251 269.381 186.2 268.178 187.623 267.937C188.809 267.696 189.995 268.659 190.232 270.103C190.469 271.307 189.521 272.511 188.097 272.751H187.86C186.674 272.751 185.726 271.788 185.488 270.585ZM154.89 271.066C153.704 270.826 152.755 269.381 152.992 268.178C153.23 266.974 154.653 266.011 155.839 266.252C157.025 266.493 157.973 267.937 157.736 269.141C157.499 270.344 156.55 271.066 155.364 271.066C155.127 271.066 155.127 271.066 154.89 271.066ZM201.618 267.456C201.143 266.252 201.855 264.808 203.041 264.326C204.227 263.845 205.65 264.567 206.124 265.771C206.599 266.974 205.887 268.419 204.701 268.659C204.464 268.659 204.227 268.659 203.99 268.659C202.804 269.141 202.092 268.419 201.618 267.456ZM138.998 265.771C137.812 265.289 137.337 263.845 137.812 262.642C138.286 261.438 139.709 260.957 140.895 261.438C142.081 261.919 142.556 263.364 142.081 264.567C141.607 265.53 140.895 266.011 139.947 266.011C139.472 266.011 139.235 266.011 138.998 265.771ZM216.798 261.438C216.087 260.234 216.561 258.79 217.747 258.309C218.933 257.587 220.356 258.068 220.831 259.272C221.542 260.475 221.068 261.919 219.882 262.401C219.645 262.642 219.17 262.642 218.696 262.642C218.221 262.642 217.273 262.16 216.798 261.438ZM124.054 257.587C122.868 256.865 122.631 255.42 123.343 254.217C124.054 253.013 125.478 252.773 126.664 253.495C127.85 254.217 128.087 255.661 127.375 256.865C126.901 257.587 126.189 257.827 125.478 257.827C125.003 258.068 124.529 257.827 124.054 257.587ZM230.793 252.532C229.844 251.569 230.081 249.884 231.267 249.162C232.216 248.44 233.876 248.44 234.588 249.643C235.3 250.606 235.3 252.291 234.114 253.013C233.639 253.254 233.165 253.495 232.69 253.495C231.979 253.495 231.267 253.254 230.793 252.532ZM111.009 246.996C110.06 246.033 110.06 244.588 111.009 243.626C111.957 242.663 113.381 242.663 114.329 243.626C115.278 244.588 115.278 246.033 114.329 246.996C113.855 247.477 113.143 247.718 112.669 247.718C111.957 247.718 111.483 247.477 111.009 246.996ZM242.89 241.459C241.941 240.496 241.704 239.052 242.653 238.089C243.602 237.127 245.025 236.886 245.973 237.849C246.922 238.812 247.159 240.256 246.211 241.219C245.736 241.7 245.025 241.941 244.313 241.941C244.076 241.941 243.364 241.941 242.89 241.459ZM100.097 234.238C99.3859 233.035 99.6231 231.59 100.572 230.868C101.758 230.146 103.181 230.387 103.893 231.35C104.604 232.312 104.367 233.997 103.418 234.719C102.944 234.96 102.469 235.201 101.995 235.201C101.283 235.201 100.572 234.719 100.097 234.238ZM253.089 228.22C251.903 227.498 251.666 226.054 252.378 224.85C253.089 223.647 254.513 223.406 255.699 224.128C256.885 224.85 257.122 226.295 256.41 227.498C255.936 228.22 255.224 228.702 254.275 228.702C253.801 228.702 253.327 228.461 253.089 228.22ZM91.3212 219.555C90.8468 218.351 91.3212 216.907 92.5072 216.426C93.6932 215.944 95.1164 216.426 95.5907 217.629C96.0651 218.833 95.5907 220.277 94.4048 220.758C94.1676 220.999 93.6932 220.999 93.456 220.999C92.7444 220.758 91.7956 220.277 91.3212 219.555ZM260.443 213.537C259.257 213.056 258.545 211.612 259.019 210.408C259.494 209.205 260.917 208.482 262.103 208.964C263.289 209.445 264 210.889 263.526 212.093C263.289 213.056 262.34 213.778 261.391 213.778C261.154 213.778 260.917 213.778 260.443 213.537ZM85.6285 203.428C85.1541 202.224 86.1029 200.78 87.2889 200.539C88.4748 200.298 89.898 201.02 90.1352 202.224C90.3724 203.428 89.6608 204.872 88.4748 205.112C88.2376 205.112 88.0004 205.112 87.7633 205.112C86.8145 205.353 85.8657 204.631 85.6285 203.428ZM265.424 197.651C264.238 197.41 263.289 196.206 263.526 194.762C263.763 193.559 264.949 192.596 266.372 192.836C267.558 193.077 268.507 194.281 268.27 195.725C268.033 196.928 267.084 197.651 265.898 197.651C265.661 197.651 265.424 197.651 265.424 197.651ZM82.5449 186.819C82.5449 185.374 83.4937 184.412 84.6797 184.171C85.8657 184.171 87.0517 185.134 87.2889 186.337C87.2889 187.541 86.3401 188.744 85.1541 188.985H84.9169C83.7309 188.985 82.7821 188.022 82.5449 186.819ZM267.321 181.282C265.898 181.282 264.949 180.32 264.949 178.875C264.949 178.875 264.949 178.875 264.949 178.635V178.394C264.949 176.95 266.135 175.987 267.321 175.987C268.507 175.987 269.693 176.95 269.693 178.394V178.635V178.875C269.693 180.079 268.507 181.282 267.321 181.282ZM84.9169 172.376C83.7309 172.376 82.5449 171.173 82.7821 169.729C82.7821 168.525 83.9681 167.321 85.3913 167.562C86.5773 167.562 87.7633 168.766 87.5261 170.21C87.2889 171.413 86.3401 172.376 84.9169 172.376ZM263.526 162.267C263.289 160.822 264.238 159.619 265.424 159.378C266.61 159.137 268.033 160.1 268.27 161.304C268.507 162.748 267.558 163.952 266.372 164.192C266.135 164.192 266.135 164.192 265.898 164.192C264.712 164.192 263.763 163.47 263.526 162.267ZM87.2889 156.008C86.1029 155.767 85.1541 154.323 85.6285 153.12C86.1029 151.916 87.2889 150.953 88.4748 151.435C89.6608 151.675 90.3724 153.12 90.1352 154.323C89.898 155.527 88.9492 156.008 87.7633 156.008C87.7633 156.008 87.5261 156.008 87.2889 156.008ZM259.257 146.621C258.782 145.417 259.494 143.973 260.68 143.491C261.866 143.01 263.289 143.732 263.763 144.936C264.238 146.139 263.526 147.583 262.34 148.065C262.103 148.065 261.866 148.306 261.391 148.306C260.68 148.306 259.731 147.583 259.257 146.621ZM92.7444 140.122C91.5584 139.64 91.084 138.196 91.5584 136.992C92.0328 135.789 93.456 135.307 94.642 135.789C95.8279 136.27 96.3023 137.714 95.8279 138.918C95.3536 139.881 94.642 140.362 93.6932 140.362C93.456 140.362 92.9816 140.362 92.7444 140.122ZM252.378 132.178C251.666 130.975 252.141 129.53 253.089 128.808C254.275 128.086 255.699 128.568 256.41 129.771C257.122 130.975 256.647 132.419 255.699 133.141C255.224 133.382 254.987 133.382 254.513 133.382C253.564 133.382 252.852 132.9 252.378 132.178ZM100.809 125.679C99.6231 124.957 99.6231 123.513 100.335 122.309C101.046 121.106 102.469 120.865 103.655 121.828C104.604 122.55 104.841 124.235 104.13 125.198C103.655 125.92 102.944 126.16 102.232 126.16C101.758 126.16 101.283 126.16 100.809 125.679ZM242.89 118.939C241.941 117.976 242.178 116.532 243.127 115.569C244.076 114.607 245.499 114.847 246.448 115.81C247.397 116.773 247.159 118.217 246.211 119.18C245.736 119.661 245.262 119.661 244.55 119.661C244.076 119.902 243.364 119.661 242.89 118.939ZM111.246 112.922C110.297 111.959 110.297 110.515 111.246 109.552C112.195 108.589 113.618 108.589 114.566 109.552C115.515 110.515 115.515 111.959 114.566 112.922C114.092 113.403 113.381 113.644 112.906 113.644C112.432 113.644 111.72 113.403 111.246 112.922ZM231.504 107.867C230.556 107.145 230.319 105.46 231.03 104.497C231.742 103.534 233.402 103.293 234.351 104.256C235.3 104.978 235.537 106.663 234.825 107.626C234.351 108.107 233.639 108.589 232.928 108.589C232.453 108.348 231.979 108.107 231.504 107.867ZM123.817 102.33C123.106 101.127 123.343 99.6827 124.529 98.9606C125.715 98.2384 127.138 98.4791 127.85 99.6827C128.561 100.886 128.324 102.33 127.138 103.053C126.664 103.293 126.189 103.534 125.952 103.534C125.003 103.293 124.292 103.053 123.817 102.33ZM218.221 98.9606C217.035 98.2384 216.561 96.7942 217.273 95.5907C217.984 94.3871 219.407 93.9057 220.593 94.6278C221.779 95.3499 222.254 96.7942 221.542 97.9977C221.068 98.7198 220.356 99.2013 219.407 99.2013C218.933 99.2013 218.459 99.2013 218.221 98.9606ZM138.049 94.1464C137.575 92.9429 138.049 91.4986 139.235 91.0172C140.421 90.5358 141.844 91.0172 142.319 92.2207C142.793 93.4243 142.319 94.8685 141.133 95.3499C140.895 95.5906 140.421 95.5907 140.184 95.5907C139.235 95.5907 138.286 94.8685 138.049 94.1464ZM203.515 92.4615C202.329 91.98 201.618 90.7765 202.092 89.3323C202.566 88.1287 203.752 87.4066 205.176 87.888C206.362 88.3694 207.073 89.573 206.599 91.0172C206.362 91.98 205.413 92.7022 204.227 92.7022C203.99 92.7022 203.752 92.7022 203.515 92.4615ZM153.467 88.6101C153.23 87.4066 153.941 85.9624 155.364 85.7216C156.55 85.4809 157.973 86.2031 158.211 87.6473C158.448 88.8509 157.736 90.2951 156.313 90.5358C156.076 90.5358 156.076 90.5358 155.839 90.5358C154.653 90.2951 153.704 89.573 153.467 88.6101ZM188.097 88.8509C186.674 88.6101 185.963 87.4066 185.963 86.2031C186.2 84.9995 187.386 84.0367 188.572 84.0367C189.758 84.2774 190.707 85.4809 190.469 86.6845C190.232 87.888 189.283 88.8509 188.097 88.8509C188.335 89.0916 188.097 88.8509 188.097 88.8509ZM169.596 85.9624C169.596 84.5181 170.545 83.5553 171.968 83.3146C173.391 83.3146 174.34 84.2774 174.34 85.7216C174.34 87.1659 173.391 88.1287 171.968 88.1287C170.782 88.1287 169.596 87.1659 169.596 85.9624Z" fill="#5E60FD"/>
<path d="M173.391 243.144C173.391 241.941 174.577 240.737 175.763 240.737C176.949 240.737 178.135 241.941 178.135 243.144C178.135 244.348 176.949 245.551 175.763 245.551C174.577 245.792 173.391 244.588 173.391 243.144ZM189.995 241.7C189.757 240.496 190.469 239.052 191.655 238.811C192.841 238.571 194.264 239.293 194.501 240.496C194.976 241.7 194.027 243.144 192.841 243.385C192.604 243.385 192.367 243.385 192.367 243.385C191.181 243.626 190.232 242.904 189.995 241.7ZM158.685 243.385C157.499 242.904 156.787 241.7 157.024 240.496C157.499 239.293 158.685 238.33 159.871 238.811C161.057 239.052 161.768 240.496 161.531 241.7C161.294 242.663 160.345 243.385 159.159 243.385C159.159 243.385 158.922 243.385 158.685 243.385ZM205.65 235.923C204.938 234.719 205.412 233.275 206.598 232.553C207.784 231.831 209.208 232.312 209.919 233.516C210.631 234.719 210.156 236.164 208.97 236.886C208.496 237.127 208.259 237.127 207.784 237.127C206.836 237.127 206.124 236.645 205.65 235.923ZM142.793 236.645C141.607 235.923 141.369 234.479 141.844 233.275C142.555 232.072 143.978 231.831 145.164 232.312C146.35 233.035 146.588 234.479 146.113 235.682C145.639 236.404 144.927 236.886 143.978 236.886C143.504 236.886 143.03 236.886 142.793 236.645ZM219.407 226.054C218.458 225.091 218.458 223.647 219.407 222.684C220.356 221.721 221.779 221.721 222.728 222.684C223.677 223.647 223.677 225.091 222.728 226.054C222.253 226.535 221.779 226.776 221.067 226.776C220.356 226.776 219.881 226.535 219.407 226.054ZM129.035 225.813C128.086 224.85 128.086 223.406 129.035 222.443C129.984 221.481 131.407 221.481 132.356 222.443C133.305 223.406 133.305 224.85 132.356 225.813C131.881 226.295 131.407 226.535 130.695 226.535C129.984 226.535 129.509 226.295 129.035 225.813ZM230.081 213.056C228.895 212.334 228.658 210.889 229.132 209.686C229.844 208.482 231.267 208.242 232.453 208.723C233.639 209.445 233.876 210.889 233.402 212.093C232.927 212.815 232.216 213.297 231.267 213.297C230.793 213.537 230.318 213.297 230.081 213.056ZM118.598 211.852C117.887 210.649 118.361 209.204 119.547 208.482C120.733 207.76 122.156 208.242 122.868 209.445C123.58 210.649 123.105 212.093 121.919 212.815C121.445 213.056 121.208 213.056 120.733 213.056C119.784 213.056 118.836 212.574 118.598 211.852ZM236.96 197.651C235.774 197.41 234.825 195.966 235.299 194.762C235.536 193.559 236.96 192.836 238.146 193.077C239.332 193.559 240.043 194.762 239.806 195.966C239.569 197.169 238.62 197.651 237.434 197.651C237.434 197.891 237.197 197.891 236.96 197.651ZM111.957 195.725C111.72 194.521 112.431 193.077 113.617 192.836C114.803 192.596 116.226 193.318 116.464 194.521C116.701 195.725 115.989 197.169 114.803 197.41C114.566 197.41 114.329 197.41 114.329 197.41C113.143 197.41 112.194 196.688 111.957 195.725ZM239.806 181.042C238.62 181.042 237.434 179.838 237.434 178.635C237.434 178.635 237.434 178.635 237.434 178.394C237.434 176.95 238.62 175.987 239.806 175.987C241.229 175.987 242.178 176.95 242.178 178.394C242.178 178.394 242.178 178.394 242.178 178.635C242.178 178.635 242.178 178.635 242.178 178.875C242.178 180.079 241.229 181.042 239.806 181.042ZM111.957 180.801C110.534 180.801 109.585 179.838 109.585 178.394C109.585 176.95 110.771 175.987 111.957 175.987C113.143 175.987 114.329 177.19 114.329 178.394C114.329 179.597 113.38 180.801 111.957 180.801ZM235.536 162.267C235.062 161.063 236.011 159.619 237.197 159.378C238.383 159.137 239.806 159.86 240.043 161.063C240.28 162.267 239.569 163.711 238.383 163.952C238.146 163.952 237.908 163.952 237.671 163.952C236.722 163.952 235.774 163.229 235.536 162.267ZM113.617 163.711C112.431 163.47 111.72 162.026 111.957 160.822C112.194 159.619 113.617 158.656 114.803 159.137C115.989 159.378 116.938 160.822 116.464 162.026C116.226 162.989 115.278 163.711 114.092 163.711C114.092 163.952 113.855 163.952 113.617 163.711ZM229.369 147.102C228.658 145.898 229.132 144.454 230.318 143.732C231.504 143.01 232.927 143.491 233.639 144.695C234.35 145.898 233.876 147.343 232.69 148.065C232.216 148.306 231.979 148.306 231.504 148.306C230.555 148.306 229.844 148.065 229.369 147.102ZM119.547 148.065C118.361 147.343 118.124 145.898 118.598 144.695C119.31 143.491 120.733 143.251 121.919 143.732C123.105 144.454 123.342 145.898 122.868 147.102C122.394 147.824 121.682 148.306 120.733 148.306C120.259 148.306 119.784 148.065 119.547 148.065ZM219.407 134.345C218.458 133.382 218.458 131.937 219.407 130.975C220.356 130.012 221.779 130.012 222.728 130.975C223.677 131.937 223.677 133.382 222.728 134.345C222.253 134.826 221.779 135.067 221.067 135.067C220.593 135.067 219.881 134.826 219.407 134.345ZM129.272 134.104C128.324 133.141 128.324 131.697 129.272 130.734C130.221 129.771 131.644 129.771 132.593 130.734C133.542 131.697 133.542 133.141 132.593 134.104C132.119 134.585 131.407 134.826 130.933 134.826C130.221 134.826 129.747 134.585 129.272 134.104ZM206.836 124.235C205.65 123.513 205.412 122.068 205.887 120.865C206.598 119.661 208.022 119.421 209.208 119.902C210.394 120.624 210.631 122.068 210.156 123.272C209.682 123.994 208.97 124.476 208.022 124.476C207.547 124.716 207.073 124.476 206.836 124.235ZM142.081 123.272C141.369 122.068 141.844 120.624 143.03 119.902C144.216 119.18 145.639 119.661 146.35 120.865C147.062 122.068 146.588 123.513 145.402 124.235C144.927 124.476 144.69 124.476 144.216 124.476C143.267 124.476 142.555 124.235 142.081 123.272ZM191.892 117.976C190.706 117.736 189.757 116.291 190.232 115.088C190.469 113.884 191.892 113.162 193.078 113.403C194.264 113.644 194.976 115.088 194.739 116.291C194.501 117.254 193.553 117.976 192.367 117.976C192.367 118.217 192.129 118.217 191.892 117.976ZM157.262 116.291C156.787 115.088 157.736 113.644 158.922 113.403C160.108 113.162 161.531 113.884 161.768 115.088C162.005 116.291 161.294 117.736 160.108 117.976C159.871 117.976 159.633 117.976 159.396 117.976C158.447 118.217 157.499 117.495 157.262 116.291ZM173.628 113.644C173.628 112.199 174.814 111.237 176 111.237C177.186 111.237 178.372 112.199 178.372 113.644C178.372 114.847 177.423 116.051 176 116.051C174.814 116.051 173.628 114.847 173.628 113.644Z" fill="#5E60FD"/>
</svg>
