<svg width="424" height="432" viewBox="0 0 424 432" fill="none" xmlns="http://www.w3.org/2000/svg">
<path d="M212.083 0.835938C94.9118 0.835938 0 97.2484 0 216C0 259.252 12.5778 299.479 34.2577 333.241C33.2648 327.698 32.6855 321.903 32.6855 315.772V314.68C32.6855 298.556 35.5816 284.531 41.3739 272.689C47.1663 260.763 55.1929 250.853 65.4536 243.043C75.7143 235.149 88.0439 229.27 102.276 225.49C116.592 221.627 131.983 219.696 148.615 219.696C165.992 219.696 180.639 220.787 192.72 222.971C204.801 225.155 216.468 228.094 227.639 231.789V226.33C227.639 206.174 221.599 190.805 209.518 180.14C197.436 169.558 179.977 164.183 157.221 164.183C141.002 164.183 126.522 165.863 113.861 169.138C101.201 172.413 88.3748 176.864 75.3834 182.323L57.5924 128.994C73.48 121.687 89.6987 115.809 106.331 111.358C122.881 106.99 142.988 104.807 166.406 104.807C209.021 104.807 240.631 115.473 261.152 136.972C281.756 158.388 292.017 188.538 292.017 227.338V399.419H227.06V363.726C217.296 375.484 204.801 385.394 189.658 393.456C174.515 401.519 156.062 405.55 134.382 405.55C124.453 405.55 115.02 404.542 105.835 402.527C137.031 420.919 173.274 431.501 212 431.501C329.088 431.501 424 335.088 424 216.252C424.083 97.1645 329.171 0.835938 212.083 0.835938Z" fill="#4B47FF"/>
<path d="M152.917 355.413C163.757 355.413 173.77 353.985 182.955 351.045C192.14 348.106 200.166 343.991 207.035 338.7C213.903 333.409 219.198 327.026 223.005 319.468C226.811 311.993 228.715 303.595 228.715 294.441V277.896C220.44 274.621 210.593 271.85 199.173 269.666C187.837 267.482 175.838 266.391 163.178 266.391C142.574 266.391 126.521 270.422 114.936 278.484C103.351 286.547 97.6416 297.548 97.6416 311.489V312.581C97.6416 326.522 102.937 337.104 113.612 344.411C124.286 351.717 137.361 355.413 152.917 355.413Z" fill="#4B47FF"/>
</svg>
