<svg width="114" height="73" viewBox="0 0 114 73" fill="none" xmlns="http://www.w3.org/2000/svg">
<path d="M91.0417 72.6667C90.2332 72.6667 89.4294 72.4532 88.7027 72.0172L88.571 71.9355C86.5227 70.7047 85.7779 68.0977 86.8679 65.9723C86.8906 65.9268 89.1069 61.4488 90.2832 54.2366C89.0388 54.4092 87.7717 54.5 86.5 54.5C71.4716 54.5 59.25 42.2784 59.25 27.25C59.25 12.2216 71.4716 0 86.5 0C101.528 0 113.75 12.2216 113.75 27.25C113.75 56.0351 94.625 71.0953 93.8121 71.722C92.9991 72.3488 92.0227 72.6667 91.0417 72.6667Z" fill="#E3E5EA"/>
<path d="M31.7917 72.6667C30.9832 72.6667 30.1794 72.4532 29.4527 72.0172L29.321 71.9355C27.2727 70.7047 26.5279 68.0977 27.6179 65.9723C27.6406 65.9268 29.8569 61.4488 31.0332 54.2366C29.7888 54.4092 28.5217 54.5 27.25 54.5C12.2216 54.5 0 42.2784 0 27.25C0 12.2216 12.2216 0 27.25 0C42.2784 0 54.5 12.2216 54.5 27.25C54.5 56.0351 35.375 71.0953 34.5621 71.722C33.7491 72.3488 32.7727 72.6667 31.7917 72.6667Z" fill="#E3E5EA"/>
</svg>
