<svg width="114" height="73" viewBox="0 0 114 73" fill="none" xmlns="http://www.w3.org/2000/svg">
<path d="M22.7083 -0.000165067C23.5167 -0.000165138 24.3206 0.21329 25.0473 0.649295L25.179 0.731044C27.2273 1.96183 27.9721 4.56876 26.8821 6.69425C26.8594 6.73967 24.6431 11.2178 23.4668 18.4299C24.7112 18.2573 25.9783 18.1665 27.25 18.1665C42.2784 18.1665 54.5 30.3881 54.5 45.4165C54.5 60.4449 42.2784 72.6665 27.25 72.6665C12.2216 72.6665 -1.06845e-06 60.4449 -2.38227e-06 45.4165C-4.89874e-06 16.6314 19.125 1.57125 19.9379 0.944499C20.7509 0.317752 21.7273 -0.000164982 22.7083 -0.000165067Z" fill="#E3E5EA"/>
<path d="M81.9583 -0.000165067C82.7667 -0.000165138 83.5706 0.21329 84.2973 0.649295L84.429 0.731044C86.4773 1.96183 87.2221 4.56876 86.1321 6.69425C86.1094 6.73967 83.8931 11.2178 82.7168 18.4299C83.9612 18.2573 85.2283 18.1665 86.5 18.1665C101.528 18.1665 113.75 30.3881 113.75 45.4165C113.75 60.4449 101.528 72.6665 86.5 72.6665C71.4716 72.6665 59.25 60.4449 59.25 45.4165C59.25 16.6314 78.375 1.57125 79.1879 0.944499C80.0009 0.317752 80.9773 -0.000164982 81.9583 -0.000165067Z" fill="#E3E5EA"/>
</svg>
