<svg width="24" height="24" viewBox="0 0 24 24" fill="none" xmlns="http://www.w3.org/2000/svg">
<path d="M12.0003 3C11.4483 3 11.0003 3.448 11.0003 4V17.0703L7.137 13.207C6.746 12.816 6.11294 12.816 5.72294 13.207L5.637 13.293C5.246 13.684 5.246 14.317 5.637 14.707L11.2933 20.3633C11.6842 20.7543 12.3173 20.7543 12.7073 20.3633L18.3636 14.707C18.7546 14.316 18.7546 13.683 18.3636 13.293L18.2776 13.207C17.8866 12.816 17.2536 12.816 16.8636 13.207L13.0003 17.0703V4C13.0003 3.448 12.5523 3 12.0003 3Z" fill="white"/>
</svg>
