<svg width="48" height="48" viewBox="0 0 48 48" fill="none" xmlns="http://www.w3.org/2000/svg">
<path d="M22.543 12.7126H25.3555V20.3411H22.543V12.7126Z" fill="#F6B206"/>
<path d="M10.4072 16.4626H13.2197V20.3411H10.4072V16.4626Z" fill="#F6B206"/>
<path d="M7 0C3.13401 0 0 3.13401 0 7V21.5814C0 25.4474 3.13401 28.5814 7 28.5814H41C44.866 28.5814 48 25.4474 48 21.5814V7C48 3.13401 44.866 0 41 0H7ZM16.0327 23.1536H7.59516V13.6502H16.0327V23.1536ZM28.1685 23.1536H19.731V9.90019H28.1685V23.1536ZM40.4048 23.1536H31.9673V5.60569H40.4048V23.1536Z" fill="white"/>
<path d="M34.7793 8.41821H37.5918V20.3411H34.7793V8.41821Z" fill="#F6B206"/>
<path d="M11.5318 43.7108L10.0221 43.0885C9.17269 43.6511 8.1555 43.9799 7.06256 43.9799C5.96963 43.9799 4.95244 43.6511 4.10306 43.0885L2.59331 43.7108C1.01784 44.3601 0 45.8806 0 47.5844V48H14.125V47.5844C14.125 45.8806 13.1071 44.3601 11.5318 43.7108Z" fill="white"/>
<path d="M28.4692 43.7108L26.9595 43.0885C26.1101 43.6511 25.0929 43.9799 24 43.9799C22.907 43.9799 21.8898 43.6511 21.0405 43.0885L19.5307 43.7108C17.9554 44.3601 16.9375 45.8806 16.9375 47.5844V48H31.0625V47.5844C31.0623 45.8806 30.0445 44.3601 28.4692 43.7108Z" fill="white"/>
<path d="M26.656 38.6054V37.6297C26.656 36.1654 25.4647 34.974 24.0004 34.974C22.5361 34.974 21.3447 36.1653 21.3447 37.6297V38.6054C21.3447 40.0697 22.5361 41.2612 24.0004 41.2612C25.4647 41.2612 26.656 40.0698 26.656 38.6054Z" fill="white"/>
<path d="M9.71854 38.6054V37.6297C9.71854 36.1654 8.52716 34.974 7.06288 34.974C5.5986 34.974 4.40723 36.1653 4.40723 37.6297V38.6054C4.40723 40.0697 5.5986 41.2612 7.06288 41.2612C8.52716 41.2612 9.71854 40.0698 9.71854 38.6054Z" fill="white"/>
<path d="M45.4067 43.7108L43.8399 43.0649C42.9833 43.6423 41.9522 43.9798 40.8437 43.9798C39.7663 43.9798 38.7628 43.6601 37.9209 43.112L36.4682 43.7108C34.8928 44.3601 33.875 45.8805 33.875 47.5843V47.9999H47.9999V47.5843C47.9999 45.8805 46.9821 44.3601 45.4067 43.7108Z" fill="white"/>
<path d="M43.4998 38.6054V37.6297C43.4998 36.1654 42.3084 34.974 40.8441 34.974C39.3799 34.974 38.1885 36.1653 38.1885 37.6297V38.6054C38.1885 40.0697 39.3799 41.2612 40.8441 41.2612C42.3084 41.2612 43.4998 40.0698 43.4998 38.6054Z" fill="white"/>
</svg>
