<svg width="240" height="239" viewBox="0 0 240 239" fill="none" xmlns="http://www.w3.org/2000/svg">
<path d="M123.72 237.389C123.72 236.583 124.367 235.777 125.337 235.777C126.307 235.777 126.954 236.422 126.954 237.389C126.954 238.194 126.307 239 125.499 239C125.499 239 125.499 239 125.337 239C124.528 238.839 123.881 238.194 123.72 237.389ZM114.016 238.839C113.208 238.839 112.399 238.033 112.399 237.227C112.399 236.261 113.208 235.616 114.016 235.616C114.987 235.616 115.633 236.422 115.633 237.227C115.795 238.194 114.987 238.839 114.016 238.839C114.178 238.839 114.178 238.839 114.016 238.839ZM135.04 236.422C134.879 235.616 135.526 234.81 136.496 234.649C137.305 234.488 138.113 235.132 138.275 235.938C138.437 236.744 137.79 237.55 136.819 237.711H136.658C135.849 237.872 135.202 237.227 135.04 236.422ZM102.695 237.711C101.725 237.55 101.24 236.744 101.24 235.938C101.402 235.132 102.21 234.488 103.019 234.649C103.989 234.81 104.474 235.616 104.474 236.422C104.313 237.227 103.666 237.872 102.857 237.872C102.857 237.711 102.857 237.711 102.695 237.711ZM146.038 234.488C145.876 233.682 146.361 232.715 147.17 232.554C147.978 232.393 148.949 232.876 149.111 233.682C149.272 234.488 148.787 235.455 147.978 235.616C147.817 235.616 147.655 235.616 147.655 235.616C147.008 235.777 146.361 235.294 146.038 234.488ZM91.5364 235.616C90.7278 235.455 90.0809 234.488 90.4043 233.682C90.566 232.876 91.5364 232.232 92.345 232.554C93.1536 232.715 93.8005 233.682 93.4771 234.488C93.3154 235.294 92.6685 235.777 91.8598 235.777C91.6981 235.616 91.6981 235.616 91.5364 235.616ZM157.035 231.587C156.712 230.782 157.197 229.815 158.005 229.492C158.814 229.17 159.784 229.654 160.108 230.459C160.431 231.265 159.946 232.232 159.137 232.554C158.976 232.554 158.814 232.715 158.652 232.715C157.844 232.554 157.197 232.232 157.035 231.587ZM80.5391 232.393C79.7305 232.071 79.2453 231.104 79.5687 230.298C79.8922 229.492 80.8625 229.009 81.6712 229.331C82.4798 229.654 82.965 230.62 82.6415 231.426C82.4798 232.071 81.8329 232.554 81.0243 232.554C80.8625 232.554 80.7008 232.393 80.5391 232.393ZM167.547 227.559C167.224 226.753 167.547 225.786 168.356 225.464C169.164 225.141 170.135 225.464 170.458 226.269C170.782 227.075 170.458 228.042 169.65 228.364C169.488 228.526 169.164 228.526 169.003 228.526C168.356 228.526 167.709 228.042 167.547 227.559ZM70.027 228.203C69.2183 227.881 68.8949 226.914 69.2183 226.108C69.5418 225.303 70.5121 224.98 71.3208 225.303C72.1294 225.625 72.4528 226.592 72.1294 227.398C71.8059 228.042 71.3208 228.364 70.6739 228.364C70.3504 228.203 70.1887 228.203 70.027 228.203ZM177.574 222.563C177.089 221.757 177.412 220.791 178.221 220.307C179.03 219.824 180 220.146 180.485 220.952C180.97 221.757 180.647 222.724 179.838 223.208C179.515 223.369 179.353 223.369 179.03 223.369C178.383 223.369 177.898 223.047 177.574 222.563ZM59.8383 222.885C59.0297 222.402 58.8679 221.435 59.1914 220.629C59.6765 219.824 60.6469 219.663 61.4555 219.985C62.2642 220.468 62.4259 221.435 62.1024 222.241C61.779 222.724 61.2938 223.047 60.6469 223.047C60.3235 223.047 60.1617 223.047 59.8383 222.885ZM187.116 216.601C186.631 215.795 186.792 214.828 187.439 214.345C188.248 213.861 189.218 214.022 189.704 214.667C190.189 215.473 190.027 216.44 189.38 216.923C189.057 217.084 188.733 217.245 188.41 217.245C187.925 217.245 187.439 217.084 187.116 216.601ZM50.2965 216.762C49.4879 216.278 49.4879 215.312 49.973 214.506C50.4582 213.7 51.5903 213.7 52.2372 214.184C53.0458 214.667 53.0458 215.634 52.5606 216.44C52.2372 216.923 51.752 217.084 51.2668 217.084C50.7817 217.084 50.4582 216.923 50.2965 216.762ZM196.011 209.833C195.364 209.188 195.526 208.221 196.173 207.577C196.819 206.932 197.79 207.093 198.437 207.738C199.084 208.382 198.922 209.51 198.275 209.994C197.951 210.316 197.628 210.316 197.143 210.316C196.819 210.316 196.496 210.155 196.011 209.833ZM41.2399 209.671C40.593 209.027 40.4313 208.06 41.0782 207.415C41.7251 206.771 42.6954 206.61 43.3423 207.254C43.9892 207.899 44.1509 208.866 43.504 209.51C43.1806 209.833 42.6954 209.994 42.2102 209.994C42.0485 210.155 41.5633 209.994 41.2399 209.671ZM204.42 202.098C203.774 201.453 203.774 200.486 204.42 199.842C205.067 199.197 206.038 199.197 206.685 199.842C207.332 200.486 207.332 201.453 206.685 202.098C206.361 202.42 205.876 202.581 205.553 202.581C205.067 202.581 204.744 202.42 204.42 202.098ZM32.9919 201.775C32.345 201.131 32.345 200.164 32.9919 199.519C33.6388 198.875 34.6092 198.875 35.2561 199.519C35.903 200.164 35.903 201.131 35.2561 201.775C34.9326 202.098 34.6092 202.259 34.124 202.259C33.8005 202.259 33.3154 202.098 32.9919 201.775ZM211.86 193.718C211.213 193.235 211.051 192.107 211.536 191.462C212.022 190.817 213.154 190.656 213.801 191.14C214.447 191.623 214.609 192.751 214.124 193.396C213.801 193.718 213.315 194.04 212.83 194.04C212.507 194.201 212.183 194.04 211.86 193.718ZM25.5526 193.235C24.9057 192.59 25.0674 191.462 25.876 190.979C26.5229 190.495 27.655 190.495 28.1402 191.301C28.6253 191.945 28.6253 193.073 27.8167 193.557C27.4933 193.718 27.1698 193.879 26.8464 193.879C26.3612 193.879 25.876 193.557 25.5526 193.235ZM218.491 184.694C217.682 184.21 217.52 183.244 218.005 182.438C218.491 181.632 219.461 181.471 220.27 181.954C221.078 182.438 221.24 183.405 220.755 184.21C220.431 184.694 219.946 185.016 219.461 185.016C219.137 185.016 218.814 185.016 218.491 184.694ZM18.9218 183.888C18.4367 183.082 18.5984 182.116 19.407 181.632C20.2156 181.149 21.186 181.31 21.6712 182.116C22.1563 182.921 21.9946 183.888 21.186 184.372C20.8625 184.533 20.5391 184.694 20.3774 184.694C19.7305 184.694 19.2453 184.372 18.9218 183.888ZM224.313 175.186C223.504 174.864 223.181 173.736 223.666 173.091C224.151 172.286 225.121 171.963 225.93 172.447C226.739 172.769 227.062 173.897 226.577 174.703C226.253 175.186 225.768 175.509 225.121 175.509C224.798 175.347 224.636 175.186 224.313 175.186ZM13.2615 174.058C12.7763 173.253 13.0997 172.286 13.9084 171.963C14.717 171.48 15.6873 171.802 16.0108 172.608C16.496 173.414 16.1725 174.381 15.3639 174.864C15.2022 175.025 14.8787 175.025 14.5553 175.025C14.0701 175.025 13.5849 174.703 13.2615 174.058ZM229.164 165.034C228.356 164.712 227.871 163.745 228.194 162.939C228.518 162.133 229.488 161.65 230.296 161.972C231.105 162.295 231.59 163.261 231.267 164.067C230.943 164.712 230.458 165.034 229.811 165.034C229.65 165.195 229.326 165.034 229.164 165.034ZM8.57143 163.745C8.24798 162.939 8.57143 161.972 9.54178 161.65C10.3504 161.328 11.3208 161.65 11.6442 162.617C11.9677 163.423 11.6442 164.389 10.6739 164.712C10.5121 164.712 10.3504 164.873 10.027 164.873C9.38005 164.712 8.73315 164.389 8.57143 163.745ZM233.046 154.398C232.237 154.076 231.752 153.27 231.914 152.465C232.237 151.659 233.046 151.176 233.854 151.337C234.663 151.659 235.148 152.465 234.987 153.27C234.825 153.915 234.178 154.398 233.369 154.398C233.369 154.56 233.208 154.56 233.046 154.398ZM4.85175 152.948C4.5283 152.142 5.1752 151.176 5.98383 151.014C6.79245 150.692 7.7628 151.337 7.92453 152.142C8.24798 152.948 7.7628 153.915 6.79245 154.076C6.63073 154.076 6.469 154.076 6.30728 154.076C5.66038 154.076 5.01348 153.754 4.85175 152.948ZM235.795 143.602C234.987 143.441 234.34 142.635 234.501 141.668C234.663 140.862 235.472 140.218 236.442 140.379C237.251 140.54 237.898 141.346 237.736 142.312C237.574 143.118 236.927 143.602 236.119 143.602C236.119 143.602 235.957 143.602 235.795 143.602ZM2.10243 141.99C1.9407 141.184 2.42588 140.218 3.39623 140.056C4.20485 139.895 5.1752 140.379 5.33693 141.346C5.49865 142.151 4.85175 143.118 4.04313 143.279C3.8814 143.279 3.8814 143.279 3.71968 143.279C2.91105 143.279 2.26415 142.635 2.10243 141.99ZM237.574 132.483C236.604 132.321 235.957 131.677 236.119 130.71C236.28 129.904 236.927 129.099 237.898 129.26C238.868 129.421 239.515 130.065 239.353 131.032C239.353 131.838 238.544 132.483 237.574 132.483C237.736 132.483 237.736 132.483 237.574 132.483ZM0.485175 130.71C0.485175 129.743 0.97035 129.099 1.9407 128.937C2.91105 128.937 3.55795 129.582 3.71968 130.388C3.71968 131.193 3.07278 131.999 2.26415 132.16H2.10243C1.2938 132.16 0.6469 131.516 0.485175 130.71ZM236.765 119.752C236.765 119.591 236.765 119.591 236.765 119.752C236.765 119.591 236.765 119.591 236.765 119.43C236.765 118.463 237.574 117.818 238.383 117.818C239.191 117.818 240 118.463 240 119.43V119.591V119.752C240 120.558 239.191 121.364 238.383 121.364C237.412 121.364 236.765 120.558 236.765 119.752ZM0 119.269C0 118.302 0.808625 117.657 1.61725 117.657C2.5876 117.657 3.2345 118.302 3.2345 119.269C3.2345 120.074 2.5876 120.88 1.61725 120.88C0.808625 120.88 0 120.236 0 119.269ZM236.28 108.311C236.119 107.505 236.766 106.699 237.736 106.538C238.544 106.538 239.353 107.183 239.515 107.988C239.677 108.955 239.03 109.6 238.059 109.761H237.898C236.927 109.922 236.28 109.278 236.28 108.311ZM1.9407 109.761C1.13208 109.6 0.32345 108.955 0.485175 107.988C0.485175 107.183 1.2938 106.538 2.26415 106.538C3.07278 106.699 3.71968 107.344 3.71968 108.311C3.71968 109.116 2.91105 109.761 2.10243 109.761C2.10243 109.761 2.10243 109.761 1.9407 109.761ZM234.663 97.3528C234.501 96.5471 234.987 95.5802 235.957 95.4191C236.765 95.2579 237.736 95.7414 237.898 96.7082C238.059 97.514 237.412 98.4808 236.604 98.642C236.442 98.642 236.442 98.642 236.28 98.642C235.472 98.8031 234.825 98.1585 234.663 97.3528ZM3.39623 98.642C2.5876 98.4808 1.9407 97.6751 2.10243 96.7082C2.26415 95.9025 3.07278 95.2579 4.04313 95.4191C4.85175 95.5802 5.49865 96.3859 5.33693 97.3528C5.1752 98.1585 4.5283 98.642 3.71968 98.642C3.71968 98.642 3.55795 98.642 3.39623 98.642ZM232.075 86.7172C231.752 85.9115 232.237 84.9446 233.208 84.7834C234.016 84.4611 234.987 84.9446 235.148 85.9115C235.31 86.7172 234.825 87.6841 234.016 87.8452C233.854 87.8452 233.693 87.8452 233.531 87.8452C232.884 87.8452 232.237 87.3618 232.075 86.7172ZM5.98383 87.6841C5.1752 87.3618 4.69003 86.556 4.85175 85.7503C5.01348 84.9446 5.98383 84.4612 6.79245 84.6223C7.60108 84.9446 8.08625 85.7503 7.92453 86.556C7.7628 87.2006 7.1159 87.6841 6.30728 87.6841C6.30728 87.6841 6.14555 87.6841 5.98383 87.6841ZM228.356 76.2427C228.032 75.437 228.356 74.4701 229.164 74.1478C229.973 73.8255 230.943 74.1478 231.267 75.1147C231.59 75.9204 231.267 76.8873 230.458 77.2096C230.296 77.2096 230.135 77.3707 229.811 77.3707C229.326 77.2096 228.679 76.8873 228.356 76.2427ZM9.54178 77.0484C8.73315 76.7262 8.24798 75.7593 8.57143 74.9535C8.89488 74.1478 9.86523 73.6644 10.6739 73.9867C11.4825 74.309 11.9677 75.2758 11.6442 76.0816C11.3208 76.7262 10.8356 77.0484 10.1887 77.0484C9.86523 77.0484 9.7035 77.0484 9.54178 77.0484ZM223.827 66.0905C223.504 65.2848 223.666 64.3179 224.474 63.9956C225.283 63.6733 226.253 63.8345 226.577 64.6402C226.9 65.4459 226.739 66.4128 225.93 66.8963C225.606 67.0574 225.445 67.0574 225.121 67.0574C224.636 67.0574 224.151 66.7351 223.827 66.0905ZM14.0701 66.7351C13.2615 66.2517 12.938 65.2848 13.4232 64.4791C13.9084 63.6733 14.8787 63.351 15.5256 63.8345C16.3342 64.3179 16.6577 65.2848 16.1725 66.0905C15.8491 66.574 15.3639 66.8963 14.717 66.8963C14.5553 66.8963 14.2318 66.8963 14.0701 66.7351ZM218.167 56.5829C217.682 55.7772 217.844 54.8103 218.652 54.3269C219.461 53.8434 220.431 54.0046 220.916 54.8103C221.402 55.616 221.24 56.5829 220.431 57.0664C220.108 57.2275 219.784 57.2275 219.623 57.2275C218.976 57.2275 218.491 57.0664 218.167 56.5829ZM19.5687 56.9052C18.7601 56.4218 18.5984 55.4549 19.0836 54.6492C19.5687 53.8434 20.5391 53.6823 21.3477 54.1657C22.1563 54.6492 22.3181 55.616 21.8329 56.4218C21.5094 56.9052 21.0243 57.2275 20.5391 57.2275C20.2156 57.2275 19.8922 57.0664 19.5687 56.9052ZM211.698 47.5588C211.213 46.9142 211.213 45.7862 212.022 45.3027C212.668 44.8193 213.801 44.8193 214.286 45.625C214.771 46.2696 214.771 47.3976 213.962 47.8811C213.639 48.0422 213.315 48.2033 212.992 48.2033C212.507 48.2033 212.022 47.8811 211.698 47.5588ZM26.0377 47.7199C25.3908 47.0753 25.2291 46.1084 25.7143 45.4639C26.1995 44.8193 27.3315 44.6581 27.9784 45.1416C28.6253 45.625 28.7871 46.753 28.3019 47.3976C27.9784 47.7199 27.4933 48.0422 27.0081 48.0422C26.6846 48.0422 26.3612 47.8811 26.0377 47.7199ZM204.42 39.1792C203.774 38.5346 203.774 37.5677 204.42 36.9231C205.067 36.2785 206.038 36.2785 206.685 36.9231C207.332 37.5677 207.332 38.5346 206.685 39.1792C206.361 39.5015 206.038 39.6626 205.553 39.6626C205.229 39.6626 204.744 39.5015 204.42 39.1792ZM33.3154 39.1792C32.6685 38.5346 32.6685 37.5677 33.3154 36.9231C33.9623 36.2785 34.9326 36.2785 35.5795 36.9231C36.2264 37.5677 36.2264 38.5346 35.5795 39.1792C35.2561 39.5015 34.7709 39.6626 34.4474 39.6626C33.9623 39.6626 33.6388 39.5015 33.3154 39.1792ZM196.496 31.6053C195.849 30.9607 195.687 29.9939 196.334 29.3493C196.981 28.7047 197.951 28.5436 198.598 29.1881C199.245 29.8327 199.407 30.7996 198.76 31.4442C198.437 31.7665 197.951 31.9276 197.466 31.9276C197.143 31.9276 196.819 31.7665 196.496 31.6053ZM41.4016 31.283C40.7547 30.6384 40.9164 29.6716 41.5633 29.027C42.2102 28.3824 43.1806 28.5436 43.8275 29.1881C44.4744 29.8327 44.3127 30.7996 43.6658 31.4442C43.3423 31.7665 43.0189 31.7665 42.5337 31.7665C42.0485 31.9276 41.7251 31.6053 41.4016 31.283ZM187.763 24.6761C186.954 24.1926 186.792 23.0646 187.439 22.42C187.925 21.6143 188.895 21.4531 189.704 22.0977C190.512 22.5812 190.512 23.548 190.027 24.3538C189.704 24.8372 189.218 24.9983 188.733 24.9983C188.41 24.9983 187.925 24.8372 187.763 24.6761ZM50.1348 24.1926C49.6496 23.548 49.8113 22.42 50.4582 21.9366C51.2668 21.4531 52.2372 21.6143 52.7224 22.2589C53.2075 22.9034 53.0458 24.0315 52.3989 24.5149C52.0755 24.6761 51.752 24.8372 51.4286 24.8372C50.9434 24.9983 50.4582 24.6761 50.1348 24.1926ZM178.383 18.7137C177.574 18.2302 177.412 17.2633 177.736 16.4576C178.221 15.6519 179.191 15.4907 180 15.813C180.809 16.2965 180.97 17.2633 180.647 18.0691C180.323 18.5525 179.838 18.8748 179.191 18.8748C178.868 18.8748 178.706 18.8748 178.383 18.7137ZM59.5148 18.0691C59.0296 17.2633 59.3531 16.2965 60.1617 15.813C60.9704 15.3296 61.9407 15.6519 62.4259 16.4576C62.911 17.2633 62.5876 18.2302 61.779 18.7137C61.4555 18.8748 61.2938 18.8748 60.9704 18.8748C60.3235 18.8748 59.8383 18.5525 59.5148 18.0691ZM168.518 13.557C167.709 13.2347 167.385 12.2678 167.709 11.4621C168.032 10.6564 169.003 10.3341 169.811 10.6564C170.62 10.9787 170.943 11.9455 170.62 12.7513C170.296 13.3958 169.811 13.7181 169.164 13.7181C169.003 13.7181 168.679 13.7181 168.518 13.557ZM69.3801 12.7513C69.0566 11.9455 69.3801 10.9787 70.1887 10.6564C70.9973 10.3341 71.9677 10.6564 72.2911 11.4621C72.6146 12.2678 72.2911 13.2347 71.4825 13.557C71.3208 13.7181 70.9973 13.7181 70.8356 13.7181C70.3504 13.7181 69.7035 13.3958 69.3801 12.7513ZM158.167 9.52834C157.358 9.20605 156.873 8.23918 157.197 7.43345C157.52 6.62772 158.491 6.14428 159.299 6.46657C160.108 6.78887 160.593 7.75574 160.27 8.56147C160.108 9.20605 159.461 9.68949 158.814 9.68949C158.652 9.52834 158.329 9.52834 158.167 9.52834ZM79.8922 8.40032C79.5687 7.59459 80.0539 6.62772 80.8625 6.46657C81.6712 6.14428 82.6415 6.62772 82.965 7.43345C83.2884 8.23918 82.8032 9.20605 81.9946 9.52834C81.8329 9.52834 81.6712 9.52834 81.5094 9.52834C80.7008 9.52834 80.0539 9.04491 79.8922 8.40032ZM147.493 6.30543C146.685 6.14428 146.038 5.17741 146.361 4.37168C146.523 3.56595 147.493 2.92137 148.302 3.24366C149.111 3.4048 149.757 4.37168 149.434 5.17741C149.272 5.98314 148.625 6.46657 147.817 6.46657C147.817 6.46657 147.655 6.46657 147.493 6.30543ZM90.566 5.17741C90.4043 4.37168 90.8895 3.4048 91.6981 3.24366C92.5067 3.08251 93.4771 3.56595 93.6388 4.37168C93.8005 5.17741 93.3154 6.14428 92.5067 6.30543C92.345 6.30543 92.1833 6.30543 92.1833 6.30543C91.3747 6.46657 90.7278 5.82199 90.566 5.17741ZM136.658 4.37168C135.849 4.21053 135.202 3.4048 135.364 2.59907C135.526 1.6322 136.334 1.14876 137.143 1.14876C137.951 1.30991 138.598 2.11564 138.437 2.92137C138.275 3.72709 137.628 4.37168 136.819 4.37168C136.819 4.37168 136.819 4.37168 136.658 4.37168ZM101.563 2.92137C101.402 1.95449 102.049 1.14876 102.857 1.14876C103.827 0.987616 104.636 1.6322 104.636 2.43793C104.798 3.24366 104.151 4.21053 103.342 4.21053H103.181C102.372 4.21053 101.725 3.72709 101.563 2.92137ZM125.66 3.24366C124.852 3.24366 124.043 2.43793 124.043 1.47105C124.043 0.665324 124.852 -0.140405 125.822 0.020741C126.631 0.020741 127.439 0.82647 127.278 1.6322C127.278 2.59907 126.469 3.24366 125.66 3.24366ZM112.884 1.6322C112.884 0.665324 113.531 0.020741 114.501 0.020741C115.31 0.020741 116.119 0.665324 116.119 1.47105C116.119 2.43793 115.472 3.08251 114.501 3.08251C113.531 3.24366 112.884 2.59907 112.884 1.6322Z" fill="#E3E5EA"/>
<path d="M116.765 220.306C115.957 220.306 115.148 219.501 115.148 218.695C115.148 217.889 115.957 217.083 116.765 217.083C117.574 217.083 118.383 217.889 118.383 218.695C118.544 219.662 117.736 220.306 116.765 220.306C116.927 220.306 116.765 220.306 116.765 220.306ZM126.631 218.534C126.631 217.728 127.278 216.922 128.086 216.761C128.895 216.761 129.703 217.406 129.865 218.211C129.865 219.178 129.218 219.823 128.41 219.984H128.248C127.439 219.984 126.792 219.339 126.631 218.534ZM105.283 219.339C104.474 219.178 103.827 218.373 103.989 217.567C104.151 216.761 104.959 216.117 105.768 216.117C106.577 216.278 107.224 217.083 107.062 217.889C106.9 218.695 106.253 219.339 105.445 219.339C105.445 219.339 105.445 219.339 105.283 219.339ZM137.951 217.083C137.79 216.278 138.275 215.311 139.245 215.15C140.054 214.988 141.024 215.472 141.186 216.439C141.348 217.245 140.862 218.211 139.892 218.373C139.73 218.373 139.73 218.373 139.569 218.373C138.76 218.373 138.113 217.889 137.951 217.083ZM93.9622 217.083C93.1535 216.761 92.6684 215.955 92.8301 215.15C92.9918 214.344 93.9622 213.699 94.7708 214.022C95.5794 214.183 96.0646 215.15 95.9029 215.955C95.7411 216.761 95.0943 217.083 94.2856 217.083C94.2856 217.083 94.1239 217.083 93.9622 217.083ZM148.949 214.505C148.625 213.699 149.11 212.732 150.081 212.41C150.889 212.088 151.86 212.571 152.183 213.377C152.507 214.183 152.021 215.15 151.213 215.472C151.051 215.472 150.889 215.633 150.728 215.633C149.919 215.633 149.272 215.15 148.949 214.505ZM82.9649 213.377C82.1562 213.055 81.6711 212.088 81.9945 211.282C82.318 210.476 83.2883 209.993 84.0969 210.315C84.9056 210.638 85.3907 211.604 85.0673 212.41C84.9056 213.055 84.2587 213.377 83.6118 213.377C83.4501 213.538 83.2883 213.538 82.9649 213.377ZM159.623 210.638C159.299 209.832 159.623 208.865 160.431 208.543C161.24 208.22 162.21 208.543 162.534 209.348C162.857 210.154 162.534 211.121 161.725 211.443C161.563 211.604 161.24 211.604 161.078 211.604C160.593 211.443 159.946 211.121 159.623 210.638ZM72.4527 208.543C71.6441 208.059 71.3207 207.092 71.8058 206.448C72.291 205.642 73.2614 205.32 74.07 205.803C74.8786 206.287 75.2021 207.253 74.7169 207.898C74.3934 208.381 73.9083 208.704 73.2614 208.704C73.0996 208.865 72.7762 208.704 72.4527 208.543ZM169.811 205.481C169.326 204.675 169.65 203.708 170.296 203.225C171.105 202.741 172.075 203.064 172.561 203.708C173.046 204.514 172.722 205.481 172.075 205.964C171.752 206.125 171.59 206.125 171.267 206.125C170.62 206.287 170.135 205.964 169.811 205.481ZM62.5875 202.58C61.7789 202.097 61.6172 201.13 62.1023 200.324C62.5875 199.518 63.5579 199.357 64.3665 199.841C65.1751 200.324 65.3368 201.291 64.8517 202.097C64.5282 202.58 64.043 202.741 63.5579 202.741C63.2344 202.903 62.911 202.903 62.5875 202.58ZM179.353 199.196C178.868 198.552 178.868 197.424 179.676 196.94C180.323 196.457 181.455 196.618 181.941 197.262C182.426 197.907 182.426 199.035 181.617 199.518C181.294 199.68 180.97 199.841 180.647 199.841C180.162 199.841 179.676 199.68 179.353 199.196ZM53.5309 195.651C52.884 195.006 52.7223 194.04 53.3692 193.395C54.0161 192.75 54.9864 192.589 55.6333 193.234C56.2802 193.878 56.442 194.845 55.7951 195.49C55.4716 195.812 54.9864 195.973 54.5013 195.973C54.1778 195.973 53.8544 195.812 53.5309 195.651ZM188.086 191.945C187.439 191.3 187.439 190.333 188.086 189.689C188.733 189.044 189.703 189.044 190.35 189.689C190.997 190.333 190.997 191.3 190.35 191.945C190.027 192.267 189.703 192.428 189.218 192.428C188.895 192.428 188.41 192.267 188.086 191.945ZM45.2829 187.594C44.636 186.949 44.636 185.982 45.4447 185.338C46.0916 184.693 47.0619 184.693 47.7088 185.499C48.3557 186.143 48.194 187.11 47.5471 187.755C47.2236 188.077 46.9002 188.238 46.415 188.238C45.9298 188.077 45.6064 187.916 45.2829 187.594ZM196.011 183.726C195.364 183.243 195.202 182.115 195.849 181.47C196.334 180.826 197.466 180.664 198.113 181.309C198.76 181.954 198.922 182.92 198.275 183.565C197.951 183.887 197.466 184.21 196.981 184.21C196.658 184.048 196.172 184.048 196.011 183.726ZM38.0053 178.57C37.5201 177.764 37.6819 176.797 38.3288 176.313C39.1374 175.83 40.1077 175.991 40.5929 176.636C41.0781 177.441 40.9163 178.408 40.2694 178.892C39.946 179.053 39.6225 179.214 39.2991 179.214C38.8139 179.214 38.167 179.053 38.0053 178.57ZM202.803 174.702C201.995 174.219 201.833 173.252 202.318 172.446C202.803 171.64 203.774 171.479 204.582 171.963C205.391 172.446 205.552 173.413 205.067 174.219C204.744 174.702 204.259 175.024 203.774 175.024C203.45 175.024 203.127 174.863 202.803 174.702ZM31.698 168.901C31.2128 168.095 31.5363 167.128 32.3449 166.645C33.1535 166.161 34.1239 166.484 34.6091 167.289C35.0942 168.095 34.7708 169.062 33.9622 169.545C33.6387 169.706 33.477 169.706 33.1535 169.706C32.5066 169.706 32.0215 169.384 31.698 168.901ZM208.625 165.033C207.817 164.711 207.493 163.583 207.817 162.938C208.14 162.133 209.11 161.81 209.919 162.294C210.728 162.616 211.051 163.583 210.728 164.389C210.404 164.872 209.919 165.194 209.272 165.194C209.11 165.194 208.787 165.033 208.625 165.033ZM26.5228 158.587C26.1994 157.782 26.5228 156.815 27.3314 156.493C28.1401 156.17 29.1104 156.493 29.4339 157.298C29.7573 158.104 29.4339 159.071 28.6252 159.393C28.4635 159.554 28.3018 159.554 28.1401 159.554C27.4932 159.554 26.8463 159.232 26.5228 158.587ZM213.154 154.559C212.345 154.237 211.86 153.27 212.183 152.464C212.507 151.658 213.477 151.175 214.286 151.497C215.094 151.819 215.579 152.786 215.256 153.592C215.094 154.237 214.447 154.72 213.8 154.72C213.639 154.72 213.477 154.72 213.154 154.559ZM22.8031 147.63C22.4797 146.824 22.9649 145.857 23.9352 145.696C24.7438 145.373 25.7142 145.857 25.8759 146.824C26.0376 147.63 25.5525 148.596 24.7438 148.758C24.5821 148.758 24.4204 148.758 24.2587 148.758C23.6118 148.919 22.9649 148.435 22.8031 147.63ZM216.712 143.762C215.903 143.601 215.256 142.634 215.579 141.828C215.741 141.023 216.712 140.378 217.52 140.7C218.329 140.861 218.976 141.828 218.652 142.634C218.49 143.44 217.844 143.923 217.035 143.923C216.873 143.923 216.712 143.762 216.712 143.762ZM20.2155 136.51C20.0538 135.705 20.7007 134.738 21.5093 134.577C22.318 134.416 23.2883 135.06 23.2883 135.866C23.45 136.672 22.8031 137.638 21.9945 137.8C21.9945 137.8 21.8328 137.8 21.6711 137.8C21.0242 137.8 20.2155 137.316 20.2155 136.51ZM218.814 132.643C218.005 132.482 217.358 131.676 217.358 130.87C217.52 130.065 218.329 129.42 219.137 129.42C219.946 129.581 220.593 130.387 220.593 131.193C220.431 131.998 219.784 132.643 218.976 132.643H218.814ZM18.9217 125.069C18.9217 124.263 19.5686 123.458 20.539 123.458C21.3476 123.458 22.1562 124.102 22.1562 124.908C22.1562 125.875 21.5093 126.519 20.7007 126.681C20.7007 126.681 20.7007 126.681 20.539 126.681C19.5686 126.519 18.9217 125.875 18.9217 125.069ZM219.623 121.363C218.814 121.363 218.005 120.718 218.005 119.751V119.59V119.429C218.005 118.462 218.814 117.818 219.623 117.818C220.431 117.818 221.24 118.462 221.24 119.429V119.59V119.751C221.24 120.718 220.593 121.363 219.623 121.363ZM20.3773 115.239C19.4069 115.239 18.76 114.433 18.9217 113.628C18.9217 112.661 19.7304 112.016 20.7007 112.177C21.5093 112.177 22.318 112.983 22.1562 113.95C21.9945 114.595 21.3476 115.239 20.3773 115.239C20.539 115.239 20.3773 115.239 20.3773 115.239ZM217.358 108.31C217.197 107.504 217.844 106.698 218.814 106.537C219.623 106.376 220.431 107.021 220.593 107.988C220.755 108.955 220.108 109.599 219.137 109.76H218.976C218.167 109.76 217.52 109.116 217.358 108.31ZM21.5093 103.959C20.539 103.798 20.0538 102.992 20.2155 102.186C20.3773 101.22 21.1859 100.736 22.1562 100.897C22.9649 101.058 23.6118 101.864 23.45 102.831C23.2883 103.637 22.6414 104.12 21.8328 104.12C21.6711 103.959 21.6711 103.959 21.5093 103.959ZM215.418 97.352C215.256 96.5463 215.741 95.5794 216.712 95.4183C217.52 95.2571 218.49 95.7406 218.652 96.7075C218.814 97.5132 218.329 98.4801 217.358 98.6412C217.197 98.6412 217.197 98.6412 217.035 98.6412C216.388 98.6412 215.741 97.9966 215.418 97.352ZM23.9352 92.84C23.1266 92.5177 22.6414 91.7119 22.8031 90.9062C23.1266 90.1005 23.9352 89.617 24.7438 89.7782C25.5525 90.1005 26.0376 90.9062 25.8759 91.7119C25.7142 92.3565 25.0673 92.84 24.2587 92.84C24.2587 93.0011 24.0969 92.84 23.9352 92.84ZM212.345 86.5553C212.021 85.7495 212.507 84.7827 213.315 84.4604C214.124 84.1381 215.094 84.6215 215.418 85.4272C215.741 86.233 215.256 87.1999 214.447 87.5221C214.286 87.5221 214.124 87.6833 213.962 87.6833C213.154 87.6833 212.668 87.1999 212.345 86.5553ZM27.6549 82.2043C26.8463 81.882 26.3611 80.9152 26.8463 80.1094C27.1697 79.3037 28.1401 78.8203 28.9487 79.3037C29.7573 79.626 30.0808 80.5929 29.7573 81.3986C29.4339 82.0432 28.9487 82.3655 28.3018 82.3655C27.9783 82.2043 27.8166 82.2043 27.6549 82.2043ZM207.978 76.4031C207.655 75.5974 207.978 74.6305 208.787 74.3082C209.596 73.9859 210.566 74.3082 210.889 74.9528C211.213 75.7585 210.889 76.7254 210.081 77.0477C209.919 77.2088 209.596 77.2088 209.434 77.2088C208.787 77.2088 208.302 76.8865 207.978 76.4031ZM32.5066 71.891C31.698 71.4076 31.3746 70.4407 31.8597 69.635C32.3449 68.8292 33.3153 68.6681 34.1239 68.9904C34.9325 69.4738 35.0942 70.4407 34.7708 71.2464C34.4473 71.7299 33.9622 72.0521 33.3153 72.0521C32.9918 72.0521 32.6684 72.0521 32.5066 71.891ZM202.48 66.5732C201.995 65.7675 202.156 64.8006 202.965 64.3172C203.774 63.8337 204.744 63.9949 205.229 64.8006C205.714 65.6063 205.552 66.5732 204.744 67.0566C204.42 67.2178 204.259 67.3789 203.935 67.3789C203.288 67.3789 202.803 67.0566 202.48 66.5732ZM38.4905 62.2223C37.6818 61.7388 37.6819 60.6108 38.167 59.9662C38.6522 59.1605 39.7843 59.1605 40.4312 59.6439C41.0781 60.1274 41.2398 61.2554 40.7546 61.9C40.4312 62.3834 39.946 62.5445 39.4608 62.5445C39.1374 62.5445 38.8139 62.5445 38.4905 62.2223ZM195.849 57.549C195.364 56.9044 195.364 55.7764 196.011 55.293C196.658 54.6484 197.79 54.8095 198.275 55.4541C198.76 56.0987 198.76 57.2267 198.113 57.7102C197.79 57.8713 197.466 58.0325 197.143 58.0325C196.658 58.1936 196.172 58.0325 195.849 57.549ZM45.6064 53.3592C44.9595 52.7146 44.9595 51.7478 45.4447 51.1032C46.0916 50.4586 47.0619 50.4586 47.7088 51.1032C48.3557 51.7478 48.3557 52.7146 47.8705 53.3592C47.5471 53.6815 47.0619 53.8427 46.7385 53.8427C46.2533 53.8427 45.7681 53.6815 45.6064 53.3592ZM188.41 49.3306C187.763 48.686 187.763 47.7191 188.41 47.0745C189.057 46.43 190.027 46.43 190.674 47.0745C191.321 47.7191 191.321 48.686 190.674 49.3306C190.35 49.6529 189.865 49.814 189.542 49.814C189.057 49.814 188.733 49.6529 188.41 49.3306ZM53.5309 45.3019C52.884 44.6574 53.0457 43.5293 53.6926 43.0459C54.3395 42.4013 55.3099 42.5625 55.9568 43.207C56.6037 43.8516 56.442 44.8185 55.7951 45.4631C55.4716 45.7854 55.1482 45.7854 54.663 45.7854C54.3395 45.9465 53.8544 45.7854 53.5309 45.3019ZM179.838 42.079C179.191 41.5956 179.03 40.4676 179.515 39.823C180 39.1784 181.132 39.0173 181.779 39.5007C182.426 39.9841 182.588 41.1122 182.102 41.7567C181.779 42.2402 181.294 42.4013 180.809 42.4013C180.485 42.4013 180.162 42.2402 179.838 42.079ZM62.4258 38.3727C61.9406 37.5669 62.1023 36.6001 62.911 36.1166C63.7196 35.6332 64.6899 35.7943 65.1751 36.6001C65.6603 37.4058 65.4986 38.3727 64.6899 38.8561C64.3665 39.0173 64.043 39.1784 63.7196 39.1784C63.2344 39.0173 62.7492 38.695 62.4258 38.3727ZM170.62 35.7943C169.811 35.3109 169.65 34.344 170.135 33.5383C170.62 32.7326 171.59 32.5714 172.399 33.0549C173.207 33.5383 173.369 34.5052 172.884 35.3109C172.561 35.7943 172.075 36.1166 171.428 36.1166C171.267 35.9555 170.943 35.9555 170.62 35.7943ZM72.1293 32.2491C71.6441 31.4434 71.9676 30.4765 72.7762 29.9931C73.5848 29.6708 74.5552 29.8319 74.8786 30.6377C75.3638 31.4434 75.0403 32.4103 74.2317 32.8937C73.9083 33.0549 73.7465 33.0549 73.4231 33.0549C72.9379 33.216 72.4527 32.8937 72.1293 32.2491ZM160.755 30.6377C159.946 30.3154 159.623 29.3485 159.946 28.5428C160.269 27.7371 161.24 27.4148 162.048 27.7371C162.857 28.0593 163.181 29.0262 162.857 29.8319C162.534 30.4765 162.048 30.7988 161.402 30.7988C161.24 30.6377 160.916 30.6377 160.755 30.6377ZM82.4797 27.4148C82.1562 26.609 82.4797 25.6422 83.45 25.3199C84.2587 24.9976 85.229 25.481 85.5525 26.2867C85.8759 27.0925 85.3907 28.0593 84.5821 28.3816C84.4204 28.5428 84.2587 28.5428 83.9352 28.5428C83.2883 28.3816 82.6414 28.0593 82.4797 27.4148ZM150.404 26.4479C149.596 26.1256 149.11 25.3199 149.434 24.353C149.757 23.5473 150.566 23.0638 151.536 23.3861C152.345 23.7084 152.83 24.5141 152.507 25.481C152.345 26.1256 151.698 26.609 150.889 26.609C150.728 26.609 150.566 26.609 150.404 26.4479ZM93.1535 23.7084C92.8301 22.9027 93.477 21.9358 94.2856 21.7747C95.0943 21.6135 96.0646 22.0969 96.2263 22.9027C96.3881 23.7084 95.9029 24.6753 95.0943 24.8364C94.9325 24.8364 94.7708 24.8364 94.6091 24.8364C93.9622 24.9976 93.3153 24.5141 93.1535 23.7084ZM139.569 23.7084C138.76 23.5473 138.113 22.7415 138.275 21.7747C138.437 20.9689 139.245 20.3243 140.216 20.4855C141.024 20.6466 141.671 21.4524 141.509 22.4192C141.348 23.225 140.701 23.7084 139.892 23.7084C139.73 23.7084 139.569 23.7084 139.569 23.7084ZM104.313 21.2912C104.151 20.4855 104.798 19.5186 105.606 19.5186C106.415 19.3575 107.224 20.0021 107.385 20.8078C107.547 21.6135 106.9 22.5804 106.092 22.5804H105.93C105.121 22.7415 104.474 22.0969 104.313 21.2912ZM128.41 22.0969C127.601 22.0969 126.792 21.2912 126.954 20.3243C126.954 19.3575 127.763 18.7129 128.733 18.874C129.542 18.874 130.35 19.6798 130.189 20.6466C130.189 21.4524 129.38 22.0969 128.41 22.0969C128.571 22.0969 128.571 22.0969 128.41 22.0969ZM115.633 20.1632C115.633 19.1963 116.28 18.5517 117.251 18.5517C118.059 18.5517 118.868 19.1963 118.868 20.1632C118.868 21.1301 118.221 21.7747 117.251 21.7747C116.28 21.7747 115.633 21.1301 115.633 20.1632Z" fill="#E3E5EA"/>
<path d="M120.97 200.163C120.97 199.357 121.617 198.552 122.588 198.552C123.558 198.552 124.205 199.196 124.205 200.163C124.205 200.969 123.558 201.775 122.588 201.775C121.617 201.613 120.97 200.969 120.97 200.163ZM111.105 201.291C110.297 201.13 109.488 200.324 109.65 199.518C109.811 198.552 110.458 197.907 111.429 198.068C112.237 198.229 113.046 198.874 112.884 199.841C112.722 200.646 112.076 201.291 111.267 201.291H111.105ZM132.129 199.196C131.968 198.39 132.615 197.424 133.423 197.262C134.232 197.101 135.202 197.746 135.364 198.552C135.526 199.518 134.879 200.324 134.07 200.485C134.07 200.485 133.908 200.485 133.747 200.485C132.938 200.485 132.291 200.002 132.129 199.196ZM99.7844 199.196C98.9758 199.035 98.3289 198.068 98.6523 197.262C98.8141 196.457 99.7844 195.812 100.593 196.134C101.402 196.296 102.049 197.262 101.725 198.068C101.563 198.713 100.916 199.357 100.108 199.357C100.108 199.357 99.9461 199.357 99.7844 199.196ZM143.288 196.779C142.965 195.973 143.45 195.006 144.259 194.684C145.067 194.362 146.038 194.845 146.361 195.651C146.685 196.457 146.2 197.424 145.391 197.585C145.229 197.585 145.067 197.746 144.906 197.746C144.097 197.907 143.45 197.424 143.288 196.779ZM88.7871 195.651C87.9785 195.329 87.4933 194.362 87.9785 193.556C88.3019 192.75 89.2723 192.267 90.0809 192.75C90.8895 193.073 91.3747 194.04 91.0513 194.845C90.7278 195.49 90.2426 195.812 89.5957 195.812C89.2723 195.812 88.9488 195.812 88.7871 195.651ZM153.801 192.75C153.477 191.945 153.801 190.978 154.609 190.655C155.418 190.333 156.388 190.655 156.712 191.461C157.035 192.267 156.712 193.234 155.903 193.556C155.741 193.717 155.418 193.717 155.256 193.717C154.609 193.717 154.124 193.395 153.801 192.75ZM78.4367 190.655C77.6281 190.172 77.4664 189.205 77.7898 188.399C78.275 187.594 79.2453 187.433 80.054 187.755C80.8626 188.238 81.0243 189.205 80.7009 190.011C80.3774 190.494 79.8922 190.817 79.2453 190.817C79.0836 190.817 78.7602 190.817 78.4367 190.655ZM163.666 187.433C163.181 186.627 163.342 185.66 164.151 185.177C164.96 184.693 165.93 184.854 166.415 185.66C166.9 186.466 166.739 187.433 165.93 187.916C165.607 188.077 165.283 188.238 165.121 188.238C164.474 188.077 163.989 187.916 163.666 187.433ZM69.0567 184.21C68.4098 183.726 68.248 182.598 68.7332 181.954C69.2184 181.309 70.3505 181.148 70.9974 181.631C71.6443 182.276 71.806 183.243 71.3208 183.887C70.9973 184.21 70.5122 184.532 70.027 184.532C69.7035 184.532 69.2184 184.371 69.0567 184.21ZM172.722 180.664C172.076 180.02 172.237 179.053 172.884 178.408C173.531 177.764 174.501 177.925 175.148 178.57C175.795 179.214 175.633 180.181 174.987 180.826C174.663 181.148 174.34 181.148 173.855 181.148C173.531 181.148 173.046 180.987 172.722 180.664ZM60.4852 176.475C59.8383 175.83 59.8383 174.863 60.4852 174.219C61.1321 173.574 62.1025 173.574 62.7494 174.219C63.3963 174.863 63.3963 175.83 62.7494 176.475C62.4259 176.797 62.1025 176.958 61.6173 176.958C61.1321 176.958 60.8087 176.797 60.4852 176.475ZM180.809 172.768C180.162 172.124 180 171.157 180.647 170.512C181.294 169.868 182.264 169.706 182.911 170.351C183.558 170.835 183.72 171.963 183.073 172.607C182.749 172.929 182.264 173.252 181.779 173.252C181.456 173.091 181.132 172.929 180.809 172.768ZM53.0459 167.612C52.5607 166.806 52.7224 165.839 53.3693 165.356C54.1779 164.872 55.1483 165.033 55.6335 165.678C56.1186 166.484 55.9569 167.45 55.31 167.934C54.9866 168.095 54.6631 168.256 54.3397 168.256C53.8545 168.256 53.3693 168.095 53.0459 167.612ZM187.601 163.744C186.793 163.261 186.631 162.294 187.116 161.488C187.601 160.682 188.571 160.521 189.38 161.005C190.189 161.488 190.35 162.455 189.865 163.261C189.542 163.744 189.057 164.066 188.571 164.066C188.248 164.066 187.925 163.905 187.601 163.744ZM46.9003 157.943C46.4151 157.137 46.7386 156.17 47.5472 155.848C48.3558 155.365 49.3262 155.687 49.8114 156.493C50.2965 157.298 49.9731 158.265 49.1645 158.587C48.841 158.749 48.6793 158.749 48.3558 158.749C47.8707 158.749 47.2238 158.426 46.9003 157.943ZM193.262 154.075C192.453 153.753 192.129 152.786 192.453 151.98C192.776 151.175 193.747 150.852 194.555 151.175C195.364 151.497 195.687 152.464 195.364 153.27C195.04 153.914 194.555 154.237 193.908 154.237C193.585 154.075 193.423 154.075 193.262 154.075ZM42.372 147.468C42.0486 146.663 42.5337 145.696 43.3424 145.373C44.151 145.051 45.1213 145.535 45.4448 146.34C45.7682 147.146 45.2831 148.113 44.4744 148.435C44.3127 148.435 44.151 148.596 43.9893 148.596C43.1806 148.435 42.5337 148.113 42.372 147.468ZM197.305 143.601C196.496 143.44 196.011 142.473 196.173 141.667C196.334 140.861 197.305 140.378 198.113 140.539C198.922 140.861 199.407 141.667 199.245 142.473C199.084 143.117 198.437 143.601 197.628 143.601C197.628 143.601 197.466 143.601 197.305 143.601ZM39.1375 136.349C38.9758 135.544 39.461 134.577 40.4313 134.416C41.2399 134.254 42.2103 134.738 42.372 135.705C42.5337 136.51 42.0486 137.477 41.0782 137.638C40.9165 137.638 40.9165 137.638 40.7548 137.638C39.9461 137.638 39.2992 137.155 39.1375 136.349ZM199.892 132.643C199.084 132.482 198.437 131.676 198.437 130.87C198.598 130.065 199.407 129.42 200.216 129.581C201.024 129.742 201.671 130.548 201.509 131.354C201.348 132.16 200.701 132.804 199.892 132.804C200.054 132.643 200.054 132.643 199.892 132.643ZM37.5203 125.069C37.5203 124.102 38.1672 123.458 38.9758 123.297C39.9461 123.297 40.593 123.941 40.7548 124.747C40.7548 125.553 40.1079 126.358 39.2992 126.519H39.1375C38.3289 126.519 37.682 125.875 37.5203 125.069ZM200.863 121.363C200.054 121.363 199.245 120.557 199.245 119.751V119.59V119.429C199.245 118.462 200.054 117.818 200.863 117.818C201.833 117.818 202.48 118.462 202.48 119.429V119.59V119.751C202.48 120.718 201.833 121.363 200.863 121.363ZM39.1375 115.239C38.1672 115.239 37.5203 114.433 37.682 113.467C37.682 112.661 38.4906 111.855 39.461 112.016C40.2696 112.016 41.0782 112.822 40.9165 113.789C40.7548 114.595 40.1079 115.239 39.1375 115.239ZM198.598 108.471C198.437 107.665 199.084 106.698 199.892 106.698C200.863 106.537 201.671 107.182 201.671 108.149C201.833 108.955 201.186 109.76 200.216 109.921H200.054C199.407 109.76 198.76 109.277 198.598 108.471ZM40.4313 104.12C39.6227 103.959 38.9758 103.153 39.1375 102.186C39.2992 101.381 40.1079 100.736 41.0782 100.897C41.8868 101.058 42.5337 101.864 42.372 102.831C42.2103 103.637 41.5634 104.12 40.7548 104.12C40.7548 104.12 40.593 104.12 40.4313 104.12ZM196.334 97.6743C196.011 96.8686 196.658 95.9017 197.466 95.7406C198.275 95.4183 199.245 95.9017 199.407 96.8686C199.731 97.6743 199.084 98.6412 198.275 98.8023C198.113 98.8023 197.952 98.8023 197.79 98.8023C197.143 98.8023 196.496 98.3189 196.334 97.6743ZM43.3424 93.1622C42.5337 92.8399 42.0486 91.8731 42.372 91.0673C42.6955 90.2616 43.6658 89.7782 44.4744 90.1005C45.2831 90.4228 45.7682 91.3896 45.4448 92.1954C45.1213 92.84 44.6362 93.3234 43.9893 93.3234C43.6658 93.3234 43.5041 93.3234 43.3424 93.1622ZM192.453 87.361C192.129 86.5553 192.453 85.5884 193.262 85.2661C194.07 84.9438 195.04 85.2661 195.364 86.0718C195.687 86.8776 195.364 87.8444 194.555 88.1667C194.394 88.3279 194.07 88.3279 193.908 88.3279C193.423 88.1667 192.776 87.8444 192.453 87.361ZM47.7089 82.8489C46.9003 82.3655 46.5769 81.3986 47.062 80.5929C47.5472 79.7871 48.5176 79.4648 49.3262 79.9483C50.1348 80.4317 50.4583 81.3986 49.9731 82.0432C49.6496 82.5266 49.1645 82.8489 48.5176 82.8489C48.3558 83.0101 48.0324 83.0101 47.7089 82.8489ZM187.278 77.5311C186.793 76.7254 186.954 75.7585 187.763 75.2751C188.571 74.7916 189.542 75.1139 190.027 75.7585C190.512 76.5642 190.189 77.5311 189.542 78.0145C189.218 78.1757 189.057 78.1757 188.733 78.1757C188.086 78.3368 187.601 78.0145 187.278 77.5311ZM53.531 73.1802C52.8841 72.6967 52.7224 71.5687 53.2076 70.9241C53.6928 70.2795 54.8248 70.1184 55.4717 70.6018C56.2804 71.0853 56.2804 72.0521 55.7952 72.8579C55.4717 73.3413 54.9866 73.5024 54.5014 73.5024C54.1779 73.5024 53.8545 73.5025 53.531 73.1802ZM180.809 68.6681C180.162 68.0235 180.323 66.8955 180.97 66.412C181.617 65.7675 182.588 65.9286 183.235 66.5732C183.72 67.2178 183.72 68.1846 183.073 68.8292C182.749 69.1515 182.426 69.1515 182.102 69.1515C181.617 69.1515 181.132 68.9904 180.809 68.6681ZM60.6469 64.4783C60 63.8337 60 62.8668 60.6469 62.2222C61.2938 61.5777 62.2642 61.5777 62.9111 62.2222C63.558 62.8668 63.558 63.8337 62.9111 64.4783C62.5877 64.8006 62.1025 64.9617 61.779 64.9617C61.4556 64.9617 60.9704 64.8006 60.6469 64.4783ZM173.046 60.7719C172.399 60.1274 172.399 59.1605 172.884 58.5159C173.531 57.8713 174.501 57.8713 175.148 58.3547C175.795 58.9993 175.795 59.9662 175.31 60.6108C174.987 60.9331 174.501 61.0942 174.178 61.0942C173.854 61.0942 173.369 60.9331 173.046 60.7719ZM68.8949 56.7433C68.4097 56.0987 68.4097 54.9707 69.2184 54.4872C69.8653 54.0038 70.9974 54.0038 71.4825 54.8095C71.9677 55.4541 71.9677 56.5821 71.1591 57.0656C70.8356 57.2267 70.5122 57.3879 70.1887 57.3879C69.7036 57.3879 69.2184 57.2267 68.8949 56.7433ZM164.474 53.8427C163.666 53.3592 163.504 52.3924 163.989 51.5866C164.474 50.7809 165.445 50.6197 166.253 51.1032C167.062 51.5866 167.224 52.5535 166.739 53.3592C166.415 53.8427 165.93 54.0038 165.445 54.0038C164.96 54.165 164.636 54.165 164.474 53.8427ZM78.1133 50.2975C77.6281 49.4917 77.9515 48.5248 78.7602 48.0414C79.5688 47.558 80.5391 47.8803 81.0243 48.686C81.5095 49.4917 81.186 50.4586 80.3774 50.942C80.054 51.1032 79.8922 51.1032 79.5688 51.1032C79.0836 51.1032 78.4367 50.7809 78.1133 50.2975ZM154.771 48.3637C153.962 48.0414 153.639 47.0745 153.962 46.2688C154.286 45.4631 155.256 45.1408 156.065 45.4631C156.873 45.7854 157.197 46.7522 156.873 47.558C156.55 48.2026 156.065 48.5249 155.418 48.5249C155.256 48.5249 155.094 48.5249 154.771 48.3637ZM88.3019 45.1408C87.9785 44.3351 88.3019 43.3682 89.2723 43.0459C90.0809 42.7236 91.0513 43.0459 91.3747 44.0128C91.6982 44.8185 91.3747 45.7854 90.5661 46.1077C90.4044 46.2688 90.2426 46.2688 89.9192 46.2688C89.1106 46.2688 88.4637 45.7854 88.3019 45.1408ZM144.582 44.1739C143.774 43.8516 143.288 43.0459 143.612 42.079C143.935 41.2733 144.744 40.7899 145.714 40.951C146.523 41.2733 147.008 42.079 146.685 43.0459C146.523 43.6905 145.876 44.1739 145.067 44.1739C144.906 44.3351 144.744 44.3351 144.582 44.1739ZM98.9758 41.4344C98.8141 40.6287 99.2992 39.6618 100.108 39.5007C100.916 39.3395 101.887 39.823 102.049 40.6287C102.21 41.4344 101.725 42.4013 100.916 42.5625C100.755 42.5625 100.593 42.5625 100.593 42.5625C99.7844 42.7236 99.1375 42.2402 98.9758 41.4344ZM133.908 41.5956C133.1 41.4344 132.453 40.6287 132.615 39.6618C132.776 38.8561 133.585 38.2115 134.555 38.3727C135.364 38.5338 136.011 39.3395 135.849 40.3064C135.687 41.1121 135.04 41.5956 134.232 41.5956C134.07 41.5956 133.908 41.5956 133.908 41.5956ZM109.973 39.3395C109.811 38.5338 110.458 37.7281 111.429 37.5669C112.237 37.4058 113.046 38.0504 113.208 39.0172C113.369 39.9841 112.722 40.6287 111.752 40.7899H111.59C110.782 40.7899 110.135 40.1453 109.973 39.3395ZM122.911 40.4676C122.102 40.4676 121.294 39.6618 121.294 38.8561C121.294 38.0504 122.102 37.2446 122.911 37.2446C123.72 37.2446 124.528 38.0504 124.528 38.8561C124.528 39.6618 123.72 40.4676 122.911 40.4676Z" fill="#E3E5EA"/>
<path d="M116.927 183.082C116.119 183.082 115.31 182.276 115.472 181.47C115.472 180.664 116.28 179.859 117.089 179.859C117.898 179.859 118.706 180.664 118.706 181.631C118.544 182.437 117.898 183.082 116.927 183.082ZM126.469 181.148C126.307 180.342 126.954 179.536 127.924 179.375C128.733 179.214 129.542 179.859 129.703 180.826C129.865 181.631 129.218 182.437 128.248 182.598H128.086C127.278 182.598 126.631 181.954 126.469 181.148ZM105.606 181.47C104.798 181.309 104.151 180.342 104.313 179.536C104.474 178.731 105.445 178.086 106.253 178.247C107.062 178.408 107.709 179.375 107.547 180.181C107.385 180.987 106.738 181.47 105.93 181.47C105.768 181.47 105.768 181.47 105.606 181.47ZM137.466 179.053C137.143 178.247 137.628 177.28 138.437 176.958C139.245 176.636 140.216 177.119 140.539 177.925C140.862 178.731 140.377 179.698 139.569 179.859C139.407 179.859 139.245 179.859 139.084 179.859C138.275 180.181 137.79 179.698 137.466 179.053ZM94.7708 177.925C93.9622 177.603 93.6388 176.636 93.9622 175.83C94.2857 175.024 95.256 174.702 96.0646 175.024C96.8733 175.347 97.1967 176.313 96.8733 177.119C96.5498 177.764 96.0646 178.086 95.4177 178.086C95.0943 178.086 94.9326 178.086 94.7708 177.925ZM147.817 175.024C147.331 174.219 147.655 173.252 148.464 172.929C149.272 172.446 150.243 172.768 150.566 173.574C151.051 174.38 150.728 175.347 149.919 175.669C149.757 175.83 149.434 175.83 149.11 175.83C148.787 175.83 148.14 175.508 147.817 175.024ZM84.5822 172.446C83.7735 171.963 83.6118 170.996 84.097 170.19C84.5822 169.384 85.5525 169.223 86.3611 169.707C87.1698 170.19 87.3315 171.157 86.8463 171.963C86.5229 172.446 86.0377 172.607 85.5525 172.607C85.2291 172.768 84.9056 172.607 84.5822 172.446ZM157.358 169.062C156.712 168.417 156.873 167.289 157.682 166.806C158.329 166.322 159.461 166.322 159.946 167.128C160.431 167.773 160.431 168.901 159.623 169.384C159.299 169.545 158.976 169.707 158.652 169.707C158.167 169.707 157.682 169.545 157.358 169.062ZM75.6873 165.356C75.0404 164.711 75.0404 163.744 75.6873 163.1C76.3342 162.455 77.3045 162.455 77.9514 163.1C78.5983 163.744 78.5983 164.711 77.9514 165.356C77.628 165.678 77.1428 165.839 76.8194 165.839C76.3342 165.839 76.0107 165.678 75.6873 165.356ZM165.606 161.649C164.96 161.005 164.798 160.038 165.445 159.393C166.092 158.749 167.062 158.587 167.709 159.232C168.356 159.877 168.517 160.843 167.871 161.488C167.547 161.81 167.062 161.972 166.577 161.972C166.415 161.972 165.93 161.972 165.606 161.649ZM68.2479 156.815C67.7628 156.009 67.9245 155.042 68.5714 154.559C69.38 154.075 70.3504 154.237 70.8355 154.881C71.3207 155.526 71.159 156.654 70.5121 157.137C70.1886 157.298 69.8652 157.459 69.5417 157.459C69.0566 157.459 68.5714 157.137 68.2479 156.815ZM172.561 152.786C171.752 152.303 171.59 151.336 172.075 150.53C172.561 149.724 173.531 149.563 174.34 150.047C175.148 150.53 175.31 151.497 174.825 152.303C174.501 152.786 174.016 153.108 173.369 153.108C173.046 153.108 172.722 152.947 172.561 152.786ZM62.2641 146.985C61.9407 146.179 62.2641 145.212 63.0727 144.89C63.8814 144.568 64.8517 144.89 65.1752 145.696C65.4986 146.502 65.1752 147.468 64.3665 147.791C64.2048 147.952 63.8814 147.952 63.7196 147.952C63.2345 147.791 62.5876 147.468 62.2641 146.985ZM177.574 142.956C176.765 142.634 176.28 141.667 176.604 140.861C176.927 140.056 177.898 139.572 178.706 139.895C179.515 140.217 180 141.184 179.677 141.989C179.515 142.634 178.868 143.117 178.221 143.117C178.059 143.117 177.898 143.117 177.574 142.956ZM58.3827 136.188C58.0592 135.382 58.7061 134.416 59.5148 134.254C60.3234 134.093 61.2938 134.577 61.4555 135.382C61.6172 136.188 61.132 137.155 60.3234 137.316C60.1617 137.316 60 137.316 59.8382 137.316C59.1913 137.477 58.5444 136.994 58.3827 136.188ZM180.97 132.321C180.162 132.16 179.515 131.354 179.677 130.387C179.838 129.581 180.647 128.937 181.617 129.098C182.426 129.259 183.073 130.065 182.911 131.032C182.749 131.837 182.102 132.321 181.294 132.321C181.132 132.321 180.97 132.321 180.97 132.321ZM56.2803 125.069C56.2803 124.102 56.9272 123.458 57.7358 123.297C58.5444 123.297 59.353 123.941 59.5148 124.747C59.5148 125.553 58.8679 126.358 58.0593 126.519H57.8975C57.0889 126.519 56.442 125.875 56.2803 125.069ZM182.264 121.363C181.294 121.363 180.647 120.718 180.647 119.751C180.647 119.751 180.647 119.751 180.647 119.59V119.429C180.647 118.462 181.455 117.818 182.264 117.818C183.073 117.818 183.881 118.462 183.881 119.429V119.59V119.751C183.881 120.557 183.073 121.363 182.264 121.363ZM57.8975 115.4C57.0889 115.4 56.2803 114.595 56.442 113.628C56.442 112.822 57.2506 112.016 58.221 112.177C59.0296 112.177 59.8382 112.983 59.6765 113.95C59.5148 114.756 58.8679 115.4 57.8975 115.4ZM179.677 108.632C179.515 107.665 180.162 106.86 180.97 106.698C181.779 106.537 182.749 107.182 182.911 107.988C183.073 108.955 182.426 109.76 181.617 109.921C181.455 109.921 181.455 109.921 181.294 109.921C180.485 109.921 179.838 109.438 179.677 108.632ZM59.5148 104.442C58.7061 104.281 58.0592 103.314 58.3827 102.509C58.7061 101.703 59.5148 101.058 60.3234 101.381C61.132 101.542 61.6172 102.509 61.4555 103.314C61.2938 104.12 60.6469 104.442 59.8382 104.442C59.8382 104.442 59.6765 104.442 59.5148 104.442ZM176.765 98.1578C176.442 97.352 176.927 96.3852 177.736 96.0629C178.544 95.7406 179.515 96.224 179.838 97.0298C180.162 97.8355 179.677 98.8024 178.868 99.1246C178.706 99.1246 178.544 99.2858 178.221 99.2858C177.736 99.2858 177.089 98.8024 176.765 98.1578ZM63.2345 93.8068C62.4258 93.4845 62.1024 92.5177 62.4258 91.7119C62.7493 90.9062 63.7196 90.5839 64.5283 90.9062C65.3369 91.2285 65.6603 92.1954 65.3369 93.0011C65.0134 93.6457 64.5283 93.968 63.8814 93.968C63.7196 93.968 63.3962 93.968 63.2345 93.8068ZM172.075 88.489C171.59 87.6833 171.914 86.7164 172.561 86.233C173.369 85.7495 174.34 86.0718 174.825 86.8776C175.31 87.6833 174.986 88.6502 174.34 89.1336C174.016 89.2948 173.854 89.2948 173.531 89.2948C172.884 89.2948 172.399 88.9725 172.075 88.489ZM68.7331 84.1381C67.9245 83.6546 67.9245 82.6878 68.4097 81.882C68.8948 81.0763 69.8652 80.9152 70.6738 81.5597C71.3207 82.0432 71.4824 83.1712 70.9973 83.8158C70.6738 84.2992 70.1886 84.4604 69.7035 84.4604C69.38 84.4604 69.0566 84.4604 68.7331 84.1381ZM165.606 79.626C164.96 78.9814 165.121 78.0145 165.768 77.37C166.415 76.7254 167.385 76.8865 168.032 77.5311C168.679 78.1757 168.517 79.1426 167.871 79.7871C167.547 80.1094 167.224 80.1094 166.739 80.1094C166.415 80.2706 165.93 80.1094 165.606 79.626ZM75.849 75.5974C75.2021 74.9528 75.2021 73.9859 75.849 73.3413C76.4959 72.6967 77.4663 72.6967 78.1132 73.3413C78.7601 73.9859 78.7601 74.9528 78.1132 75.5974C77.7897 75.9197 77.3045 76.0808 76.9811 76.0808C76.6576 76.0808 76.1725 75.9197 75.849 75.5974ZM157.844 72.2133C157.197 71.7299 157.035 70.6018 157.52 69.9573C158.005 69.3127 159.137 69.1515 159.784 69.7961C160.431 70.2795 160.593 71.4076 160.108 72.0522C159.784 72.3744 159.299 72.6967 158.814 72.6967C158.491 72.5356 158.167 72.3744 157.844 72.2133ZM84.4204 68.5069C83.9353 67.7012 84.097 66.7343 84.9056 66.2509C85.7142 65.7675 86.6846 65.9286 87.1698 66.7343C87.6549 67.5401 87.4932 68.5069 86.6846 68.9904C86.3611 69.1515 86.0377 69.3127 85.876 69.3127C85.2291 69.1515 84.7439 68.9904 84.4204 68.5069ZM148.787 66.2509C147.978 65.7675 147.655 64.8006 148.14 63.9949C148.625 63.1891 149.596 62.8668 150.404 63.3503C151.213 63.8337 151.536 64.8006 151.051 65.6063C150.728 66.0898 150.243 66.412 149.596 66.412C149.272 66.412 148.949 66.412 148.787 66.2509ZM94.1239 63.028C93.8005 62.2223 94.1239 61.2554 94.9326 60.9331C95.7412 60.6108 96.7115 60.9331 97.035 61.7388C97.3584 62.5445 97.035 63.5114 96.2264 63.8337C96.0646 63.9949 95.7412 63.9949 95.5795 63.9949C94.9326 63.9949 94.2857 63.5114 94.1239 63.028ZM138.76 61.9C137.951 61.5777 137.466 60.7719 137.79 59.8051C138.113 58.9993 138.922 58.5159 139.892 58.8382C140.701 59.1605 141.186 59.9662 140.862 60.9331C140.701 61.5777 140.054 62.0611 139.245 62.0611C139.084 62.0611 138.922 62.0611 138.76 61.9ZM104.636 59.3216C104.474 58.5159 104.96 57.549 105.93 57.3879C106.738 57.2267 107.709 57.7102 107.871 58.6771C108.032 59.4828 107.547 60.4496 106.577 60.6108C106.415 60.6108 106.415 60.6108 106.253 60.6108C105.445 60.4496 104.798 59.9662 104.636 59.3216ZM128.248 59.4828C127.278 59.3216 126.792 58.5159 126.792 57.7102C126.954 56.9044 127.763 56.2599 128.571 56.2599C129.38 56.421 130.027 57.2267 129.865 58.0325C129.703 58.8382 129.057 59.4828 128.248 59.4828C128.248 59.4828 128.41 59.6439 128.248 59.4828ZM115.633 57.549C115.633 56.5822 116.28 55.9376 117.251 55.7764C118.221 55.7764 118.868 56.421 118.868 57.3879C118.868 58.3548 118.221 58.9993 117.251 58.9993C116.442 58.9993 115.633 58.3548 115.633 57.549Z" fill="#E3E5EA"/>
<path d="M118.221 162.777C118.221 161.972 119.03 161.166 119.838 161.166C120.647 161.166 121.456 161.972 121.456 162.777C121.456 163.583 120.647 164.389 119.838 164.389C119.03 164.55 118.221 163.744 118.221 162.777ZM129.542 161.81C129.38 161.005 129.865 160.038 130.674 159.877C131.483 159.715 132.453 160.199 132.615 161.005C132.938 161.81 132.291 162.777 131.483 162.938C131.321 162.938 131.159 162.938 131.159 162.938C130.35 163.1 129.704 162.616 129.542 161.81ZM108.194 162.938C107.386 162.616 106.9 161.81 107.062 161.005C107.385 160.199 108.194 159.554 109.003 159.877C109.811 160.038 110.297 161.005 110.135 161.81C109.973 162.455 109.326 162.938 108.518 162.938C108.518 162.938 108.356 162.938 108.194 162.938ZM140.216 157.943C139.731 157.137 140.054 156.17 140.863 155.687C141.671 155.203 142.642 155.526 143.127 156.331C143.612 157.137 143.288 158.104 142.48 158.587C142.156 158.749 141.995 158.749 141.671 158.749C141.024 158.749 140.539 158.426 140.216 157.943ZM97.3586 158.426C96.5499 157.943 96.3882 156.976 96.7116 156.17C97.1968 155.365 98.1672 155.203 98.9758 155.526C99.7844 156.009 99.9461 156.976 99.6227 157.782C99.2992 158.265 98.8141 158.587 98.1672 158.587C97.8437 158.587 97.5203 158.587 97.3586 158.426ZM149.596 151.336C148.949 150.691 148.949 149.724 149.596 149.08C150.243 148.435 151.213 148.435 151.86 149.08C152.507 149.724 152.507 150.691 151.86 151.336C151.536 151.658 151.213 151.819 150.728 151.819C150.243 151.819 149.919 151.658 149.596 151.336ZM87.9785 151.175C87.3316 150.53 87.3316 149.563 87.9785 148.919C88.6254 148.274 89.5957 148.274 90.2426 148.919C90.8895 149.563 90.8895 150.53 90.2426 151.175C89.9192 151.497 89.5957 151.658 89.1106 151.658C88.6254 151.658 88.3019 151.497 87.9785 151.175ZM156.873 142.634C156.065 142.151 155.903 141.184 156.226 140.378C156.712 139.572 157.682 139.411 158.491 139.733C159.299 140.217 159.461 141.184 159.138 141.989C158.814 142.473 158.329 142.795 157.682 142.795C157.359 142.956 157.035 142.795 156.873 142.634ZM80.8626 141.828C80.3774 141.023 80.7009 140.056 81.5095 139.572C82.3181 139.089 83.2885 139.411 83.7736 140.217C84.2588 141.023 83.9354 141.989 83.1267 142.473C82.8033 142.634 82.6416 142.634 82.3181 142.634C81.6712 142.634 81.0243 142.312 80.8626 141.828ZM161.563 132.321C160.755 132.16 160.108 131.193 160.431 130.387C160.593 129.581 161.563 129.098 162.372 129.259C163.181 129.581 163.666 130.387 163.504 131.193C163.342 131.998 162.695 132.321 161.887 132.321C161.887 132.482 161.725 132.482 161.563 132.321ZM76.3343 131.032C76.1726 130.226 76.6577 129.259 77.4664 129.098C78.275 128.937 79.2453 129.42 79.4071 130.226C79.5688 131.032 79.0836 131.998 78.275 132.16C78.1133 132.16 77.9515 132.16 77.9515 132.16C77.1429 132.16 76.496 131.676 76.3343 131.032ZM163.504 121.202C162.695 121.202 161.887 120.396 161.887 119.59C161.887 119.59 161.887 119.59 161.887 119.429C161.887 118.462 162.695 117.818 163.504 117.818C164.474 117.818 165.121 118.462 165.121 119.429C165.121 119.429 165.121 119.429 165.121 119.59C165.121 119.59 165.121 119.59 165.121 119.751C165.121 120.557 164.474 121.202 163.504 121.202ZM76.3343 121.04C75.3639 121.04 74.717 120.396 74.717 119.429C74.717 118.462 75.5257 117.818 76.3343 117.818C77.1429 117.818 77.9515 118.623 77.9515 119.429C77.9515 120.235 77.3046 121.04 76.3343 121.04ZM160.593 108.632C160.27 107.827 160.917 106.86 161.725 106.699C162.534 106.537 163.504 107.021 163.666 107.827C163.828 108.632 163.342 109.599 162.534 109.76C162.372 109.76 162.21 109.76 162.049 109.76C161.402 109.76 160.755 109.277 160.593 108.632ZM77.4664 109.599C76.6577 109.438 76.1726 108.471 76.3343 107.665C76.496 106.86 77.4664 106.215 78.275 106.537C79.0836 106.699 79.7305 107.665 79.4071 108.471C79.2453 109.116 78.5984 109.599 77.7898 109.599C77.7898 109.76 77.6281 109.76 77.4664 109.599ZM156.388 98.4801C155.903 97.6743 156.226 96.7075 157.035 96.224C157.844 95.7406 158.814 96.0629 159.299 96.8686C159.784 97.6743 159.461 98.6412 158.652 99.1247C158.329 99.2858 158.167 99.2858 157.844 99.2858C157.197 99.2858 156.712 99.1247 156.388 98.4801ZM81.5095 99.1247C80.7009 98.6412 80.5391 97.6743 80.8626 96.8686C81.3478 96.0629 82.3181 95.9017 83.1267 96.224C83.9354 96.7075 84.0971 97.6743 83.7736 98.4801C83.4502 98.9635 82.965 99.2858 82.3181 99.2858C81.9947 99.2858 81.6712 99.1247 81.5095 99.1247ZM149.596 89.9393C148.949 89.2948 148.949 88.3279 149.596 87.6833C150.243 87.0387 151.213 87.0387 151.86 87.6833C152.507 88.3279 152.507 89.2948 151.86 89.9393C151.536 90.2616 151.213 90.4228 150.728 90.4228C150.404 90.4228 149.919 90.2616 149.596 89.9393ZM88.1402 89.7782C87.4933 89.1336 87.4933 88.1667 88.1402 87.5222C88.7871 86.8776 89.7575 86.8776 90.4044 87.5222C91.0513 88.1667 91.0513 89.1336 90.4044 89.7782C90.0809 90.1005 89.5957 90.2616 89.2723 90.2616C88.7871 90.2616 88.4637 90.1005 88.1402 89.7782ZM141.024 83.1712C140.216 82.6878 140.054 81.7209 140.377 80.9152C140.863 80.1095 141.833 79.9483 142.642 80.2706C143.45 80.754 143.612 81.7209 143.288 82.5266C142.965 83.0101 142.48 83.3324 141.833 83.3324C141.509 83.4935 141.186 83.3324 141.024 83.1712ZM96.8734 82.5266C96.3882 81.7209 96.7116 80.754 97.5203 80.2706C98.3289 79.7872 99.2993 80.1095 99.7844 80.9152C100.27 81.7209 99.9461 82.6878 99.1375 83.1712C98.8141 83.3324 98.6523 83.3324 98.3289 83.3324C97.682 83.3324 97.1968 83.1712 96.8734 82.5266ZM130.836 78.9814C130.027 78.8203 129.38 77.8534 129.704 77.0477C129.865 76.242 130.836 75.7585 131.644 75.9197C132.453 76.0808 132.938 77.0477 132.776 77.8534C132.615 78.498 131.968 78.9814 131.159 78.9814C131.159 79.1426 130.997 79.1426 130.836 78.9814ZM107.224 77.8534C106.9 77.0477 107.547 76.0808 108.356 75.9197C109.164 75.7585 110.135 76.242 110.297 77.0477C110.458 77.8534 109.973 78.8203 109.164 78.9814C109.003 78.9814 108.841 78.9814 108.679 78.9814C108.032 79.1426 107.386 78.6591 107.224 77.8534ZM118.383 76.0808C118.383 75.1139 119.191 74.4694 120 74.4694C120.809 74.4694 121.617 75.1139 121.617 76.0808C121.617 76.8865 120.97 77.6923 120 77.6923C119.191 77.6923 118.383 76.8865 118.383 76.0808Z" fill="#E3E5EA"/>
</svg>
