<svg width="48" height="48" viewBox="0 0 48 48" fill="none" xmlns="http://www.w3.org/2000/svg">
<g clip-path="url(#clip0)">
<path d="M36 29.647C30.9319 29.647 26.8235 33.7555 26.8235 38.8235C26.8235 43.8916 30.9319 48 36 48C41.068 48 45.1764 43.8916 45.1764 38.8235C45.1764 33.7555 41.068 29.647 36 29.647ZM35.0018 42.8166L31.0086 38.8235L33.0051 36.827L35.0017 38.8235L38.9947 34.8305L40.9912 36.827L35.0018 42.8166Z" fill="#E20613"/>
<path d="M24 38.8235C24 31.9662 29.7809 26.4409 36.7058 26.8449V5C36.7058 2.23857 34.4793 0 31.7179 0C25.2962 0 14.2298 0 7.81146 0C5.05004 0 2.82349 2.23858 2.82349 5V43C2.82349 45.7614 5.06206 48 7.82349 48H28.2768C25.6634 45.7971 24 42.5011 24 38.8235ZM11.2941 28.2353H8.47055V25.4118H11.2941V28.2353ZM11.2941 22.5882H8.47055V19.7647H11.2941V22.5882ZM11.2941 16.9412H8.47055V14.1176H11.2941V16.9412ZM11.2941 11.2941H8.47055V8.47059H11.2941V11.2941ZM14.1176 8.47059H31.0588V11.2941C30.1852 11.2941 14.9908 11.2941 14.1176 11.2941C14.1176 10.3066 14.1176 9.45807 14.1176 8.47059ZM14.1176 14.1176H31.0588V16.9412C30.1852 16.9412 14.9908 16.9412 14.1176 16.9412C14.1176 15.9537 14.1176 15.1051 14.1176 14.1176ZM14.1176 19.7647H31.0588V22.5882C30.1852 22.5882 14.9908 22.5882 14.1176 22.5882C14.1176 21.6007 14.1176 20.7522 14.1176 19.7647ZM22.5882 28.2353C21.7526 28.2353 14.9443 28.2353 14.1176 28.2353C14.1176 27.2478 14.1176 26.3992 14.1176 25.4118H22.5882V28.2353Z" fill="#ACB1BF"/>
</g>
<defs>
<clipPath id="clip0">
<rect width="48" height="48" fill="white"/>
</clipPath>
</defs>
</svg>
