<svg width="48" height="48" viewBox="0 0 48 48" fill="none" xmlns="http://www.w3.org/2000/svg">
<path d="M21.5743 16.5546C21.5743 15.1804 20.4561 14.0625 19.0817 14.0625C17.7072 14.0625 16.5891 15.1804 16.5891 16.5546C16.5891 17.9288 17.7072 19.0468 19.0817 19.0468C20.4561 19.0468 21.5743 17.9288 21.5743 16.5546Z" fill="#E20613"/>
<path d="M12.0178 27.0294V26.1093C12.0178 23.6359 13.2971 21.4569 15.2278 20.195C14.3289 19.2442 13.7759 17.9632 13.7759 16.5547C13.7759 13.6297 16.156 11.2501 19.0815 11.2501C22.007 11.2501 24.3872 13.6297 24.3872 16.5547C24.3872 17.9632 23.8343 19.2443 22.9352 20.195C24.8659 21.4569 26.1453 23.6359 26.1453 26.1093V27.0295C28.3393 25.079 29.7241 22.2374 29.7241 19.0781C29.7241 13.2108 24.9498 8.43748 19.0815 8.43748C13.2132 8.43748 8.439 13.2108 8.439 19.0781C8.439 22.2373 9.82384 25.079 12.0178 27.0294Z" fill="#E20613"/>
<path d="M23.3323 26.1093C23.3323 23.7658 21.4254 21.8593 19.0815 21.8593C16.7377 21.8593 14.8308 23.7658 14.8308 26.1093V28.832C16.1335 29.4017 17.5711 29.7187 19.0815 29.7187C20.5919 29.7187 22.0296 29.4017 23.3323 28.832V26.1093Z" fill="#E20613"/>
<path d="M33.5612 39.529L39.5275 33.5638L48 42.0348L42.0337 48L33.5612 39.529Z" fill="#ACB1BF"/>
<path d="M37.5469 31.574L35.2194 29.2468C37.0828 26.3013 38.1631 22.8136 38.1631 19.0781C38.1631 8.55841 29.6031 0 19.0815 0C8.55997 0 0 8.55841 0 19.0781C0 29.5977 8.55997 38.1561 19.0815 38.1561C22.8178 38.1561 26.3061 37.076 29.2521 35.213L31.5796 37.5401L37.5469 31.574ZM19.0815 5.62498C26.5009 5.62498 32.5371 11.66 32.5371 19.0781C32.5371 26.4961 26.5009 32.5311 19.0815 32.5311C11.6621 32.5311 5.62601 26.4961 5.62601 19.0781C5.62601 11.66 11.6621 5.62498 19.0815 5.62498Z" fill="#ACB1BF"/>
</svg>
