<svg width="48" height="48" viewBox="0 0 48 48" fill="none" xmlns="http://www.w3.org/2000/svg">
<g clip-path="url(#clip0)">
<path d="M4.06189 17.0898H43.9381V21.3623H4.06189V17.0898Z" fill="#E20613"/>
<path d="M4.06189 27.8004L19.7276 38.7636V48L28.2725 45.6264V38.7636L43.9381 27.8004V24.2106H4.06189V27.8004Z" fill="#ACB1BF"/>
<path d="M30.1289 9.58026C29.478 8.9469 28.7387 8.42936 27.939 8.03344C28.5935 7.18997 28.9845 6.13239 28.9845 4.98453C28.9845 2.23601 26.7484 -7.62939e-06 24 -7.62939e-06C21.2515 -7.62939e-06 19.0155 2.23601 19.0155 4.98453C19.0155 6.13239 19.4065 7.18997 20.0609 8.03354C19.2612 8.42936 18.5221 8.9469 17.871 9.58026C16.5648 10.8511 15.7255 12.4711 15.4316 14.2415H32.5684C32.2744 12.4712 31.4351 10.8511 30.1289 9.58026Z" fill="#E20613"/>
</g>
<defs>
<clipPath id="clip0">
<rect width="48" height="48" fill="white"/>
</clipPath>
</defs>
</svg>
