<svg width="107" height="26" viewBox="0 0 107 26" fill="none" xmlns="http://www.w3.org/2000/svg">
<path d="M10.0001 3.04163C4.47724 3.04163 0 7.51886 0 13.0417C0 17.995 3.60522 22.0972 8.33225 22.8916V15.128H5.91994V12.3342H8.33225V10.2741C8.33225 7.88389 9.79213 6.58135 11.9247 6.58135C12.9461 6.58135 13.8238 6.65746 14.0786 6.69098V9.18942L12.5995 9.19013C11.44 9.19013 11.2165 9.74102 11.2165 10.5497V12.3327H13.9832L13.6223 15.1265H11.2165V22.9584C16.1642 22.3562 20 18.1495 20 13.0388C20 7.51886 15.5228 3.04163 10.0001 3.04163Z" fill="#010002"/>
<path d="M35.744 7.88V9.368H31.024V12.648H34.704V14.136H31.024V19H29.2V7.88H35.744ZM36.8264 14.552C36.8264 13.6667 37.0077 12.8827 37.3704 12.2C37.7437 11.5173 38.245 10.9893 38.8744 10.616C39.5144 10.232 40.2184 10.04 40.9864 10.04C41.6797 10.04 42.2824 10.1787 42.7944 10.456C43.317 10.7227 43.733 11.0587 44.0424 11.464V10.184H45.8824V19H44.0424V17.688C43.733 18.104 43.3117 18.4507 42.7784 18.728C42.245 19.0053 41.637 19.144 40.9544 19.144C40.197 19.144 39.5037 18.952 38.8744 18.568C38.245 18.1733 37.7437 17.6293 37.3704 16.936C37.0077 16.232 36.8264 15.4373 36.8264 14.552ZM44.0424 14.584C44.0424 13.976 43.9144 13.448 43.6584 13C43.413 12.552 43.0877 12.2107 42.6824 11.976C42.277 11.7413 41.8397 11.624 41.3704 11.624C40.901 11.624 40.4637 11.7413 40.0584 11.976C39.653 12.2 39.3224 12.536 39.0664 12.984C38.821 13.4213 38.6984 13.944 38.6984 14.552C38.6984 15.16 38.821 15.6933 39.0664 16.152C39.3224 16.6107 39.653 16.9627 40.0584 17.208C40.4744 17.4427 40.9117 17.56 41.3704 17.56C41.8397 17.56 42.277 17.4427 42.6824 17.208C43.0877 16.9733 43.413 16.632 43.6584 16.184C43.9144 15.7253 44.0424 15.192 44.0424 14.584ZM47.6701 14.584C47.6701 13.6773 47.8515 12.8827 48.2141 12.2C48.5875 11.5067 49.0995 10.9733 49.7501 10.6C50.4008 10.2267 51.1475 10.04 51.9901 10.04C53.0568 10.04 53.9368 10.296 54.6301 10.808C55.3341 11.3093 55.8088 12.0293 56.0541 12.968H54.0861C53.9261 12.5307 53.6701 12.1893 53.3181 11.944C52.9661 11.6987 52.5235 11.576 51.9901 11.576C51.2435 11.576 50.6461 11.8427 50.1981 12.376C49.7608 12.8987 49.5421 13.6347 49.5421 14.584C49.5421 15.5333 49.7608 16.2747 50.1981 16.808C50.6461 17.3413 51.2435 17.608 51.9901 17.608C53.0461 17.608 53.7448 17.144 54.0861 16.216H56.0541C55.7981 17.112 55.3181 17.8267 54.6141 18.36C53.9101 18.8827 53.0355 19.144 51.9901 19.144C51.1475 19.144 50.4008 18.9573 49.7501 18.584C49.0995 18.2 48.5875 17.6667 48.2141 16.984C47.8515 16.2907 47.6701 15.4907 47.6701 14.584ZM65.9519 14.376C65.9519 14.7067 65.9305 15.0053 65.8879 15.272H59.1519C59.2052 15.976 59.4665 16.5413 59.9359 16.968C60.4052 17.3947 60.9812 17.608 61.6639 17.608C62.6452 17.608 63.3385 17.1973 63.7439 16.376H65.7119C65.4452 17.1867 64.9599 17.8533 64.2559 18.376C63.5625 18.888 62.6985 19.144 61.6639 19.144C60.8212 19.144 60.0639 18.9573 59.3919 18.584C58.7305 18.2 58.2079 17.6667 57.8239 16.984C57.4505 16.2907 57.2639 15.4907 57.2639 14.584C57.2639 13.6773 57.4452 12.8827 57.8079 12.2C58.1812 11.5067 58.6985 10.9733 59.3599 10.6C60.0319 10.2267 60.7999 10.04 61.6639 10.04C62.4959 10.04 63.2372 10.2213 63.8879 10.584C64.5385 10.9467 65.0452 11.4587 65.4079 12.12C65.7705 12.7707 65.9519 13.5227 65.9519 14.376ZM64.0479 13.8C64.0372 13.128 63.7972 12.5893 63.3279 12.184C62.8585 11.7787 62.2772 11.576 61.5839 11.576C60.9545 11.576 60.4159 11.7787 59.9679 12.184C59.5199 12.5787 59.2532 13.1173 59.1679 13.8H64.0479ZM69.5709 11.496C69.8802 11.0693 70.3015 10.7227 70.8349 10.456C71.3789 10.1787 71.9815 10.04 72.6429 10.04C73.4215 10.04 74.1255 10.2267 74.7549 10.6C75.3842 10.9733 75.8802 11.5067 76.2429 12.2C76.6055 12.8827 76.7869 13.6667 76.7869 14.552C76.7869 15.4373 76.6055 16.232 76.2429 16.936C75.8802 17.6293 75.3789 18.1733 74.7389 18.568C74.1095 18.952 73.4109 19.144 72.6429 19.144C71.9602 19.144 71.3522 19.0107 70.8189 18.744C70.2962 18.4773 69.8802 18.136 69.5709 17.72V19H67.7469V7.16H69.5709V11.496ZM74.9309 14.552C74.9309 13.944 74.8029 13.4213 74.5469 12.984C74.3015 12.536 73.9709 12.2 73.5549 11.976C73.1495 11.7413 72.7122 11.624 72.2429 11.624C71.7842 11.624 71.3469 11.7413 70.9309 11.976C70.5255 12.2107 70.1949 12.552 69.9389 13C69.6935 13.448 69.5709 13.976 69.5709 14.584C69.5709 15.192 69.6935 15.7253 69.9389 16.184C70.1949 16.632 70.5255 16.9733 70.9309 17.208C71.3469 17.4427 71.7842 17.56 72.2429 17.56C72.7122 17.56 73.1495 17.4427 73.5549 17.208C73.9709 16.9627 74.3015 16.6107 74.5469 16.152C74.8029 15.6933 74.9309 15.16 74.9309 14.552ZM82.4146 19.144C81.5826 19.144 80.8306 18.9573 80.1586 18.584C79.4866 18.2 78.9586 17.6667 78.5746 16.984C78.1906 16.2907 77.9986 15.4907 77.9986 14.584C77.9986 13.688 78.196 12.8933 78.5906 12.2C78.9853 11.5067 79.524 10.9733 80.2066 10.6C80.8893 10.2267 81.652 10.04 82.4946 10.04C83.3373 10.04 84.1 10.2267 84.7826 10.6C85.4653 10.9733 86.004 11.5067 86.3986 12.2C86.7933 12.8933 86.9906 13.688 86.9906 14.584C86.9906 15.48 86.788 16.2747 86.3826 16.968C85.9773 17.6613 85.4226 18.2 84.7186 18.584C84.0253 18.9573 83.2573 19.144 82.4146 19.144ZM82.4146 17.56C82.884 17.56 83.3213 17.448 83.7266 17.224C84.1426 17 84.4786 16.664 84.7346 16.216C84.9906 15.768 85.1186 15.224 85.1186 14.584C85.1186 13.944 84.996 13.4053 84.7506 12.968C84.5053 12.52 84.18 12.184 83.7746 11.96C83.3693 11.736 82.932 11.624 82.4626 11.624C81.9933 11.624 81.556 11.736 81.1506 11.96C80.756 12.184 80.4413 12.52 80.2066 12.968C79.972 13.4053 79.8546 13.944 79.8546 14.584C79.8546 15.5333 80.0946 16.2693 80.5746 16.792C81.0653 17.304 81.6786 17.56 82.4146 17.56ZM92.6178 19.144C91.7858 19.144 91.0338 18.9573 90.3618 18.584C89.6898 18.2 89.1618 17.6667 88.7778 16.984C88.3938 16.2907 88.2018 15.4907 88.2018 14.584C88.2018 13.688 88.3991 12.8933 88.7938 12.2C89.1884 11.5067 89.7271 10.9733 90.4098 10.6C91.0924 10.2267 91.8551 10.04 92.6978 10.04C93.5404 10.04 94.3031 10.2267 94.9858 10.6C95.6684 10.9733 96.2071 11.5067 96.6018 12.2C96.9964 12.8933 97.1938 13.688 97.1938 14.584C97.1938 15.48 96.9911 16.2747 96.5858 16.968C96.1804 17.6613 95.6258 18.2 94.9218 18.584C94.2284 18.9573 93.4604 19.144 92.6178 19.144ZM92.6178 17.56C93.0871 17.56 93.5244 17.448 93.9298 17.224C94.3458 17 94.6818 16.664 94.9378 16.216C95.1938 15.768 95.3218 15.224 95.3218 14.584C95.3218 13.944 95.1991 13.4053 94.9538 12.968C94.7084 12.52 94.3831 12.184 93.9778 11.96C93.5724 11.736 93.1351 11.624 92.6658 11.624C92.1964 11.624 91.7591 11.736 91.3538 11.96C90.9591 12.184 90.6444 12.52 90.4098 12.968C90.1751 13.4053 90.0578 13.944 90.0578 14.584C90.0578 15.5333 90.2978 16.2693 90.7778 16.792C91.2684 17.304 91.8818 17.56 92.6178 17.56ZM102.485 14.6L106.549 19H104.085L100.821 15.208V19H98.9969V7.16H100.821V14.04L104.021 10.184H106.549L102.485 14.6Z" fill="black"/>
</svg>


