<svg width="96" height="26" viewBox="0 0 96 26" fill="none" xmlns="http://www.w3.org/2000/svg">
<g clip-path="url(#clip0)">
<path d="M20.4133 2.00012H1.58665C0.710327 2.00012 0 2.71045 0 3.58678V22.4135C0 23.2898 0.710327 24.0001 1.58665 24.0001H20.4133C21.2897 24.0001 22 23.2898 22 22.4135V3.58678C22 2.71045 21.2897 2.00012 20.4133 2.00012V2.00012ZM7.80353 18.629H5.12453V10.5692H7.80353V18.629ZM6.46411 9.46863H6.44666C5.54767 9.46863 4.96625 8.84978 4.96625 8.07634C4.96625 7.28545 5.56546 6.68372 6.4819 6.68372C7.39835 6.68372 7.96231 7.28545 7.97977 8.07634C7.97977 8.84978 7.39835 9.46863 6.46411 9.46863ZM17.4634 18.629H14.7848V14.3172C14.7848 13.2336 14.3969 12.4946 13.4276 12.4946C12.6875 12.4946 12.2468 12.9931 12.0531 13.4743C11.9822 13.6465 11.965 13.8872 11.965 14.1281V18.629H9.28612C9.28612 18.629 9.3212 11.3253 9.28612 10.5692H11.965V11.7104C12.321 11.1612 12.9579 10.38 14.3793 10.38C16.1418 10.38 17.4634 11.532 17.4634 14.0075V18.629Z" fill="black"/>
</g>
<path d="M32.928 17.5761H36.832V19.0001H31.104V7.70412H32.928V17.5761ZM38.0043 7.62412C38.0043 7.31479 38.1109 7.05879 38.3243 6.85612C38.5376 6.65345 38.8203 6.55212 39.1723 6.55212C39.5243 6.55212 39.8069 6.65345 40.0203 6.85612C40.2443 7.05879 40.3563 7.31479 40.3563 7.62412C40.3563 7.93345 40.2443 8.18412 40.0203 8.37612C39.8069 8.56812 39.5243 8.66412 39.1723 8.66412C38.8203 8.66412 38.5376 8.56812 38.3243 8.37612C38.1109 8.18412 38.0043 7.93345 38.0043 7.62412ZM40.0843 10.1841V19.0001H38.2603V10.1841H40.0843ZM47.2195 10.0401C48.2435 10.0401 49.0648 10.3708 49.6835 11.0321C50.3022 11.6935 50.6115 12.6375 50.6115 13.8641V19.0001H48.7875V14.0561C48.7875 13.2668 48.5848 12.6588 48.1795 12.2321C47.7742 11.7948 47.2195 11.5761 46.5155 11.5761C45.7902 11.5761 45.2088 11.8108 44.7715 12.2801C44.3342 12.7388 44.1155 13.4161 44.1155 14.3121V19.0001H42.2915V10.1841H44.1155V12.1201C44.3502 11.4588 44.7448 10.9468 45.2995 10.5841C45.8542 10.2215 46.4942 10.0401 47.2195 10.0401ZM57.7366 19.0001L54.5686 15.0801V19.0001H52.7446V7.16012H54.5686V13.9441L57.7046 10.1841H59.8966L56.0566 14.5681L59.9926 19.0001H57.7366ZM69.3741 14.1681C69.3741 14.4668 69.3528 14.7281 69.3101 14.9521H62.5261C62.5581 15.8588 62.8088 16.5308 63.2781 16.9681C63.7475 17.4055 64.3288 17.6241 65.0221 17.6241C65.6301 17.6241 66.1421 17.4695 66.5581 17.1601C66.9848 16.8508 67.2461 16.4401 67.3421 15.9281H69.2941C69.1768 16.5468 68.9315 17.0961 68.5581 17.5761C68.1848 18.0561 67.6995 18.4348 67.1021 18.7121C66.5048 18.9788 65.8381 19.1121 65.1021 19.1121C64.2488 19.1121 63.4915 18.9308 62.8301 18.5681C62.1795 18.2055 61.6675 17.6828 61.2941 17.0001C60.9208 16.3175 60.7341 15.5121 60.7341 14.5841C60.7341 13.6668 60.9208 12.8668 61.2941 12.1841C61.6675 11.5015 62.1795 10.9788 62.8301 10.6161C63.4915 10.2535 64.2488 10.0721 65.1021 10.0721C65.9661 10.0721 66.7181 10.2535 67.3581 10.6161C68.0088 10.9681 68.5048 11.4588 68.8461 12.0881C69.1981 12.7068 69.3741 13.4001 69.3741 14.1681ZM67.5341 14.1201C67.5555 13.5441 67.4541 13.0641 67.2301 12.6801C67.0168 12.2855 66.7181 11.9975 66.3341 11.8161C65.9608 11.6241 65.5501 11.5281 65.1021 11.5281C64.3875 11.5281 63.7901 11.7468 63.3101 12.1841C62.8301 12.6215 62.5688 13.2668 62.5261 14.1201H67.5341ZM74.6713 10.0721C75.4713 10.0721 76.1539 10.2695 76.7193 10.6641C77.2846 11.0588 77.6793 11.5815 77.9033 12.2321V7.16012H79.7433V19.0001H77.9033V16.9521C77.6793 17.6028 77.2846 18.1255 76.7193 18.5201C76.1539 18.9148 75.4713 19.1121 74.6713 19.1121C73.9033 19.1121 73.2153 18.9308 72.6073 18.5681C72.0099 18.2055 71.5406 17.6828 71.1993 17.0001C70.8579 16.3175 70.6873 15.5121 70.6873 14.5841C70.6873 13.6668 70.8579 12.8668 71.1993 12.1841C71.5406 11.5015 72.0099 10.9788 72.6073 10.6161C73.2153 10.2535 73.9033 10.0721 74.6713 10.0721ZM75.2313 11.6721C74.4206 11.6721 73.7699 11.9335 73.2793 12.4561C72.7993 12.9681 72.5593 13.6775 72.5593 14.5841C72.5593 15.4908 72.7993 16.2055 73.2793 16.7281C73.7699 17.2401 74.4206 17.4961 75.2313 17.4961C75.7433 17.4961 76.2019 17.3788 76.6073 17.1441C77.0126 16.8988 77.3326 16.5575 77.5673 16.1201C77.8019 15.6828 77.9193 15.1708 77.9193 14.5841C77.9193 14.0081 77.8019 13.5015 77.5673 13.0641C77.3326 12.6161 77.0126 12.2748 76.6073 12.0401C76.2019 11.7948 75.7433 11.6721 75.2313 11.6721ZM83.7561 7.70412V19.0001H81.9321V7.70412H83.7561ZM90.8914 10.0401C91.9154 10.0401 92.7367 10.3708 93.3554 11.0321C93.974 11.6935 94.2834 12.6375 94.2834 13.8641V19.0001H92.4594V14.0561C92.4594 13.2668 92.2567 12.6588 91.8514 12.2321C91.446 11.7948 90.8914 11.5761 90.1874 11.5761C89.462 11.5761 88.8807 11.8108 88.4434 12.2801C88.006 12.7388 87.7874 13.4161 87.7874 14.3121V19.0001H85.9634V10.1841H87.7874V12.1201C88.022 11.4588 88.4167 10.9468 88.9714 10.5841C89.526 10.2215 90.166 10.0401 90.8914 10.0401Z" fill="black"/>
<defs>
<clipPath id="clip0">
<rect width="22" height="22" fill="white" transform="translate(0 2.00012)"/>
</clipPath>
</defs>
</svg>

