<svg width="85" height="26" viewBox="0 0 85 26" fill="none" xmlns="http://www.w3.org/2000/svg">
<path d="M22 4.01021C21.0424 4.68781 19.9821 5.20606 18.86 5.54501C18.2577 4.85035 17.4573 4.35799 16.567 4.13452C15.6767 3.91106 14.7395 3.96727 13.8821 4.29556C13.0247 4.62384 12.2884 5.20836 11.773 5.97006C11.2575 6.73176 10.9877 7.63388 11 8.55443V9.55757C9.24263 9.60328 7.50127 9.2123 5.93101 8.41945C4.36074 7.6266 3.01032 6.4565 2 5.01335C2 5.01335 -2 14.0416 7 18.0542C4.94053 19.4565 2.48716 20.1597 0 20.0604C9 25.0761 20 20.0604 20 8.52433C19.9991 8.24491 19.9723 7.96618 19.92 7.69173C20.9406 6.68206 21.6608 5.40729 22 4.01021Z" fill="black"/>
<path d="M38.368 7.70412V9.17612H35.216V19.0001H33.376V9.17612H30.24V7.70412H38.368ZM52.081 10.1841L49.633 19.0001H47.617L45.441 12.1841L43.233 19.0001H41.233L38.785 10.1841H40.625L42.305 17.3201L44.513 10.1841H46.433L48.673 17.3201L50.353 10.1841H52.081ZM53.0668 7.62412C53.0668 7.31479 53.1734 7.05879 53.3868 6.85612C53.6001 6.65345 53.8828 6.55212 54.2348 6.55212C54.5868 6.55212 54.8694 6.65345 55.0828 6.85612C55.3068 7.05879 55.4188 7.31479 55.4188 7.62412C55.4188 7.93345 55.3068 8.18412 55.0828 8.37612C54.8694 8.56812 54.5868 8.66412 54.2348 8.66412C53.8828 8.66412 53.6001 8.56812 53.3868 8.37612C53.1734 8.18412 53.0668 7.93345 53.0668 7.62412ZM55.1468 10.1841V19.0001H53.3228V10.1841H55.1468ZM61.786 17.4161V19.0001H60.666C59.7273 19.0001 59.0127 18.7761 58.522 18.3281C58.042 17.8695 57.802 17.1121 57.802 16.0561V11.7361H56.538V10.1841H57.802V7.99212H59.642V10.1841H61.77V11.7361H59.642V16.0881C59.642 16.5895 59.7327 16.9361 59.914 17.1281C60.106 17.3201 60.4367 17.4161 60.906 17.4161H61.786ZM67.9266 17.4161V19.0001H66.8066C65.868 19.0001 65.1533 18.7761 64.6626 18.3281C64.1826 17.8695 63.9426 17.1121 63.9426 16.0561V11.7361H62.6786V10.1841H63.9426V7.99212H65.7826V10.1841H67.9106V11.7361H65.7826V16.0881C65.7826 16.5895 65.8733 16.9361 66.0546 17.1281C66.2466 17.3201 66.5773 17.4161 67.0466 17.4161H67.9266ZM77.8273 14.1681C77.8273 14.4668 77.8059 14.7281 77.7633 14.9521H70.9793C71.0113 15.8588 71.2619 16.5308 71.7313 16.9681C72.2006 17.4055 72.7819 17.6241 73.4753 17.6241C74.0833 17.6241 74.5953 17.4695 75.0113 17.1601C75.4379 16.8508 75.6993 16.4401 75.7953 15.9281H77.7473C77.6299 16.5468 77.3846 17.0961 77.0113 17.5761C76.6379 18.0561 76.1526 18.4348 75.5553 18.7121C74.9579 18.9788 74.2913 19.1121 73.5553 19.1121C72.7019 19.1121 71.9446 18.9308 71.2833 18.5681C70.6326 18.2055 70.1206 17.6828 69.7473 17.0001C69.3739 16.3175 69.1873 15.5121 69.1873 14.5841C69.1873 13.6668 69.3739 12.8668 69.7473 12.1841C70.1206 11.5015 70.6326 10.9788 71.2833 10.6161C71.9446 10.2535 72.7019 10.0721 73.5553 10.0721C74.4193 10.0721 75.1713 10.2535 75.8113 10.6161C76.4619 10.9681 76.9579 11.4588 77.2993 12.0881C77.6513 12.7068 77.8273 13.4001 77.8273 14.1681ZM75.9873 14.1201C76.0086 13.5441 75.9073 13.0641 75.6833 12.6801C75.4699 12.2855 75.1713 11.9975 74.7873 11.8161C74.4139 11.6241 74.0033 11.5281 73.5553 11.5281C72.8406 11.5281 72.2433 11.7468 71.7633 12.1841C71.2833 12.6215 71.0219 13.2668 70.9793 14.1201H75.9873ZM81.4124 11.9121C81.711 11.3361 82.1377 10.8828 82.6924 10.5521C83.247 10.2108 83.887 10.0401 84.6124 10.0401V12.0241H84.0684C83.2684 12.0241 82.623 12.2215 82.1324 12.6161C81.6524 13.0001 81.4124 13.6401 81.4124 14.5361V19.0001H79.5884V10.1841H81.4124V11.9121Z" fill="black"/>
</svg>

