<svg width="199" height="48" viewBox="0 0 199 48" fill="none" xmlns="http://www.w3.org/2000/svg">
<path d="M22.5435 12.7127H25.3559V20.3411H22.5435V12.7127Z" fill="#E20613"/>
<path d="M10.4077 16.4627H13.2202V20.3411H10.4077V16.4627Z" fill="#E20613"/>
<path d="M7 0C3.13401 0 0 3.13401 0 7V21.5814C0 25.4474 3.13401 28.5814 7 28.5814H41C44.866 28.5814 48 25.4474 48 21.5814V7C48 3.13401 44.866 0 41 0H7ZM16.0327 23.1536H7.59516V13.6502H16.0327V23.1536ZM28.1685 23.1536H19.731V9.90019H28.1685V23.1536ZM40.4048 23.1536H31.9673V5.60569H40.4048V23.1536Z" fill="#ACB1BF"/>
<path d="M34.7798 8.41821H37.5923V20.3411H34.7798V8.41821Z" fill="#E20613"/>
<path d="M11.5318 43.7108L10.0221 43.0885C9.17269 43.6511 8.1555 43.9799 7.06256 43.9799C5.96963 43.9799 4.95244 43.6511 4.10306 43.0885L2.59331 43.7108C1.01784 44.3601 0 45.8806 0 47.5844V48H14.125V47.5844C14.125 45.8806 13.1071 44.3601 11.5318 43.7108Z" fill="#E20613"/>
<path d="M28.4692 43.7108L26.9595 43.0885C26.1101 43.6511 25.0929 43.9799 24 43.9799C22.907 43.9799 21.8898 43.6511 21.0405 43.0885L19.5307 43.7108C17.9554 44.3601 16.9375 45.8806 16.9375 47.5844V48H31.0625V47.5844C31.0623 45.8806 30.0445 44.3601 28.4692 43.7108Z" fill="#E20613"/>
<path d="M26.6555 38.6054V37.6297C26.6555 36.1654 25.4642 34.974 23.9999 34.974C22.5356 34.974 21.3442 36.1653 21.3442 37.6297V38.6054C21.3442 40.0697 22.5356 41.2612 23.9999 41.2612C25.4642 41.2612 26.6555 40.0698 26.6555 38.6054Z" fill="#E20613"/>
<path d="M9.71829 38.6054V37.6297C9.71829 36.1654 8.52692 34.974 7.06264 34.974C5.59836 34.974 4.40698 36.1653 4.40698 37.6297V38.6054C4.40698 40.0697 5.59836 41.2612 7.06264 41.2612C8.52692 41.2612 9.71829 40.0698 9.71829 38.6054Z" fill="#E20613"/>
<path d="M45.407 43.7108L43.8401 43.065C42.9835 43.6424 41.9525 43.9799 40.844 43.9799C39.7666 43.9799 38.7631 43.6601 37.9211 43.1121L36.4685 43.7108C34.8931 44.3602 33.8752 45.8806 33.8752 47.5844V48H48.0002V47.5844C48.0002 45.8806 46.9823 44.3602 45.407 43.7108Z" fill="#E20613"/>
<path d="M43.4993 38.6054V37.6297C43.4993 36.1654 42.3079 34.974 40.8436 34.974C39.3794 34.974 38.188 36.1653 38.188 37.6297V38.6054C38.188 40.0697 39.3794 41.2612 40.8436 41.2612C42.3079 41.2612 43.4993 40.0698 43.4993 38.6054Z" fill="#E20613"/>
<path d="M64.792 23.552C64.792 21.888 65.152 20.408 65.872 19.112C66.592 17.8 67.592 16.784 68.872 16.064C70.168 15.328 71.632 14.96 73.264 14.96C75.264 14.96 76.976 15.488 78.4 16.544C79.824 17.6 80.776 19.04 81.256 20.864H76.744C76.408 20.16 75.928 19.624 75.304 19.256C74.696 18.888 74 18.704 73.216 18.704C71.952 18.704 70.928 19.144 70.144 20.024C69.36 20.904 68.968 22.08 68.968 23.552C68.968 25.024 69.36 26.2 70.144 27.08C70.928 27.96 71.952 28.4 73.216 28.4C74 28.4 74.696 28.216 75.304 27.848C75.928 27.48 76.408 26.944 76.744 26.24H81.256C80.776 28.064 79.824 29.504 78.4 30.56C76.976 31.6 75.264 32.12 73.264 32.12C71.632 32.12 70.168 31.76 68.872 31.04C67.592 30.304 66.592 29.288 65.872 27.992C65.152 26.696 64.792 25.216 64.792 23.552ZM89.8653 32.192C88.5533 32.192 87.3693 31.912 86.3133 31.352C85.2733 30.792 84.4493 29.992 83.8413 28.952C83.2493 27.912 82.9533 26.696 82.9533 25.304C82.9533 23.928 83.2573 22.72 83.8652 21.68C84.4733 20.624 85.3053 19.816 86.3613 19.256C87.4173 18.696 88.6013 18.416 89.9133 18.416C91.2253 18.416 92.4093 18.696 93.4653 19.256C94.5213 19.816 95.3533 20.624 95.9613 21.68C96.5693 22.72 96.8733 23.928 96.8733 25.304C96.8733 26.68 96.5613 27.896 95.9373 28.952C95.3293 29.992 94.4893 30.792 93.4173 31.352C92.3613 31.912 91.1773 32.192 89.8653 32.192ZM89.8653 28.64C90.6493 28.64 91.3133 28.352 91.8573 27.776C92.4173 27.2 92.6973 26.376 92.6973 25.304C92.6973 24.232 92.4253 23.408 91.8813 22.832C91.3533 22.256 90.6973 21.968 89.9133 21.968C89.1133 21.968 88.4493 22.256 87.9213 22.832C87.3933 23.392 87.1293 24.216 87.1293 25.304C87.1293 26.376 87.3853 27.2 87.8973 27.776C88.4253 28.352 89.0813 28.64 89.8653 28.64ZM107.211 18.464C108.779 18.464 110.027 18.976 110.955 20C111.899 21.008 112.371 22.4 112.371 24.176V32H108.291V24.728C108.291 23.832 108.059 23.136 107.595 22.64C107.131 22.144 106.507 21.896 105.723 21.896C104.939 21.896 104.315 22.144 103.851 22.64C103.387 23.136 103.155 23.832 103.155 24.728V32H99.0505V18.608H103.155V20.384C103.571 19.792 104.131 19.328 104.835 18.992C105.539 18.64 106.331 18.464 107.211 18.464ZM120.67 32.192C119.502 32.192 118.462 31.992 117.55 31.592C116.638 31.192 115.918 30.648 115.39 29.96C114.862 29.256 114.566 28.472 114.502 27.608H118.558C118.606 28.072 118.822 28.448 119.206 28.736C119.59 29.024 120.062 29.168 120.622 29.168C121.134 29.168 121.526 29.072 121.798 28.88C122.086 28.672 122.23 28.408 122.23 28.088C122.23 27.704 122.03 27.424 121.63 27.248C121.23 27.056 120.582 26.848 119.686 26.624C118.726 26.4 117.926 26.168 117.286 25.928C116.646 25.672 116.094 25.28 115.63 24.752C115.166 24.208 114.934 23.48 114.934 22.568C114.934 21.8 115.142 21.104 115.558 20.48C115.99 19.84 116.614 19.336 117.43 18.968C118.262 18.6 119.246 18.416 120.382 18.416C122.062 18.416 123.382 18.832 124.342 19.664C125.318 20.496 125.878 21.6 126.022 22.976H122.23C122.166 22.512 121.958 22.144 121.606 21.872C121.27 21.6 120.822 21.464 120.262 21.464C119.782 21.464 119.414 21.56 119.158 21.752C118.902 21.928 118.774 22.176 118.774 22.496C118.774 22.88 118.974 23.168 119.374 23.36C119.79 23.552 120.43 23.744 121.294 23.936C122.286 24.192 123.094 24.448 123.718 24.704C124.342 24.944 124.886 25.344 125.35 25.904C125.83 26.448 126.078 27.184 126.094 28.112C126.094 28.896 125.87 29.6 125.422 30.224C124.99 30.832 124.358 31.312 123.526 31.664C122.71 32.016 121.758 32.192 120.67 32.192ZM141.829 18.608V32H137.725V30.176C137.309 30.768 136.741 31.248 136.021 31.616C135.317 31.968 134.533 32.144 133.669 32.144C132.645 32.144 131.741 31.92 130.957 31.472C130.173 31.008 129.565 30.344 129.133 29.48C128.701 28.616 128.485 27.6 128.485 26.432V18.608H132.565V25.88C132.565 26.776 132.797 27.472 133.261 27.968C133.725 28.464 134.349 28.712 135.133 28.712C135.933 28.712 136.565 28.464 137.029 27.968C137.493 27.472 137.725 26.776 137.725 25.88V18.608H141.829ZM148.881 14.24V32H144.777V14.24H148.881ZM159.319 28.52V32H157.231C155.743 32 154.583 31.64 153.751 30.92C152.919 30.184 152.503 28.992 152.503 27.344V22.016H150.871V18.608H152.503V15.344H156.607V18.608H159.295V22.016H156.607V27.392C156.607 27.792 156.703 28.08 156.895 28.256C157.087 28.432 157.407 28.52 157.855 28.52H159.319ZM163.669 17.216C162.949 17.216 162.357 17.008 161.893 16.592C161.445 16.16 161.221 15.632 161.221 15.008C161.221 14.368 161.445 13.84 161.893 13.424C162.357 12.992 162.949 12.776 163.669 12.776C164.373 12.776 164.949 12.992 165.397 13.424C165.861 13.84 166.093 14.368 166.093 15.008C166.093 15.632 165.861 16.16 165.397 16.592C164.949 17.008 164.373 17.216 163.669 17.216ZM165.709 18.608V32H161.605V18.608H165.709ZM174.707 28.16L177.611 18.608H181.979L177.227 32H172.163L167.411 18.608H171.803L174.707 28.16ZM182.891 25.28C182.891 23.904 183.147 22.696 183.659 21.656C184.187 20.616 184.899 19.816 185.795 19.256C186.691 18.696 187.691 18.416 188.795 18.416C189.739 18.416 190.563 18.608 191.267 18.992C191.987 19.376 192.539 19.88 192.923 20.504V18.608H197.027V32H192.923V30.104C192.523 30.728 191.963 31.232 191.243 31.616C190.539 32 189.715 32.192 188.771 32.192C187.683 32.192 186.691 31.912 185.795 31.352C184.899 30.776 184.187 29.968 183.659 28.928C183.147 27.872 182.891 26.656 182.891 25.28ZM192.923 25.304C192.923 24.28 192.635 23.472 192.059 22.88C191.499 22.288 190.811 21.992 189.995 21.992C189.179 21.992 188.483 22.288 187.907 22.88C187.347 23.456 187.067 24.256 187.067 25.28C187.067 26.304 187.347 27.12 187.907 27.728C188.483 28.32 189.179 28.616 189.995 28.616C190.811 28.616 191.499 28.32 192.059 27.728C192.635 27.136 192.923 26.328 192.923 25.304Z" fill="#343843"/>
</svg>
