<svg width="195" height="48" viewBox="0 0 195 48" fill="none" xmlns="http://www.w3.org/2000/svg">
<g clip-path="url(#clip0)">
<path d="M32 27.7647C28.6213 27.7647 25.8823 30.5037 25.8823 33.8824C25.8823 37.2611 28.6213 40 32 40C35.3787 40 38.1176 37.2611 38.1176 33.8824C38.1176 30.5037 35.3787 27.7647 32 27.7647ZM31.3345 36.5444L28.6724 33.8824L30.0034 32.5513L31.3344 33.8824L33.9965 31.2203L35.3275 32.5513L31.3345 36.5444Z" fill="#E20613"/>
<path d="M24 33.8823C24 29.3108 27.8539 25.6273 32.4706 25.8966V13C32.4706 10.2386 30.2381 8 27.4767 8C23.7282 8 18.6238 8 14.8764 8C12.1149 8 9.88232 10.2386 9.88232 13V35C9.88232 37.7614 12.1209 40 14.8823 40H26.8512C25.1089 38.5314 24 36.334 24 33.8823ZM15.5294 26.8235H13.647V24.9412H15.5294V26.8235ZM15.5294 23.0588H13.647V21.1765H15.5294V23.0588ZM15.5294 19.2941H13.647V17.4118H15.5294V19.2941ZM15.5294 15.5294H13.647V13.6471H15.5294V15.5294ZM17.4117 13.6471H28.7059V15.5294C28.1235 15.5294 17.9939 15.5294 17.4117 15.5294C17.4117 14.8711 17.4117 14.3054 17.4117 13.6471ZM17.4117 17.4118H28.7059V19.2941C28.1235 19.2941 17.9939 19.2941 17.4117 19.2941C17.4117 18.6358 17.4117 18.0701 17.4117 17.4118ZM17.4117 21.1765H28.7059V23.0588C28.1235 23.0588 17.9939 23.0588 17.4117 23.0588C17.4117 22.4005 17.4117 21.8348 17.4117 21.1765ZM23.0588 26.8235C22.5017 26.8235 17.9629 26.8235 17.4117 26.8235C17.4117 26.1652 17.4117 25.5995 17.4117 24.9412H23.0588V26.8235Z" fill="#ACB1BF"/>
</g>
<path d="M54.194 19.83V22.386H58.316V24.762H54.194V27.534H58.856V30H51.116V17.364H58.856V19.83H54.194ZM65.7323 27.12L67.9103 19.956H71.1863L67.6223 30H63.8243L60.2603 19.956H63.5543L65.7323 27.12ZM72.2299 24.96C72.2299 23.928 72.4219 23.022 72.8059 22.242C73.2019 21.462 73.7359 20.862 74.4079 20.442C75.0799 20.022 75.8299 19.812 76.6579 19.812C77.3659 19.812 77.9839 19.956 78.5119 20.244C79.0519 20.532 79.4659 20.91 79.7539 21.378V19.956H82.8319V30H79.7539V28.578C79.4539 29.046 79.0339 29.424 78.4939 29.712C77.9659 30 77.3479 30.144 76.6399 30.144C75.8239 30.144 75.0799 29.934 74.4079 29.514C73.7359 29.082 73.2019 28.476 72.8059 27.696C72.4219 26.904 72.2299 25.992 72.2299 24.96ZM79.7539 24.978C79.7539 24.21 79.5379 23.604 79.1059 23.16C78.6859 22.716 78.1699 22.494 77.5579 22.494C76.9459 22.494 76.4239 22.716 75.9919 23.16C75.5719 23.592 75.3619 24.192 75.3619 24.96C75.3619 25.728 75.5719 26.34 75.9919 26.796C76.4239 27.24 76.9459 27.462 77.5579 27.462C78.1699 27.462 78.6859 27.24 79.1059 26.796C79.5379 26.352 79.7539 25.746 79.7539 24.978ZM88.4967 16.68V30H85.4187V16.68H88.4967ZM101.005 19.956V30H97.9272V28.632C97.6152 29.076 97.1892 29.436 96.6492 29.712C96.1212 29.976 95.5332 30.108 94.8852 30.108C94.1172 30.108 93.4392 29.94 92.8512 29.604C92.2632 29.256 91.8072 28.758 91.4832 28.11C91.1592 27.462 90.9972 26.7 90.9972 25.824V19.956H94.0572V25.41C94.0572 26.082 94.2312 26.604 94.5792 26.976C94.9272 27.348 95.3952 27.534 95.9832 27.534C96.5832 27.534 97.0572 27.348 97.4052 26.976C97.7532 26.604 97.9272 26.082 97.9272 25.41V19.956H101.005ZM102.964 24.96C102.964 23.928 103.156 23.022 103.54 22.242C103.936 21.462 104.47 20.862 105.142 20.442C105.814 20.022 106.564 19.812 107.392 19.812C108.1 19.812 108.718 19.956 109.246 20.244C109.786 20.532 110.2 20.91 110.488 21.378V19.956H113.566V30H110.488V28.578C110.188 29.046 109.768 29.424 109.228 29.712C108.7 30 108.082 30.144 107.374 30.144C106.558 30.144 105.814 29.934 105.142 29.514C104.47 29.082 103.936 28.476 103.54 27.696C103.156 26.904 102.964 25.992 102.964 24.96ZM110.488 24.978C110.488 24.21 110.272 23.604 109.84 23.16C109.42 22.716 108.904 22.494 108.292 22.494C107.68 22.494 107.158 22.716 106.726 23.16C106.306 23.592 106.096 24.192 106.096 24.96C106.096 25.728 106.306 26.34 106.726 26.796C107.158 27.24 107.68 27.462 108.292 27.462C108.904 27.462 109.42 27.24 109.84 26.796C110.272 26.352 110.488 25.746 110.488 24.978ZM121.751 27.39V30H120.185C119.069 30 118.199 29.73 117.575 29.19C116.951 28.638 116.639 27.744 116.639 26.508V22.512H115.415V19.956H116.639V17.508H119.717V19.956H121.733V22.512H119.717V26.544C119.717 26.844 119.789 27.06 119.933 27.192C120.077 27.324 120.317 27.39 120.653 27.39H121.751ZM125.373 18.912C124.833 18.912 124.389 18.756 124.041 18.444C123.705 18.12 123.537 17.724 123.537 17.256C123.537 16.776 123.705 16.38 124.041 16.068C124.389 15.744 124.833 15.582 125.373 15.582C125.901 15.582 126.333 15.744 126.669 16.068C127.017 16.38 127.191 16.776 127.191 17.256C127.191 17.724 127.017 18.12 126.669 18.444C126.333 18.756 125.901 18.912 125.373 18.912ZM126.903 19.956V30H123.825V19.956H126.903ZM134.012 27.12L136.19 19.956H139.466L135.902 30H132.104L128.54 19.956H131.834L134.012 27.12ZM140.51 24.96C140.51 23.928 140.702 23.022 141.086 22.242C141.482 21.462 142.016 20.862 142.688 20.442C143.36 20.022 144.11 19.812 144.938 19.812C145.646 19.812 146.264 19.956 146.792 20.244C147.332 20.532 147.746 20.91 148.034 21.378V19.956H151.112V30H148.034V28.578C147.734 29.046 147.314 29.424 146.774 29.712C146.246 30 145.628 30.144 144.92 30.144C144.104 30.144 143.36 29.934 142.688 29.514C142.016 29.082 141.482 28.476 141.086 27.696C140.702 26.904 140.51 25.992 140.51 24.96ZM148.034 24.978C148.034 24.21 147.818 23.604 147.386 23.16C146.966 22.716 146.45 22.494 145.838 22.494C145.226 22.494 144.704 22.716 144.272 23.16C143.852 23.592 143.642 24.192 143.642 24.96C143.642 25.728 143.852 26.34 144.272 26.796C144.704 27.24 145.226 27.462 145.838 27.462C146.45 27.462 146.966 27.24 147.386 26.796C147.818 26.352 148.034 25.746 148.034 24.978Z" fill="#343843"/>
<path d="M176.071 24L172.25 20.179C171.836 19.765 171.836 19.093 172.25 18.679C172.664 18.265 173.336 18.265 173.75 18.679L178.364 23.293C178.755 23.684 178.755 24.317 178.364 24.707L173.75 29.321C173.336 29.735 172.664 29.735 172.25 29.321C171.836 28.907 171.836 28.235 172.25 27.821L176.071 24Z" fill="#343843"/>
<defs>
<clipPath id="clip0">
<rect width="32" height="32" fill="white" transform="translate(8 8)"/>
</clipPath>
</defs>
</svg>
