<svg width="115" height="48" viewBox="0 0 115 48" fill="none" xmlns="http://www.w3.org/2000/svg">
<path d="M21.5868 26.6991L19.0275 24.1397L17.0381 26.1281L21.5868 30.6759L30.9618 21.3009L28.9725 19.3125L21.5868 26.6991Z" fill="#E20613"/>
<path d="M24 8.4375C15.4191 8.4375 8.4375 15.4191 8.4375 24C8.4375 32.5809 15.4191 39.5625 24 39.5625C32.5809 39.5625 39.5625 32.5809 39.5625 24C39.5625 15.4191 32.5809 8.4375 24 8.4375ZM21.5869 34.6538L13.0613 26.1281L19.0275 20.1619L21.5869 22.7213L28.9725 15.3347L34.9387 21.3009L21.5869 34.6538Z" fill="#E20613"/>
<path d="M40.9706 7.02938C36.4378 2.49656 30.4106 0 24 0C17.5894 0 11.5622 2.49656 7.02938 7.02938C2.49656 11.5622 0 17.5894 0 24C0 30.4106 2.49656 36.4378 7.02938 40.9706C11.5622 45.5034 17.5894 48 24 48C30.4106 48 36.4378 45.5034 40.9706 40.9706C45.5034 36.4378 48 30.4106 48 24C48 17.5894 45.5034 11.5622 40.9706 7.02938ZM24 42.375C13.8684 42.375 5.625 34.1316 5.625 24C5.625 13.8684 13.8684 5.625 24 5.625C34.1316 5.625 42.375 13.8684 42.375 24C42.375 34.1316 34.1316 42.375 24 42.375Z" fill="#ACB1BF"/>
<path d="M76.456 15.152V18.44H69.592V21.992H74.728V25.184H69.592V32H65.488V15.152H76.456ZM80.677 17.216C79.957 17.216 79.365 17.008 78.901 16.592C78.453 16.16 78.229 15.632 78.229 15.008C78.229 14.368 78.453 13.84 78.901 13.424C79.365 12.992 79.957 12.776 80.677 12.776C81.381 12.776 81.957 12.992 82.405 13.424C82.869 13.84 83.101 14.368 83.101 15.008C83.101 15.632 82.869 16.16 82.405 16.592C81.957 17.008 81.381 17.216 80.677 17.216ZM82.717 18.608V32H78.613V18.608H82.717ZM91.7151 28.16L94.6191 18.608H98.9871L94.2351 32H89.1711L84.4191 18.608H88.8111L91.7151 28.16ZM113.339 25.088C113.339 25.472 113.315 25.872 113.267 26.288H103.979C104.043 27.12 104.307 27.76 104.771 28.208C105.251 28.64 105.835 28.856 106.523 28.856C107.547 28.856 108.259 28.424 108.659 27.56H113.027C112.803 28.44 112.395 29.232 111.803 29.936C111.227 30.64 110.499 31.192 109.619 31.592C108.739 31.992 107.755 32.192 106.667 32.192C105.355 32.192 104.187 31.912 103.163 31.352C102.139 30.792 101.339 29.992 100.763 28.952C100.187 27.912 99.8986 26.696 99.8986 25.304C99.8986 23.912 100.179 22.696 100.739 21.656C101.315 20.616 102.115 19.816 103.139 19.256C104.163 18.696 105.339 18.416 106.667 18.416C107.963 18.416 109.115 18.688 110.123 19.232C111.131 19.776 111.915 20.552 112.475 21.56C113.051 22.568 113.339 23.744 113.339 25.088ZM109.139 24.008C109.139 23.304 108.899 22.744 108.419 22.328C107.939 21.912 107.339 21.704 106.619 21.704C105.931 21.704 105.347 21.904 104.867 22.304C104.403 22.704 104.115 23.272 104.003 24.008H109.139Z" fill="#343843"/>
</svg>
