<svg width="189" height="48" viewBox="0 0 189 48" fill="none" xmlns="http://www.w3.org/2000/svg">
<path d="M17.1429 30.8098V33.7664C18.6751 36.0708 21.2029 37.4322 24.0001 37.4322C26.7973 37.4322 29.3251 36.0708 30.8573 33.7664V30.8098C29.1008 32.664 26.6752 33.8125 24.0001 33.8125C21.325 33.8125 18.8994 32.664 17.1429 30.8098Z" fill="#ACB1BF"/>
<path d="M38.1881 19.4268C38.1881 18.3935 37.8054 17.4502 37.1751 16.7286H33.6997V23.5313H34.0836C36.3504 23.5313 38.1881 21.6937 38.1881 19.4268Z" fill="#ACB1BF"/>
<path d="M30.8872 16.7286H17.1129V23.5783C17.1129 27.6706 20.2024 31 24.0001 31C27.7977 31 30.8872 27.6707 30.8872 23.5783V16.7286Z" fill="#ACB1BF"/>
<path d="M14.3004 16.7286H10.825C10.1947 17.4502 9.81201 18.3935 9.81201 19.4268C9.81201 21.6937 11.6497 23.5313 13.9165 23.5313H14.3004V16.7286Z" fill="#ACB1BF"/>
<path d="M7.26758 48H11.1246V36.8514L7.26758 37.2291V48Z" fill="#E20613"/>
<path d="M0 44.8221V48H4.45509V37.9094C1.80966 39.1087 0 41.7708 0 44.8221Z" fill="#ACB1BF"/>
<path d="M43.5449 37.9094V48H48V44.8221C48 41.7708 46.1904 39.1087 43.5449 37.9094Z" fill="#ACB1BF"/>
<path d="M24 40.2447C20.7107 40.2447 17.6996 38.8402 15.6223 36.4111L13.9371 36.5761V48H34.0628V36.5761L32.3777 36.4111C30.3004 38.8402 27.2893 40.2447 24 40.2447Z" fill="#ACB1BF"/>
<path d="M36.8754 48H40.7324V37.2291L36.8754 36.8514V48Z" fill="#E20613"/>
<path d="M40.1383 11.1875H36.9788C35.8538 7.12912 32.8734 3.83456 29.0109 2.28066V11.1875H26.1984V0H21.8018V11.1875H18.9893V2.28066C15.1269 3.83466 12.1463 7.12922 11.0214 11.1876H7.86169V14.0001H40.1382V11.1875H40.1383Z" fill="#E20613"/>
<path d="M73.456 32.168C71.872 32.168 70.416 31.8 69.088 31.064C67.776 30.328 66.728 29.304 65.944 27.992C65.176 26.664 64.792 25.176 64.792 23.528C64.792 21.88 65.176 20.4 65.944 19.088C66.728 17.776 67.776 16.752 69.088 16.016C70.416 15.28 71.872 14.912 73.456 14.912C75.04 14.912 76.488 15.28 77.8 16.016C79.128 16.752 80.168 17.776 80.92 19.088C81.688 20.4 82.072 21.88 82.072 23.528C82.072 25.176 81.688 26.664 80.92 27.992C80.152 29.304 79.112 30.328 77.8 31.064C76.488 31.8 75.04 32.168 73.456 32.168ZM73.456 28.424C74.8 28.424 75.872 27.976 76.672 27.08C77.488 26.184 77.896 25 77.896 23.528C77.896 22.04 77.488 20.856 76.672 19.976C75.872 19.08 74.8 18.632 73.456 18.632C72.096 18.632 71.008 19.072 70.192 19.952C69.392 20.832 68.992 22.024 68.992 23.528C68.992 25.016 69.392 26.208 70.192 27.104C71.008 27.984 72.096 28.424 73.456 28.424ZM88.4592 20.504C88.8592 19.88 89.4112 19.376 90.1152 18.992C90.8192 18.608 91.6432 18.416 92.5872 18.416C93.6912 18.416 94.6912 18.696 95.5872 19.256C96.4832 19.816 97.1872 20.616 97.6992 21.656C98.2272 22.696 98.4912 23.904 98.4912 25.28C98.4912 26.656 98.2272 27.872 97.6992 28.928C97.1872 29.968 96.4832 30.776 95.5872 31.352C94.6912 31.912 93.6912 32.192 92.5872 32.192C91.6592 32.192 90.8352 32 90.1152 31.616C89.4112 31.232 88.8592 30.736 88.4592 30.128V38.384H84.3552V18.608H88.4592V20.504ZM94.3152 25.28C94.3152 24.256 94.0272 23.456 93.4512 22.88C92.8912 22.288 92.1952 21.992 91.3632 21.992C90.5472 21.992 89.8512 22.288 89.2752 22.88C88.7152 23.472 88.4352 24.28 88.4352 25.304C88.4352 26.328 88.7152 27.136 89.2752 27.728C89.8512 28.32 90.5472 28.616 91.3632 28.616C92.1792 28.616 92.8752 28.32 93.4512 27.728C94.0272 27.12 94.3152 26.304 94.3152 25.28ZM113.268 25.088C113.268 25.472 113.244 25.872 113.196 26.288H103.908C103.972 27.12 104.236 27.76 104.7 28.208C105.18 28.64 105.764 28.856 106.452 28.856C107.476 28.856 108.188 28.424 108.588 27.56H112.956C112.732 28.44 112.324 29.232 111.732 29.936C111.156 30.64 110.428 31.192 109.548 31.592C108.668 31.992 107.684 32.192 106.596 32.192C105.284 32.192 104.116 31.912 103.092 31.352C102.068 30.792 101.268 29.992 100.692 28.952C100.116 27.912 99.8283 26.696 99.8283 25.304C99.8283 23.912 100.108 22.696 100.668 21.656C101.244 20.616 102.044 19.816 103.068 19.256C104.092 18.696 105.268 18.416 106.596 18.416C107.892 18.416 109.044 18.688 110.052 19.232C111.06 19.776 111.844 20.552 112.404 21.56C112.98 22.568 113.268 23.744 113.268 25.088ZM109.068 24.008C109.068 23.304 108.828 22.744 108.348 22.328C107.868 21.912 107.268 21.704 106.548 21.704C105.86 21.704 105.276 21.904 104.796 22.304C104.332 22.704 104.044 23.272 103.932 24.008H109.068ZM119.537 20.84C120.017 20.104 120.617 19.528 121.337 19.112C122.057 18.68 122.857 18.464 123.737 18.464V22.808H122.609C121.585 22.808 120.817 23.032 120.305 23.48C119.793 23.912 119.537 24.68 119.537 25.784V32H115.433V18.608H119.537V20.84ZM124.883 25.28C124.883 23.904 125.139 22.696 125.651 21.656C126.179 20.616 126.891 19.816 127.787 19.256C128.683 18.696 129.683 18.416 130.787 18.416C131.731 18.416 132.555 18.608 133.259 18.992C133.979 19.376 134.531 19.88 134.915 20.504V18.608H139.019V32H134.915V30.104C134.515 30.728 133.955 31.232 133.235 31.616C132.531 32 131.707 32.192 130.763 32.192C129.675 32.192 128.683 31.912 127.787 31.352C126.891 30.776 126.179 29.968 125.651 28.928C125.139 27.872 124.883 26.656 124.883 25.28ZM134.915 25.304C134.915 24.28 134.627 23.472 134.051 22.88C133.491 22.288 132.803 21.992 131.987 21.992C131.171 21.992 130.475 22.288 129.899 22.88C129.339 23.456 129.059 24.256 129.059 25.28C129.059 26.304 129.339 27.12 129.899 27.728C130.475 28.32 131.171 28.616 131.987 28.616C132.803 28.616 133.491 28.32 134.051 27.728C134.627 27.136 134.915 26.328 134.915 25.304ZM149.452 28.52V32H147.364C145.876 32 144.716 31.64 143.884 30.92C143.052 30.184 142.636 28.992 142.636 27.344V22.016H141.004V18.608H142.636V15.344H146.74V18.608H149.428V22.016H146.74V27.392C146.74 27.792 146.836 28.08 147.028 28.256C147.22 28.432 147.54 28.52 147.988 28.52H149.452ZM153.802 17.216C153.082 17.216 152.49 17.008 152.026 16.592C151.578 16.16 151.354 15.632 151.354 15.008C151.354 14.368 151.578 13.84 152.026 13.424C152.49 12.992 153.082 12.776 153.802 12.776C154.506 12.776 155.082 12.992 155.53 13.424C155.994 13.84 156.226 14.368 156.226 15.008C156.226 15.632 155.994 16.16 155.53 16.592C155.082 17.008 154.506 17.216 153.802 17.216ZM155.842 18.608V32H151.738V18.608H155.842ZM164.84 28.16L167.744 18.608H172.112L167.36 32H162.296L157.544 18.608H161.936L164.84 28.16ZM173.024 25.28C173.024 23.904 173.28 22.696 173.792 21.656C174.32 20.616 175.032 19.816 175.928 19.256C176.824 18.696 177.824 18.416 178.928 18.416C179.872 18.416 180.696 18.608 181.4 18.992C182.12 19.376 182.672 19.88 183.056 20.504V18.608H187.16V32H183.056V30.104C182.656 30.728 182.096 31.232 181.376 31.616C180.672 32 179.848 32.192 178.904 32.192C177.816 32.192 176.824 31.912 175.928 31.352C175.032 30.776 174.32 29.968 173.792 28.928C173.28 27.872 173.024 26.656 173.024 25.28ZM183.056 25.304C183.056 24.28 182.768 23.472 182.192 22.88C181.632 22.288 180.944 21.992 180.128 21.992C179.312 21.992 178.616 22.288 178.04 22.88C177.48 23.456 177.2 24.256 177.2 25.28C177.2 26.304 177.48 27.12 178.04 27.728C178.616 28.32 179.312 28.616 180.128 28.616C180.944 28.616 181.632 28.32 182.192 27.728C182.768 27.136 183.056 26.328 183.056 25.304Z" fill="#343843"/>
</svg>
