<svg width="185" height="48" viewBox="0 0 185 48" fill="none" xmlns="http://www.w3.org/2000/svg">
<path d="M22.3828 19.0364C22.3828 18.1202 21.6374 17.3749 20.7211 17.3749C19.8048 17.3749 19.0593 18.1202 19.0593 19.0364C19.0593 19.9525 19.8048 20.6978 20.7211 20.6978C21.6374 20.6978 22.3828 19.9525 22.3828 19.0364Z" fill="#E20613"/>
<path d="M16.0118 26.0196V25.4062C16.0118 23.7573 16.8647 22.3046 18.1518 21.4633C17.5526 20.8295 17.1839 19.9755 17.1839 19.0365C17.1839 17.0865 18.7706 15.5001 20.721 15.5001C22.6713 15.5001 24.2581 17.0865 24.2581 19.0365C24.2581 19.9755 23.8895 20.8295 23.2901 21.4633C24.5772 22.3046 25.4302 23.7573 25.4302 25.4062V26.0197C26.8929 24.7193 27.816 22.825 27.816 20.7187C27.816 16.8072 24.6332 13.625 20.721 13.625C16.8088 13.625 13.626 16.8072 13.626 20.7187C13.626 22.8249 14.5492 24.7193 16.0118 26.0196Z" fill="#E20613"/>
<path d="M23.5548 25.4062C23.5548 23.8439 22.2836 22.5729 20.721 22.5729C19.1584 22.5729 17.8872 23.8439 17.8872 25.4062V27.2213C18.7557 27.6011 19.7141 27.8124 20.721 27.8124C21.728 27.8124 22.6864 27.6011 23.5548 27.2213V25.4062Z" fill="#E20613"/>
<path d="M30.374 34.3527L34.3516 30.3758L39.9999 36.0232L36.0224 40L30.374 34.3527Z" fill="#ACB1BF"/>
<path d="M33.0313 29.0493L31.4796 27.4979C32.7219 25.5342 33.4421 23.2091 33.4421 20.7187C33.4421 13.7056 27.7354 8 20.721 8C13.7066 8 8 13.7056 8 20.7187C8 27.7318 13.7066 33.4374 20.721 33.4374C23.2118 33.4374 25.5374 32.7174 27.5014 31.4754L29.0531 33.0267L33.0313 29.0493ZM20.721 11.75C25.6673 11.75 29.6914 15.7733 29.6914 20.7187C29.6914 25.6641 25.6673 29.6874 20.721 29.6874C15.7748 29.6874 11.7507 25.6641 11.7507 20.7187C11.7507 15.7733 15.7748 11.75 20.721 11.75Z" fill="#ACB1BF"/>
<path d="M55.688 30.126C54.764 30.126 53.936 29.976 53.204 29.676C52.472 29.376 51.884 28.932 51.44 28.344C51.008 27.756 50.78 27.048 50.756 26.22H54.032C54.08 26.688 54.242 27.048 54.518 27.3C54.794 27.54 55.154 27.66 55.598 27.66C56.054 27.66 56.414 27.558 56.678 27.354C56.942 27.138 57.074 26.844 57.074 26.472C57.074 26.16 56.966 25.902 56.75 25.698C56.546 25.494 56.288 25.326 55.976 25.194C55.676 25.062 55.244 24.912 54.68 24.744C53.864 24.492 53.198 24.24 52.682 23.988C52.166 23.736 51.722 23.364 51.35 22.872C50.978 22.38 50.792 21.738 50.792 20.946C50.792 19.77 51.218 18.852 52.07 18.192C52.922 17.52 54.032 17.184 55.4 17.184C56.792 17.184 57.914 17.52 58.766 18.192C59.618 18.852 60.074 19.776 60.134 20.964H56.804C56.78 20.556 56.63 20.238 56.354 20.01C56.078 19.77 55.724 19.65 55.292 19.65C54.92 19.65 54.62 19.752 54.392 19.956C54.164 20.148 54.05 20.43 54.05 20.802C54.05 21.21 54.242 21.528 54.626 21.756C55.01 21.984 55.61 22.23 56.426 22.494C57.242 22.77 57.902 23.034 58.406 23.286C58.922 23.538 59.366 23.904 59.738 24.384C60.11 24.864 60.296 25.482 60.296 26.238C60.296 26.958 60.11 27.612 59.738 28.2C59.378 28.788 58.85 29.256 58.154 29.604C57.458 29.952 56.636 30.126 55.688 30.126ZM72.0182 24.816C72.0182 25.104 72.0002 25.404 71.9642 25.716H64.9982C65.0462 26.34 65.2442 26.82 65.5922 27.156C65.9522 27.48 66.3902 27.642 66.9062 27.642C67.6742 27.642 68.2082 27.318 68.5082 26.67H71.7842C71.6162 27.33 71.3102 27.924 70.8662 28.452C70.4342 28.98 69.8882 29.394 69.2282 29.694C68.5682 29.994 67.8302 30.144 67.0142 30.144C66.0302 30.144 65.1542 29.934 64.3862 29.514C63.6182 29.094 63.0182 28.494 62.5862 27.714C62.1542 26.934 61.9382 26.022 61.9382 24.978C61.9382 23.934 62.1482 23.022 62.5682 22.242C63.0002 21.462 63.6002 20.862 64.3682 20.442C65.1362 20.022 66.0182 19.812 67.0142 19.812C67.9862 19.812 68.8502 20.016 69.6062 20.424C70.3622 20.832 70.9502 21.414 71.3702 22.17C71.8022 22.926 72.0182 23.808 72.0182 24.816ZM68.8682 24.006C68.8682 23.478 68.6882 23.058 68.3282 22.746C67.9682 22.434 67.5182 22.278 66.9782 22.278C66.4622 22.278 66.0242 22.428 65.6642 22.728C65.3162 23.028 65.1002 23.454 65.0162 24.006H68.8682ZM77.08 16.68V30H74.002V16.68H77.08ZM89.1386 24.816C89.1386 25.104 89.1206 25.404 89.0846 25.716H82.1186C82.1666 26.34 82.3646 26.82 82.7126 27.156C83.0726 27.48 83.5106 27.642 84.0266 27.642C84.7946 27.642 85.3286 27.318 85.6286 26.67H88.9046C88.7366 27.33 88.4306 27.924 87.9866 28.452C87.5546 28.98 87.0086 29.394 86.3486 29.694C85.6886 29.994 84.9506 30.144 84.1346 30.144C83.1506 30.144 82.2746 29.934 81.5066 29.514C80.7386 29.094 80.1386 28.494 79.7066 27.714C79.2746 26.934 79.0586 26.022 79.0586 24.978C79.0586 23.934 79.2686 23.022 79.6886 22.242C80.1206 21.462 80.7206 20.862 81.4886 20.442C82.2566 20.022 83.1386 19.812 84.1346 19.812C85.1066 19.812 85.9706 20.016 86.7266 20.424C87.4826 20.832 88.0706 21.414 88.4906 22.17C88.9226 22.926 89.1386 23.808 89.1386 24.816ZM85.9886 24.006C85.9886 23.478 85.8086 23.058 85.4486 22.746C85.0886 22.434 84.6386 22.278 84.0986 22.278C83.5826 22.278 83.1446 22.428 82.7846 22.728C82.4366 23.028 82.2206 23.454 82.1366 24.006H85.9886ZM90.5104 24.978C90.5104 23.934 90.7204 23.022 91.1404 22.242C91.5724 21.462 92.1664 20.862 92.9224 20.442C93.6904 20.022 94.5664 19.812 95.5504 19.812C96.8104 19.812 97.8604 20.142 98.7004 20.802C99.5524 21.462 100.11 22.392 100.374 23.592H97.0984C96.8224 22.824 96.2884 22.44 95.4964 22.44C94.9324 22.44 94.4824 22.662 94.1464 23.106C93.8104 23.538 93.6424 24.162 93.6424 24.978C93.6424 25.794 93.8104 26.424 94.1464 26.868C94.4824 27.3 94.9324 27.516 95.4964 27.516C96.2884 27.516 96.8224 27.132 97.0984 26.364H100.374C100.11 27.54 99.5524 28.464 98.7004 29.136C97.8484 29.808 96.7984 30.144 95.5504 30.144C94.5664 30.144 93.6904 29.934 92.9224 29.514C92.1664 29.094 91.5724 28.494 91.1404 27.714C90.7204 26.934 90.5104 26.022 90.5104 24.978ZM101.769 24.978C101.769 23.934 101.979 23.022 102.399 22.242C102.831 21.462 103.425 20.862 104.181 20.442C104.949 20.022 105.825 19.812 106.809 19.812C108.069 19.812 109.119 20.142 109.959 20.802C110.811 21.462 111.369 22.392 111.633 23.592H108.357C108.081 22.824 107.547 22.44 106.755 22.44C106.191 22.44 105.741 22.662 105.405 23.106C105.069 23.538 104.901 24.162 104.901 24.978C104.901 25.794 105.069 26.424 105.405 26.868C105.741 27.3 106.191 27.516 106.755 27.516C107.547 27.516 108.081 27.132 108.357 26.364H111.633C111.369 27.54 110.811 28.464 109.959 29.136C109.107 29.808 108.057 30.144 106.809 30.144C105.825 30.144 104.949 29.934 104.181 29.514C103.425 29.094 102.831 28.494 102.399 27.714C101.979 26.934 101.769 26.022 101.769 24.978ZM115.187 18.912C114.647 18.912 114.203 18.756 113.855 18.444C113.519 18.12 113.351 17.724 113.351 17.256C113.351 16.776 113.519 16.38 113.855 16.068C114.203 15.744 114.647 15.582 115.187 15.582C115.715 15.582 116.147 15.744 116.483 16.068C116.831 16.38 117.005 16.776 117.005 17.256C117.005 17.724 116.831 18.12 116.483 18.444C116.147 18.756 115.715 18.912 115.187 18.912ZM116.717 19.956V30H113.639V19.956H116.717ZM123.88 30.144C122.896 30.144 122.008 29.934 121.216 29.514C120.436 29.094 119.818 28.494 119.362 27.714C118.918 26.934 118.696 26.022 118.696 24.978C118.696 23.946 118.924 23.04 119.38 22.26C119.836 21.468 120.46 20.862 121.252 20.442C122.044 20.022 122.932 19.812 123.916 19.812C124.9 19.812 125.788 20.022 126.58 20.442C127.372 20.862 127.996 21.468 128.452 22.26C128.908 23.04 129.136 23.946 129.136 24.978C129.136 26.01 128.902 26.922 128.434 27.714C127.978 28.494 127.348 29.094 126.544 29.514C125.752 29.934 124.864 30.144 123.88 30.144ZM123.88 27.48C124.468 27.48 124.966 27.264 125.374 26.832C125.794 26.4 126.004 25.782 126.004 24.978C126.004 24.174 125.8 23.556 125.392 23.124C124.996 22.692 124.504 22.476 123.916 22.476C123.316 22.476 122.818 22.692 122.422 23.124C122.026 23.544 121.828 24.162 121.828 24.978C121.828 25.782 122.02 26.4 122.404 26.832C122.8 27.264 123.292 27.48 123.88 27.48ZM126.256 17.382L121.918 19.2V17.076L126.256 14.988V17.382ZM137.249 19.848C138.425 19.848 139.361 20.232 140.057 21C140.765 21.756 141.119 22.8 141.119 24.132V30H138.059V24.546C138.059 23.874 137.885 23.352 137.537 22.98C137.189 22.608 136.721 22.422 136.133 22.422C135.545 22.422 135.077 22.608 134.729 22.98C134.381 23.352 134.207 23.874 134.207 24.546V30H131.129V19.956H134.207V21.288C134.519 20.844 134.939 20.496 135.467 20.244C135.995 19.98 136.589 19.848 137.249 19.848Z" fill="#343843"/>
<path d="M166.071 24L162.25 20.179C161.836 19.765 161.836 19.093 162.25 18.679C162.664 18.265 163.336 18.265 163.75 18.679L168.364 23.293C168.755 23.684 168.755 24.317 168.364 24.707L163.75 29.321C163.336 29.735 162.664 29.735 162.25 29.321C161.836 28.907 161.836 28.235 162.25 27.821L166.071 24Z" fill="#343843"/>
</svg>
