<svg width="130" height="40" viewBox="0 0 130 40" fill="none" xmlns="http://www.w3.org/2000/svg">
<path d="M20.978 13.364L16.496 26H12.644L8.162 13.364H11.438L14.57 22.904L17.72 13.364H20.978ZM32.0924 20.816C32.0924 21.104 32.0744 21.404 32.0384 21.716H25.0724C25.1204 22.34 25.3184 22.82 25.6664 23.156C26.0264 23.48 26.4644 23.642 26.9804 23.642C27.7484 23.642 28.2824 23.318 28.5824 22.67H31.8584C31.6904 23.33 31.3844 23.924 30.9404 24.452C30.5084 24.98 29.9624 25.394 29.3024 25.694C28.6424 25.994 27.9044 26.144 27.0884 26.144C26.1044 26.144 25.2284 25.934 24.4604 25.514C23.6924 25.094 23.0924 24.494 22.6604 23.714C22.2284 22.934 22.0124 22.022 22.0124 20.978C22.0124 19.934 22.2224 19.022 22.6424 18.242C23.0744 17.462 23.6744 16.862 24.4424 16.442C25.2104 16.022 26.0924 15.812 27.0884 15.812C28.0604 15.812 28.9244 16.016 29.6804 16.424C30.4364 16.832 31.0244 17.414 31.4444 18.17C31.8764 18.926 32.0924 19.808 32.0924 20.816ZM28.9424 20.006C28.9424 19.478 28.7624 19.058 28.4024 18.746C28.0424 18.434 27.5924 18.278 27.0524 18.278C26.5364 18.278 26.0984 18.428 25.7384 18.728C25.3904 19.028 25.1744 19.454 25.0904 20.006H28.9424ZM37.1542 17.63C37.5142 17.078 37.9642 16.646 38.5042 16.334C39.0442 16.01 39.6442 15.848 40.3042 15.848V19.106H39.4582C38.6902 19.106 38.1142 19.274 37.7302 19.61C37.3462 19.934 37.1542 20.51 37.1542 21.338V26H34.0762V15.956H37.1542V17.63ZM59.1259 15.848C60.3739 15.848 61.3639 16.226 62.0959 16.982C62.8399 17.738 63.2119 18.788 63.2119 20.132V26H60.1519V20.546C60.1519 19.898 59.9779 19.4 59.6299 19.052C59.2939 18.692 58.8259 18.512 58.2259 18.512C57.6259 18.512 57.1519 18.692 56.8039 19.052C56.4679 19.4 56.2999 19.898 56.2999 20.546V26H53.2399V20.546C53.2399 19.898 53.0659 19.4 52.7179 19.052C52.3819 18.692 51.9139 18.512 51.3139 18.512C50.7139 18.512 50.2399 18.692 49.8919 19.052C49.5559 19.4 49.3879 19.898 49.3879 20.546V26H46.3099V15.956H49.3879V17.216C49.6999 16.796 50.1079 16.466 50.6119 16.226C51.1159 15.974 51.6859 15.848 52.3219 15.848C53.0779 15.848 53.7499 16.01 54.3379 16.334C54.9379 16.658 55.4059 17.12 55.7419 17.72C56.0899 17.168 56.5639 16.718 57.1639 16.37C57.7639 16.022 58.4179 15.848 59.1259 15.848ZM65.1126 20.96C65.1126 19.928 65.3046 19.022 65.6886 18.242C66.0846 17.462 66.6186 16.862 67.2906 16.442C67.9626 16.022 68.7126 15.812 69.5406 15.812C70.2486 15.812 70.8666 15.956 71.3946 16.244C71.9346 16.532 72.3486 16.91 72.6366 17.378V15.956H75.7146V26H72.6366V24.578C72.3366 25.046 71.9166 25.424 71.3766 25.712C70.8486 26 70.2306 26.144 69.5226 26.144C68.7066 26.144 67.9626 25.934 67.2906 25.514C66.6186 25.082 66.0846 24.476 65.6886 23.696C65.3046 22.904 65.1126 21.992 65.1126 20.96ZM72.6366 20.978C72.6366 20.21 72.4206 19.604 71.9886 19.16C71.5686 18.716 71.0526 18.494 70.4406 18.494C69.8286 18.494 69.3066 18.716 68.8746 19.16C68.4546 19.592 68.2446 20.192 68.2446 20.96C68.2446 21.728 68.4546 22.34 68.8746 22.796C69.3066 23.24 69.8286 23.462 70.4406 23.462C71.0526 23.462 71.5686 23.24 71.9886 22.796C72.4206 22.352 72.6366 21.746 72.6366 20.978ZM72.8706 13.454L68.5326 15.272V13.148L72.8706 11.06V13.454ZM82.3874 26.144C81.5114 26.144 80.7314 25.994 80.0474 25.694C79.3634 25.394 78.8234 24.986 78.4274 24.47C78.0314 23.942 77.8094 23.354 77.7614 22.706H80.8034C80.8394 23.054 81.0014 23.336 81.2894 23.552C81.5774 23.768 81.9314 23.876 82.3514 23.876C82.7354 23.876 83.0294 23.804 83.2334 23.66C83.4494 23.504 83.5574 23.306 83.5574 23.066C83.5574 22.778 83.4074 22.568 83.1074 22.436C82.8074 22.292 82.3214 22.136 81.6494 21.968C80.9294 21.8 80.3294 21.626 79.8494 21.446C79.3694 21.254 78.9554 20.96 78.6074 20.564C78.2594 20.156 78.0854 19.61 78.0854 18.926C78.0854 18.35 78.2414 17.828 78.5534 17.36C78.8774 16.88 79.3454 16.502 79.9574 16.226C80.5814 15.95 81.3194 15.812 82.1714 15.812C83.4314 15.812 84.4214 16.124 85.1414 16.748C85.8734 17.372 86.2934 18.2 86.4014 19.232H83.5574C83.5094 18.884 83.3534 18.608 83.0894 18.404C82.8374 18.2 82.5014 18.098 82.0814 18.098C81.7214 18.098 81.4454 18.17 81.2534 18.314C81.0614 18.446 80.9654 18.632 80.9654 18.872C80.9654 19.16 81.1154 19.376 81.4154 19.52C81.7274 19.664 82.2074 19.808 82.8554 19.952C83.5994 20.144 84.2054 20.336 84.6734 20.528C85.1414 20.708 85.5494 21.008 85.8974 21.428C86.2574 21.836 86.4434 22.388 86.4554 23.084C86.4554 23.672 86.2874 24.2 85.9514 24.668C85.6274 25.124 85.1534 25.484 84.5294 25.748C83.9174 26.012 83.2034 26.144 82.3874 26.144Z" fill="#343843"/>
<path d="M111.071 20.0002L107.25 16.1792C106.836 15.7652 106.836 15.0932 107.25 14.6792C107.664 14.2652 108.336 14.2652 108.75 14.6792L113.364 19.2932C113.755 19.6842 113.755 20.3172 113.364 20.7072L108.75 25.3212C108.336 25.7352 107.664 25.7352 107.25 25.3212C106.836 24.9072 106.836 24.2352 107.25 23.8212L111.071 20.0002Z" fill="#343843"/>
</svg>
