<svg width="209" height="48" viewBox="0 0 209 48" fill="none" xmlns="http://www.w3.org/2000/svg">
<g clip-path="url(#clip0)">
<path d="M11.2078 19.3932H37.7919V22.2415H11.2078V19.3932Z" fill="#E20613"/>
<path d="M11.2078 26.5336L21.6515 33.8424V40L27.3482 38.4176V33.8424L37.7919 26.5336V24.1404H11.2078V26.5336Z" fill="#ACB1BF"/>
<path d="M28.5858 14.3868C28.1518 13.9646 27.659 13.6196 27.1259 13.3556C27.5622 12.7933 27.8229 12.0883 27.8229 11.323C27.8229 9.49068 26.3321 8 24.4998 8C22.6675 8 21.1768 9.49068 21.1768 11.323C21.1768 12.0883 21.4375 12.7933 21.8738 13.3557C21.3406 13.6196 20.8479 13.9646 20.4139 14.3868C19.543 15.2341 18.9835 16.3141 18.7876 17.4943H30.2121C30.0161 16.3141 29.4566 15.2341 28.5858 14.3868Z" fill="#E20613"/>
</g>
<path d="M63.478 17.364L58.996 30H55.144L50.662 17.364H53.938L57.07 26.904L60.22 17.364H63.478ZM74.5924 24.816C74.5924 25.104 74.5744 25.404 74.5384 25.716H67.5724C67.6204 26.34 67.8184 26.82 68.1664 27.156C68.5264 27.48 68.9644 27.642 69.4804 27.642C70.2484 27.642 70.7824 27.318 71.0824 26.67H74.3584C74.1904 27.33 73.8844 27.924 73.4404 28.452C73.0084 28.98 72.4624 29.394 71.8024 29.694C71.1424 29.994 70.4044 30.144 69.5884 30.144C68.6044 30.144 67.7284 29.934 66.9604 29.514C66.1924 29.094 65.5924 28.494 65.1604 27.714C64.7284 26.934 64.5124 26.022 64.5124 24.978C64.5124 23.934 64.7224 23.022 65.1424 22.242C65.5744 21.462 66.1744 20.862 66.9424 20.442C67.7104 20.022 68.5924 19.812 69.5884 19.812C70.5604 19.812 71.4244 20.016 72.1804 20.424C72.9364 20.832 73.5244 21.414 73.9444 22.17C74.3764 22.926 74.5924 23.808 74.5924 24.816ZM71.4424 24.006C71.4424 23.478 71.2624 23.058 70.9024 22.746C70.5424 22.434 70.0924 22.278 69.5524 22.278C69.0364 22.278 68.5984 22.428 68.2384 22.728C67.8904 23.028 67.6744 23.454 67.5904 24.006H71.4424ZM79.6542 21.63C80.0142 21.078 80.4642 20.646 81.0042 20.334C81.5442 20.01 82.1442 19.848 82.8042 19.848V23.106H81.9582C81.1902 23.106 80.6142 23.274 80.2302 23.61C79.8462 23.934 79.6542 24.51 79.6542 25.338V30H76.5762V19.956H79.6542V21.63ZM86.1835 18.912C85.6435 18.912 85.1995 18.756 84.8515 18.444C84.5155 18.12 84.3475 17.724 84.3475 17.256C84.3475 16.776 84.5155 16.38 84.8515 16.068C85.1995 15.744 85.6435 15.582 86.1835 15.582C86.7115 15.582 87.1435 15.744 87.4795 16.068C87.8275 16.38 88.0015 16.776 88.0015 17.256C88.0015 17.724 87.8275 18.12 87.4795 18.444C87.1435 18.756 86.7115 18.912 86.1835 18.912ZM87.7135 19.956V30H84.6355V19.956H87.7135ZM95.344 22.512H93.688V30H90.61V22.512H89.494V19.956H90.61V19.668C90.61 18.432 90.964 17.496 91.672 16.86C92.38 16.212 93.418 15.888 94.786 15.888C95.014 15.888 95.182 15.894 95.29 15.906V18.516C94.702 18.48 94.288 18.564 94.048 18.768C93.808 18.972 93.688 19.338 93.688 19.866V19.956H95.344V22.512ZM98.6984 18.912C98.1584 18.912 97.7144 18.756 97.3664 18.444C97.0304 18.12 96.8624 17.724 96.8624 17.256C96.8624 16.776 97.0304 16.38 97.3664 16.068C97.7144 15.744 98.1584 15.582 98.6984 15.582C99.2264 15.582 99.6584 15.744 99.9944 16.068C100.342 16.38 100.516 16.776 100.516 17.256C100.516 17.724 100.342 18.12 99.9944 18.444C99.6584 18.756 99.2264 18.912 98.6984 18.912ZM100.228 19.956V30H97.1504V19.956H100.228ZM102.207 24.978C102.207 23.934 102.417 23.022 102.837 22.242C103.269 21.462 103.863 20.862 104.619 20.442C105.387 20.022 106.263 19.812 107.247 19.812C108.507 19.812 109.557 20.142 110.397 20.802C111.249 21.462 111.807 22.392 112.071 23.592H108.795C108.519 22.824 107.985 22.44 107.193 22.44C106.629 22.44 106.179 22.662 105.843 23.106C105.507 23.538 105.339 24.162 105.339 24.978C105.339 25.794 105.507 26.424 105.843 26.868C106.179 27.3 106.629 27.516 107.193 27.516C107.985 27.516 108.519 27.132 108.795 26.364H112.071C111.807 27.54 111.249 28.464 110.397 29.136C109.545 29.808 108.495 30.144 107.247 30.144C106.263 30.144 105.387 29.934 104.619 29.514C103.863 29.094 103.269 28.494 102.837 27.714C102.417 26.934 102.207 26.022 102.207 24.978ZM113.465 24.96C113.465 23.928 113.657 23.022 114.041 22.242C114.437 21.462 114.971 20.862 115.643 20.442C116.315 20.022 117.065 19.812 117.893 19.812C118.601 19.812 119.219 19.956 119.747 20.244C120.287 20.532 120.701 20.91 120.989 21.378V19.956H124.067V30H120.989V28.578C120.689 29.046 120.269 29.424 119.729 29.712C119.201 30 118.583 30.144 117.875 30.144C117.059 30.144 116.315 29.934 115.643 29.514C114.971 29.082 114.437 28.476 114.041 27.696C113.657 26.904 113.465 25.992 113.465 24.96ZM120.989 24.978C120.989 24.21 120.773 23.604 120.341 23.16C119.921 22.716 119.405 22.494 118.793 22.494C118.181 22.494 117.659 22.716 117.227 23.16C116.807 23.592 116.597 24.192 116.597 24.96C116.597 25.728 116.807 26.34 117.227 26.796C117.659 27.24 118.181 27.462 118.793 27.462C119.405 27.462 119.921 27.24 120.341 26.796C120.773 26.352 120.989 25.746 120.989 24.978ZM126.042 24.978C126.042 23.934 126.252 23.022 126.672 22.242C127.104 21.462 127.698 20.862 128.454 20.442C129.222 20.022 130.098 19.812 131.082 19.812C132.342 19.812 133.392 20.142 134.232 20.802C135.084 21.462 135.642 22.392 135.906 23.592H132.63C132.354 22.824 131.82 22.44 131.028 22.44C130.464 22.44 130.014 22.662 129.678 23.106C129.342 23.538 129.174 24.162 129.174 24.978C129.174 25.794 129.342 26.424 129.678 26.868C130.014 27.3 130.464 27.516 131.028 27.516C131.82 27.516 132.354 27.132 132.63 26.364H135.906C135.642 27.54 135.084 28.464 134.232 29.136C133.38 29.808 132.33 30.144 131.082 30.144C130.098 30.144 129.222 29.934 128.454 29.514C127.698 29.094 127.104 28.494 126.672 27.714C126.252 26.934 126.042 26.022 126.042 24.978ZM139.461 18.912C138.921 18.912 138.477 18.756 138.129 18.444C137.793 18.12 137.625 17.724 137.625 17.256C137.625 16.776 137.793 16.38 138.129 16.068C138.477 15.744 138.921 15.582 139.461 15.582C139.989 15.582 140.421 15.744 140.757 16.068C141.105 16.38 141.279 16.776 141.279 17.256C141.279 17.724 141.105 18.12 140.757 18.444C140.421 18.756 139.989 18.912 139.461 18.912ZM140.991 19.956V30H137.913V19.956H140.991ZM148.153 30.144C147.169 30.144 146.281 29.934 145.489 29.514C144.709 29.094 144.091 28.494 143.635 27.714C143.191 26.934 142.969 26.022 142.969 24.978C142.969 23.946 143.197 23.04 143.653 22.26C144.109 21.468 144.733 20.862 145.525 20.442C146.317 20.022 147.205 19.812 148.189 19.812C149.173 19.812 150.061 20.022 150.853 20.442C151.645 20.862 152.269 21.468 152.725 22.26C153.181 23.04 153.409 23.946 153.409 24.978C153.409 26.01 153.175 26.922 152.707 27.714C152.251 28.494 151.621 29.094 150.817 29.514C150.025 29.934 149.137 30.144 148.153 30.144ZM148.153 27.48C148.741 27.48 149.239 27.264 149.647 26.832C150.067 26.4 150.277 25.782 150.277 24.978C150.277 24.174 150.073 23.556 149.665 23.124C149.269 22.692 148.777 22.476 148.189 22.476C147.589 22.476 147.091 22.692 146.695 23.124C146.299 23.544 146.101 24.162 146.101 24.978C146.101 25.782 146.293 26.4 146.677 26.832C147.073 27.264 147.565 27.48 148.153 27.48ZM150.529 17.382L146.191 19.2V17.076L150.529 14.988V17.382ZM161.522 19.848C162.698 19.848 163.634 20.232 164.33 21C165.038 21.756 165.392 22.8 165.392 24.132V30H162.332V24.546C162.332 23.874 162.158 23.352 161.81 22.98C161.462 22.608 160.994 22.422 160.406 22.422C159.818 22.422 159.35 22.608 159.002 22.98C158.654 23.352 158.48 23.874 158.48 24.546V30H155.402V19.956H158.48V21.288C158.792 20.844 159.212 20.496 159.74 20.244C160.268 19.98 160.862 19.848 161.522 19.848Z" fill="#343843"/>
<path d="M189.571 24L185.75 20.179C185.336 19.765 185.336 19.093 185.75 18.679C186.164 18.265 186.836 18.265 187.25 18.679L191.864 23.293C192.255 23.684 192.255 24.317 191.864 24.707L187.25 29.321C186.836 29.735 186.164 29.735 185.75 29.321C185.336 28.907 185.336 28.235 185.75 27.821L189.571 24Z" fill="#343843"/>
<defs>
<clipPath id="clip0">
<rect width="32" height="32" fill="white" transform="translate(8.5 8)"/>
</clipPath>
</defs>
</svg>
